G75*
%MOIN*%
%OFA0B0*%
%FSLAX25Y25*%
%IPPOS*%
%LPD*%
%AMOC8*
5,1,8,0,0,1.08239X$1,22.5*
%
%ADD10C,0.07300*%
%ADD11C,0.08200*%
%ADD12C,0.17398*%
%ADD13C,0.17000*%
%ADD14C,0.07200*%
D10*
X0086000Y0081000D03*
X0086000Y0091000D03*
X0106000Y0091000D03*
X0106000Y0081000D03*
D11*
X0136000Y0061000D03*
X0146000Y0061000D03*
X0156000Y0061000D03*
X0156000Y0051000D03*
X0146000Y0051000D03*
X0136000Y0051000D03*
X0231000Y0111000D03*
X0261000Y0111000D03*
X0251000Y0141000D03*
X0241000Y0141000D03*
X0196000Y0156000D03*
X0196000Y0166000D03*
X0196000Y0176000D03*
X0196000Y0186000D03*
X0196000Y0196000D03*
X0196000Y0206000D03*
X0196000Y0216000D03*
X0196000Y0226000D03*
X0231000Y0226000D03*
X0261000Y0226000D03*
X0251000Y0196000D03*
X0241000Y0196000D03*
X0231000Y0171000D03*
X0261000Y0171000D03*
X0251000Y0081000D03*
X0241000Y0081000D03*
X0101000Y0131000D03*
X0101000Y0141000D03*
X0086000Y0146000D03*
X0101000Y0151000D03*
X0101000Y0161000D03*
X0101000Y0171000D03*
X0101000Y0181000D03*
X0086000Y0116000D03*
D12*
X0075637Y0211000D03*
D13*
X0063126Y0196191D03*
X0046815Y0210900D03*
D14*
X0131000Y0206000D03*
X0131000Y0216000D03*
X0131000Y0196000D03*
X0131000Y0186000D03*
X0131000Y0176000D03*
X0131000Y0166000D03*
X0131000Y0156000D03*
X0131000Y0146000D03*
X0131000Y0136000D03*
X0131000Y0126000D03*
X0131000Y0116000D03*
X0131000Y0106000D03*
X0131000Y0096000D03*
X0131000Y0086000D03*
X0161000Y0086000D03*
X0161000Y0096000D03*
X0161000Y0106000D03*
X0161000Y0116000D03*
X0161000Y0126000D03*
X0161000Y0136000D03*
X0161000Y0146000D03*
X0161000Y0156000D03*
X0161000Y0166000D03*
X0161000Y0176000D03*
X0161000Y0186000D03*
X0161000Y0196000D03*
X0161000Y0206000D03*
X0161000Y0216000D03*
M02*
