G75*
%MOIN*%
%OFA0B0*%
%FSLAX25Y25*%
%IPPOS*%
%LPD*%
%AMOC8*
5,1,8,0,0,1.08239X$1,22.5*
%
%ADD10C,0.00000*%
%ADD11C,0.01600*%
%ADD12C,0.06500*%
%ADD13C,0.07400*%
%ADD14C,0.16598*%
%ADD15C,0.16200*%
%ADD16C,0.06400*%
%ADD17C,0.00800*%
%ADD18C,0.01000*%
D10*
X0001000Y0001000D02*
X0001000Y0394701D01*
X0630921Y0394701D01*
X0630921Y0001000D01*
X0001000Y0001000D01*
D11*
X0016000Y0026000D02*
X0016000Y0241000D01*
X0276000Y0241000D01*
X0276000Y0026000D01*
X0016000Y0026000D01*
D12*
X0086000Y0081000D03*
X0086000Y0091000D03*
X0106000Y0091000D03*
X0106000Y0081000D03*
D13*
X0136000Y0061000D03*
X0146000Y0061000D03*
X0156000Y0061000D03*
X0156000Y0051000D03*
X0146000Y0051000D03*
X0136000Y0051000D03*
X0231000Y0111000D03*
X0261000Y0111000D03*
X0251000Y0141000D03*
X0241000Y0141000D03*
X0196000Y0156000D03*
X0196000Y0166000D03*
X0196000Y0176000D03*
X0196000Y0186000D03*
X0196000Y0196000D03*
X0196000Y0206000D03*
X0196000Y0216000D03*
X0196000Y0226000D03*
X0231000Y0226000D03*
X0261000Y0226000D03*
X0251000Y0196000D03*
X0241000Y0196000D03*
X0231000Y0171000D03*
X0261000Y0171000D03*
X0251000Y0081000D03*
X0241000Y0081000D03*
X0101000Y0131000D03*
X0101000Y0141000D03*
X0086000Y0146000D03*
X0101000Y0151000D03*
X0101000Y0161000D03*
X0101000Y0171000D03*
X0101000Y0181000D03*
X0086000Y0116000D03*
D14*
X0075637Y0211000D03*
D15*
X0063126Y0196191D03*
X0046815Y0210900D03*
D16*
X0131000Y0206000D03*
X0131000Y0216000D03*
X0131000Y0196000D03*
X0131000Y0186000D03*
X0131000Y0176000D03*
X0131000Y0166000D03*
X0131000Y0156000D03*
X0131000Y0146000D03*
X0131000Y0136000D03*
X0131000Y0126000D03*
X0131000Y0116000D03*
X0131000Y0106000D03*
X0131000Y0096000D03*
X0131000Y0086000D03*
X0161000Y0086000D03*
X0161000Y0096000D03*
X0161000Y0106000D03*
X0161000Y0116000D03*
X0161000Y0126000D03*
X0161000Y0136000D03*
X0161000Y0146000D03*
X0161000Y0156000D03*
X0161000Y0166000D03*
X0161000Y0176000D03*
X0161000Y0186000D03*
X0161000Y0196000D03*
X0161000Y0206000D03*
X0161000Y0216000D03*
D17*
X0161000Y0216200D01*
X0195400Y0216200D01*
X0196000Y0216000D01*
X0196000Y0206000D02*
X0195400Y0205800D01*
X0161000Y0205800D01*
X0161000Y0206000D01*
X0161000Y0196200D02*
X0161000Y0196000D01*
X0161000Y0196200D02*
X0195400Y0196200D01*
X0196000Y0196000D01*
X0196000Y0186000D02*
X0195400Y0185800D01*
X0161000Y0185800D01*
X0161000Y0186000D01*
X0161000Y0176200D02*
X0161000Y0176000D01*
X0161000Y0176200D02*
X0195400Y0176200D01*
X0196000Y0176000D01*
X0196000Y0166000D02*
X0195400Y0165800D01*
X0161000Y0165800D01*
X0161000Y0166000D01*
X0161000Y0156000D02*
X0161000Y0155400D01*
X0152200Y0146600D01*
X0131400Y0146600D01*
X0131000Y0146000D01*
X0108200Y0148200D02*
X0101000Y0141000D01*
X0101000Y0131000D02*
X0101000Y0099400D01*
X0086600Y0085000D01*
X0086600Y0081000D01*
X0086000Y0081000D01*
X0086000Y0091000D02*
X0086600Y0091400D01*
X0086600Y0115400D01*
X0086000Y0116000D01*
X0081000Y0121000D01*
X0081000Y0168200D01*
X0128200Y0215400D01*
X0130600Y0215400D01*
X0131000Y0216000D01*
X0131000Y0206000D02*
X0130600Y0205800D01*
X0130600Y0202600D01*
X0106600Y0178600D01*
X0106600Y0157000D01*
X0101000Y0151400D01*
X0101000Y0151000D01*
X0108200Y0148200D02*
X0108200Y0169800D01*
X0130600Y0192200D01*
X0130600Y0195400D01*
X0131000Y0196000D01*
X0101000Y0161000D02*
X0086000Y0146000D01*
X0141000Y0102600D02*
X0141000Y0056200D01*
X0145800Y0051400D01*
X0146000Y0051000D01*
X0141000Y0045800D02*
X0136200Y0050600D01*
X0136000Y0051000D01*
X0141000Y0045800D02*
X0157800Y0045800D01*
X0161000Y0049000D01*
X0161000Y0063400D01*
X0156200Y0068200D01*
X0156200Y0097800D01*
X0159400Y0101000D01*
X0162600Y0101000D01*
X0165800Y0104200D01*
X0165800Y0108200D01*
X0161000Y0113000D01*
X0161000Y0116000D01*
X0161000Y0122600D02*
X0141000Y0102600D01*
X0146600Y0091400D02*
X0146600Y0061000D01*
X0146000Y0061000D01*
X0136000Y0061000D02*
X0135400Y0061000D01*
X0115400Y0081000D01*
X0106000Y0081000D01*
X0146600Y0091400D02*
X0161000Y0105800D01*
X0161000Y0106000D01*
X0161000Y0096200D02*
X0161000Y0096000D01*
X0161000Y0096200D02*
X0216200Y0096200D01*
X0231000Y0111000D01*
X0241000Y0090600D02*
X0261000Y0110600D01*
X0261000Y0111000D01*
X0241000Y0090600D02*
X0241000Y0081000D01*
X0161000Y0122600D02*
X0161000Y0126000D01*
X0161000Y0136000D02*
X0161000Y0136200D01*
X0180200Y0155400D01*
X0195400Y0155400D01*
X0196000Y0156000D01*
X0241000Y0150600D02*
X0241000Y0141000D01*
X0241000Y0150600D02*
X0261000Y0170600D01*
X0261000Y0171000D01*
X0245800Y0190600D02*
X0239400Y0190600D01*
X0204200Y0225800D01*
X0196200Y0225800D01*
X0196000Y0226000D01*
X0241000Y0205800D02*
X0261000Y0225800D01*
X0261000Y0226000D01*
X0241000Y0205800D02*
X0241000Y0196000D01*
X0245800Y0190600D02*
X0250600Y0195400D01*
X0251000Y0196000D01*
X0063126Y0196191D02*
X0062600Y0196200D01*
X0047400Y0211400D01*
X0046815Y0210900D01*
D18*
X0047315Y0210687D02*
X0065238Y0210687D01*
X0065238Y0209689D02*
X0056339Y0209689D01*
X0056294Y0209289D02*
X0056415Y0210361D01*
X0056415Y0210400D01*
X0047315Y0210400D01*
X0047315Y0211400D01*
X0056415Y0211400D01*
X0056415Y0211439D01*
X0056294Y0212511D01*
X0056054Y0213562D01*
X0055698Y0214580D01*
X0055230Y0215551D01*
X0054657Y0216464D01*
X0053984Y0217307D01*
X0053222Y0218069D01*
X0052379Y0218742D01*
X0051466Y0219315D01*
X0050495Y0219783D01*
X0049477Y0220139D01*
X0048426Y0220379D01*
X0047354Y0220500D01*
X0047315Y0220500D01*
X0047315Y0211400D01*
X0046315Y0211400D01*
X0046315Y0220500D01*
X0046276Y0220500D01*
X0045204Y0220379D01*
X0044153Y0220139D01*
X0043135Y0219783D01*
X0042164Y0219315D01*
X0041251Y0218742D01*
X0040408Y0218069D01*
X0039646Y0217307D01*
X0038973Y0216464D01*
X0038400Y0215551D01*
X0037932Y0214580D01*
X0037576Y0213562D01*
X0037336Y0212511D01*
X0037215Y0211439D01*
X0037215Y0211400D01*
X0046315Y0211400D01*
X0046315Y0210400D01*
X0047315Y0210400D01*
X0047315Y0201300D01*
X0047354Y0201300D01*
X0048426Y0201421D01*
X0049477Y0201661D01*
X0050495Y0202017D01*
X0051466Y0202485D01*
X0052379Y0203058D01*
X0053222Y0203731D01*
X0053984Y0204493D01*
X0054657Y0205336D01*
X0055230Y0206249D01*
X0055698Y0207220D01*
X0056054Y0208238D01*
X0056294Y0209289D01*
X0056157Y0208690D02*
X0065490Y0208690D01*
X0065238Y0209631D02*
X0065946Y0206986D01*
X0067145Y0204910D01*
X0066806Y0205074D01*
X0065788Y0205430D01*
X0064737Y0205670D01*
X0063665Y0205791D01*
X0063626Y0205791D01*
X0063626Y0196691D01*
X0062626Y0196691D01*
X0062626Y0205791D01*
X0062587Y0205791D01*
X0061515Y0205670D01*
X0060464Y0205430D01*
X0059446Y0205074D01*
X0058475Y0204606D01*
X0057562Y0204032D01*
X0056719Y0203360D01*
X0055957Y0202598D01*
X0055284Y0201755D01*
X0054711Y0200842D01*
X0054243Y0199870D01*
X0053887Y0198852D01*
X0053647Y0197801D01*
X0053526Y0196730D01*
X0053526Y0196691D01*
X0062626Y0196691D01*
X0062626Y0195691D01*
X0053526Y0195691D01*
X0053526Y0195651D01*
X0053647Y0194580D01*
X0053887Y0193529D01*
X0054243Y0192511D01*
X0054711Y0191540D01*
X0055284Y0190627D01*
X0055957Y0189784D01*
X0056719Y0189021D01*
X0057562Y0188349D01*
X0058475Y0187775D01*
X0059446Y0187307D01*
X0060464Y0186951D01*
X0061515Y0186711D01*
X0062587Y0186591D01*
X0062626Y0186591D01*
X0062626Y0195690D01*
X0063626Y0195690D01*
X0063626Y0186591D01*
X0063665Y0186591D01*
X0064737Y0186711D01*
X0065788Y0186951D01*
X0066806Y0187307D01*
X0067777Y0187775D01*
X0068690Y0188349D01*
X0069533Y0189021D01*
X0070295Y0189784D01*
X0070968Y0190627D01*
X0071541Y0191540D01*
X0072009Y0192511D01*
X0072365Y0193529D01*
X0072605Y0194580D01*
X0072726Y0195651D01*
X0072726Y0195691D01*
X0063626Y0195691D01*
X0063626Y0196691D01*
X0072726Y0196691D01*
X0072726Y0196730D01*
X0072605Y0197801D01*
X0072365Y0198852D01*
X0072009Y0199870D01*
X0071541Y0200842D01*
X0071033Y0201650D01*
X0071623Y0201309D01*
X0074268Y0200601D01*
X0077006Y0200601D01*
X0079651Y0201309D01*
X0082022Y0202679D01*
X0083958Y0204615D01*
X0085328Y0206986D01*
X0086036Y0209631D01*
X0086036Y0212369D01*
X0085328Y0215014D01*
X0083958Y0217385D01*
X0082022Y0219321D01*
X0079651Y0220691D01*
X0077006Y0221399D01*
X0074268Y0221399D01*
X0071623Y0220691D01*
X0069252Y0219321D01*
X0067316Y0217385D01*
X0065946Y0215014D01*
X0065238Y0212369D01*
X0065238Y0209631D01*
X0065757Y0207692D02*
X0055863Y0207692D01*
X0055444Y0206693D02*
X0066115Y0206693D01*
X0066692Y0205695D02*
X0064515Y0205695D01*
X0063626Y0205695D02*
X0062626Y0205695D01*
X0061737Y0205695D02*
X0054882Y0205695D01*
X0054147Y0204696D02*
X0058663Y0204696D01*
X0057143Y0203698D02*
X0053181Y0203698D01*
X0051808Y0202699D02*
X0056058Y0202699D01*
X0055250Y0201701D02*
X0049591Y0201701D01*
X0047315Y0201701D02*
X0046315Y0201701D01*
X0046315Y0201300D02*
X0046315Y0210400D01*
X0037215Y0210400D01*
X0037215Y0210361D01*
X0037336Y0209289D01*
X0037576Y0208238D01*
X0037932Y0207220D01*
X0038400Y0206249D01*
X0038973Y0205336D01*
X0039646Y0204493D01*
X0040408Y0203731D01*
X0041251Y0203058D01*
X0042164Y0202485D01*
X0043135Y0202017D01*
X0044153Y0201661D01*
X0045204Y0201421D01*
X0046276Y0201300D01*
X0046315Y0201300D01*
X0046315Y0202699D02*
X0047315Y0202699D01*
X0047315Y0203698D02*
X0046315Y0203698D01*
X0046315Y0204696D02*
X0047315Y0204696D01*
X0047315Y0205695D02*
X0046315Y0205695D01*
X0046315Y0206693D02*
X0047315Y0206693D01*
X0047315Y0207692D02*
X0046315Y0207692D01*
X0046315Y0208690D02*
X0047315Y0208690D01*
X0047315Y0209689D02*
X0046315Y0209689D01*
X0046315Y0210687D02*
X0036000Y0210687D01*
X0036000Y0209689D02*
X0037291Y0209689D01*
X0037472Y0208690D02*
X0036000Y0208690D01*
X0036000Y0207692D02*
X0037767Y0207692D01*
X0038186Y0206693D02*
X0036000Y0206693D01*
X0036000Y0205695D02*
X0038748Y0205695D01*
X0039483Y0204696D02*
X0036000Y0204696D01*
X0036000Y0203698D02*
X0040449Y0203698D01*
X0041822Y0202699D02*
X0036000Y0202699D01*
X0036000Y0201701D02*
X0044038Y0201701D01*
X0036000Y0200702D02*
X0054644Y0200702D01*
X0054185Y0199704D02*
X0036000Y0199704D01*
X0036000Y0198705D02*
X0053853Y0198705D01*
X0053636Y0197707D02*
X0036000Y0197707D01*
X0036000Y0196708D02*
X0053526Y0196708D01*
X0053632Y0194711D02*
X0036000Y0194711D01*
X0036000Y0193713D02*
X0053845Y0193713D01*
X0054172Y0192714D02*
X0036000Y0192714D01*
X0036000Y0191716D02*
X0054626Y0191716D01*
X0055227Y0190717D02*
X0036000Y0190717D01*
X0036000Y0189719D02*
X0056021Y0189719D01*
X0057096Y0188720D02*
X0036000Y0188720D01*
X0036000Y0187722D02*
X0058586Y0187722D01*
X0061464Y0186723D02*
X0036000Y0186723D01*
X0036000Y0185725D02*
X0094989Y0185725D01*
X0095988Y0186723D02*
X0064788Y0186723D01*
X0063626Y0186723D02*
X0062626Y0186723D01*
X0062626Y0187722D02*
X0063626Y0187722D01*
X0063626Y0188720D02*
X0062626Y0188720D01*
X0062626Y0189719D02*
X0063626Y0189719D01*
X0063626Y0190717D02*
X0062626Y0190717D01*
X0062626Y0191716D02*
X0063626Y0191716D01*
X0063626Y0192714D02*
X0062626Y0192714D01*
X0062626Y0193713D02*
X0063626Y0193713D01*
X0063626Y0194711D02*
X0062626Y0194711D01*
X0062626Y0195710D02*
X0036000Y0195710D01*
X0036000Y0184726D02*
X0093991Y0184726D01*
X0092992Y0183728D02*
X0036000Y0183728D01*
X0036000Y0182729D02*
X0091994Y0182729D01*
X0090995Y0181731D02*
X0036000Y0181731D01*
X0036000Y0180732D02*
X0089997Y0180732D01*
X0088998Y0179734D02*
X0036000Y0179734D01*
X0036000Y0178735D02*
X0087999Y0178735D01*
X0087001Y0177737D02*
X0036000Y0177737D01*
X0036000Y0176738D02*
X0086002Y0176738D01*
X0085004Y0175739D02*
X0036000Y0175739D01*
X0036000Y0174741D02*
X0084005Y0174741D01*
X0083007Y0173742D02*
X0036000Y0173742D01*
X0036000Y0172744D02*
X0082008Y0172744D01*
X0081010Y0171745D02*
X0036000Y0171745D01*
X0036000Y0170747D02*
X0080011Y0170747D01*
X0079584Y0170319D02*
X0078881Y0169616D01*
X0078500Y0168697D01*
X0078500Y0120503D01*
X0078881Y0119584D01*
X0080525Y0117939D01*
X0080200Y0117154D01*
X0080200Y0114846D01*
X0081083Y0112715D01*
X0082715Y0111083D01*
X0084100Y0110509D01*
X0084100Y0096004D01*
X0082969Y0095535D01*
X0081464Y0094031D01*
X0080650Y0092064D01*
X0080650Y0089936D01*
X0081464Y0087969D01*
X0082969Y0086464D01*
X0084091Y0086000D01*
X0082969Y0085535D01*
X0081464Y0084031D01*
X0080650Y0082064D01*
X0080650Y0079936D01*
X0081464Y0077969D01*
X0082969Y0076464D01*
X0084936Y0075650D01*
X0087064Y0075650D01*
X0089031Y0076464D01*
X0090535Y0077969D01*
X0091350Y0079936D01*
X0091350Y0082064D01*
X0090535Y0084031D01*
X0089851Y0084715D01*
X0102416Y0097281D01*
X0103119Y0097984D01*
X0103500Y0098903D01*
X0103500Y0125758D01*
X0104285Y0126083D01*
X0105917Y0127715D01*
X0106800Y0129846D01*
X0106800Y0132154D01*
X0105917Y0134285D01*
X0104285Y0135917D01*
X0104085Y0136000D01*
X0104285Y0136083D01*
X0105917Y0137715D01*
X0106800Y0139846D01*
X0106800Y0142154D01*
X0106475Y0142939D01*
X0110319Y0146784D01*
X0110700Y0147703D01*
X0110700Y0168764D01*
X0126046Y0184110D01*
X0126507Y0182998D01*
X0127998Y0181507D01*
X0129222Y0181000D01*
X0127998Y0180493D01*
X0126507Y0179002D01*
X0125700Y0177054D01*
X0125700Y0174946D01*
X0126507Y0172998D01*
X0127998Y0171507D01*
X0129222Y0171000D01*
X0127998Y0170493D01*
X0126507Y0169002D01*
X0125700Y0167054D01*
X0125700Y0164946D01*
X0126507Y0162998D01*
X0127998Y0161507D01*
X0129222Y0161000D01*
X0127998Y0160493D01*
X0126507Y0159002D01*
X0125700Y0157054D01*
X0125700Y0154946D01*
X0126507Y0152998D01*
X0127998Y0151507D01*
X0129946Y0150700D01*
X0132054Y0150700D01*
X0134002Y0151507D01*
X0135493Y0152998D01*
X0136300Y0154946D01*
X0136300Y0157054D01*
X0135493Y0159002D01*
X0134002Y0160493D01*
X0132778Y0161000D01*
X0134002Y0161507D01*
X0135493Y0162998D01*
X0136300Y0164946D01*
X0136300Y0167054D01*
X0135493Y0169002D01*
X0134002Y0170493D01*
X0132778Y0171000D01*
X0134002Y0171507D01*
X0135493Y0172998D01*
X0136300Y0174946D01*
X0136300Y0177054D01*
X0135493Y0179002D01*
X0134002Y0180493D01*
X0132778Y0181000D01*
X0134002Y0181507D01*
X0135493Y0182998D01*
X0136300Y0184946D01*
X0136300Y0187054D01*
X0135493Y0189002D01*
X0134002Y0190493D01*
X0132804Y0190989D01*
X0132815Y0191015D01*
X0134002Y0191507D01*
X0135493Y0192998D01*
X0136300Y0194946D01*
X0136300Y0197054D01*
X0135493Y0199002D01*
X0134002Y0200493D01*
X0132778Y0201000D01*
X0134002Y0201507D01*
X0135493Y0202998D01*
X0136300Y0204946D01*
X0136300Y0207054D01*
X0135493Y0209002D01*
X0134002Y0210493D01*
X0132778Y0211000D01*
X0134002Y0211507D01*
X0135493Y0212998D01*
X0136300Y0214946D01*
X0136300Y0217054D01*
X0135493Y0219002D01*
X0134002Y0220493D01*
X0132054Y0221300D01*
X0129946Y0221300D01*
X0127998Y0220493D01*
X0126507Y0219002D01*
X0125700Y0217054D01*
X0125700Y0216436D01*
X0079584Y0170319D01*
X0079013Y0169748D02*
X0036000Y0169748D01*
X0036000Y0168750D02*
X0078522Y0168750D01*
X0078500Y0167751D02*
X0036000Y0167751D01*
X0036000Y0166753D02*
X0078500Y0166753D01*
X0078500Y0165754D02*
X0036000Y0165754D01*
X0036000Y0164756D02*
X0078500Y0164756D01*
X0078500Y0163757D02*
X0036000Y0163757D01*
X0036000Y0162759D02*
X0078500Y0162759D01*
X0078500Y0161760D02*
X0036000Y0161760D01*
X0036000Y0160762D02*
X0078500Y0160762D01*
X0078500Y0159763D02*
X0036000Y0159763D01*
X0036000Y0158765D02*
X0078500Y0158765D01*
X0078500Y0157766D02*
X0036000Y0157766D01*
X0036000Y0156768D02*
X0078500Y0156768D01*
X0078500Y0155769D02*
X0036000Y0155769D01*
X0036000Y0154771D02*
X0078500Y0154771D01*
X0078500Y0153772D02*
X0036000Y0153772D01*
X0036000Y0152774D02*
X0078500Y0152774D01*
X0078500Y0151775D02*
X0036000Y0151775D01*
X0036000Y0150777D02*
X0078500Y0150777D01*
X0078500Y0149778D02*
X0036000Y0149778D01*
X0036000Y0148780D02*
X0078500Y0148780D01*
X0078500Y0147781D02*
X0036000Y0147781D01*
X0036000Y0146783D02*
X0078500Y0146783D01*
X0078500Y0145784D02*
X0036000Y0145784D01*
X0036000Y0144786D02*
X0078500Y0144786D01*
X0078500Y0143787D02*
X0036000Y0143787D01*
X0036000Y0142789D02*
X0078500Y0142789D01*
X0078500Y0141790D02*
X0036000Y0141790D01*
X0036000Y0140792D02*
X0078500Y0140792D01*
X0078500Y0139793D02*
X0036000Y0139793D01*
X0036000Y0138795D02*
X0078500Y0138795D01*
X0078500Y0137796D02*
X0036000Y0137796D01*
X0036000Y0136798D02*
X0078500Y0136798D01*
X0078500Y0135799D02*
X0036000Y0135799D01*
X0036000Y0134801D02*
X0078500Y0134801D01*
X0078500Y0133802D02*
X0036000Y0133802D01*
X0036000Y0132803D02*
X0078500Y0132803D01*
X0078500Y0131805D02*
X0036000Y0131805D01*
X0036000Y0130806D02*
X0078500Y0130806D01*
X0078500Y0129808D02*
X0036000Y0129808D01*
X0036000Y0128809D02*
X0078500Y0128809D01*
X0078500Y0127811D02*
X0036000Y0127811D01*
X0036000Y0126812D02*
X0078500Y0126812D01*
X0078500Y0125814D02*
X0036000Y0125814D01*
X0036000Y0124815D02*
X0078500Y0124815D01*
X0078500Y0123817D02*
X0036000Y0123817D01*
X0036000Y0122818D02*
X0078500Y0122818D01*
X0078500Y0121820D02*
X0036000Y0121820D01*
X0036000Y0120821D02*
X0078500Y0120821D01*
X0078782Y0119823D02*
X0036000Y0119823D01*
X0036000Y0118824D02*
X0079640Y0118824D01*
X0080478Y0117826D02*
X0036000Y0117826D01*
X0036000Y0116827D02*
X0080200Y0116827D01*
X0080200Y0115829D02*
X0036000Y0115829D01*
X0036000Y0114830D02*
X0080207Y0114830D01*
X0080620Y0113832D02*
X0036000Y0113832D01*
X0036000Y0112833D02*
X0081034Y0112833D01*
X0081963Y0111835D02*
X0036000Y0111835D01*
X0036000Y0110836D02*
X0083310Y0110836D01*
X0084100Y0109838D02*
X0036000Y0109838D01*
X0036000Y0108839D02*
X0084100Y0108839D01*
X0084100Y0107841D02*
X0036000Y0107841D01*
X0036000Y0106842D02*
X0084100Y0106842D01*
X0084100Y0105844D02*
X0036000Y0105844D01*
X0036000Y0104845D02*
X0084100Y0104845D01*
X0084100Y0103847D02*
X0036000Y0103847D01*
X0036000Y0102848D02*
X0084100Y0102848D01*
X0084100Y0101850D02*
X0036000Y0101850D01*
X0036000Y0100851D02*
X0084100Y0100851D01*
X0084100Y0099853D02*
X0036000Y0099853D01*
X0036000Y0098854D02*
X0084100Y0098854D01*
X0084100Y0097856D02*
X0036000Y0097856D01*
X0036000Y0096857D02*
X0084100Y0096857D01*
X0083749Y0095859D02*
X0036000Y0095859D01*
X0036000Y0094860D02*
X0082294Y0094860D01*
X0081395Y0093862D02*
X0036000Y0093862D01*
X0036000Y0092863D02*
X0080981Y0092863D01*
X0080650Y0091865D02*
X0036000Y0091865D01*
X0036000Y0090866D02*
X0080650Y0090866D01*
X0080678Y0089868D02*
X0036000Y0089868D01*
X0036000Y0088869D02*
X0081092Y0088869D01*
X0081563Y0087870D02*
X0036000Y0087870D01*
X0036000Y0086872D02*
X0082562Y0086872D01*
X0083785Y0085873D02*
X0036000Y0085873D01*
X0036000Y0084875D02*
X0082309Y0084875D01*
X0081401Y0083876D02*
X0036000Y0083876D01*
X0036000Y0082878D02*
X0080987Y0082878D01*
X0080650Y0081879D02*
X0036000Y0081879D01*
X0036000Y0080881D02*
X0080650Y0080881D01*
X0080672Y0079882D02*
X0036000Y0079882D01*
X0036000Y0078884D02*
X0081086Y0078884D01*
X0081549Y0077885D02*
X0036000Y0077885D01*
X0036000Y0076887D02*
X0082547Y0076887D01*
X0084360Y0075888D02*
X0036000Y0075888D01*
X0036000Y0074890D02*
X0117975Y0074890D01*
X0118973Y0073891D02*
X0036000Y0073891D01*
X0036000Y0072893D02*
X0119972Y0072893D01*
X0120970Y0071894D02*
X0036000Y0071894D01*
X0036000Y0070896D02*
X0121969Y0070896D01*
X0122967Y0069897D02*
X0036000Y0069897D01*
X0036000Y0068899D02*
X0123966Y0068899D01*
X0124964Y0067900D02*
X0036000Y0067900D01*
X0036000Y0066902D02*
X0125963Y0066902D01*
X0126961Y0065903D02*
X0036000Y0065903D01*
X0036000Y0064905D02*
X0127960Y0064905D01*
X0128958Y0063906D02*
X0036000Y0063906D01*
X0036000Y0062908D02*
X0129957Y0062908D01*
X0130350Y0062515D02*
X0130200Y0062154D01*
X0130200Y0059846D01*
X0131083Y0057715D01*
X0132715Y0056083D01*
X0132915Y0056000D01*
X0132715Y0055917D01*
X0131083Y0054285D01*
X0130200Y0052154D01*
X0130200Y0049846D01*
X0131083Y0047715D01*
X0132715Y0046083D01*
X0134846Y0045200D01*
X0137154Y0045200D01*
X0137798Y0045467D01*
X0139584Y0043681D01*
X0140503Y0043300D01*
X0158297Y0043300D01*
X0159216Y0043681D01*
X0159919Y0044384D01*
X0163119Y0047584D01*
X0163500Y0048503D01*
X0163500Y0063897D01*
X0163119Y0064816D01*
X0162416Y0065519D01*
X0158700Y0069236D01*
X0158700Y0081216D01*
X0159946Y0080700D01*
X0162054Y0080700D01*
X0164002Y0081507D01*
X0165493Y0082998D01*
X0166300Y0084946D01*
X0166300Y0087054D01*
X0165493Y0089002D01*
X0164002Y0090493D01*
X0162778Y0091000D01*
X0164002Y0091507D01*
X0165493Y0092998D01*
X0165784Y0093700D01*
X0216697Y0093700D01*
X0217616Y0094081D01*
X0218319Y0094784D01*
X0229061Y0105525D01*
X0229846Y0105200D01*
X0232154Y0105200D01*
X0234285Y0106083D01*
X0235917Y0107715D01*
X0236800Y0109846D01*
X0236800Y0112154D01*
X0235917Y0114285D01*
X0234285Y0115917D01*
X0232154Y0116800D01*
X0229846Y0116800D01*
X0227715Y0115917D01*
X0226083Y0114285D01*
X0225200Y0112154D01*
X0225200Y0109846D01*
X0225525Y0109061D01*
X0215164Y0098700D01*
X0165618Y0098700D01*
X0165493Y0099002D01*
X0164815Y0099680D01*
X0167919Y0102784D01*
X0168300Y0103703D01*
X0168300Y0108697D01*
X0167919Y0109616D01*
X0167216Y0110319D01*
X0165015Y0112520D01*
X0165493Y0112998D01*
X0166300Y0114946D01*
X0166300Y0117054D01*
X0165493Y0119002D01*
X0164002Y0120493D01*
X0162890Y0120954D01*
X0163047Y0121111D01*
X0164002Y0121507D01*
X0165493Y0122998D01*
X0166300Y0124946D01*
X0166300Y0127054D01*
X0165493Y0129002D01*
X0164002Y0130493D01*
X0162778Y0131000D01*
X0164002Y0131507D01*
X0165493Y0132998D01*
X0166300Y0134946D01*
X0166300Y0137054D01*
X0166033Y0137698D01*
X0181236Y0152900D01*
X0191006Y0152900D01*
X0191083Y0152715D01*
X0192715Y0151083D01*
X0194846Y0150200D01*
X0197154Y0150200D01*
X0199285Y0151083D01*
X0200917Y0152715D01*
X0201800Y0154846D01*
X0201800Y0157154D01*
X0200917Y0159285D01*
X0199285Y0160917D01*
X0199085Y0161000D01*
X0199285Y0161083D01*
X0200917Y0162715D01*
X0201800Y0164846D01*
X0201800Y0167154D01*
X0200917Y0169285D01*
X0199285Y0170917D01*
X0199085Y0171000D01*
X0199285Y0171083D01*
X0200917Y0172715D01*
X0201800Y0174846D01*
X0201800Y0177154D01*
X0200917Y0179285D01*
X0199285Y0180917D01*
X0199085Y0181000D01*
X0199285Y0181083D01*
X0200917Y0182715D01*
X0201800Y0184846D01*
X0201800Y0187154D01*
X0200917Y0189285D01*
X0199285Y0190917D01*
X0199085Y0191000D01*
X0199285Y0191083D01*
X0200917Y0192715D01*
X0201800Y0194846D01*
X0201800Y0197154D01*
X0200917Y0199285D01*
X0199285Y0200917D01*
X0199085Y0201000D01*
X0199285Y0201083D01*
X0200917Y0202715D01*
X0201800Y0204846D01*
X0201800Y0207154D01*
X0200917Y0209285D01*
X0199285Y0210917D01*
X0199085Y0211000D01*
X0199285Y0211083D01*
X0200917Y0212715D01*
X0201800Y0214846D01*
X0201800Y0217154D01*
X0200917Y0219285D01*
X0199285Y0220917D01*
X0198288Y0221330D01*
X0198725Y0221553D01*
X0199388Y0222034D01*
X0199966Y0222612D01*
X0200447Y0223275D01*
X0200819Y0224004D01*
X0201072Y0224782D01*
X0201186Y0225500D01*
X0196500Y0225500D01*
X0196500Y0226500D01*
X0201186Y0226500D01*
X0201072Y0227218D01*
X0200819Y0227996D01*
X0200447Y0228725D01*
X0199966Y0229388D01*
X0199388Y0229966D01*
X0198725Y0230447D01*
X0197996Y0230819D01*
X0197439Y0231000D01*
X0227915Y0231000D01*
X0227715Y0230917D01*
X0226083Y0229285D01*
X0225200Y0227154D01*
X0225200Y0224846D01*
X0226083Y0222715D01*
X0227715Y0221083D01*
X0229846Y0220200D01*
X0232154Y0220200D01*
X0234285Y0221083D01*
X0235917Y0222715D01*
X0236800Y0224846D01*
X0236800Y0227154D01*
X0235917Y0229285D01*
X0234285Y0230917D01*
X0234085Y0231000D01*
X0257915Y0231000D01*
X0257715Y0230917D01*
X0256083Y0229285D01*
X0255200Y0227154D01*
X0255200Y0224846D01*
X0255584Y0223919D01*
X0238881Y0207216D01*
X0238500Y0206297D01*
X0238500Y0201242D01*
X0237715Y0200917D01*
X0236083Y0199285D01*
X0235200Y0197154D01*
X0235200Y0194846D01*
X0236083Y0192715D01*
X0237715Y0191083D01*
X0239846Y0190200D01*
X0242154Y0190200D01*
X0244285Y0191083D01*
X0245917Y0192715D01*
X0246330Y0193712D01*
X0246553Y0193275D01*
X0247034Y0192612D01*
X0247612Y0192034D01*
X0248275Y0191553D01*
X0249004Y0191181D01*
X0249782Y0190928D01*
X0250591Y0190800D01*
X0250700Y0190800D01*
X0250700Y0195700D01*
X0251300Y0195700D01*
X0251300Y0196300D01*
X0250700Y0196300D01*
X0250700Y0201200D01*
X0250591Y0201200D01*
X0249782Y0201072D01*
X0249004Y0200819D01*
X0248275Y0200447D01*
X0247612Y0199966D01*
X0247034Y0199388D01*
X0246553Y0198725D01*
X0246330Y0198288D01*
X0245917Y0199285D01*
X0244285Y0200917D01*
X0243500Y0201242D01*
X0243500Y0204764D01*
X0259202Y0220467D01*
X0259846Y0220200D01*
X0262154Y0220200D01*
X0264285Y0221083D01*
X0265917Y0222715D01*
X0266800Y0224846D01*
X0266800Y0227154D01*
X0265917Y0229285D01*
X0264285Y0230917D01*
X0264085Y0231000D01*
X0271000Y0231000D01*
X0271000Y0036000D01*
X0036000Y0036000D01*
X0036000Y0231000D01*
X0194561Y0231000D01*
X0194004Y0230819D01*
X0193275Y0230447D01*
X0192612Y0229966D01*
X0192034Y0229388D01*
X0191553Y0228725D01*
X0191181Y0227996D01*
X0190928Y0227218D01*
X0190814Y0226500D01*
X0195500Y0226500D01*
X0195500Y0225500D01*
X0190814Y0225500D01*
X0190928Y0224782D01*
X0191181Y0224004D01*
X0191553Y0223275D01*
X0192034Y0222612D01*
X0192612Y0222034D01*
X0193275Y0221553D01*
X0193712Y0221330D01*
X0192715Y0220917D01*
X0191083Y0219285D01*
X0190841Y0218700D01*
X0165618Y0218700D01*
X0165493Y0219002D01*
X0164002Y0220493D01*
X0162054Y0221300D01*
X0159946Y0221300D01*
X0157998Y0220493D01*
X0156507Y0219002D01*
X0155700Y0217054D01*
X0155700Y0214946D01*
X0156507Y0212998D01*
X0157998Y0211507D01*
X0159222Y0211000D01*
X0157998Y0210493D01*
X0156507Y0209002D01*
X0155700Y0207054D01*
X0155700Y0204946D01*
X0156507Y0202998D01*
X0157998Y0201507D01*
X0159222Y0201000D01*
X0157998Y0200493D01*
X0156507Y0199002D01*
X0155700Y0197054D01*
X0155700Y0194946D01*
X0156507Y0192998D01*
X0157998Y0191507D01*
X0159222Y0191000D01*
X0157998Y0190493D01*
X0156507Y0189002D01*
X0155700Y0187054D01*
X0155700Y0184946D01*
X0156507Y0182998D01*
X0157998Y0181507D01*
X0159222Y0181000D01*
X0157998Y0180493D01*
X0156507Y0179002D01*
X0155700Y0177054D01*
X0155700Y0174946D01*
X0156507Y0172998D01*
X0157998Y0171507D01*
X0159222Y0171000D01*
X0157998Y0170493D01*
X0156507Y0169002D01*
X0155700Y0167054D01*
X0155700Y0164946D01*
X0156507Y0162998D01*
X0157998Y0161507D01*
X0159946Y0160700D01*
X0162054Y0160700D01*
X0164002Y0161507D01*
X0165493Y0162998D01*
X0165618Y0163300D01*
X0190841Y0163300D01*
X0191083Y0162715D01*
X0192715Y0161083D01*
X0192915Y0161000D01*
X0192715Y0160917D01*
X0191083Y0159285D01*
X0190509Y0157900D01*
X0179703Y0157900D01*
X0178784Y0157519D01*
X0166300Y0145036D01*
X0166300Y0147054D01*
X0165493Y0149002D01*
X0164002Y0150493D01*
X0162054Y0151300D01*
X0159946Y0151300D01*
X0157998Y0150493D01*
X0156507Y0149002D01*
X0155700Y0147054D01*
X0155700Y0144946D01*
X0156507Y0142998D01*
X0157998Y0141507D01*
X0159222Y0141000D01*
X0157998Y0140493D01*
X0156507Y0139002D01*
X0155700Y0137054D01*
X0155700Y0134946D01*
X0156507Y0132998D01*
X0157998Y0131507D01*
X0159222Y0131000D01*
X0157998Y0130493D01*
X0156507Y0129002D01*
X0155700Y0127054D01*
X0155700Y0124946D01*
X0156507Y0122998D01*
X0157185Y0122320D01*
X0139584Y0104719D01*
X0138881Y0104016D01*
X0138500Y0103097D01*
X0138500Y0066242D01*
X0137154Y0066800D01*
X0134846Y0066800D01*
X0133637Y0066299D01*
X0116816Y0083119D01*
X0115897Y0083500D01*
X0110755Y0083500D01*
X0110535Y0084031D01*
X0109031Y0085535D01*
X0107064Y0086350D01*
X0107005Y0086350D01*
X0107112Y0086367D01*
X0107823Y0086598D01*
X0108490Y0086937D01*
X0109094Y0087377D01*
X0109623Y0087906D01*
X0110063Y0088510D01*
X0110402Y0089177D01*
X0110633Y0089888D01*
X0110750Y0090626D01*
X0110750Y0090811D01*
X0106189Y0090811D01*
X0106189Y0091189D01*
X0110750Y0091189D01*
X0110750Y0091374D01*
X0110633Y0092112D01*
X0110402Y0092823D01*
X0110063Y0093490D01*
X0109623Y0094094D01*
X0109094Y0094623D01*
X0108490Y0095063D01*
X0107823Y0095402D01*
X0107112Y0095633D01*
X0106374Y0095750D01*
X0106189Y0095750D01*
X0106189Y0091189D01*
X0105811Y0091189D01*
X0105811Y0095750D01*
X0105626Y0095750D01*
X0104888Y0095633D01*
X0104177Y0095402D01*
X0103510Y0095063D01*
X0102906Y0094623D01*
X0102377Y0094094D01*
X0101937Y0093490D01*
X0101598Y0092823D01*
X0101367Y0092112D01*
X0101250Y0091374D01*
X0101250Y0091189D01*
X0105811Y0091189D01*
X0105811Y0090811D01*
X0101250Y0090811D01*
X0101250Y0090626D01*
X0101367Y0089888D01*
X0101598Y0089177D01*
X0101937Y0088510D01*
X0102377Y0087906D01*
X0102906Y0087377D01*
X0103510Y0086937D01*
X0104177Y0086598D01*
X0104888Y0086367D01*
X0104995Y0086350D01*
X0104936Y0086350D01*
X0102969Y0085535D01*
X0101464Y0084031D01*
X0100650Y0082064D01*
X0100650Y0079936D01*
X0101464Y0077969D01*
X0102969Y0076464D01*
X0104936Y0075650D01*
X0107064Y0075650D01*
X0109031Y0076464D01*
X0110535Y0077969D01*
X0110755Y0078500D01*
X0114364Y0078500D01*
X0130350Y0062515D01*
X0130200Y0061909D02*
X0036000Y0061909D01*
X0036000Y0060911D02*
X0130200Y0060911D01*
X0130200Y0059912D02*
X0036000Y0059912D01*
X0036000Y0058914D02*
X0130586Y0058914D01*
X0131000Y0057915D02*
X0036000Y0057915D01*
X0036000Y0056917D02*
X0131881Y0056917D01*
X0132717Y0055918D02*
X0036000Y0055918D01*
X0036000Y0054920D02*
X0131717Y0054920D01*
X0130932Y0053921D02*
X0036000Y0053921D01*
X0036000Y0052923D02*
X0130518Y0052923D01*
X0130200Y0051924D02*
X0036000Y0051924D01*
X0036000Y0050926D02*
X0130200Y0050926D01*
X0130200Y0049927D02*
X0036000Y0049927D01*
X0036000Y0048929D02*
X0130580Y0048929D01*
X0130994Y0047930D02*
X0036000Y0047930D01*
X0036000Y0046932D02*
X0131866Y0046932D01*
X0133077Y0045933D02*
X0036000Y0045933D01*
X0036000Y0044934D02*
X0138330Y0044934D01*
X0139328Y0043936D02*
X0036000Y0043936D01*
X0036000Y0042937D02*
X0271000Y0042937D01*
X0271000Y0041939D02*
X0036000Y0041939D01*
X0036000Y0040940D02*
X0271000Y0040940D01*
X0271000Y0039942D02*
X0036000Y0039942D01*
X0036000Y0038943D02*
X0271000Y0038943D01*
X0271000Y0037945D02*
X0036000Y0037945D01*
X0036000Y0036946D02*
X0271000Y0036946D01*
X0271000Y0043936D02*
X0159472Y0043936D01*
X0160470Y0044934D02*
X0271000Y0044934D01*
X0271000Y0045933D02*
X0161469Y0045933D01*
X0162467Y0046932D02*
X0271000Y0046932D01*
X0271000Y0047930D02*
X0163263Y0047930D01*
X0163500Y0048929D02*
X0271000Y0048929D01*
X0271000Y0049927D02*
X0163500Y0049927D01*
X0163500Y0050926D02*
X0271000Y0050926D01*
X0271000Y0051924D02*
X0163500Y0051924D01*
X0163500Y0052923D02*
X0271000Y0052923D01*
X0271000Y0053921D02*
X0163500Y0053921D01*
X0163500Y0054920D02*
X0271000Y0054920D01*
X0271000Y0055918D02*
X0163500Y0055918D01*
X0163500Y0056917D02*
X0271000Y0056917D01*
X0271000Y0057915D02*
X0163500Y0057915D01*
X0163500Y0058914D02*
X0271000Y0058914D01*
X0271000Y0059912D02*
X0163500Y0059912D01*
X0163500Y0060911D02*
X0271000Y0060911D01*
X0271000Y0061909D02*
X0163500Y0061909D01*
X0163500Y0062908D02*
X0271000Y0062908D01*
X0271000Y0063906D02*
X0163496Y0063906D01*
X0163031Y0064905D02*
X0271000Y0064905D01*
X0271000Y0065903D02*
X0162032Y0065903D01*
X0162416Y0065519D02*
X0162416Y0065519D01*
X0161034Y0066902D02*
X0271000Y0066902D01*
X0271000Y0067900D02*
X0160035Y0067900D01*
X0159037Y0068899D02*
X0271000Y0068899D01*
X0271000Y0069897D02*
X0158700Y0069897D01*
X0158700Y0070896D02*
X0271000Y0070896D01*
X0271000Y0071894D02*
X0158700Y0071894D01*
X0158700Y0072893D02*
X0271000Y0072893D01*
X0271000Y0073891D02*
X0158700Y0073891D01*
X0158700Y0074890D02*
X0271000Y0074890D01*
X0271000Y0075888D02*
X0251967Y0075888D01*
X0252218Y0075928D02*
X0252996Y0076181D01*
X0253725Y0076553D01*
X0254388Y0077034D01*
X0254966Y0077612D01*
X0255447Y0078275D01*
X0255819Y0079004D01*
X0256072Y0079782D01*
X0256200Y0080591D01*
X0256200Y0080700D01*
X0251300Y0080700D01*
X0251300Y0081300D01*
X0256200Y0081300D01*
X0256200Y0081409D01*
X0256072Y0082218D01*
X0255819Y0082996D01*
X0255447Y0083725D01*
X0254966Y0084388D01*
X0254388Y0084966D01*
X0253725Y0085447D01*
X0252996Y0085819D01*
X0252218Y0086072D01*
X0251409Y0086200D01*
X0251300Y0086200D01*
X0251300Y0081300D01*
X0250700Y0081300D01*
X0250700Y0086200D01*
X0250591Y0086200D01*
X0249782Y0086072D01*
X0249004Y0085819D01*
X0248275Y0085447D01*
X0247612Y0084966D01*
X0247034Y0084388D01*
X0246553Y0083725D01*
X0246330Y0083288D01*
X0245917Y0084285D01*
X0244285Y0085917D01*
X0243500Y0086242D01*
X0243500Y0089564D01*
X0259344Y0105408D01*
X0259846Y0105200D01*
X0262154Y0105200D01*
X0264285Y0106083D01*
X0265917Y0107715D01*
X0266800Y0109846D01*
X0266800Y0112154D01*
X0265917Y0114285D01*
X0264285Y0115917D01*
X0262154Y0116800D01*
X0259846Y0116800D01*
X0257715Y0115917D01*
X0256083Y0114285D01*
X0255200Y0112154D01*
X0255200Y0109846D01*
X0255643Y0108778D01*
X0238881Y0092016D01*
X0238500Y0091097D01*
X0238500Y0086242D01*
X0237715Y0085917D01*
X0236083Y0084285D01*
X0235200Y0082154D01*
X0235200Y0079846D01*
X0236083Y0077715D01*
X0237715Y0076083D01*
X0239846Y0075200D01*
X0242154Y0075200D01*
X0244285Y0076083D01*
X0245917Y0077715D01*
X0246330Y0078712D01*
X0246553Y0078275D01*
X0247034Y0077612D01*
X0247612Y0077034D01*
X0248275Y0076553D01*
X0249004Y0076181D01*
X0249782Y0075928D01*
X0250591Y0075800D01*
X0250700Y0075800D01*
X0250700Y0080700D01*
X0251300Y0080700D01*
X0251300Y0075800D01*
X0251409Y0075800D01*
X0252218Y0075928D01*
X0251300Y0075888D02*
X0250700Y0075888D01*
X0250033Y0075888D02*
X0243816Y0075888D01*
X0245089Y0076887D02*
X0247814Y0076887D01*
X0246835Y0077885D02*
X0245988Y0077885D01*
X0250700Y0077885D02*
X0251300Y0077885D01*
X0251300Y0076887D02*
X0250700Y0076887D01*
X0250700Y0078884D02*
X0251300Y0078884D01*
X0251300Y0079882D02*
X0250700Y0079882D01*
X0251300Y0080881D02*
X0271000Y0080881D01*
X0271000Y0081879D02*
X0256126Y0081879D01*
X0255857Y0082878D02*
X0271000Y0082878D01*
X0271000Y0083876D02*
X0255338Y0083876D01*
X0254479Y0084875D02*
X0271000Y0084875D01*
X0271000Y0085873D02*
X0252829Y0085873D01*
X0251300Y0085873D02*
X0250700Y0085873D01*
X0250700Y0084875D02*
X0251300Y0084875D01*
X0251300Y0083876D02*
X0250700Y0083876D01*
X0250700Y0082878D02*
X0251300Y0082878D01*
X0251300Y0081879D02*
X0250700Y0081879D01*
X0249171Y0085873D02*
X0244329Y0085873D01*
X0243500Y0086872D02*
X0271000Y0086872D01*
X0271000Y0087870D02*
X0243500Y0087870D01*
X0243500Y0088869D02*
X0271000Y0088869D01*
X0271000Y0089868D02*
X0243803Y0089868D01*
X0244802Y0090866D02*
X0271000Y0090866D01*
X0271000Y0091865D02*
X0245800Y0091865D01*
X0246799Y0092863D02*
X0271000Y0092863D01*
X0271000Y0093862D02*
X0247797Y0093862D01*
X0248796Y0094860D02*
X0271000Y0094860D01*
X0271000Y0095859D02*
X0249794Y0095859D01*
X0250793Y0096857D02*
X0271000Y0096857D01*
X0271000Y0097856D02*
X0251791Y0097856D01*
X0252790Y0098854D02*
X0271000Y0098854D01*
X0271000Y0099853D02*
X0253788Y0099853D01*
X0254787Y0100851D02*
X0271000Y0100851D01*
X0271000Y0101850D02*
X0255785Y0101850D01*
X0256784Y0102848D02*
X0271000Y0102848D01*
X0271000Y0103847D02*
X0257782Y0103847D01*
X0258781Y0104845D02*
X0271000Y0104845D01*
X0271000Y0105844D02*
X0263708Y0105844D01*
X0265045Y0106842D02*
X0271000Y0106842D01*
X0271000Y0107841D02*
X0265969Y0107841D01*
X0266383Y0108839D02*
X0271000Y0108839D01*
X0271000Y0109838D02*
X0266796Y0109838D01*
X0266800Y0110836D02*
X0271000Y0110836D01*
X0271000Y0111835D02*
X0266800Y0111835D01*
X0266519Y0112833D02*
X0271000Y0112833D01*
X0271000Y0113832D02*
X0266105Y0113832D01*
X0265372Y0114830D02*
X0271000Y0114830D01*
X0271000Y0115829D02*
X0264374Y0115829D01*
X0271000Y0116827D02*
X0166300Y0116827D01*
X0166300Y0115829D02*
X0227626Y0115829D01*
X0226628Y0114830D02*
X0166252Y0114830D01*
X0165839Y0113832D02*
X0225895Y0113832D01*
X0225481Y0112833D02*
X0165329Y0112833D01*
X0165701Y0111835D02*
X0225200Y0111835D01*
X0225200Y0110836D02*
X0166699Y0110836D01*
X0167698Y0109838D02*
X0225204Y0109838D01*
X0225304Y0108839D02*
X0168241Y0108839D01*
X0168300Y0107841D02*
X0224305Y0107841D01*
X0223307Y0106842D02*
X0168300Y0106842D01*
X0168300Y0105844D02*
X0222308Y0105844D01*
X0221310Y0104845D02*
X0168300Y0104845D01*
X0168300Y0103847D02*
X0220311Y0103847D01*
X0219313Y0102848D02*
X0167946Y0102848D01*
X0166985Y0101850D02*
X0218314Y0101850D01*
X0217316Y0100851D02*
X0165987Y0100851D01*
X0164988Y0099853D02*
X0216317Y0099853D01*
X0215319Y0098854D02*
X0165554Y0098854D01*
X0165358Y0092863D02*
X0239728Y0092863D01*
X0238818Y0091865D02*
X0164360Y0091865D01*
X0163102Y0090866D02*
X0238500Y0090866D01*
X0238500Y0089868D02*
X0164628Y0089868D01*
X0165548Y0088869D02*
X0238500Y0088869D01*
X0238500Y0087870D02*
X0165962Y0087870D01*
X0166300Y0086872D02*
X0238500Y0086872D01*
X0237671Y0085873D02*
X0166300Y0085873D01*
X0166271Y0084875D02*
X0236673Y0084875D01*
X0235914Y0083876D02*
X0165857Y0083876D01*
X0165373Y0082878D02*
X0235500Y0082878D01*
X0235200Y0081879D02*
X0164375Y0081879D01*
X0162491Y0080881D02*
X0235200Y0080881D01*
X0235200Y0079882D02*
X0158700Y0079882D01*
X0158700Y0078884D02*
X0235599Y0078884D01*
X0236012Y0077885D02*
X0158700Y0077885D01*
X0158700Y0076887D02*
X0236911Y0076887D01*
X0238184Y0075888D02*
X0158700Y0075888D01*
X0158700Y0080881D02*
X0159509Y0080881D01*
X0138500Y0080881D02*
X0132491Y0080881D01*
X0132054Y0080700D02*
X0134002Y0081507D01*
X0135493Y0082998D01*
X0136300Y0084946D01*
X0136300Y0087054D01*
X0135493Y0089002D01*
X0134002Y0090493D01*
X0132778Y0091000D01*
X0134002Y0091507D01*
X0135493Y0092998D01*
X0136300Y0094946D01*
X0136300Y0097054D01*
X0135493Y0099002D01*
X0134002Y0100493D01*
X0132778Y0101000D01*
X0134002Y0101507D01*
X0135493Y0102998D01*
X0136300Y0104946D01*
X0136300Y0107054D01*
X0135493Y0109002D01*
X0134002Y0110493D01*
X0132778Y0111000D01*
X0134002Y0111507D01*
X0135493Y0112998D01*
X0136300Y0114946D01*
X0136300Y0117054D01*
X0135493Y0119002D01*
X0134002Y0120493D01*
X0132778Y0121000D01*
X0134002Y0121507D01*
X0135493Y0122998D01*
X0136300Y0124946D01*
X0136300Y0127054D01*
X0135493Y0129002D01*
X0134002Y0130493D01*
X0132778Y0131000D01*
X0134002Y0131507D01*
X0135493Y0132998D01*
X0136300Y0134946D01*
X0136300Y0137054D01*
X0135493Y0139002D01*
X0134002Y0140493D01*
X0132054Y0141300D01*
X0129946Y0141300D01*
X0127998Y0140493D01*
X0126507Y0139002D01*
X0125700Y0137054D01*
X0125700Y0134946D01*
X0126507Y0132998D01*
X0127998Y0131507D01*
X0129222Y0131000D01*
X0127998Y0130493D01*
X0126507Y0129002D01*
X0125700Y0127054D01*
X0125700Y0124946D01*
X0126507Y0122998D01*
X0127998Y0121507D01*
X0129222Y0121000D01*
X0127998Y0120493D01*
X0126507Y0119002D01*
X0125700Y0117054D01*
X0125700Y0114946D01*
X0126507Y0112998D01*
X0127998Y0111507D01*
X0129222Y0111000D01*
X0127998Y0110493D01*
X0126507Y0109002D01*
X0125700Y0107054D01*
X0125700Y0104946D01*
X0126507Y0102998D01*
X0127998Y0101507D01*
X0129222Y0101000D01*
X0127998Y0100493D01*
X0126507Y0099002D01*
X0125700Y0097054D01*
X0125700Y0094946D01*
X0126507Y0092998D01*
X0127998Y0091507D01*
X0129222Y0091000D01*
X0127998Y0090493D01*
X0126507Y0089002D01*
X0125700Y0087054D01*
X0125700Y0084946D01*
X0126507Y0082998D01*
X0127998Y0081507D01*
X0129946Y0080700D01*
X0132054Y0080700D01*
X0129509Y0080881D02*
X0119055Y0080881D01*
X0120053Y0079882D02*
X0138500Y0079882D01*
X0138500Y0078884D02*
X0121052Y0078884D01*
X0122050Y0077885D02*
X0138500Y0077885D01*
X0138500Y0076887D02*
X0123049Y0076887D01*
X0124047Y0075888D02*
X0138500Y0075888D01*
X0138500Y0074890D02*
X0125046Y0074890D01*
X0126044Y0073891D02*
X0138500Y0073891D01*
X0138500Y0072893D02*
X0127043Y0072893D01*
X0128041Y0071894D02*
X0138500Y0071894D01*
X0138500Y0070896D02*
X0129040Y0070896D01*
X0130038Y0069897D02*
X0138500Y0069897D01*
X0138500Y0068899D02*
X0131037Y0068899D01*
X0132035Y0067900D02*
X0138500Y0067900D01*
X0138500Y0066902D02*
X0133034Y0066902D01*
X0116976Y0075888D02*
X0107640Y0075888D01*
X0109453Y0076887D02*
X0115978Y0076887D01*
X0114979Y0077885D02*
X0110451Y0077885D01*
X0104360Y0075888D02*
X0087640Y0075888D01*
X0089453Y0076887D02*
X0102547Y0076887D01*
X0101549Y0077885D02*
X0090451Y0077885D01*
X0090914Y0078884D02*
X0101086Y0078884D01*
X0100672Y0079882D02*
X0091328Y0079882D01*
X0091350Y0080881D02*
X0100650Y0080881D01*
X0100650Y0081879D02*
X0091350Y0081879D01*
X0091013Y0082878D02*
X0100987Y0082878D01*
X0101401Y0083876D02*
X0090599Y0083876D01*
X0090010Y0084875D02*
X0102309Y0084875D01*
X0103785Y0085873D02*
X0091009Y0085873D01*
X0092007Y0086872D02*
X0103639Y0086872D01*
X0102412Y0087870D02*
X0093006Y0087870D01*
X0094005Y0088869D02*
X0101755Y0088869D01*
X0101374Y0089868D02*
X0095003Y0089868D01*
X0096002Y0090866D02*
X0105811Y0090866D01*
X0106189Y0090866D02*
X0128898Y0090866D01*
X0127640Y0091865D02*
X0110672Y0091865D01*
X0110382Y0092863D02*
X0126642Y0092863D01*
X0126149Y0093862D02*
X0109792Y0093862D01*
X0108768Y0094860D02*
X0125735Y0094860D01*
X0125700Y0095859D02*
X0100994Y0095859D01*
X0101993Y0096857D02*
X0125700Y0096857D01*
X0126032Y0097856D02*
X0102991Y0097856D01*
X0103480Y0098854D02*
X0126446Y0098854D01*
X0127357Y0099853D02*
X0103500Y0099853D01*
X0103500Y0100851D02*
X0128862Y0100851D01*
X0127655Y0101850D02*
X0103500Y0101850D01*
X0103500Y0102848D02*
X0126657Y0102848D01*
X0126155Y0103847D02*
X0103500Y0103847D01*
X0103500Y0104845D02*
X0125742Y0104845D01*
X0125700Y0105844D02*
X0103500Y0105844D01*
X0103500Y0106842D02*
X0125700Y0106842D01*
X0126026Y0107841D02*
X0103500Y0107841D01*
X0103500Y0108839D02*
X0126439Y0108839D01*
X0127342Y0109838D02*
X0103500Y0109838D01*
X0103500Y0110836D02*
X0128826Y0110836D01*
X0127670Y0111835D02*
X0103500Y0111835D01*
X0103500Y0112833D02*
X0126671Y0112833D01*
X0126161Y0113832D02*
X0103500Y0113832D01*
X0103500Y0114830D02*
X0125748Y0114830D01*
X0125700Y0115829D02*
X0103500Y0115829D01*
X0103500Y0116827D02*
X0125700Y0116827D01*
X0126020Y0117826D02*
X0103500Y0117826D01*
X0103500Y0118824D02*
X0126433Y0118824D01*
X0127328Y0119823D02*
X0103500Y0119823D01*
X0103500Y0120821D02*
X0128790Y0120821D01*
X0127685Y0121820D02*
X0103500Y0121820D01*
X0103500Y0122818D02*
X0126686Y0122818D01*
X0126168Y0123817D02*
X0103500Y0123817D01*
X0103500Y0124815D02*
X0125754Y0124815D01*
X0125700Y0125814D02*
X0103636Y0125814D01*
X0105015Y0126812D02*
X0125700Y0126812D01*
X0126013Y0127811D02*
X0105957Y0127811D01*
X0106371Y0128809D02*
X0126427Y0128809D01*
X0127313Y0129808D02*
X0106784Y0129808D01*
X0106800Y0130806D02*
X0128754Y0130806D01*
X0127700Y0131805D02*
X0106800Y0131805D01*
X0106531Y0132803D02*
X0126701Y0132803D01*
X0126174Y0133802D02*
X0106117Y0133802D01*
X0105402Y0134801D02*
X0125760Y0134801D01*
X0125700Y0135799D02*
X0104403Y0135799D01*
X0105000Y0136798D02*
X0125700Y0136798D01*
X0126007Y0137796D02*
X0105951Y0137796D01*
X0106364Y0138795D02*
X0126421Y0138795D01*
X0127298Y0139793D02*
X0106778Y0139793D01*
X0106800Y0140792D02*
X0128718Y0140792D01*
X0129196Y0141644D02*
X0129899Y0141416D01*
X0130630Y0141300D01*
X0130700Y0141300D01*
X0130700Y0145700D01*
X0131300Y0145700D01*
X0131300Y0146300D01*
X0135700Y0146300D01*
X0135700Y0146370D01*
X0135584Y0147101D01*
X0135356Y0147804D01*
X0135020Y0148463D01*
X0134585Y0149062D01*
X0134062Y0149585D01*
X0133463Y0150020D01*
X0132804Y0150356D01*
X0132101Y0150584D01*
X0131370Y0150700D01*
X0131300Y0150700D01*
X0131300Y0146300D01*
X0130700Y0146300D01*
X0130700Y0150700D01*
X0130630Y0150700D01*
X0129899Y0150584D01*
X0129196Y0150356D01*
X0128537Y0150020D01*
X0127938Y0149585D01*
X0127415Y0149062D01*
X0126980Y0148463D01*
X0126644Y0147804D01*
X0126416Y0147101D01*
X0126300Y0146370D01*
X0126300Y0146300D01*
X0130700Y0146300D01*
X0130700Y0145700D01*
X0126300Y0145700D01*
X0126300Y0145630D01*
X0126416Y0144899D01*
X0126644Y0144196D01*
X0126980Y0143537D01*
X0127415Y0142938D01*
X0127938Y0142415D01*
X0128537Y0141980D01*
X0129196Y0141644D01*
X0128910Y0141790D02*
X0106800Y0141790D01*
X0106537Y0142789D02*
X0127565Y0142789D01*
X0126853Y0143787D02*
X0107323Y0143787D01*
X0108321Y0144786D02*
X0126453Y0144786D01*
X0126365Y0146783D02*
X0110318Y0146783D01*
X0110700Y0147781D02*
X0126637Y0147781D01*
X0127210Y0148780D02*
X0110700Y0148780D01*
X0110700Y0149778D02*
X0128204Y0149778D01*
X0129761Y0150777D02*
X0110700Y0150777D01*
X0110700Y0151775D02*
X0127729Y0151775D01*
X0126731Y0152774D02*
X0110700Y0152774D01*
X0110700Y0153772D02*
X0126186Y0153772D01*
X0125772Y0154771D02*
X0110700Y0154771D01*
X0110700Y0155769D02*
X0125700Y0155769D01*
X0125700Y0156768D02*
X0110700Y0156768D01*
X0110700Y0157766D02*
X0125995Y0157766D01*
X0126409Y0158765D02*
X0110700Y0158765D01*
X0110700Y0159763D02*
X0127268Y0159763D01*
X0128646Y0160762D02*
X0110700Y0160762D01*
X0110700Y0161760D02*
X0127744Y0161760D01*
X0126746Y0162759D02*
X0110700Y0162759D01*
X0110700Y0163757D02*
X0126192Y0163757D01*
X0125779Y0164756D02*
X0110700Y0164756D01*
X0110700Y0165754D02*
X0125700Y0165754D01*
X0125700Y0166753D02*
X0110700Y0166753D01*
X0110700Y0167751D02*
X0125989Y0167751D01*
X0126402Y0168750D02*
X0110700Y0168750D01*
X0111684Y0169748D02*
X0127253Y0169748D01*
X0128611Y0170747D02*
X0112682Y0170747D01*
X0113681Y0171745D02*
X0127759Y0171745D01*
X0126761Y0172744D02*
X0114679Y0172744D01*
X0115678Y0173742D02*
X0126198Y0173742D01*
X0125785Y0174741D02*
X0116676Y0174741D01*
X0117675Y0175739D02*
X0125700Y0175739D01*
X0125700Y0176738D02*
X0118674Y0176738D01*
X0119672Y0177737D02*
X0125983Y0177737D01*
X0126396Y0178735D02*
X0120671Y0178735D01*
X0121669Y0179734D02*
X0127238Y0179734D01*
X0128575Y0180732D02*
X0122668Y0180732D01*
X0123666Y0181731D02*
X0127774Y0181731D01*
X0126776Y0182729D02*
X0124665Y0182729D01*
X0125663Y0183728D02*
X0126205Y0183728D01*
X0133425Y0180732D02*
X0158575Y0180732D01*
X0157774Y0181731D02*
X0134226Y0181731D01*
X0135224Y0182729D02*
X0156776Y0182729D01*
X0156205Y0183728D02*
X0135795Y0183728D01*
X0136209Y0184726D02*
X0155791Y0184726D01*
X0155700Y0185725D02*
X0136300Y0185725D01*
X0136300Y0186723D02*
X0155700Y0186723D01*
X0155976Y0187722D02*
X0136024Y0187722D01*
X0135610Y0188720D02*
X0156390Y0188720D01*
X0157223Y0189719D02*
X0134777Y0189719D01*
X0133461Y0190717D02*
X0158539Y0190717D01*
X0157789Y0191716D02*
X0134211Y0191716D01*
X0135209Y0192714D02*
X0156790Y0192714D01*
X0156211Y0193713D02*
X0135789Y0193713D01*
X0136203Y0194711D02*
X0155797Y0194711D01*
X0155700Y0195710D02*
X0136300Y0195710D01*
X0136300Y0196708D02*
X0155700Y0196708D01*
X0155970Y0197707D02*
X0136030Y0197707D01*
X0135616Y0198705D02*
X0156384Y0198705D01*
X0157208Y0199704D02*
X0134792Y0199704D01*
X0133497Y0200702D02*
X0158503Y0200702D01*
X0157804Y0201701D02*
X0134196Y0201701D01*
X0135195Y0202699D02*
X0156805Y0202699D01*
X0156217Y0203698D02*
X0135783Y0203698D01*
X0136197Y0204696D02*
X0155803Y0204696D01*
X0155700Y0205695D02*
X0136300Y0205695D01*
X0136300Y0206693D02*
X0155700Y0206693D01*
X0155964Y0207692D02*
X0136036Y0207692D01*
X0135622Y0208690D02*
X0156378Y0208690D01*
X0157194Y0209689D02*
X0134806Y0209689D01*
X0133533Y0210687D02*
X0158467Y0210687D01*
X0157819Y0211686D02*
X0134181Y0211686D01*
X0135180Y0212684D02*
X0156820Y0212684D01*
X0156223Y0213683D02*
X0135777Y0213683D01*
X0136190Y0214681D02*
X0155809Y0214681D01*
X0155700Y0215680D02*
X0136300Y0215680D01*
X0136300Y0216678D02*
X0155700Y0216678D01*
X0155958Y0217677D02*
X0136042Y0217677D01*
X0135628Y0218675D02*
X0156372Y0218675D01*
X0157179Y0219674D02*
X0134821Y0219674D01*
X0133569Y0220672D02*
X0158431Y0220672D01*
X0163569Y0220672D02*
X0192470Y0220672D01*
X0193112Y0221671D02*
X0036000Y0221671D01*
X0036000Y0222670D02*
X0191992Y0222670D01*
X0191352Y0223668D02*
X0036000Y0223668D01*
X0036000Y0224667D02*
X0190966Y0224667D01*
X0190840Y0226664D02*
X0036000Y0226664D01*
X0036000Y0227662D02*
X0191072Y0227662D01*
X0191520Y0228661D02*
X0036000Y0228661D01*
X0036000Y0229659D02*
X0192305Y0229659D01*
X0193687Y0230658D02*
X0036000Y0230658D01*
X0036000Y0225665D02*
X0195500Y0225665D01*
X0196500Y0225665D02*
X0225200Y0225665D01*
X0225200Y0226664D02*
X0201160Y0226664D01*
X0200928Y0227662D02*
X0225411Y0227662D01*
X0225824Y0228661D02*
X0200480Y0228661D01*
X0199695Y0229659D02*
X0226457Y0229659D01*
X0227455Y0230658D02*
X0198313Y0230658D01*
X0201034Y0224667D02*
X0225274Y0224667D01*
X0225688Y0223668D02*
X0200648Y0223668D01*
X0200008Y0222670D02*
X0226128Y0222670D01*
X0227127Y0221671D02*
X0198888Y0221671D01*
X0199530Y0220672D02*
X0228706Y0220672D01*
X0233294Y0220672D02*
X0252337Y0220672D01*
X0251338Y0219674D02*
X0200528Y0219674D01*
X0201170Y0218675D02*
X0250340Y0218675D01*
X0249341Y0217677D02*
X0201583Y0217677D01*
X0201800Y0216678D02*
X0248343Y0216678D01*
X0247344Y0215680D02*
X0201800Y0215680D01*
X0201732Y0214681D02*
X0246346Y0214681D01*
X0245347Y0213683D02*
X0201318Y0213683D01*
X0200887Y0212684D02*
X0244349Y0212684D01*
X0243350Y0211686D02*
X0199888Y0211686D01*
X0199515Y0210687D02*
X0242352Y0210687D01*
X0241353Y0209689D02*
X0200514Y0209689D01*
X0201163Y0208690D02*
X0240355Y0208690D01*
X0239356Y0207692D02*
X0201577Y0207692D01*
X0201800Y0206693D02*
X0238664Y0206693D01*
X0238500Y0205695D02*
X0201800Y0205695D01*
X0201738Y0204696D02*
X0238500Y0204696D01*
X0238500Y0203698D02*
X0201324Y0203698D01*
X0200902Y0202699D02*
X0238500Y0202699D01*
X0238500Y0201701D02*
X0199903Y0201701D01*
X0199500Y0200702D02*
X0237500Y0200702D01*
X0236501Y0199704D02*
X0200499Y0199704D01*
X0201157Y0198705D02*
X0235843Y0198705D01*
X0235429Y0197707D02*
X0201571Y0197707D01*
X0201800Y0196708D02*
X0235200Y0196708D01*
X0235200Y0195710D02*
X0201800Y0195710D01*
X0201744Y0194711D02*
X0235256Y0194711D01*
X0235670Y0193713D02*
X0201330Y0193713D01*
X0200917Y0192714D02*
X0236083Y0192714D01*
X0237082Y0191716D02*
X0199918Y0191716D01*
X0199485Y0190717D02*
X0238598Y0190717D01*
X0243402Y0190717D02*
X0271000Y0190717D01*
X0271000Y0189719D02*
X0200484Y0189719D01*
X0201151Y0188720D02*
X0271000Y0188720D01*
X0271000Y0187722D02*
X0201565Y0187722D01*
X0201800Y0186723D02*
X0271000Y0186723D01*
X0271000Y0185725D02*
X0201800Y0185725D01*
X0201750Y0184726D02*
X0271000Y0184726D01*
X0271000Y0183728D02*
X0201337Y0183728D01*
X0200923Y0182729D02*
X0271000Y0182729D01*
X0271000Y0181731D02*
X0199933Y0181731D01*
X0199470Y0180732D02*
X0271000Y0180732D01*
X0271000Y0179734D02*
X0200469Y0179734D01*
X0201145Y0178735D02*
X0271000Y0178735D01*
X0271000Y0177737D02*
X0201559Y0177737D01*
X0201800Y0176738D02*
X0229697Y0176738D01*
X0229846Y0176800D02*
X0227715Y0175917D01*
X0226083Y0174285D01*
X0225200Y0172154D01*
X0225200Y0169846D01*
X0226083Y0167715D01*
X0227715Y0166083D01*
X0229846Y0165200D01*
X0232154Y0165200D01*
X0234285Y0166083D01*
X0235917Y0167715D01*
X0236800Y0169846D01*
X0236800Y0172154D01*
X0235917Y0174285D01*
X0234285Y0175917D01*
X0232154Y0176800D01*
X0229846Y0176800D01*
X0232303Y0176738D02*
X0259697Y0176738D01*
X0259846Y0176800D02*
X0257715Y0175917D01*
X0256083Y0174285D01*
X0255200Y0172154D01*
X0255200Y0169846D01*
X0255643Y0168778D01*
X0238881Y0152016D01*
X0238500Y0151097D01*
X0238500Y0146242D01*
X0237715Y0145917D01*
X0236083Y0144285D01*
X0235200Y0142154D01*
X0235200Y0139846D01*
X0236083Y0137715D01*
X0237715Y0136083D01*
X0239846Y0135200D01*
X0242154Y0135200D01*
X0244285Y0136083D01*
X0245917Y0137715D01*
X0246330Y0138712D01*
X0246553Y0138275D01*
X0247034Y0137612D01*
X0247612Y0137034D01*
X0248275Y0136553D01*
X0249004Y0136181D01*
X0249782Y0135928D01*
X0250591Y0135800D01*
X0250700Y0135800D01*
X0250700Y0140700D01*
X0251300Y0140700D01*
X0251300Y0141300D01*
X0256200Y0141300D01*
X0256200Y0141409D01*
X0256072Y0142218D01*
X0255819Y0142996D01*
X0255447Y0143725D01*
X0254966Y0144388D01*
X0254388Y0144966D01*
X0253725Y0145447D01*
X0252996Y0145819D01*
X0252218Y0146072D01*
X0251409Y0146200D01*
X0251300Y0146200D01*
X0251300Y0141300D01*
X0250700Y0141300D01*
X0250700Y0146200D01*
X0250591Y0146200D01*
X0249782Y0146072D01*
X0249004Y0145819D01*
X0248275Y0145447D01*
X0247612Y0144966D01*
X0247034Y0144388D01*
X0246553Y0143725D01*
X0246330Y0143288D01*
X0245917Y0144285D01*
X0244285Y0145917D01*
X0243500Y0146242D01*
X0243500Y0149564D01*
X0259344Y0165408D01*
X0259846Y0165200D01*
X0262154Y0165200D01*
X0264285Y0166083D01*
X0265917Y0167715D01*
X0266800Y0169846D01*
X0266800Y0172154D01*
X0265917Y0174285D01*
X0264285Y0175917D01*
X0262154Y0176800D01*
X0259846Y0176800D01*
X0262303Y0176738D02*
X0271000Y0176738D01*
X0271000Y0175739D02*
X0264463Y0175739D01*
X0265461Y0174741D02*
X0271000Y0174741D01*
X0271000Y0173742D02*
X0266142Y0173742D01*
X0266555Y0172744D02*
X0271000Y0172744D01*
X0271000Y0171745D02*
X0266800Y0171745D01*
X0266800Y0170747D02*
X0271000Y0170747D01*
X0271000Y0169748D02*
X0266759Y0169748D01*
X0266346Y0168750D02*
X0271000Y0168750D01*
X0271000Y0167751D02*
X0265932Y0167751D01*
X0264955Y0166753D02*
X0271000Y0166753D01*
X0271000Y0165754D02*
X0263492Y0165754D01*
X0258691Y0164756D02*
X0271000Y0164756D01*
X0271000Y0163757D02*
X0257693Y0163757D01*
X0256694Y0162759D02*
X0271000Y0162759D01*
X0271000Y0161760D02*
X0255696Y0161760D01*
X0254697Y0160762D02*
X0271000Y0160762D01*
X0271000Y0159763D02*
X0253699Y0159763D01*
X0252700Y0158765D02*
X0271000Y0158765D01*
X0271000Y0157766D02*
X0251702Y0157766D01*
X0250703Y0156768D02*
X0271000Y0156768D01*
X0271000Y0155769D02*
X0249705Y0155769D01*
X0248706Y0154771D02*
X0271000Y0154771D01*
X0271000Y0153772D02*
X0247708Y0153772D01*
X0246709Y0152774D02*
X0271000Y0152774D01*
X0271000Y0151775D02*
X0245711Y0151775D01*
X0244712Y0150777D02*
X0271000Y0150777D01*
X0271000Y0149778D02*
X0243714Y0149778D01*
X0243500Y0148780D02*
X0271000Y0148780D01*
X0271000Y0147781D02*
X0243500Y0147781D01*
X0243500Y0146783D02*
X0271000Y0146783D01*
X0271000Y0145784D02*
X0253065Y0145784D01*
X0251300Y0145784D02*
X0250700Y0145784D01*
X0250700Y0144786D02*
X0251300Y0144786D01*
X0251300Y0143787D02*
X0250700Y0143787D01*
X0250700Y0142789D02*
X0251300Y0142789D01*
X0251300Y0141790D02*
X0250700Y0141790D01*
X0251300Y0140792D02*
X0271000Y0140792D01*
X0271000Y0141790D02*
X0256140Y0141790D01*
X0255886Y0142789D02*
X0271000Y0142789D01*
X0271000Y0143787D02*
X0255403Y0143787D01*
X0254568Y0144786D02*
X0271000Y0144786D01*
X0271000Y0139793D02*
X0256074Y0139793D01*
X0256072Y0139782D02*
X0256200Y0140591D01*
X0256200Y0140700D01*
X0251300Y0140700D01*
X0251300Y0135800D01*
X0251409Y0135800D01*
X0252218Y0135928D01*
X0252996Y0136181D01*
X0253725Y0136553D01*
X0254388Y0137034D01*
X0254966Y0137612D01*
X0255447Y0138275D01*
X0255819Y0139004D01*
X0256072Y0139782D01*
X0255712Y0138795D02*
X0271000Y0138795D01*
X0271000Y0137796D02*
X0255100Y0137796D01*
X0254063Y0136798D02*
X0271000Y0136798D01*
X0271000Y0135799D02*
X0243600Y0135799D01*
X0245000Y0136798D02*
X0247937Y0136798D01*
X0246900Y0137796D02*
X0245951Y0137796D01*
X0250700Y0137796D02*
X0251300Y0137796D01*
X0251300Y0136798D02*
X0250700Y0136798D01*
X0250700Y0138795D02*
X0251300Y0138795D01*
X0251300Y0139793D02*
X0250700Y0139793D01*
X0246597Y0143787D02*
X0246123Y0143787D01*
X0245417Y0144786D02*
X0247432Y0144786D01*
X0248935Y0145784D02*
X0244418Y0145784D01*
X0238500Y0146783D02*
X0175118Y0146783D01*
X0176117Y0147781D02*
X0238500Y0147781D01*
X0238500Y0148780D02*
X0177115Y0148780D01*
X0178114Y0149778D02*
X0238500Y0149778D01*
X0238500Y0150777D02*
X0198546Y0150777D01*
X0199978Y0151775D02*
X0238781Y0151775D01*
X0239638Y0152774D02*
X0200941Y0152774D01*
X0201355Y0153772D02*
X0240637Y0153772D01*
X0241635Y0154771D02*
X0201769Y0154771D01*
X0201800Y0155769D02*
X0242634Y0155769D01*
X0243632Y0156768D02*
X0201800Y0156768D01*
X0201546Y0157766D02*
X0244631Y0157766D01*
X0245629Y0158765D02*
X0201133Y0158765D01*
X0200439Y0159763D02*
X0246628Y0159763D01*
X0247626Y0160762D02*
X0199441Y0160762D01*
X0199963Y0161760D02*
X0248625Y0161760D01*
X0249623Y0162759D02*
X0200935Y0162759D01*
X0201349Y0163757D02*
X0250622Y0163757D01*
X0251620Y0164756D02*
X0201763Y0164756D01*
X0201800Y0165754D02*
X0228508Y0165754D01*
X0227045Y0166753D02*
X0201800Y0166753D01*
X0201552Y0167751D02*
X0226068Y0167751D01*
X0225654Y0168750D02*
X0201139Y0168750D01*
X0200454Y0169748D02*
X0225241Y0169748D01*
X0225200Y0170747D02*
X0199455Y0170747D01*
X0199948Y0171745D02*
X0225200Y0171745D01*
X0225445Y0172744D02*
X0200929Y0172744D01*
X0201343Y0173742D02*
X0225858Y0173742D01*
X0226539Y0174741D02*
X0201756Y0174741D01*
X0201800Y0175739D02*
X0227537Y0175739D01*
X0234463Y0175739D02*
X0257537Y0175739D01*
X0256539Y0174741D02*
X0235461Y0174741D01*
X0236142Y0173742D02*
X0255858Y0173742D01*
X0255445Y0172744D02*
X0236555Y0172744D01*
X0236800Y0171745D02*
X0255200Y0171745D01*
X0255200Y0170747D02*
X0236800Y0170747D01*
X0236759Y0169748D02*
X0255241Y0169748D01*
X0255614Y0168750D02*
X0236346Y0168750D01*
X0235932Y0167751D02*
X0254616Y0167751D01*
X0253617Y0166753D02*
X0234955Y0166753D01*
X0233492Y0165754D02*
X0252619Y0165754D01*
X0237582Y0145784D02*
X0174120Y0145784D01*
X0173121Y0144786D02*
X0236583Y0144786D01*
X0235877Y0143787D02*
X0172123Y0143787D01*
X0171124Y0142789D02*
X0235463Y0142789D01*
X0235200Y0141790D02*
X0170126Y0141790D01*
X0169127Y0140792D02*
X0235200Y0140792D01*
X0235222Y0139793D02*
X0168129Y0139793D01*
X0167130Y0138795D02*
X0235636Y0138795D01*
X0236049Y0137796D02*
X0166132Y0137796D01*
X0166300Y0136798D02*
X0237000Y0136798D01*
X0238400Y0135799D02*
X0166300Y0135799D01*
X0166240Y0134801D02*
X0271000Y0134801D01*
X0271000Y0133802D02*
X0165826Y0133802D01*
X0165299Y0132803D02*
X0271000Y0132803D01*
X0271000Y0131805D02*
X0164300Y0131805D01*
X0163246Y0130806D02*
X0271000Y0130806D01*
X0271000Y0129808D02*
X0164687Y0129808D01*
X0165573Y0128809D02*
X0271000Y0128809D01*
X0271000Y0127811D02*
X0165987Y0127811D01*
X0166300Y0126812D02*
X0271000Y0126812D01*
X0271000Y0125814D02*
X0166300Y0125814D01*
X0166246Y0124815D02*
X0271000Y0124815D01*
X0271000Y0123817D02*
X0165832Y0123817D01*
X0165314Y0122818D02*
X0271000Y0122818D01*
X0271000Y0121820D02*
X0164315Y0121820D01*
X0163210Y0120821D02*
X0271000Y0120821D01*
X0271000Y0119823D02*
X0164672Y0119823D01*
X0165567Y0118824D02*
X0271000Y0118824D01*
X0271000Y0117826D02*
X0165980Y0117826D01*
X0156684Y0121820D02*
X0134315Y0121820D01*
X0135314Y0122818D02*
X0156686Y0122818D01*
X0156168Y0123817D02*
X0135832Y0123817D01*
X0136246Y0124815D02*
X0155754Y0124815D01*
X0155700Y0125814D02*
X0136300Y0125814D01*
X0136300Y0126812D02*
X0155700Y0126812D01*
X0156013Y0127811D02*
X0135987Y0127811D01*
X0135573Y0128809D02*
X0156427Y0128809D01*
X0157313Y0129808D02*
X0134687Y0129808D01*
X0133246Y0130806D02*
X0158754Y0130806D01*
X0157700Y0131805D02*
X0134300Y0131805D01*
X0135299Y0132803D02*
X0156701Y0132803D01*
X0156174Y0133802D02*
X0135826Y0133802D01*
X0136240Y0134801D02*
X0155760Y0134801D01*
X0155700Y0135799D02*
X0136300Y0135799D01*
X0136300Y0136798D02*
X0155700Y0136798D01*
X0156007Y0137796D02*
X0135993Y0137796D01*
X0135579Y0138795D02*
X0156421Y0138795D01*
X0157298Y0139793D02*
X0134702Y0139793D01*
X0133282Y0140792D02*
X0158718Y0140792D01*
X0157715Y0141790D02*
X0133090Y0141790D01*
X0132804Y0141644D02*
X0133463Y0141980D01*
X0134062Y0142415D01*
X0134585Y0142938D01*
X0135020Y0143537D01*
X0135356Y0144196D01*
X0135584Y0144899D01*
X0135700Y0145630D01*
X0135700Y0145700D01*
X0131300Y0145700D01*
X0131300Y0141300D01*
X0131370Y0141300D01*
X0132101Y0141416D01*
X0132804Y0141644D01*
X0131300Y0141790D02*
X0130700Y0141790D01*
X0130700Y0142789D02*
X0131300Y0142789D01*
X0131300Y0143787D02*
X0130700Y0143787D01*
X0130700Y0144786D02*
X0131300Y0144786D01*
X0131300Y0145784D02*
X0155700Y0145784D01*
X0155700Y0146783D02*
X0135635Y0146783D01*
X0135363Y0147781D02*
X0156001Y0147781D01*
X0156415Y0148780D02*
X0134790Y0148780D01*
X0133796Y0149778D02*
X0157283Y0149778D01*
X0158682Y0150777D02*
X0132239Y0150777D01*
X0131300Y0149778D02*
X0130700Y0149778D01*
X0130700Y0148780D02*
X0131300Y0148780D01*
X0131300Y0147781D02*
X0130700Y0147781D01*
X0130700Y0146783D02*
X0131300Y0146783D01*
X0130700Y0145784D02*
X0109320Y0145784D01*
X0134435Y0142789D02*
X0156716Y0142789D01*
X0156180Y0143787D02*
X0135147Y0143787D01*
X0135547Y0144786D02*
X0155766Y0144786D01*
X0159196Y0151644D02*
X0159899Y0151416D01*
X0160630Y0151300D01*
X0160700Y0151300D01*
X0160700Y0155700D01*
X0161300Y0155700D01*
X0161300Y0156300D01*
X0165700Y0156300D01*
X0165700Y0156370D01*
X0165584Y0157101D01*
X0165356Y0157804D01*
X0165020Y0158463D01*
X0164585Y0159062D01*
X0164062Y0159585D01*
X0163463Y0160020D01*
X0162804Y0160356D01*
X0162101Y0160584D01*
X0161370Y0160700D01*
X0161300Y0160700D01*
X0161300Y0156300D01*
X0160700Y0156300D01*
X0160700Y0160700D01*
X0160630Y0160700D01*
X0159899Y0160584D01*
X0159196Y0160356D01*
X0158537Y0160020D01*
X0157938Y0159585D01*
X0157415Y0159062D01*
X0156980Y0158463D01*
X0156644Y0157804D01*
X0156416Y0157101D01*
X0156300Y0156370D01*
X0156300Y0156300D01*
X0160700Y0156300D01*
X0160700Y0155700D01*
X0156300Y0155700D01*
X0156300Y0155630D01*
X0156416Y0154899D01*
X0156644Y0154196D01*
X0156980Y0153537D01*
X0157415Y0152938D01*
X0157938Y0152415D01*
X0158537Y0151980D01*
X0159196Y0151644D01*
X0158939Y0151775D02*
X0134271Y0151775D01*
X0135269Y0152774D02*
X0157579Y0152774D01*
X0156860Y0153772D02*
X0135814Y0153772D01*
X0136227Y0154771D02*
X0156458Y0154771D01*
X0156363Y0156768D02*
X0136300Y0156768D01*
X0136300Y0155769D02*
X0160700Y0155769D01*
X0161300Y0155769D02*
X0177034Y0155769D01*
X0178032Y0156768D02*
X0165637Y0156768D01*
X0165368Y0157766D02*
X0179380Y0157766D01*
X0176035Y0154771D02*
X0165542Y0154771D01*
X0165584Y0154899D02*
X0165700Y0155630D01*
X0165700Y0155700D01*
X0161300Y0155700D01*
X0161300Y0151300D01*
X0161370Y0151300D01*
X0162101Y0151416D01*
X0162804Y0151644D01*
X0163463Y0151980D01*
X0164062Y0152415D01*
X0164585Y0152938D01*
X0165020Y0153537D01*
X0165356Y0154196D01*
X0165584Y0154899D01*
X0165140Y0153772D02*
X0175037Y0153772D01*
X0174038Y0152774D02*
X0164421Y0152774D01*
X0163061Y0151775D02*
X0173040Y0151775D01*
X0172041Y0150777D02*
X0163318Y0150777D01*
X0164717Y0149778D02*
X0171043Y0149778D01*
X0170044Y0148780D02*
X0165585Y0148780D01*
X0165999Y0147781D02*
X0169046Y0147781D01*
X0168047Y0146783D02*
X0166300Y0146783D01*
X0166300Y0145784D02*
X0167049Y0145784D01*
X0161300Y0151775D02*
X0160700Y0151775D01*
X0160700Y0152774D02*
X0161300Y0152774D01*
X0161300Y0153772D02*
X0160700Y0153772D01*
X0160700Y0154771D02*
X0161300Y0154771D01*
X0161300Y0156768D02*
X0160700Y0156768D01*
X0160700Y0157766D02*
X0161300Y0157766D01*
X0161300Y0158765D02*
X0160700Y0158765D01*
X0160700Y0159763D02*
X0161300Y0159763D01*
X0162203Y0160762D02*
X0192559Y0160762D01*
X0192037Y0161760D02*
X0164256Y0161760D01*
X0165254Y0162759D02*
X0191065Y0162759D01*
X0191561Y0159763D02*
X0163816Y0159763D01*
X0164801Y0158765D02*
X0190867Y0158765D01*
X0191058Y0152774D02*
X0181109Y0152774D01*
X0180111Y0151775D02*
X0192022Y0151775D01*
X0193454Y0150777D02*
X0179112Y0150777D01*
X0159797Y0160762D02*
X0133354Y0160762D01*
X0134256Y0161760D02*
X0157744Y0161760D01*
X0156746Y0162759D02*
X0135254Y0162759D01*
X0135808Y0163757D02*
X0156192Y0163757D01*
X0155779Y0164756D02*
X0136221Y0164756D01*
X0136300Y0165754D02*
X0155700Y0165754D01*
X0155700Y0166753D02*
X0136300Y0166753D01*
X0136011Y0167751D02*
X0155989Y0167751D01*
X0156402Y0168750D02*
X0135598Y0168750D01*
X0134747Y0169748D02*
X0157253Y0169748D01*
X0158611Y0170747D02*
X0133389Y0170747D01*
X0134241Y0171745D02*
X0157759Y0171745D01*
X0156761Y0172744D02*
X0135239Y0172744D01*
X0135802Y0173742D02*
X0156198Y0173742D01*
X0155785Y0174741D02*
X0136215Y0174741D01*
X0136300Y0175739D02*
X0155700Y0175739D01*
X0155700Y0176738D02*
X0136300Y0176738D01*
X0136017Y0177737D02*
X0155983Y0177737D01*
X0156396Y0178735D02*
X0135604Y0178735D01*
X0134762Y0179734D02*
X0157238Y0179734D01*
X0158184Y0159763D02*
X0134732Y0159763D01*
X0135591Y0158765D02*
X0157199Y0158765D01*
X0156632Y0157766D02*
X0136005Y0157766D01*
X0098983Y0189719D02*
X0070231Y0189719D01*
X0071025Y0190717D02*
X0099982Y0190717D01*
X0100980Y0191716D02*
X0071626Y0191716D01*
X0072080Y0192714D02*
X0101979Y0192714D01*
X0102977Y0193713D02*
X0072407Y0193713D01*
X0072620Y0194711D02*
X0103976Y0194711D01*
X0104974Y0195710D02*
X0063626Y0195710D01*
X0063626Y0196708D02*
X0062626Y0196708D01*
X0062626Y0197707D02*
X0063626Y0197707D01*
X0063626Y0198705D02*
X0062626Y0198705D01*
X0062626Y0199704D02*
X0063626Y0199704D01*
X0063626Y0200702D02*
X0062626Y0200702D01*
X0062626Y0201701D02*
X0063626Y0201701D01*
X0063626Y0202699D02*
X0062626Y0202699D01*
X0062626Y0203698D02*
X0063626Y0203698D01*
X0063626Y0204696D02*
X0062626Y0204696D01*
X0065238Y0211686D02*
X0056387Y0211686D01*
X0056255Y0212684D02*
X0065322Y0212684D01*
X0065590Y0213683D02*
X0056012Y0213683D01*
X0055649Y0214681D02*
X0065857Y0214681D01*
X0066331Y0215680D02*
X0055149Y0215680D01*
X0054486Y0216678D02*
X0066907Y0216678D01*
X0067607Y0217677D02*
X0053614Y0217677D01*
X0052462Y0218675D02*
X0068606Y0218675D01*
X0069862Y0219674D02*
X0050721Y0219674D01*
X0047315Y0219674D02*
X0046315Y0219674D01*
X0046315Y0218675D02*
X0047315Y0218675D01*
X0047315Y0217677D02*
X0046315Y0217677D01*
X0046315Y0216678D02*
X0047315Y0216678D01*
X0047315Y0215680D02*
X0046315Y0215680D01*
X0046315Y0214681D02*
X0047315Y0214681D01*
X0047315Y0213683D02*
X0046315Y0213683D01*
X0046315Y0212684D02*
X0047315Y0212684D01*
X0047315Y0211686D02*
X0046315Y0211686D01*
X0039144Y0216678D02*
X0036000Y0216678D01*
X0036000Y0215680D02*
X0038481Y0215680D01*
X0037981Y0214681D02*
X0036000Y0214681D01*
X0036000Y0213683D02*
X0037618Y0213683D01*
X0037375Y0212684D02*
X0036000Y0212684D01*
X0036000Y0211686D02*
X0037243Y0211686D01*
X0036000Y0217677D02*
X0040015Y0217677D01*
X0041168Y0218675D02*
X0036000Y0218675D01*
X0036000Y0219674D02*
X0042909Y0219674D01*
X0036000Y0220672D02*
X0071592Y0220672D01*
X0079682Y0220672D02*
X0128431Y0220672D01*
X0127179Y0219674D02*
X0081412Y0219674D01*
X0082668Y0218675D02*
X0126372Y0218675D01*
X0125958Y0217677D02*
X0083667Y0217677D01*
X0084367Y0216678D02*
X0125700Y0216678D01*
X0124944Y0215680D02*
X0084943Y0215680D01*
X0085417Y0214681D02*
X0123946Y0214681D01*
X0122947Y0213683D02*
X0085684Y0213683D01*
X0085952Y0212684D02*
X0121949Y0212684D01*
X0120950Y0211686D02*
X0086036Y0211686D01*
X0086036Y0210687D02*
X0119952Y0210687D01*
X0118953Y0209689D02*
X0086036Y0209689D01*
X0085784Y0208690D02*
X0117955Y0208690D01*
X0116956Y0207692D02*
X0085517Y0207692D01*
X0085159Y0206693D02*
X0115958Y0206693D01*
X0114959Y0205695D02*
X0084582Y0205695D01*
X0084006Y0204696D02*
X0113961Y0204696D01*
X0112962Y0203698D02*
X0083042Y0203698D01*
X0082043Y0202699D02*
X0111964Y0202699D01*
X0110965Y0201701D02*
X0080329Y0201701D01*
X0077385Y0200702D02*
X0109967Y0200702D01*
X0108968Y0199704D02*
X0072067Y0199704D01*
X0072399Y0198705D02*
X0107970Y0198705D01*
X0106971Y0197707D02*
X0072616Y0197707D01*
X0072726Y0196708D02*
X0105973Y0196708D01*
X0097985Y0188720D02*
X0069156Y0188720D01*
X0067666Y0187722D02*
X0096986Y0187722D01*
X0073889Y0200702D02*
X0071608Y0200702D01*
X0164821Y0219674D02*
X0191472Y0219674D01*
X0234873Y0221671D02*
X0253335Y0221671D01*
X0254334Y0222670D02*
X0235872Y0222670D01*
X0236312Y0223668D02*
X0255333Y0223668D01*
X0255274Y0224667D02*
X0236726Y0224667D01*
X0236800Y0225665D02*
X0255200Y0225665D01*
X0255200Y0226664D02*
X0236800Y0226664D01*
X0236589Y0227662D02*
X0255411Y0227662D01*
X0255824Y0228661D02*
X0236176Y0228661D01*
X0235543Y0229659D02*
X0256457Y0229659D01*
X0257455Y0230658D02*
X0234545Y0230658D01*
X0256412Y0217677D02*
X0271000Y0217677D01*
X0271000Y0218675D02*
X0257411Y0218675D01*
X0258409Y0219674D02*
X0271000Y0219674D01*
X0271000Y0220672D02*
X0263294Y0220672D01*
X0264873Y0221671D02*
X0271000Y0221671D01*
X0271000Y0222670D02*
X0265872Y0222670D01*
X0266312Y0223668D02*
X0271000Y0223668D01*
X0271000Y0224667D02*
X0266726Y0224667D01*
X0266800Y0225665D02*
X0271000Y0225665D01*
X0271000Y0226664D02*
X0266800Y0226664D01*
X0266589Y0227662D02*
X0271000Y0227662D01*
X0271000Y0228661D02*
X0266176Y0228661D01*
X0265543Y0229659D02*
X0271000Y0229659D01*
X0271000Y0230658D02*
X0264545Y0230658D01*
X0271000Y0216678D02*
X0255414Y0216678D01*
X0254415Y0215680D02*
X0271000Y0215680D01*
X0271000Y0214681D02*
X0253417Y0214681D01*
X0252418Y0213683D02*
X0271000Y0213683D01*
X0271000Y0212684D02*
X0251420Y0212684D01*
X0250421Y0211686D02*
X0271000Y0211686D01*
X0271000Y0210687D02*
X0249423Y0210687D01*
X0248424Y0209689D02*
X0271000Y0209689D01*
X0271000Y0208690D02*
X0247426Y0208690D01*
X0246427Y0207692D02*
X0271000Y0207692D01*
X0271000Y0206693D02*
X0245429Y0206693D01*
X0244430Y0205695D02*
X0271000Y0205695D01*
X0271000Y0204696D02*
X0243500Y0204696D01*
X0243500Y0203698D02*
X0271000Y0203698D01*
X0271000Y0202699D02*
X0243500Y0202699D01*
X0243500Y0201701D02*
X0271000Y0201701D01*
X0271000Y0200702D02*
X0253225Y0200702D01*
X0252996Y0200819D02*
X0252218Y0201072D01*
X0251409Y0201200D01*
X0251300Y0201200D01*
X0251300Y0196300D01*
X0256200Y0196300D01*
X0256200Y0196409D01*
X0256072Y0197218D01*
X0255819Y0197996D01*
X0255447Y0198725D01*
X0254966Y0199388D01*
X0254388Y0199966D01*
X0253725Y0200447D01*
X0252996Y0200819D01*
X0251300Y0200702D02*
X0250700Y0200702D01*
X0250700Y0199704D02*
X0251300Y0199704D01*
X0251300Y0198705D02*
X0250700Y0198705D01*
X0250700Y0197707D02*
X0251300Y0197707D01*
X0251300Y0196708D02*
X0250700Y0196708D01*
X0251300Y0195710D02*
X0271000Y0195710D01*
X0271000Y0196708D02*
X0256153Y0196708D01*
X0256200Y0195700D02*
X0251300Y0195700D01*
X0251300Y0190800D01*
X0251409Y0190800D01*
X0252218Y0190928D01*
X0252996Y0191181D01*
X0253725Y0191553D01*
X0254388Y0192034D01*
X0254966Y0192612D01*
X0255447Y0193275D01*
X0255819Y0194004D01*
X0256072Y0194782D01*
X0256200Y0195591D01*
X0256200Y0195700D01*
X0256049Y0194711D02*
X0271000Y0194711D01*
X0271000Y0193713D02*
X0255671Y0193713D01*
X0255040Y0192714D02*
X0271000Y0192714D01*
X0271000Y0191716D02*
X0253950Y0191716D01*
X0251300Y0191716D02*
X0250700Y0191716D01*
X0250700Y0192714D02*
X0251300Y0192714D01*
X0251300Y0193713D02*
X0250700Y0193713D01*
X0250700Y0194711D02*
X0251300Y0194711D01*
X0248050Y0191716D02*
X0244918Y0191716D01*
X0245917Y0192714D02*
X0246960Y0192714D01*
X0255913Y0197707D02*
X0271000Y0197707D01*
X0271000Y0198705D02*
X0255458Y0198705D01*
X0254650Y0199704D02*
X0271000Y0199704D01*
X0248775Y0200702D02*
X0244500Y0200702D01*
X0245499Y0199704D02*
X0247350Y0199704D01*
X0246542Y0198705D02*
X0246157Y0198705D01*
X0155686Y0120821D02*
X0133210Y0120821D01*
X0134672Y0119823D02*
X0154687Y0119823D01*
X0153689Y0118824D02*
X0135567Y0118824D01*
X0135980Y0117826D02*
X0152690Y0117826D01*
X0151692Y0116827D02*
X0136300Y0116827D01*
X0136300Y0115829D02*
X0150693Y0115829D01*
X0149695Y0114830D02*
X0136252Y0114830D01*
X0135839Y0113832D02*
X0148696Y0113832D01*
X0147698Y0112833D02*
X0135329Y0112833D01*
X0134330Y0111835D02*
X0146699Y0111835D01*
X0145701Y0110836D02*
X0133174Y0110836D01*
X0134658Y0109838D02*
X0144702Y0109838D01*
X0143704Y0108839D02*
X0135561Y0108839D01*
X0135974Y0107841D02*
X0142705Y0107841D01*
X0141707Y0106842D02*
X0136300Y0106842D01*
X0136300Y0105844D02*
X0140708Y0105844D01*
X0139710Y0104845D02*
X0136258Y0104845D01*
X0135845Y0103847D02*
X0138810Y0103847D01*
X0138500Y0102848D02*
X0135343Y0102848D01*
X0134345Y0101850D02*
X0138500Y0101850D01*
X0138500Y0100851D02*
X0133138Y0100851D01*
X0134643Y0099853D02*
X0138500Y0099853D01*
X0138500Y0098854D02*
X0135554Y0098854D01*
X0135968Y0097856D02*
X0138500Y0097856D01*
X0138500Y0096857D02*
X0136300Y0096857D01*
X0136300Y0095859D02*
X0138500Y0095859D01*
X0138500Y0094860D02*
X0136264Y0094860D01*
X0135851Y0093862D02*
X0138500Y0093862D01*
X0138500Y0092863D02*
X0135358Y0092863D01*
X0134360Y0091865D02*
X0138500Y0091865D01*
X0138500Y0090866D02*
X0133102Y0090866D01*
X0134628Y0089868D02*
X0138500Y0089868D01*
X0138500Y0088869D02*
X0135548Y0088869D01*
X0135962Y0087870D02*
X0138500Y0087870D01*
X0138500Y0086872D02*
X0136300Y0086872D01*
X0136300Y0085873D02*
X0138500Y0085873D01*
X0138500Y0084875D02*
X0136271Y0084875D01*
X0135857Y0083876D02*
X0138500Y0083876D01*
X0138500Y0082878D02*
X0135373Y0082878D01*
X0134375Y0081879D02*
X0138500Y0081879D01*
X0127625Y0081879D02*
X0118056Y0081879D01*
X0117058Y0082878D02*
X0126627Y0082878D01*
X0126143Y0083876D02*
X0110599Y0083876D01*
X0109691Y0084875D02*
X0125729Y0084875D01*
X0125700Y0085873D02*
X0108215Y0085873D01*
X0108361Y0086872D02*
X0125700Y0086872D01*
X0126038Y0087870D02*
X0109588Y0087870D01*
X0110245Y0088869D02*
X0126452Y0088869D01*
X0127372Y0089868D02*
X0110626Y0089868D01*
X0106189Y0091865D02*
X0105811Y0091865D01*
X0105811Y0092863D02*
X0106189Y0092863D01*
X0106189Y0093862D02*
X0105811Y0093862D01*
X0105811Y0094860D02*
X0106189Y0094860D01*
X0103232Y0094860D02*
X0099996Y0094860D01*
X0098997Y0093862D02*
X0102208Y0093862D01*
X0101618Y0092863D02*
X0097999Y0092863D01*
X0097000Y0091865D02*
X0101328Y0091865D01*
X0217087Y0093862D02*
X0240726Y0093862D01*
X0241725Y0094860D02*
X0218396Y0094860D01*
X0218319Y0094784D02*
X0218319Y0094784D01*
X0219394Y0095859D02*
X0242723Y0095859D01*
X0243722Y0096857D02*
X0220393Y0096857D01*
X0221391Y0097856D02*
X0244720Y0097856D01*
X0245719Y0098854D02*
X0222390Y0098854D01*
X0223388Y0099853D02*
X0246717Y0099853D01*
X0247716Y0100851D02*
X0224387Y0100851D01*
X0225385Y0101850D02*
X0248714Y0101850D01*
X0249713Y0102848D02*
X0226384Y0102848D01*
X0227382Y0103847D02*
X0250711Y0103847D01*
X0251710Y0104845D02*
X0228381Y0104845D01*
X0233708Y0105844D02*
X0252708Y0105844D01*
X0253707Y0106842D02*
X0235045Y0106842D01*
X0235969Y0107841D02*
X0254705Y0107841D01*
X0255617Y0108839D02*
X0236383Y0108839D01*
X0236796Y0109838D02*
X0255204Y0109838D01*
X0255200Y0110836D02*
X0236800Y0110836D01*
X0236800Y0111835D02*
X0255200Y0111835D01*
X0255481Y0112833D02*
X0236519Y0112833D01*
X0236105Y0113832D02*
X0255895Y0113832D01*
X0256628Y0114830D02*
X0235372Y0114830D01*
X0234374Y0115829D02*
X0257626Y0115829D01*
X0247521Y0084875D02*
X0245327Y0084875D01*
X0246086Y0083876D02*
X0246662Y0083876D01*
X0256088Y0079882D02*
X0271000Y0079882D01*
X0271000Y0078884D02*
X0255758Y0078884D01*
X0255165Y0077885D02*
X0271000Y0077885D01*
X0271000Y0076887D02*
X0254186Y0076887D01*
M02*
