%
M48
M72
T01C0.02756
T02C0.03200
T03C0.03543
T04C0.04000
T05C0.11800
T06C0.12598
%
T01
X86000Y81000
X86000Y91000
X106000Y91000
X106000Y81000
T02
X131000Y86000
X131000Y96000
X131000Y106000
X131000Y116000
X131000Y126000
X131000Y136000
X131000Y146000
X131000Y156000
X131000Y166000
X131000Y176000
X131000Y186000
X131000Y196000
X131000Y206000
X131000Y216000
X161000Y216000
X161000Y206000
X161000Y196000
X161000Y186000
X161000Y176000
X161000Y166000
X161000Y156000
X161000Y146000
X161000Y136000
X161000Y126000
X161000Y116000
X161000Y106000
X161000Y96000
X161000Y86000
X241000Y81000
X251000Y81000
X251000Y141000
X241000Y141000
X241000Y196000
X251000Y196000
T03
X261000Y171000
X231000Y171000
X231000Y226000
X261000Y226000
X86000Y146000
X86000Y116000
X231000Y111000
X261000Y111000
T04
X196000Y156000
X196000Y166000
X196000Y176000
X196000Y186000
X196000Y196000
X196000Y206000
X196000Y216000
X196000Y226000
X101000Y181000
X101000Y171000
X101000Y161000
X101000Y151000
X101000Y141000
X101000Y131000
X136000Y61000
X146000Y61000
X156000Y61000
X156000Y51000
X146000Y51000
X136000Y51000
T05
X63126Y196191
X46815Y210900
T06
X75637Y211000
M30
