G75*
%MOIN*%
%OFA0B0*%
%FSLAX25Y25*%
%IPPOS*%
%LPD*%
%AMOC8*
5,1,8,0,0,1.08239X$1,22.5*
%
%ADD10C,0.00600*%
%ADD11C,0.00800*%
%ADD12C,0.00100*%
%ADD13C,0.01000*%
D10*
X0026430Y0056300D02*
X0024295Y0058435D01*
X0026430Y0060570D01*
X0030700Y0060570D01*
X0030700Y0062745D02*
X0030700Y0067016D01*
X0030700Y0069191D02*
X0024295Y0069191D01*
X0024295Y0072394D01*
X0025362Y0073461D01*
X0026430Y0073461D01*
X0027497Y0072394D01*
X0027497Y0069191D01*
X0027497Y0072394D02*
X0028565Y0073461D01*
X0029632Y0073461D01*
X0030700Y0072394D01*
X0030700Y0069191D01*
X0030700Y0062745D02*
X0024295Y0062745D01*
X0027497Y0060570D02*
X0027497Y0056300D01*
X0026430Y0056300D02*
X0030700Y0056300D01*
X0030700Y0075636D02*
X0024295Y0075636D01*
X0024295Y0079907D01*
X0024295Y0082082D02*
X0024295Y0085285D01*
X0025362Y0086352D01*
X0027497Y0086352D01*
X0028565Y0085285D01*
X0028565Y0082082D01*
X0030700Y0082082D02*
X0024295Y0082082D01*
X0028565Y0084217D02*
X0030700Y0086352D01*
X0030700Y0090663D02*
X0024295Y0090663D01*
X0024295Y0092798D02*
X0024295Y0088527D01*
X0025362Y0094973D02*
X0024295Y0096041D01*
X0024295Y0098176D01*
X0025362Y0099243D01*
X0029632Y0099243D01*
X0030700Y0098176D01*
X0030700Y0096041D01*
X0029632Y0094973D01*
X0025362Y0094973D01*
X0024295Y0107864D02*
X0024295Y0111067D01*
X0025362Y0112134D01*
X0026430Y0112134D01*
X0027497Y0111067D01*
X0027497Y0107864D01*
X0024295Y0107864D02*
X0030700Y0107864D01*
X0030700Y0111067D01*
X0029632Y0112134D01*
X0028565Y0112134D01*
X0027497Y0111067D01*
X0027497Y0114309D02*
X0027497Y0118580D01*
X0026430Y0118580D02*
X0030700Y0118580D01*
X0030700Y0120755D02*
X0024295Y0120755D01*
X0024295Y0123958D01*
X0025362Y0125025D01*
X0027497Y0125025D01*
X0028565Y0123958D01*
X0028565Y0120755D01*
X0028565Y0122890D02*
X0030700Y0125025D01*
X0030700Y0127200D02*
X0024295Y0127200D01*
X0024295Y0130403D01*
X0025362Y0131471D01*
X0027497Y0131471D01*
X0028565Y0130403D01*
X0028565Y0127200D01*
X0028565Y0129336D02*
X0030700Y0131471D01*
X0029632Y0133646D02*
X0030700Y0134714D01*
X0030700Y0136849D01*
X0029632Y0137916D01*
X0025362Y0137916D01*
X0024295Y0136849D01*
X0024295Y0134714D01*
X0025362Y0133646D01*
X0029632Y0133646D01*
X0029632Y0140091D02*
X0030700Y0141159D01*
X0030700Y0143294D01*
X0029632Y0144362D01*
X0028565Y0144362D01*
X0027497Y0143294D01*
X0027497Y0141159D01*
X0026430Y0140091D01*
X0025362Y0140091D01*
X0024295Y0141159D01*
X0024295Y0143294D01*
X0025362Y0144362D01*
X0025362Y0146537D02*
X0024295Y0147605D01*
X0024295Y0149740D01*
X0025362Y0150807D01*
X0029632Y0150807D01*
X0030700Y0149740D01*
X0030700Y0147605D01*
X0029632Y0146537D01*
X0025362Y0146537D01*
X0024295Y0159428D02*
X0030700Y0159428D01*
X0030700Y0163698D01*
X0029632Y0165873D02*
X0030700Y0166941D01*
X0030700Y0169076D01*
X0029632Y0170144D01*
X0025362Y0170144D01*
X0024295Y0169076D01*
X0024295Y0166941D01*
X0025362Y0165873D01*
X0029632Y0165873D01*
X0028565Y0172319D02*
X0028565Y0175522D01*
X0027497Y0176589D01*
X0025362Y0176589D01*
X0024295Y0175522D01*
X0024295Y0172319D01*
X0030700Y0172319D01*
X0030700Y0178764D02*
X0024295Y0178764D01*
X0024295Y0183035D01*
X0024295Y0185210D02*
X0024295Y0189480D01*
X0025362Y0189480D01*
X0029632Y0185210D01*
X0030700Y0185210D01*
X0030700Y0189480D01*
X0030700Y0183035D02*
X0030700Y0178764D01*
X0027497Y0178764D02*
X0027497Y0180900D01*
X0106300Y0181300D02*
X0109503Y0181300D01*
X0110570Y0182368D01*
X0110570Y0186638D01*
X0109503Y0187705D01*
X0106300Y0187705D01*
X0106300Y0181300D01*
X0111300Y0177705D02*
X0115570Y0177705D01*
X0113435Y0177705D02*
X0113435Y0171300D01*
X0112745Y0167705D02*
X0117016Y0161300D01*
X0117016Y0167705D01*
X0119191Y0167705D02*
X0122394Y0167705D01*
X0123461Y0166638D01*
X0123461Y0162368D01*
X0122394Y0161300D01*
X0119191Y0161300D01*
X0119191Y0167705D01*
X0117745Y0171300D02*
X0122016Y0177705D01*
X0123461Y0181300D02*
X0121326Y0183435D01*
X0122394Y0183435D02*
X0119191Y0183435D01*
X0119191Y0181300D02*
X0119191Y0187705D01*
X0122394Y0187705D01*
X0123461Y0186638D01*
X0123461Y0184503D01*
X0122394Y0183435D01*
X0117016Y0187705D02*
X0112745Y0187705D01*
X0114881Y0187705D02*
X0114881Y0181300D01*
X0117745Y0177705D02*
X0122016Y0171300D01*
X0112745Y0167705D02*
X0112745Y0161300D01*
X0110570Y0162368D02*
X0109503Y0161300D01*
X0107368Y0161300D01*
X0106300Y0162368D01*
X0106300Y0166638D01*
X0107368Y0167705D01*
X0109503Y0167705D01*
X0110570Y0166638D01*
X0110570Y0164503D02*
X0108435Y0164503D01*
X0110570Y0164503D02*
X0110570Y0162368D01*
X0110570Y0157705D02*
X0110570Y0153435D01*
X0108435Y0151300D01*
X0106300Y0153435D01*
X0106300Y0157705D01*
X0112745Y0156638D02*
X0112745Y0152368D01*
X0113813Y0151300D01*
X0115948Y0151300D01*
X0117016Y0152368D01*
X0119191Y0152368D02*
X0120259Y0151300D01*
X0122394Y0151300D01*
X0123461Y0152368D01*
X0123461Y0156638D02*
X0122394Y0157705D01*
X0120259Y0157705D01*
X0119191Y0156638D01*
X0119191Y0152368D01*
X0120259Y0147705D02*
X0119191Y0146638D01*
X0119191Y0145570D01*
X0120259Y0144503D01*
X0122394Y0144503D01*
X0123461Y0143435D01*
X0123461Y0142368D01*
X0122394Y0141300D01*
X0120259Y0141300D01*
X0119191Y0142368D01*
X0114881Y0141300D02*
X0114881Y0147705D01*
X0117016Y0147705D02*
X0112745Y0147705D01*
X0110570Y0146638D02*
X0109503Y0147705D01*
X0107368Y0147705D01*
X0106300Y0146638D01*
X0106300Y0142368D01*
X0107368Y0141300D01*
X0109503Y0141300D01*
X0110570Y0142368D01*
X0109503Y0137705D02*
X0107368Y0137705D01*
X0106300Y0136638D01*
X0106300Y0132368D01*
X0107368Y0131300D01*
X0109503Y0131300D01*
X0110570Y0132368D01*
X0110570Y0134503D01*
X0108435Y0134503D01*
X0110570Y0136638D02*
X0109503Y0137705D01*
X0112745Y0137705D02*
X0117016Y0131300D01*
X0117016Y0137705D01*
X0119191Y0137705D02*
X0122394Y0137705D01*
X0123461Y0136638D01*
X0123461Y0132368D01*
X0122394Y0131300D01*
X0119191Y0131300D01*
X0119191Y0137705D01*
X0112745Y0137705D02*
X0112745Y0131300D01*
X0120259Y0147705D02*
X0122394Y0147705D01*
X0123461Y0146638D01*
X0117016Y0156638D02*
X0115948Y0157705D01*
X0113813Y0157705D01*
X0112745Y0156638D01*
X0171300Y0157705D02*
X0171300Y0153435D01*
X0173435Y0151300D01*
X0175570Y0153435D01*
X0175570Y0157705D01*
X0177745Y0156638D02*
X0177745Y0152368D01*
X0178813Y0151300D01*
X0180948Y0151300D01*
X0182016Y0152368D01*
X0184191Y0152368D02*
X0184191Y0156638D01*
X0185259Y0157705D01*
X0187394Y0157705D01*
X0188461Y0156638D01*
X0188461Y0152368D02*
X0187394Y0151300D01*
X0185259Y0151300D01*
X0184191Y0152368D01*
X0182016Y0156638D02*
X0180948Y0157705D01*
X0178813Y0157705D01*
X0177745Y0156638D01*
X0176300Y0161300D02*
X0176300Y0165570D01*
X0178435Y0167705D01*
X0180570Y0165570D01*
X0180570Y0161300D01*
X0182745Y0162368D02*
X0183813Y0161300D01*
X0185948Y0161300D01*
X0187016Y0162368D01*
X0187016Y0164503D01*
X0185948Y0165570D01*
X0184881Y0165570D01*
X0182745Y0164503D01*
X0182745Y0167705D01*
X0187016Y0167705D01*
X0185948Y0171300D02*
X0185948Y0177705D01*
X0182745Y0174503D01*
X0187016Y0174503D01*
X0180570Y0174503D02*
X0176300Y0174503D01*
X0176300Y0175570D02*
X0178435Y0177705D01*
X0180570Y0175570D01*
X0180570Y0171300D01*
X0176300Y0171300D02*
X0176300Y0175570D01*
X0176300Y0181300D02*
X0176300Y0185570D01*
X0178435Y0187705D01*
X0180570Y0185570D01*
X0180570Y0181300D01*
X0182745Y0182368D02*
X0183813Y0181300D01*
X0185948Y0181300D01*
X0187016Y0182368D01*
X0187016Y0183435D01*
X0185948Y0184503D01*
X0184881Y0184503D01*
X0185948Y0184503D02*
X0187016Y0185570D01*
X0187016Y0186638D01*
X0185948Y0187705D01*
X0183813Y0187705D01*
X0182745Y0186638D01*
X0180570Y0184503D02*
X0176300Y0184503D01*
X0176300Y0191300D02*
X0176300Y0195570D01*
X0178435Y0197705D01*
X0180570Y0195570D01*
X0180570Y0191300D01*
X0182745Y0191300D02*
X0187016Y0195570D01*
X0187016Y0196638D01*
X0185948Y0197705D01*
X0183813Y0197705D01*
X0182745Y0196638D01*
X0180570Y0194503D02*
X0176300Y0194503D01*
X0176300Y0201300D02*
X0176300Y0205570D01*
X0178435Y0207705D01*
X0180570Y0205570D01*
X0180570Y0201300D01*
X0182745Y0201300D02*
X0187016Y0201300D01*
X0184881Y0201300D02*
X0184881Y0207705D01*
X0182745Y0205570D01*
X0180570Y0204503D02*
X0176300Y0204503D01*
X0176300Y0211300D02*
X0176300Y0215570D01*
X0178435Y0217705D01*
X0180570Y0215570D01*
X0180570Y0211300D01*
X0182745Y0212368D02*
X0187016Y0216638D01*
X0187016Y0212368D01*
X0185948Y0211300D01*
X0183813Y0211300D01*
X0182745Y0212368D01*
X0182745Y0216638D01*
X0183813Y0217705D01*
X0185948Y0217705D01*
X0187016Y0216638D01*
X0187394Y0221300D02*
X0188461Y0222368D01*
X0188461Y0226638D01*
X0187394Y0227705D01*
X0184191Y0227705D01*
X0184191Y0221300D01*
X0187394Y0221300D01*
X0182016Y0221300D02*
X0182016Y0227705D01*
X0177745Y0227705D02*
X0182016Y0221300D01*
X0177745Y0221300D02*
X0177745Y0227705D01*
X0175570Y0226638D02*
X0174503Y0227705D01*
X0172368Y0227705D01*
X0171300Y0226638D01*
X0171300Y0222368D01*
X0172368Y0221300D01*
X0174503Y0221300D01*
X0175570Y0222368D01*
X0175570Y0224503D01*
X0173435Y0224503D01*
X0176300Y0214503D02*
X0180570Y0214503D01*
X0182745Y0191300D02*
X0187016Y0191300D01*
X0180570Y0164503D02*
X0176300Y0164503D01*
X0236000Y0141000D02*
X0236003Y0141245D01*
X0236012Y0141491D01*
X0236027Y0141736D01*
X0236048Y0141980D01*
X0236075Y0142224D01*
X0236108Y0142467D01*
X0236147Y0142710D01*
X0236192Y0142951D01*
X0236243Y0143191D01*
X0236300Y0143430D01*
X0236362Y0143667D01*
X0236431Y0143903D01*
X0236505Y0144137D01*
X0236585Y0144369D01*
X0236670Y0144599D01*
X0236761Y0144827D01*
X0236858Y0145052D01*
X0236960Y0145276D01*
X0237068Y0145496D01*
X0237181Y0145714D01*
X0237299Y0145929D01*
X0237423Y0146141D01*
X0237551Y0146350D01*
X0237685Y0146556D01*
X0237824Y0146758D01*
X0237968Y0146957D01*
X0238117Y0147152D01*
X0238270Y0147344D01*
X0238428Y0147532D01*
X0238590Y0147716D01*
X0238758Y0147895D01*
X0238929Y0148071D01*
X0239105Y0148242D01*
X0239284Y0148410D01*
X0239468Y0148572D01*
X0239656Y0148730D01*
X0239848Y0148883D01*
X0240043Y0149032D01*
X0240242Y0149176D01*
X0240444Y0149315D01*
X0240650Y0149449D01*
X0240859Y0149577D01*
X0241071Y0149701D01*
X0241286Y0149819D01*
X0241504Y0149932D01*
X0241724Y0150040D01*
X0241948Y0150142D01*
X0242173Y0150239D01*
X0242401Y0150330D01*
X0242631Y0150415D01*
X0242863Y0150495D01*
X0243097Y0150569D01*
X0243333Y0150638D01*
X0243570Y0150700D01*
X0243809Y0150757D01*
X0244049Y0150808D01*
X0244290Y0150853D01*
X0244533Y0150892D01*
X0244776Y0150925D01*
X0245020Y0150952D01*
X0245264Y0150973D01*
X0245509Y0150988D01*
X0245755Y0150997D01*
X0246000Y0151000D01*
X0246245Y0150997D01*
X0246491Y0150988D01*
X0246736Y0150973D01*
X0246980Y0150952D01*
X0247224Y0150925D01*
X0247467Y0150892D01*
X0247710Y0150853D01*
X0247951Y0150808D01*
X0248191Y0150757D01*
X0248430Y0150700D01*
X0248667Y0150638D01*
X0248903Y0150569D01*
X0249137Y0150495D01*
X0249369Y0150415D01*
X0249599Y0150330D01*
X0249827Y0150239D01*
X0250052Y0150142D01*
X0250276Y0150040D01*
X0250496Y0149932D01*
X0250714Y0149819D01*
X0250929Y0149701D01*
X0251141Y0149577D01*
X0251350Y0149449D01*
X0251556Y0149315D01*
X0251758Y0149176D01*
X0251957Y0149032D01*
X0252152Y0148883D01*
X0252344Y0148730D01*
X0252532Y0148572D01*
X0252716Y0148410D01*
X0252895Y0148242D01*
X0253071Y0148071D01*
X0253242Y0147895D01*
X0253410Y0147716D01*
X0253572Y0147532D01*
X0253730Y0147344D01*
X0253883Y0147152D01*
X0254032Y0146957D01*
X0254176Y0146758D01*
X0254315Y0146556D01*
X0254449Y0146350D01*
X0254577Y0146141D01*
X0254701Y0145929D01*
X0254819Y0145714D01*
X0254932Y0145496D01*
X0255040Y0145276D01*
X0255142Y0145052D01*
X0255239Y0144827D01*
X0255330Y0144599D01*
X0255415Y0144369D01*
X0255495Y0144137D01*
X0255569Y0143903D01*
X0255638Y0143667D01*
X0255700Y0143430D01*
X0255757Y0143191D01*
X0255808Y0142951D01*
X0255853Y0142710D01*
X0255892Y0142467D01*
X0255925Y0142224D01*
X0255952Y0141980D01*
X0255973Y0141736D01*
X0255988Y0141491D01*
X0255997Y0141245D01*
X0256000Y0141000D01*
X0255997Y0140755D01*
X0255988Y0140509D01*
X0255973Y0140264D01*
X0255952Y0140020D01*
X0255925Y0139776D01*
X0255892Y0139533D01*
X0255853Y0139290D01*
X0255808Y0139049D01*
X0255757Y0138809D01*
X0255700Y0138570D01*
X0255638Y0138333D01*
X0255569Y0138097D01*
X0255495Y0137863D01*
X0255415Y0137631D01*
X0255330Y0137401D01*
X0255239Y0137173D01*
X0255142Y0136948D01*
X0255040Y0136724D01*
X0254932Y0136504D01*
X0254819Y0136286D01*
X0254701Y0136071D01*
X0254577Y0135859D01*
X0254449Y0135650D01*
X0254315Y0135444D01*
X0254176Y0135242D01*
X0254032Y0135043D01*
X0253883Y0134848D01*
X0253730Y0134656D01*
X0253572Y0134468D01*
X0253410Y0134284D01*
X0253242Y0134105D01*
X0253071Y0133929D01*
X0252895Y0133758D01*
X0252716Y0133590D01*
X0252532Y0133428D01*
X0252344Y0133270D01*
X0252152Y0133117D01*
X0251957Y0132968D01*
X0251758Y0132824D01*
X0251556Y0132685D01*
X0251350Y0132551D01*
X0251141Y0132423D01*
X0250929Y0132299D01*
X0250714Y0132181D01*
X0250496Y0132068D01*
X0250276Y0131960D01*
X0250052Y0131858D01*
X0249827Y0131761D01*
X0249599Y0131670D01*
X0249369Y0131585D01*
X0249137Y0131505D01*
X0248903Y0131431D01*
X0248667Y0131362D01*
X0248430Y0131300D01*
X0248191Y0131243D01*
X0247951Y0131192D01*
X0247710Y0131147D01*
X0247467Y0131108D01*
X0247224Y0131075D01*
X0246980Y0131048D01*
X0246736Y0131027D01*
X0246491Y0131012D01*
X0246245Y0131003D01*
X0246000Y0131000D01*
X0245755Y0131003D01*
X0245509Y0131012D01*
X0245264Y0131027D01*
X0245020Y0131048D01*
X0244776Y0131075D01*
X0244533Y0131108D01*
X0244290Y0131147D01*
X0244049Y0131192D01*
X0243809Y0131243D01*
X0243570Y0131300D01*
X0243333Y0131362D01*
X0243097Y0131431D01*
X0242863Y0131505D01*
X0242631Y0131585D01*
X0242401Y0131670D01*
X0242173Y0131761D01*
X0241948Y0131858D01*
X0241724Y0131960D01*
X0241504Y0132068D01*
X0241286Y0132181D01*
X0241071Y0132299D01*
X0240859Y0132423D01*
X0240650Y0132551D01*
X0240444Y0132685D01*
X0240242Y0132824D01*
X0240043Y0132968D01*
X0239848Y0133117D01*
X0239656Y0133270D01*
X0239468Y0133428D01*
X0239284Y0133590D01*
X0239105Y0133758D01*
X0238929Y0133929D01*
X0238758Y0134105D01*
X0238590Y0134284D01*
X0238428Y0134468D01*
X0238270Y0134656D01*
X0238117Y0134848D01*
X0237968Y0135043D01*
X0237824Y0135242D01*
X0237685Y0135444D01*
X0237551Y0135650D01*
X0237423Y0135859D01*
X0237299Y0136071D01*
X0237181Y0136286D01*
X0237068Y0136504D01*
X0236960Y0136724D01*
X0236858Y0136948D01*
X0236761Y0137173D01*
X0236670Y0137401D01*
X0236585Y0137631D01*
X0236505Y0137863D01*
X0236431Y0138097D01*
X0236362Y0138333D01*
X0236300Y0138570D01*
X0236243Y0138809D01*
X0236192Y0139049D01*
X0236147Y0139290D01*
X0236108Y0139533D01*
X0236075Y0139776D01*
X0236048Y0140020D01*
X0236027Y0140264D01*
X0236012Y0140509D01*
X0236003Y0140755D01*
X0236000Y0141000D01*
X0236000Y0196000D02*
X0236003Y0196245D01*
X0236012Y0196491D01*
X0236027Y0196736D01*
X0236048Y0196980D01*
X0236075Y0197224D01*
X0236108Y0197467D01*
X0236147Y0197710D01*
X0236192Y0197951D01*
X0236243Y0198191D01*
X0236300Y0198430D01*
X0236362Y0198667D01*
X0236431Y0198903D01*
X0236505Y0199137D01*
X0236585Y0199369D01*
X0236670Y0199599D01*
X0236761Y0199827D01*
X0236858Y0200052D01*
X0236960Y0200276D01*
X0237068Y0200496D01*
X0237181Y0200714D01*
X0237299Y0200929D01*
X0237423Y0201141D01*
X0237551Y0201350D01*
X0237685Y0201556D01*
X0237824Y0201758D01*
X0237968Y0201957D01*
X0238117Y0202152D01*
X0238270Y0202344D01*
X0238428Y0202532D01*
X0238590Y0202716D01*
X0238758Y0202895D01*
X0238929Y0203071D01*
X0239105Y0203242D01*
X0239284Y0203410D01*
X0239468Y0203572D01*
X0239656Y0203730D01*
X0239848Y0203883D01*
X0240043Y0204032D01*
X0240242Y0204176D01*
X0240444Y0204315D01*
X0240650Y0204449D01*
X0240859Y0204577D01*
X0241071Y0204701D01*
X0241286Y0204819D01*
X0241504Y0204932D01*
X0241724Y0205040D01*
X0241948Y0205142D01*
X0242173Y0205239D01*
X0242401Y0205330D01*
X0242631Y0205415D01*
X0242863Y0205495D01*
X0243097Y0205569D01*
X0243333Y0205638D01*
X0243570Y0205700D01*
X0243809Y0205757D01*
X0244049Y0205808D01*
X0244290Y0205853D01*
X0244533Y0205892D01*
X0244776Y0205925D01*
X0245020Y0205952D01*
X0245264Y0205973D01*
X0245509Y0205988D01*
X0245755Y0205997D01*
X0246000Y0206000D01*
X0246245Y0205997D01*
X0246491Y0205988D01*
X0246736Y0205973D01*
X0246980Y0205952D01*
X0247224Y0205925D01*
X0247467Y0205892D01*
X0247710Y0205853D01*
X0247951Y0205808D01*
X0248191Y0205757D01*
X0248430Y0205700D01*
X0248667Y0205638D01*
X0248903Y0205569D01*
X0249137Y0205495D01*
X0249369Y0205415D01*
X0249599Y0205330D01*
X0249827Y0205239D01*
X0250052Y0205142D01*
X0250276Y0205040D01*
X0250496Y0204932D01*
X0250714Y0204819D01*
X0250929Y0204701D01*
X0251141Y0204577D01*
X0251350Y0204449D01*
X0251556Y0204315D01*
X0251758Y0204176D01*
X0251957Y0204032D01*
X0252152Y0203883D01*
X0252344Y0203730D01*
X0252532Y0203572D01*
X0252716Y0203410D01*
X0252895Y0203242D01*
X0253071Y0203071D01*
X0253242Y0202895D01*
X0253410Y0202716D01*
X0253572Y0202532D01*
X0253730Y0202344D01*
X0253883Y0202152D01*
X0254032Y0201957D01*
X0254176Y0201758D01*
X0254315Y0201556D01*
X0254449Y0201350D01*
X0254577Y0201141D01*
X0254701Y0200929D01*
X0254819Y0200714D01*
X0254932Y0200496D01*
X0255040Y0200276D01*
X0255142Y0200052D01*
X0255239Y0199827D01*
X0255330Y0199599D01*
X0255415Y0199369D01*
X0255495Y0199137D01*
X0255569Y0198903D01*
X0255638Y0198667D01*
X0255700Y0198430D01*
X0255757Y0198191D01*
X0255808Y0197951D01*
X0255853Y0197710D01*
X0255892Y0197467D01*
X0255925Y0197224D01*
X0255952Y0196980D01*
X0255973Y0196736D01*
X0255988Y0196491D01*
X0255997Y0196245D01*
X0256000Y0196000D01*
X0255997Y0195755D01*
X0255988Y0195509D01*
X0255973Y0195264D01*
X0255952Y0195020D01*
X0255925Y0194776D01*
X0255892Y0194533D01*
X0255853Y0194290D01*
X0255808Y0194049D01*
X0255757Y0193809D01*
X0255700Y0193570D01*
X0255638Y0193333D01*
X0255569Y0193097D01*
X0255495Y0192863D01*
X0255415Y0192631D01*
X0255330Y0192401D01*
X0255239Y0192173D01*
X0255142Y0191948D01*
X0255040Y0191724D01*
X0254932Y0191504D01*
X0254819Y0191286D01*
X0254701Y0191071D01*
X0254577Y0190859D01*
X0254449Y0190650D01*
X0254315Y0190444D01*
X0254176Y0190242D01*
X0254032Y0190043D01*
X0253883Y0189848D01*
X0253730Y0189656D01*
X0253572Y0189468D01*
X0253410Y0189284D01*
X0253242Y0189105D01*
X0253071Y0188929D01*
X0252895Y0188758D01*
X0252716Y0188590D01*
X0252532Y0188428D01*
X0252344Y0188270D01*
X0252152Y0188117D01*
X0251957Y0187968D01*
X0251758Y0187824D01*
X0251556Y0187685D01*
X0251350Y0187551D01*
X0251141Y0187423D01*
X0250929Y0187299D01*
X0250714Y0187181D01*
X0250496Y0187068D01*
X0250276Y0186960D01*
X0250052Y0186858D01*
X0249827Y0186761D01*
X0249599Y0186670D01*
X0249369Y0186585D01*
X0249137Y0186505D01*
X0248903Y0186431D01*
X0248667Y0186362D01*
X0248430Y0186300D01*
X0248191Y0186243D01*
X0247951Y0186192D01*
X0247710Y0186147D01*
X0247467Y0186108D01*
X0247224Y0186075D01*
X0246980Y0186048D01*
X0246736Y0186027D01*
X0246491Y0186012D01*
X0246245Y0186003D01*
X0246000Y0186000D01*
X0245755Y0186003D01*
X0245509Y0186012D01*
X0245264Y0186027D01*
X0245020Y0186048D01*
X0244776Y0186075D01*
X0244533Y0186108D01*
X0244290Y0186147D01*
X0244049Y0186192D01*
X0243809Y0186243D01*
X0243570Y0186300D01*
X0243333Y0186362D01*
X0243097Y0186431D01*
X0242863Y0186505D01*
X0242631Y0186585D01*
X0242401Y0186670D01*
X0242173Y0186761D01*
X0241948Y0186858D01*
X0241724Y0186960D01*
X0241504Y0187068D01*
X0241286Y0187181D01*
X0241071Y0187299D01*
X0240859Y0187423D01*
X0240650Y0187551D01*
X0240444Y0187685D01*
X0240242Y0187824D01*
X0240043Y0187968D01*
X0239848Y0188117D01*
X0239656Y0188270D01*
X0239468Y0188428D01*
X0239284Y0188590D01*
X0239105Y0188758D01*
X0238929Y0188929D01*
X0238758Y0189105D01*
X0238590Y0189284D01*
X0238428Y0189468D01*
X0238270Y0189656D01*
X0238117Y0189848D01*
X0237968Y0190043D01*
X0237824Y0190242D01*
X0237685Y0190444D01*
X0237551Y0190650D01*
X0237423Y0190859D01*
X0237299Y0191071D01*
X0237181Y0191286D01*
X0237068Y0191504D01*
X0236960Y0191724D01*
X0236858Y0191948D01*
X0236761Y0192173D01*
X0236670Y0192401D01*
X0236585Y0192631D01*
X0236505Y0192863D01*
X0236431Y0193097D01*
X0236362Y0193333D01*
X0236300Y0193570D01*
X0236243Y0193809D01*
X0236192Y0194049D01*
X0236147Y0194290D01*
X0236108Y0194533D01*
X0236075Y0194776D01*
X0236048Y0195020D01*
X0236027Y0195264D01*
X0236012Y0195509D01*
X0236003Y0195755D01*
X0236000Y0196000D01*
X0236000Y0081000D02*
X0236003Y0081245D01*
X0236012Y0081491D01*
X0236027Y0081736D01*
X0236048Y0081980D01*
X0236075Y0082224D01*
X0236108Y0082467D01*
X0236147Y0082710D01*
X0236192Y0082951D01*
X0236243Y0083191D01*
X0236300Y0083430D01*
X0236362Y0083667D01*
X0236431Y0083903D01*
X0236505Y0084137D01*
X0236585Y0084369D01*
X0236670Y0084599D01*
X0236761Y0084827D01*
X0236858Y0085052D01*
X0236960Y0085276D01*
X0237068Y0085496D01*
X0237181Y0085714D01*
X0237299Y0085929D01*
X0237423Y0086141D01*
X0237551Y0086350D01*
X0237685Y0086556D01*
X0237824Y0086758D01*
X0237968Y0086957D01*
X0238117Y0087152D01*
X0238270Y0087344D01*
X0238428Y0087532D01*
X0238590Y0087716D01*
X0238758Y0087895D01*
X0238929Y0088071D01*
X0239105Y0088242D01*
X0239284Y0088410D01*
X0239468Y0088572D01*
X0239656Y0088730D01*
X0239848Y0088883D01*
X0240043Y0089032D01*
X0240242Y0089176D01*
X0240444Y0089315D01*
X0240650Y0089449D01*
X0240859Y0089577D01*
X0241071Y0089701D01*
X0241286Y0089819D01*
X0241504Y0089932D01*
X0241724Y0090040D01*
X0241948Y0090142D01*
X0242173Y0090239D01*
X0242401Y0090330D01*
X0242631Y0090415D01*
X0242863Y0090495D01*
X0243097Y0090569D01*
X0243333Y0090638D01*
X0243570Y0090700D01*
X0243809Y0090757D01*
X0244049Y0090808D01*
X0244290Y0090853D01*
X0244533Y0090892D01*
X0244776Y0090925D01*
X0245020Y0090952D01*
X0245264Y0090973D01*
X0245509Y0090988D01*
X0245755Y0090997D01*
X0246000Y0091000D01*
X0246245Y0090997D01*
X0246491Y0090988D01*
X0246736Y0090973D01*
X0246980Y0090952D01*
X0247224Y0090925D01*
X0247467Y0090892D01*
X0247710Y0090853D01*
X0247951Y0090808D01*
X0248191Y0090757D01*
X0248430Y0090700D01*
X0248667Y0090638D01*
X0248903Y0090569D01*
X0249137Y0090495D01*
X0249369Y0090415D01*
X0249599Y0090330D01*
X0249827Y0090239D01*
X0250052Y0090142D01*
X0250276Y0090040D01*
X0250496Y0089932D01*
X0250714Y0089819D01*
X0250929Y0089701D01*
X0251141Y0089577D01*
X0251350Y0089449D01*
X0251556Y0089315D01*
X0251758Y0089176D01*
X0251957Y0089032D01*
X0252152Y0088883D01*
X0252344Y0088730D01*
X0252532Y0088572D01*
X0252716Y0088410D01*
X0252895Y0088242D01*
X0253071Y0088071D01*
X0253242Y0087895D01*
X0253410Y0087716D01*
X0253572Y0087532D01*
X0253730Y0087344D01*
X0253883Y0087152D01*
X0254032Y0086957D01*
X0254176Y0086758D01*
X0254315Y0086556D01*
X0254449Y0086350D01*
X0254577Y0086141D01*
X0254701Y0085929D01*
X0254819Y0085714D01*
X0254932Y0085496D01*
X0255040Y0085276D01*
X0255142Y0085052D01*
X0255239Y0084827D01*
X0255330Y0084599D01*
X0255415Y0084369D01*
X0255495Y0084137D01*
X0255569Y0083903D01*
X0255638Y0083667D01*
X0255700Y0083430D01*
X0255757Y0083191D01*
X0255808Y0082951D01*
X0255853Y0082710D01*
X0255892Y0082467D01*
X0255925Y0082224D01*
X0255952Y0081980D01*
X0255973Y0081736D01*
X0255988Y0081491D01*
X0255997Y0081245D01*
X0256000Y0081000D01*
X0255997Y0080755D01*
X0255988Y0080509D01*
X0255973Y0080264D01*
X0255952Y0080020D01*
X0255925Y0079776D01*
X0255892Y0079533D01*
X0255853Y0079290D01*
X0255808Y0079049D01*
X0255757Y0078809D01*
X0255700Y0078570D01*
X0255638Y0078333D01*
X0255569Y0078097D01*
X0255495Y0077863D01*
X0255415Y0077631D01*
X0255330Y0077401D01*
X0255239Y0077173D01*
X0255142Y0076948D01*
X0255040Y0076724D01*
X0254932Y0076504D01*
X0254819Y0076286D01*
X0254701Y0076071D01*
X0254577Y0075859D01*
X0254449Y0075650D01*
X0254315Y0075444D01*
X0254176Y0075242D01*
X0254032Y0075043D01*
X0253883Y0074848D01*
X0253730Y0074656D01*
X0253572Y0074468D01*
X0253410Y0074284D01*
X0253242Y0074105D01*
X0253071Y0073929D01*
X0252895Y0073758D01*
X0252716Y0073590D01*
X0252532Y0073428D01*
X0252344Y0073270D01*
X0252152Y0073117D01*
X0251957Y0072968D01*
X0251758Y0072824D01*
X0251556Y0072685D01*
X0251350Y0072551D01*
X0251141Y0072423D01*
X0250929Y0072299D01*
X0250714Y0072181D01*
X0250496Y0072068D01*
X0250276Y0071960D01*
X0250052Y0071858D01*
X0249827Y0071761D01*
X0249599Y0071670D01*
X0249369Y0071585D01*
X0249137Y0071505D01*
X0248903Y0071431D01*
X0248667Y0071362D01*
X0248430Y0071300D01*
X0248191Y0071243D01*
X0247951Y0071192D01*
X0247710Y0071147D01*
X0247467Y0071108D01*
X0247224Y0071075D01*
X0246980Y0071048D01*
X0246736Y0071027D01*
X0246491Y0071012D01*
X0246245Y0071003D01*
X0246000Y0071000D01*
X0245755Y0071003D01*
X0245509Y0071012D01*
X0245264Y0071027D01*
X0245020Y0071048D01*
X0244776Y0071075D01*
X0244533Y0071108D01*
X0244290Y0071147D01*
X0244049Y0071192D01*
X0243809Y0071243D01*
X0243570Y0071300D01*
X0243333Y0071362D01*
X0243097Y0071431D01*
X0242863Y0071505D01*
X0242631Y0071585D01*
X0242401Y0071670D01*
X0242173Y0071761D01*
X0241948Y0071858D01*
X0241724Y0071960D01*
X0241504Y0072068D01*
X0241286Y0072181D01*
X0241071Y0072299D01*
X0240859Y0072423D01*
X0240650Y0072551D01*
X0240444Y0072685D01*
X0240242Y0072824D01*
X0240043Y0072968D01*
X0239848Y0073117D01*
X0239656Y0073270D01*
X0239468Y0073428D01*
X0239284Y0073590D01*
X0239105Y0073758D01*
X0238929Y0073929D01*
X0238758Y0074105D01*
X0238590Y0074284D01*
X0238428Y0074468D01*
X0238270Y0074656D01*
X0238117Y0074848D01*
X0237968Y0075043D01*
X0237824Y0075242D01*
X0237685Y0075444D01*
X0237551Y0075650D01*
X0237423Y0075859D01*
X0237299Y0076071D01*
X0237181Y0076286D01*
X0237068Y0076504D01*
X0236960Y0076724D01*
X0236858Y0076948D01*
X0236761Y0077173D01*
X0236670Y0077401D01*
X0236585Y0077631D01*
X0236505Y0077863D01*
X0236431Y0078097D01*
X0236362Y0078333D01*
X0236300Y0078570D01*
X0236243Y0078809D01*
X0236192Y0079049D01*
X0236147Y0079290D01*
X0236108Y0079533D01*
X0236075Y0079776D01*
X0236048Y0080020D01*
X0236027Y0080264D01*
X0236012Y0080509D01*
X0236003Y0080755D01*
X0236000Y0081000D01*
X0030700Y0079907D02*
X0030700Y0075636D01*
X0027497Y0075636D02*
X0027497Y0077772D01*
X0026430Y0114309D02*
X0024295Y0116445D01*
X0026430Y0118580D01*
X0026430Y0114309D02*
X0030700Y0114309D01*
D11*
X0083000Y0121000D02*
X0086000Y0121000D01*
X0086000Y0120000D01*
X0086000Y0121000D02*
X0089000Y0121000D01*
X0089000Y0141000D01*
X0086000Y0141000D01*
X0086000Y0142000D01*
X0086000Y0141000D02*
X0083000Y0141000D01*
X0083000Y0121000D01*
X0096000Y0128500D02*
X0098500Y0126000D01*
X0103500Y0126000D01*
X0106000Y0128500D01*
X0106000Y0133500D01*
X0103500Y0136000D01*
X0106000Y0138500D01*
X0106000Y0143500D01*
X0103500Y0146000D01*
X0106000Y0148500D01*
X0106000Y0153500D01*
X0103500Y0156000D01*
X0106000Y0158500D01*
X0106000Y0163500D01*
X0103500Y0166000D01*
X0106000Y0168500D01*
X0106000Y0173500D01*
X0103500Y0176000D01*
X0106000Y0178500D01*
X0106000Y0183500D01*
X0103500Y0186000D01*
X0098500Y0186000D01*
X0096000Y0183500D01*
X0096000Y0178500D01*
X0098500Y0176000D01*
X0096000Y0173500D01*
X0096000Y0168500D01*
X0098500Y0166000D01*
X0096000Y0163500D01*
X0096000Y0158500D01*
X0098500Y0156000D01*
X0096000Y0153500D01*
X0096000Y0148500D01*
X0098500Y0146000D01*
X0096000Y0143500D01*
X0096000Y0138500D01*
X0098500Y0136000D01*
X0096000Y0133500D01*
X0096000Y0128500D01*
X0088500Y0086000D02*
X0083500Y0086000D01*
X0103500Y0086000D02*
X0108500Y0086000D01*
X0136000Y0081000D02*
X0156000Y0081000D01*
X0156000Y0221000D01*
X0150000Y0221000D01*
X0149998Y0220874D01*
X0149992Y0220749D01*
X0149982Y0220624D01*
X0149968Y0220499D01*
X0149951Y0220374D01*
X0149929Y0220250D01*
X0149904Y0220127D01*
X0149874Y0220005D01*
X0149841Y0219884D01*
X0149804Y0219764D01*
X0149764Y0219645D01*
X0149719Y0219528D01*
X0149671Y0219411D01*
X0149619Y0219297D01*
X0149564Y0219184D01*
X0149505Y0219073D01*
X0149443Y0218964D01*
X0149377Y0218857D01*
X0149308Y0218752D01*
X0149236Y0218649D01*
X0149161Y0218548D01*
X0149082Y0218450D01*
X0149000Y0218355D01*
X0148916Y0218262D01*
X0148828Y0218172D01*
X0148738Y0218084D01*
X0148645Y0218000D01*
X0148550Y0217918D01*
X0148452Y0217839D01*
X0148351Y0217764D01*
X0148248Y0217692D01*
X0148143Y0217623D01*
X0148036Y0217557D01*
X0147927Y0217495D01*
X0147816Y0217436D01*
X0147703Y0217381D01*
X0147589Y0217329D01*
X0147472Y0217281D01*
X0147355Y0217236D01*
X0147236Y0217196D01*
X0147116Y0217159D01*
X0146995Y0217126D01*
X0146873Y0217096D01*
X0146750Y0217071D01*
X0146626Y0217049D01*
X0146501Y0217032D01*
X0146376Y0217018D01*
X0146251Y0217008D01*
X0146126Y0217002D01*
X0146000Y0217000D01*
X0145874Y0217002D01*
X0145749Y0217008D01*
X0145624Y0217018D01*
X0145499Y0217032D01*
X0145374Y0217049D01*
X0145250Y0217071D01*
X0145127Y0217096D01*
X0145005Y0217126D01*
X0144884Y0217159D01*
X0144764Y0217196D01*
X0144645Y0217236D01*
X0144528Y0217281D01*
X0144411Y0217329D01*
X0144297Y0217381D01*
X0144184Y0217436D01*
X0144073Y0217495D01*
X0143964Y0217557D01*
X0143857Y0217623D01*
X0143752Y0217692D01*
X0143649Y0217764D01*
X0143548Y0217839D01*
X0143450Y0217918D01*
X0143355Y0218000D01*
X0143262Y0218084D01*
X0143172Y0218172D01*
X0143084Y0218262D01*
X0143000Y0218355D01*
X0142918Y0218450D01*
X0142839Y0218548D01*
X0142764Y0218649D01*
X0142692Y0218752D01*
X0142623Y0218857D01*
X0142557Y0218964D01*
X0142495Y0219073D01*
X0142436Y0219184D01*
X0142381Y0219297D01*
X0142329Y0219411D01*
X0142281Y0219528D01*
X0142236Y0219645D01*
X0142196Y0219764D01*
X0142159Y0219884D01*
X0142126Y0220005D01*
X0142096Y0220127D01*
X0142071Y0220250D01*
X0142049Y0220374D01*
X0142032Y0220499D01*
X0142018Y0220624D01*
X0142008Y0220749D01*
X0142002Y0220874D01*
X0142000Y0221000D01*
X0136000Y0221000D01*
X0136000Y0081000D01*
X0133500Y0066000D02*
X0131000Y0063500D01*
X0131000Y0048500D01*
X0133500Y0046000D01*
X0138500Y0046000D01*
X0141000Y0048500D01*
X0141000Y0063500D01*
X0143500Y0066000D01*
X0148500Y0066000D01*
X0151000Y0063500D01*
X0151000Y0048500D01*
X0153500Y0046000D01*
X0158500Y0046000D01*
X0161000Y0048500D01*
X0161000Y0063500D01*
X0158500Y0066000D01*
X0153500Y0066000D01*
X0151000Y0063500D01*
X0141000Y0063500D02*
X0138500Y0066000D01*
X0133500Y0066000D01*
X0141000Y0048500D02*
X0143500Y0046000D01*
X0148500Y0046000D01*
X0151000Y0048500D01*
X0138500Y0044681D02*
X0133500Y0044681D01*
X0236000Y0108000D02*
X0236000Y0111000D01*
X0235000Y0111000D01*
X0236000Y0111000D02*
X0236000Y0114000D01*
X0256000Y0114000D01*
X0256000Y0111000D01*
X0257000Y0111000D01*
X0256000Y0111000D02*
X0256000Y0108000D01*
X0236000Y0108000D01*
X0256000Y0088500D02*
X0256000Y0073500D01*
X0256000Y0133500D02*
X0256000Y0148500D01*
X0256000Y0168000D02*
X0236000Y0168000D01*
X0236000Y0171000D01*
X0235000Y0171000D01*
X0236000Y0171000D02*
X0236000Y0174000D01*
X0256000Y0174000D01*
X0256000Y0171000D01*
X0257000Y0171000D01*
X0256000Y0171000D02*
X0256000Y0168000D01*
X0256000Y0188500D02*
X0256000Y0203500D01*
X0256000Y0223000D02*
X0236000Y0223000D01*
X0236000Y0226000D01*
X0235000Y0226000D01*
X0236000Y0226000D02*
X0236000Y0229000D01*
X0256000Y0229000D01*
X0256000Y0226000D01*
X0257000Y0226000D01*
X0256000Y0226000D02*
X0256000Y0223000D01*
X0201000Y0223500D02*
X0198500Y0221000D01*
X0201000Y0218500D01*
X0201000Y0213500D01*
X0198500Y0211000D01*
X0201000Y0208500D01*
X0201000Y0203500D01*
X0198500Y0201000D01*
X0201000Y0198500D01*
X0201000Y0193500D01*
X0198500Y0191000D01*
X0201000Y0188500D01*
X0201000Y0183500D01*
X0198500Y0181000D01*
X0201000Y0178500D01*
X0201000Y0173500D01*
X0198500Y0171000D01*
X0201000Y0168500D01*
X0201000Y0163500D01*
X0198500Y0161000D01*
X0201000Y0158500D01*
X0201000Y0153500D01*
X0198500Y0151000D01*
X0193500Y0151000D01*
X0191000Y0153500D01*
X0191000Y0158500D01*
X0193500Y0161000D01*
X0191000Y0163500D01*
X0191000Y0168500D01*
X0193500Y0171000D01*
X0191000Y0173500D01*
X0191000Y0178500D01*
X0193500Y0181000D01*
X0191000Y0183500D01*
X0191000Y0188500D01*
X0193500Y0191000D01*
X0191000Y0193500D01*
X0191000Y0198500D01*
X0193500Y0201000D01*
X0191000Y0203500D01*
X0191000Y0208500D01*
X0193500Y0211000D01*
X0191000Y0213500D01*
X0191000Y0218500D01*
X0193500Y0221000D01*
X0191000Y0223500D01*
X0191000Y0228500D01*
X0193500Y0231000D01*
X0198500Y0231000D01*
X0201000Y0228500D01*
X0201000Y0223500D01*
X0077137Y0220449D02*
X0077137Y0228117D01*
X0033811Y0228117D01*
X0033811Y0193883D01*
X0053677Y0193883D01*
X0072181Y0193883D02*
X0077137Y0193883D01*
X0077137Y0201551D01*
D12*
X0256329Y0203809D02*
X0255609Y0203269D01*
X0255610Y0203270D02*
X0255429Y0203503D01*
X0255243Y0203731D01*
X0255051Y0203955D01*
X0254854Y0204174D01*
X0254652Y0204388D01*
X0254444Y0204597D01*
X0254231Y0204800D01*
X0254014Y0204999D01*
X0253791Y0205192D01*
X0253564Y0205380D01*
X0253333Y0205562D01*
X0253097Y0205739D01*
X0252856Y0205909D01*
X0252612Y0206074D01*
X0252364Y0206232D01*
X0252112Y0206385D01*
X0251856Y0206531D01*
X0251597Y0206671D01*
X0251334Y0206805D01*
X0251069Y0206932D01*
X0250800Y0207053D01*
X0250528Y0207167D01*
X0250254Y0207274D01*
X0249977Y0207375D01*
X0249698Y0207469D01*
X0249416Y0207556D01*
X0249133Y0207636D01*
X0248847Y0207709D01*
X0248560Y0207775D01*
X0248271Y0207834D01*
X0247981Y0207886D01*
X0247690Y0207931D01*
X0247398Y0207969D01*
X0247105Y0207999D01*
X0246811Y0208023D01*
X0246517Y0208039D01*
X0246223Y0208048D01*
X0245928Y0208050D01*
X0245633Y0208044D01*
X0245339Y0208032D01*
X0245045Y0208012D01*
X0244752Y0207985D01*
X0244459Y0207951D01*
X0244167Y0207910D01*
X0243877Y0207861D01*
X0243587Y0207806D01*
X0243300Y0207744D01*
X0243013Y0207674D01*
X0242729Y0207597D01*
X0242446Y0207514D01*
X0242166Y0207424D01*
X0241888Y0207327D01*
X0241612Y0207223D01*
X0241339Y0207112D01*
X0241069Y0206995D01*
X0240801Y0206871D01*
X0240537Y0206741D01*
X0240276Y0206604D01*
X0240019Y0206461D01*
X0239765Y0206311D01*
X0239514Y0206156D01*
X0239268Y0205994D01*
X0239026Y0205827D01*
X0238788Y0205653D01*
X0238554Y0205474D01*
X0238324Y0205289D01*
X0238100Y0205099D01*
X0237879Y0204903D01*
X0237664Y0204702D01*
X0237454Y0204495D01*
X0237249Y0204284D01*
X0237049Y0204067D01*
X0236854Y0203846D01*
X0236665Y0203620D01*
X0236482Y0203390D01*
X0236304Y0203155D01*
X0236132Y0202915D01*
X0235966Y0202672D01*
X0235806Y0202425D01*
X0235652Y0202174D01*
X0235504Y0201919D01*
X0235362Y0201660D01*
X0235227Y0201399D01*
X0235098Y0201134D01*
X0234976Y0200866D01*
X0234860Y0200595D01*
X0234751Y0200321D01*
X0234649Y0200045D01*
X0234554Y0199766D01*
X0234465Y0199485D01*
X0234383Y0199202D01*
X0234308Y0198917D01*
X0234241Y0198630D01*
X0234180Y0198342D01*
X0234126Y0198052D01*
X0234079Y0197761D01*
X0234040Y0197469D01*
X0234008Y0197177D01*
X0233982Y0196883D01*
X0233964Y0196589D01*
X0233954Y0196295D01*
X0233950Y0196000D01*
X0233954Y0195705D01*
X0233964Y0195411D01*
X0233982Y0195117D01*
X0234008Y0194823D01*
X0234040Y0194531D01*
X0234079Y0194239D01*
X0234126Y0193948D01*
X0234180Y0193658D01*
X0234241Y0193370D01*
X0234308Y0193083D01*
X0234383Y0192798D01*
X0234465Y0192515D01*
X0234554Y0192234D01*
X0234649Y0191955D01*
X0234751Y0191679D01*
X0234860Y0191405D01*
X0234976Y0191134D01*
X0235098Y0190866D01*
X0235227Y0190601D01*
X0235362Y0190340D01*
X0235504Y0190081D01*
X0235652Y0189826D01*
X0235806Y0189575D01*
X0235966Y0189328D01*
X0236132Y0189085D01*
X0236304Y0188845D01*
X0236482Y0188610D01*
X0236665Y0188380D01*
X0236854Y0188154D01*
X0237049Y0187933D01*
X0237249Y0187716D01*
X0237454Y0187505D01*
X0237664Y0187298D01*
X0237879Y0187097D01*
X0238100Y0186901D01*
X0238324Y0186711D01*
X0238554Y0186526D01*
X0238788Y0186347D01*
X0239026Y0186173D01*
X0239268Y0186006D01*
X0239514Y0185844D01*
X0239765Y0185689D01*
X0240019Y0185539D01*
X0240276Y0185396D01*
X0240537Y0185259D01*
X0240801Y0185129D01*
X0241069Y0185005D01*
X0241339Y0184888D01*
X0241612Y0184777D01*
X0241888Y0184673D01*
X0242166Y0184576D01*
X0242446Y0184486D01*
X0242729Y0184403D01*
X0243013Y0184326D01*
X0243300Y0184256D01*
X0243587Y0184194D01*
X0243877Y0184139D01*
X0244167Y0184090D01*
X0244459Y0184049D01*
X0244752Y0184015D01*
X0245045Y0183988D01*
X0245339Y0183968D01*
X0245633Y0183956D01*
X0245928Y0183950D01*
X0246223Y0183952D01*
X0246517Y0183961D01*
X0246811Y0183977D01*
X0247105Y0184001D01*
X0247398Y0184031D01*
X0247690Y0184069D01*
X0247981Y0184114D01*
X0248271Y0184166D01*
X0248560Y0184225D01*
X0248847Y0184291D01*
X0249133Y0184364D01*
X0249416Y0184444D01*
X0249698Y0184531D01*
X0249977Y0184625D01*
X0250254Y0184726D01*
X0250528Y0184833D01*
X0250800Y0184947D01*
X0251069Y0185068D01*
X0251334Y0185195D01*
X0251597Y0185329D01*
X0251856Y0185469D01*
X0252112Y0185615D01*
X0252364Y0185768D01*
X0252612Y0185926D01*
X0252856Y0186091D01*
X0253097Y0186261D01*
X0253333Y0186438D01*
X0253564Y0186620D01*
X0253791Y0186808D01*
X0254014Y0187001D01*
X0254231Y0187200D01*
X0254444Y0187403D01*
X0254652Y0187612D01*
X0254854Y0187826D01*
X0255051Y0188045D01*
X0255243Y0188269D01*
X0255429Y0188497D01*
X0255610Y0188730D01*
X0256329Y0188191D01*
X0256330Y0188190D01*
X0256136Y0187940D01*
X0255936Y0187694D01*
X0255730Y0187454D01*
X0255518Y0187219D01*
X0255300Y0186989D01*
X0255077Y0186764D01*
X0254849Y0186545D01*
X0254615Y0186331D01*
X0254376Y0186123D01*
X0254132Y0185921D01*
X0253883Y0185726D01*
X0253629Y0185536D01*
X0253371Y0185353D01*
X0253109Y0185176D01*
X0252842Y0185005D01*
X0252571Y0184841D01*
X0252296Y0184684D01*
X0252018Y0184533D01*
X0251735Y0184389D01*
X0251450Y0184253D01*
X0251161Y0184123D01*
X0250869Y0184000D01*
X0250574Y0183885D01*
X0250277Y0183777D01*
X0249976Y0183676D01*
X0249674Y0183582D01*
X0249369Y0183496D01*
X0249062Y0183417D01*
X0248754Y0183346D01*
X0248444Y0183283D01*
X0248132Y0183227D01*
X0247819Y0183178D01*
X0247505Y0183138D01*
X0247190Y0183105D01*
X0246874Y0183080D01*
X0246558Y0183062D01*
X0246242Y0183052D01*
X0245925Y0183050D01*
X0245608Y0183056D01*
X0245292Y0183069D01*
X0244976Y0183091D01*
X0244661Y0183119D01*
X0244346Y0183156D01*
X0244033Y0183200D01*
X0243720Y0183252D01*
X0243409Y0183312D01*
X0243100Y0183379D01*
X0242792Y0183454D01*
X0242486Y0183536D01*
X0242183Y0183625D01*
X0241881Y0183722D01*
X0241582Y0183827D01*
X0241286Y0183939D01*
X0240992Y0184057D01*
X0240702Y0184183D01*
X0240415Y0184316D01*
X0240130Y0184457D01*
X0239850Y0184604D01*
X0239573Y0184757D01*
X0239300Y0184918D01*
X0239031Y0185085D01*
X0238766Y0185259D01*
X0238506Y0185439D01*
X0238250Y0185625D01*
X0237999Y0185818D01*
X0237752Y0186016D01*
X0237510Y0186221D01*
X0237274Y0186431D01*
X0237042Y0186648D01*
X0236817Y0186870D01*
X0236596Y0187097D01*
X0236381Y0187329D01*
X0236172Y0187567D01*
X0235969Y0187810D01*
X0235771Y0188058D01*
X0235580Y0188310D01*
X0235395Y0188567D01*
X0235217Y0188829D01*
X0235045Y0189095D01*
X0234879Y0189364D01*
X0234720Y0189638D01*
X0234568Y0189916D01*
X0234423Y0190197D01*
X0234284Y0190482D01*
X0234153Y0190770D01*
X0234029Y0191062D01*
X0233911Y0191356D01*
X0233801Y0191653D01*
X0233699Y0191952D01*
X0233604Y0192254D01*
X0233516Y0192558D01*
X0233435Y0192865D01*
X0233362Y0193173D01*
X0233297Y0193483D01*
X0233239Y0193794D01*
X0233189Y0194107D01*
X0233147Y0194421D01*
X0233112Y0194735D01*
X0233085Y0195051D01*
X0233065Y0195367D01*
X0233054Y0195683D01*
X0233050Y0196000D01*
X0233054Y0196317D01*
X0233065Y0196633D01*
X0233085Y0196949D01*
X0233112Y0197265D01*
X0233147Y0197579D01*
X0233189Y0197893D01*
X0233239Y0198206D01*
X0233297Y0198517D01*
X0233362Y0198827D01*
X0233435Y0199135D01*
X0233516Y0199442D01*
X0233604Y0199746D01*
X0233699Y0200048D01*
X0233801Y0200347D01*
X0233911Y0200644D01*
X0234029Y0200938D01*
X0234153Y0201230D01*
X0234284Y0201518D01*
X0234423Y0201803D01*
X0234568Y0202084D01*
X0234720Y0202362D01*
X0234879Y0202636D01*
X0235045Y0202905D01*
X0235217Y0203171D01*
X0235395Y0203433D01*
X0235580Y0203690D01*
X0235771Y0203942D01*
X0235969Y0204190D01*
X0236172Y0204433D01*
X0236381Y0204671D01*
X0236596Y0204903D01*
X0236817Y0205130D01*
X0237042Y0205352D01*
X0237274Y0205569D01*
X0237510Y0205779D01*
X0237752Y0205984D01*
X0237999Y0206182D01*
X0238250Y0206375D01*
X0238506Y0206561D01*
X0238766Y0206741D01*
X0239031Y0206915D01*
X0239300Y0207082D01*
X0239573Y0207243D01*
X0239850Y0207396D01*
X0240130Y0207543D01*
X0240415Y0207684D01*
X0240702Y0207817D01*
X0240992Y0207943D01*
X0241286Y0208061D01*
X0241582Y0208173D01*
X0241881Y0208278D01*
X0242183Y0208375D01*
X0242486Y0208464D01*
X0242792Y0208546D01*
X0243100Y0208621D01*
X0243409Y0208688D01*
X0243720Y0208748D01*
X0244033Y0208800D01*
X0244346Y0208844D01*
X0244661Y0208881D01*
X0244976Y0208909D01*
X0245292Y0208931D01*
X0245608Y0208944D01*
X0245925Y0208950D01*
X0246242Y0208948D01*
X0246558Y0208938D01*
X0246874Y0208920D01*
X0247190Y0208895D01*
X0247505Y0208862D01*
X0247819Y0208822D01*
X0248132Y0208773D01*
X0248444Y0208717D01*
X0248754Y0208654D01*
X0249062Y0208583D01*
X0249369Y0208504D01*
X0249674Y0208418D01*
X0249976Y0208324D01*
X0250277Y0208223D01*
X0250574Y0208115D01*
X0250869Y0208000D01*
X0251161Y0207877D01*
X0251450Y0207747D01*
X0251735Y0207611D01*
X0252018Y0207467D01*
X0252296Y0207316D01*
X0252571Y0207159D01*
X0252842Y0206995D01*
X0253109Y0206824D01*
X0253371Y0206647D01*
X0253629Y0206464D01*
X0253883Y0206274D01*
X0254132Y0206079D01*
X0254376Y0205877D01*
X0254615Y0205669D01*
X0254849Y0205455D01*
X0255077Y0205236D01*
X0255300Y0205011D01*
X0255518Y0204781D01*
X0255730Y0204546D01*
X0255936Y0204306D01*
X0256136Y0204060D01*
X0256330Y0203810D01*
X0256255Y0203754D01*
X0256062Y0204002D01*
X0255863Y0204246D01*
X0255659Y0204484D01*
X0255449Y0204718D01*
X0255233Y0204946D01*
X0255011Y0205169D01*
X0254784Y0205387D01*
X0254552Y0205599D01*
X0254315Y0205805D01*
X0254073Y0206006D01*
X0253825Y0206200D01*
X0253574Y0206388D01*
X0253317Y0206570D01*
X0253057Y0206746D01*
X0252792Y0206915D01*
X0252523Y0207078D01*
X0252250Y0207234D01*
X0251974Y0207384D01*
X0251694Y0207526D01*
X0251410Y0207662D01*
X0251123Y0207791D01*
X0250833Y0207913D01*
X0250541Y0208027D01*
X0250245Y0208135D01*
X0249947Y0208235D01*
X0249647Y0208328D01*
X0249344Y0208413D01*
X0249040Y0208491D01*
X0248734Y0208562D01*
X0248426Y0208625D01*
X0248116Y0208681D01*
X0247806Y0208729D01*
X0247494Y0208769D01*
X0247181Y0208802D01*
X0246868Y0208827D01*
X0246554Y0208844D01*
X0246240Y0208854D01*
X0245925Y0208856D01*
X0245611Y0208850D01*
X0245297Y0208837D01*
X0244983Y0208816D01*
X0244670Y0208787D01*
X0244358Y0208751D01*
X0244047Y0208707D01*
X0243737Y0208655D01*
X0243428Y0208596D01*
X0243121Y0208529D01*
X0242815Y0208455D01*
X0242512Y0208374D01*
X0242210Y0208285D01*
X0241911Y0208188D01*
X0241614Y0208085D01*
X0241320Y0207974D01*
X0241029Y0207856D01*
X0240740Y0207731D01*
X0240455Y0207599D01*
X0240173Y0207460D01*
X0239895Y0207314D01*
X0239620Y0207161D01*
X0239349Y0207002D01*
X0239082Y0206836D01*
X0238819Y0206663D01*
X0238560Y0206485D01*
X0238306Y0206300D01*
X0238057Y0206108D01*
X0237812Y0205911D01*
X0237572Y0205708D01*
X0237337Y0205499D01*
X0237107Y0205284D01*
X0236883Y0205064D01*
X0236664Y0204839D01*
X0236451Y0204608D01*
X0236243Y0204372D01*
X0236041Y0204130D01*
X0235846Y0203885D01*
X0235656Y0203634D01*
X0235472Y0203379D01*
X0235295Y0203119D01*
X0235124Y0202855D01*
X0234960Y0202587D01*
X0234802Y0202315D01*
X0234651Y0202040D01*
X0234507Y0201760D01*
X0234369Y0201478D01*
X0234239Y0201192D01*
X0234115Y0200903D01*
X0233999Y0200610D01*
X0233890Y0200316D01*
X0233788Y0200018D01*
X0233694Y0199719D01*
X0233606Y0199416D01*
X0233526Y0199112D01*
X0233454Y0198807D01*
X0233389Y0198499D01*
X0233332Y0198190D01*
X0233282Y0197879D01*
X0233240Y0197568D01*
X0233205Y0197255D01*
X0233179Y0196942D01*
X0233159Y0196628D01*
X0233148Y0196314D01*
X0233144Y0196000D01*
X0233148Y0195686D01*
X0233159Y0195372D01*
X0233179Y0195058D01*
X0233205Y0194745D01*
X0233240Y0194432D01*
X0233282Y0194121D01*
X0233332Y0193810D01*
X0233389Y0193501D01*
X0233454Y0193193D01*
X0233526Y0192888D01*
X0233606Y0192584D01*
X0233694Y0192281D01*
X0233788Y0191982D01*
X0233890Y0191684D01*
X0233999Y0191390D01*
X0234115Y0191097D01*
X0234239Y0190808D01*
X0234369Y0190522D01*
X0234507Y0190240D01*
X0234651Y0189960D01*
X0234802Y0189685D01*
X0234960Y0189413D01*
X0235124Y0189145D01*
X0235295Y0188881D01*
X0235472Y0188621D01*
X0235656Y0188366D01*
X0235846Y0188115D01*
X0236041Y0187870D01*
X0236243Y0187628D01*
X0236451Y0187392D01*
X0236664Y0187161D01*
X0236883Y0186936D01*
X0237107Y0186716D01*
X0237337Y0186501D01*
X0237572Y0186292D01*
X0237812Y0186089D01*
X0238057Y0185892D01*
X0238306Y0185700D01*
X0238560Y0185515D01*
X0238819Y0185337D01*
X0239082Y0185164D01*
X0239349Y0184998D01*
X0239620Y0184839D01*
X0239895Y0184686D01*
X0240173Y0184540D01*
X0240455Y0184401D01*
X0240740Y0184269D01*
X0241029Y0184144D01*
X0241320Y0184026D01*
X0241614Y0183915D01*
X0241911Y0183812D01*
X0242210Y0183715D01*
X0242512Y0183626D01*
X0242815Y0183545D01*
X0243121Y0183471D01*
X0243428Y0183404D01*
X0243737Y0183345D01*
X0244047Y0183293D01*
X0244358Y0183249D01*
X0244670Y0183213D01*
X0244983Y0183184D01*
X0245297Y0183163D01*
X0245611Y0183150D01*
X0245925Y0183144D01*
X0246240Y0183146D01*
X0246554Y0183156D01*
X0246868Y0183173D01*
X0247181Y0183198D01*
X0247494Y0183231D01*
X0247806Y0183271D01*
X0248116Y0183319D01*
X0248426Y0183375D01*
X0248734Y0183438D01*
X0249040Y0183509D01*
X0249344Y0183587D01*
X0249647Y0183672D01*
X0249947Y0183765D01*
X0250245Y0183865D01*
X0250541Y0183973D01*
X0250833Y0184087D01*
X0251123Y0184209D01*
X0251410Y0184338D01*
X0251694Y0184474D01*
X0251974Y0184616D01*
X0252250Y0184766D01*
X0252523Y0184922D01*
X0252792Y0185085D01*
X0253057Y0185254D01*
X0253317Y0185430D01*
X0253574Y0185612D01*
X0253825Y0185800D01*
X0254073Y0185994D01*
X0254315Y0186195D01*
X0254552Y0186401D01*
X0254784Y0186613D01*
X0255011Y0186831D01*
X0255233Y0187054D01*
X0255449Y0187282D01*
X0255659Y0187516D01*
X0255863Y0187754D01*
X0256062Y0187998D01*
X0256255Y0188246D01*
X0256180Y0188303D01*
X0255988Y0188056D01*
X0255791Y0187814D01*
X0255588Y0187577D01*
X0255379Y0187346D01*
X0255165Y0187119D01*
X0254945Y0186897D01*
X0254720Y0186681D01*
X0254489Y0186471D01*
X0254254Y0186266D01*
X0254013Y0186067D01*
X0253768Y0185874D01*
X0253518Y0185688D01*
X0253264Y0185507D01*
X0253005Y0185332D01*
X0252742Y0185164D01*
X0252475Y0185003D01*
X0252204Y0184848D01*
X0251930Y0184699D01*
X0251652Y0184558D01*
X0251370Y0184423D01*
X0251086Y0184295D01*
X0250798Y0184174D01*
X0250507Y0184060D01*
X0250214Y0183954D01*
X0249918Y0183854D01*
X0249620Y0183762D01*
X0249320Y0183677D01*
X0249017Y0183600D01*
X0248713Y0183530D01*
X0248408Y0183467D01*
X0248101Y0183412D01*
X0247792Y0183364D01*
X0247483Y0183324D01*
X0247172Y0183292D01*
X0246861Y0183267D01*
X0246550Y0183250D01*
X0246238Y0183240D01*
X0245926Y0183238D01*
X0245614Y0183244D01*
X0245302Y0183257D01*
X0244991Y0183278D01*
X0244680Y0183306D01*
X0244370Y0183343D01*
X0244061Y0183386D01*
X0243753Y0183437D01*
X0243446Y0183496D01*
X0243142Y0183562D01*
X0242838Y0183636D01*
X0242537Y0183717D01*
X0242238Y0183805D01*
X0241941Y0183901D01*
X0241646Y0184004D01*
X0241354Y0184114D01*
X0241065Y0184231D01*
X0240778Y0184355D01*
X0240495Y0184486D01*
X0240215Y0184624D01*
X0239939Y0184769D01*
X0239666Y0184921D01*
X0239397Y0185079D01*
X0239132Y0185244D01*
X0238871Y0185415D01*
X0238615Y0185592D01*
X0238362Y0185776D01*
X0238115Y0185966D01*
X0237872Y0186161D01*
X0237633Y0186363D01*
X0237400Y0186571D01*
X0237172Y0186784D01*
X0236950Y0187002D01*
X0236732Y0187226D01*
X0236521Y0187455D01*
X0236315Y0187690D01*
X0236114Y0187929D01*
X0235920Y0188173D01*
X0235732Y0188422D01*
X0235549Y0188675D01*
X0235373Y0188933D01*
X0235204Y0189195D01*
X0235041Y0189461D01*
X0234884Y0189731D01*
X0234734Y0190005D01*
X0234591Y0190282D01*
X0234454Y0190562D01*
X0234325Y0190846D01*
X0234202Y0191133D01*
X0234087Y0191423D01*
X0233979Y0191716D01*
X0233877Y0192011D01*
X0233783Y0192309D01*
X0233697Y0192609D01*
X0233618Y0192910D01*
X0233546Y0193214D01*
X0233481Y0193519D01*
X0233424Y0193826D01*
X0233375Y0194134D01*
X0233333Y0194444D01*
X0233299Y0194754D01*
X0233272Y0195065D01*
X0233253Y0195376D01*
X0233242Y0195688D01*
X0233238Y0196000D01*
X0233242Y0196312D01*
X0233253Y0196624D01*
X0233272Y0196935D01*
X0233299Y0197246D01*
X0233333Y0197556D01*
X0233375Y0197866D01*
X0233424Y0198174D01*
X0233481Y0198481D01*
X0233546Y0198786D01*
X0233618Y0199090D01*
X0233697Y0199391D01*
X0233783Y0199691D01*
X0233877Y0199989D01*
X0233979Y0200284D01*
X0234087Y0200577D01*
X0234202Y0200867D01*
X0234325Y0201154D01*
X0234454Y0201438D01*
X0234591Y0201718D01*
X0234734Y0201995D01*
X0234884Y0202269D01*
X0235041Y0202539D01*
X0235204Y0202805D01*
X0235373Y0203067D01*
X0235549Y0203325D01*
X0235732Y0203578D01*
X0235920Y0203827D01*
X0236114Y0204071D01*
X0236315Y0204310D01*
X0236521Y0204545D01*
X0236732Y0204774D01*
X0236950Y0204998D01*
X0237172Y0205216D01*
X0237400Y0205429D01*
X0237633Y0205637D01*
X0237872Y0205839D01*
X0238115Y0206034D01*
X0238362Y0206224D01*
X0238615Y0206408D01*
X0238871Y0206585D01*
X0239132Y0206756D01*
X0239397Y0206921D01*
X0239666Y0207079D01*
X0239939Y0207231D01*
X0240215Y0207376D01*
X0240495Y0207514D01*
X0240778Y0207645D01*
X0241065Y0207769D01*
X0241354Y0207886D01*
X0241646Y0207996D01*
X0241941Y0208099D01*
X0242238Y0208195D01*
X0242537Y0208283D01*
X0242838Y0208364D01*
X0243142Y0208438D01*
X0243446Y0208504D01*
X0243753Y0208563D01*
X0244061Y0208614D01*
X0244370Y0208657D01*
X0244680Y0208694D01*
X0244991Y0208722D01*
X0245302Y0208743D01*
X0245614Y0208756D01*
X0245926Y0208762D01*
X0246238Y0208760D01*
X0246550Y0208750D01*
X0246861Y0208733D01*
X0247172Y0208708D01*
X0247483Y0208676D01*
X0247792Y0208636D01*
X0248101Y0208588D01*
X0248408Y0208533D01*
X0248713Y0208470D01*
X0249017Y0208400D01*
X0249320Y0208323D01*
X0249620Y0208238D01*
X0249918Y0208146D01*
X0250214Y0208046D01*
X0250507Y0207940D01*
X0250798Y0207826D01*
X0251086Y0207705D01*
X0251370Y0207577D01*
X0251652Y0207442D01*
X0251930Y0207301D01*
X0252204Y0207152D01*
X0252475Y0206997D01*
X0252742Y0206836D01*
X0253005Y0206668D01*
X0253264Y0206493D01*
X0253518Y0206312D01*
X0253768Y0206126D01*
X0254013Y0205933D01*
X0254254Y0205734D01*
X0254489Y0205529D01*
X0254720Y0205319D01*
X0254945Y0205103D01*
X0255165Y0204881D01*
X0255379Y0204654D01*
X0255588Y0204423D01*
X0255791Y0204186D01*
X0255988Y0203944D01*
X0256180Y0203697D01*
X0256104Y0203641D01*
X0255914Y0203886D01*
X0255719Y0204126D01*
X0255517Y0204361D01*
X0255310Y0204591D01*
X0255097Y0204816D01*
X0254879Y0205036D01*
X0254655Y0205250D01*
X0254426Y0205459D01*
X0254193Y0205662D01*
X0253954Y0205860D01*
X0253711Y0206051D01*
X0253462Y0206237D01*
X0253210Y0206416D01*
X0252953Y0206589D01*
X0252692Y0206756D01*
X0252427Y0206917D01*
X0252158Y0207070D01*
X0251886Y0207218D01*
X0251610Y0207358D01*
X0251330Y0207492D01*
X0251048Y0207619D01*
X0250762Y0207739D01*
X0250474Y0207852D01*
X0250183Y0207958D01*
X0249889Y0208056D01*
X0249593Y0208148D01*
X0249295Y0208232D01*
X0248995Y0208309D01*
X0248693Y0208378D01*
X0248390Y0208441D01*
X0248085Y0208495D01*
X0247779Y0208543D01*
X0247471Y0208582D01*
X0247163Y0208614D01*
X0246855Y0208639D01*
X0246545Y0208656D01*
X0246236Y0208666D01*
X0245926Y0208668D01*
X0245616Y0208662D01*
X0245307Y0208649D01*
X0244998Y0208628D01*
X0244689Y0208600D01*
X0244382Y0208564D01*
X0244075Y0208521D01*
X0243769Y0208470D01*
X0243465Y0208412D01*
X0243162Y0208346D01*
X0242861Y0208273D01*
X0242562Y0208193D01*
X0242265Y0208105D01*
X0241970Y0208010D01*
X0241678Y0207908D01*
X0241388Y0207799D01*
X0241101Y0207682D01*
X0240817Y0207559D01*
X0240536Y0207429D01*
X0240258Y0207292D01*
X0239984Y0207148D01*
X0239713Y0206998D01*
X0239446Y0206841D01*
X0239183Y0206677D01*
X0238924Y0206507D01*
X0238669Y0206331D01*
X0238418Y0206149D01*
X0238173Y0205960D01*
X0237931Y0205766D01*
X0237695Y0205566D01*
X0237464Y0205360D01*
X0237237Y0205148D01*
X0237016Y0204931D01*
X0236801Y0204709D01*
X0236590Y0204482D01*
X0236386Y0204249D01*
X0236187Y0204011D01*
X0235994Y0203769D01*
X0235807Y0203522D01*
X0235626Y0203271D01*
X0235452Y0203015D01*
X0235283Y0202755D01*
X0235121Y0202491D01*
X0234966Y0202223D01*
X0234817Y0201951D01*
X0234675Y0201676D01*
X0234539Y0201397D01*
X0234411Y0201116D01*
X0234289Y0200831D01*
X0234175Y0200543D01*
X0234067Y0200252D01*
X0233967Y0199959D01*
X0233873Y0199664D01*
X0233787Y0199366D01*
X0233709Y0199067D01*
X0233638Y0198765D01*
X0233574Y0198462D01*
X0233517Y0198158D01*
X0233468Y0197852D01*
X0233427Y0197545D01*
X0233393Y0197237D01*
X0233366Y0196928D01*
X0233347Y0196619D01*
X0233336Y0196310D01*
X0233332Y0196000D01*
X0233336Y0195690D01*
X0233347Y0195381D01*
X0233366Y0195072D01*
X0233393Y0194763D01*
X0233427Y0194455D01*
X0233468Y0194148D01*
X0233517Y0193842D01*
X0233574Y0193538D01*
X0233638Y0193235D01*
X0233709Y0192933D01*
X0233787Y0192634D01*
X0233873Y0192336D01*
X0233967Y0192041D01*
X0234067Y0191748D01*
X0234175Y0191457D01*
X0234289Y0191169D01*
X0234411Y0190884D01*
X0234539Y0190603D01*
X0234675Y0190324D01*
X0234817Y0190049D01*
X0234966Y0189777D01*
X0235121Y0189509D01*
X0235283Y0189245D01*
X0235452Y0188985D01*
X0235626Y0188729D01*
X0235807Y0188478D01*
X0235994Y0188231D01*
X0236187Y0187989D01*
X0236386Y0187751D01*
X0236590Y0187518D01*
X0236801Y0187291D01*
X0237016Y0187069D01*
X0237237Y0186852D01*
X0237464Y0186640D01*
X0237695Y0186434D01*
X0237931Y0186234D01*
X0238173Y0186040D01*
X0238418Y0185851D01*
X0238669Y0185669D01*
X0238924Y0185493D01*
X0239183Y0185323D01*
X0239446Y0185159D01*
X0239713Y0185002D01*
X0239984Y0184852D01*
X0240258Y0184708D01*
X0240536Y0184571D01*
X0240817Y0184441D01*
X0241101Y0184318D01*
X0241388Y0184201D01*
X0241678Y0184092D01*
X0241970Y0183990D01*
X0242265Y0183895D01*
X0242562Y0183807D01*
X0242861Y0183727D01*
X0243162Y0183654D01*
X0243465Y0183588D01*
X0243769Y0183530D01*
X0244075Y0183479D01*
X0244382Y0183436D01*
X0244689Y0183400D01*
X0244998Y0183372D01*
X0245307Y0183351D01*
X0245616Y0183338D01*
X0245926Y0183332D01*
X0246236Y0183334D01*
X0246545Y0183344D01*
X0246855Y0183361D01*
X0247163Y0183386D01*
X0247471Y0183418D01*
X0247779Y0183457D01*
X0248085Y0183505D01*
X0248390Y0183559D01*
X0248693Y0183622D01*
X0248995Y0183691D01*
X0249295Y0183768D01*
X0249593Y0183852D01*
X0249889Y0183944D01*
X0250183Y0184042D01*
X0250474Y0184148D01*
X0250762Y0184261D01*
X0251048Y0184381D01*
X0251330Y0184508D01*
X0251610Y0184642D01*
X0251886Y0184782D01*
X0252158Y0184930D01*
X0252427Y0185083D01*
X0252692Y0185244D01*
X0252953Y0185411D01*
X0253210Y0185584D01*
X0253462Y0185763D01*
X0253711Y0185949D01*
X0253954Y0186140D01*
X0254193Y0186338D01*
X0254426Y0186541D01*
X0254655Y0186750D01*
X0254879Y0186964D01*
X0255097Y0187184D01*
X0255310Y0187409D01*
X0255517Y0187639D01*
X0255719Y0187874D01*
X0255914Y0188114D01*
X0256104Y0188359D01*
X0256029Y0188416D01*
X0255841Y0188173D01*
X0255646Y0187934D01*
X0255446Y0187701D01*
X0255241Y0187473D01*
X0255029Y0187249D01*
X0254813Y0187031D01*
X0254591Y0186818D01*
X0254364Y0186611D01*
X0254132Y0186409D01*
X0253895Y0186213D01*
X0253653Y0186023D01*
X0253407Y0185839D01*
X0253156Y0185661D01*
X0252901Y0185489D01*
X0252642Y0185324D01*
X0252379Y0185164D01*
X0252112Y0185012D01*
X0251842Y0184865D01*
X0251568Y0184726D01*
X0251291Y0184593D01*
X0251010Y0184467D01*
X0250727Y0184348D01*
X0250440Y0184236D01*
X0250151Y0184131D01*
X0249860Y0184033D01*
X0249566Y0183942D01*
X0249270Y0183859D01*
X0248973Y0183782D01*
X0248673Y0183713D01*
X0248372Y0183652D01*
X0248069Y0183597D01*
X0247765Y0183551D01*
X0247460Y0183511D01*
X0247155Y0183479D01*
X0246848Y0183455D01*
X0246541Y0183438D01*
X0246234Y0183428D01*
X0245926Y0183426D01*
X0245619Y0183432D01*
X0245312Y0183445D01*
X0245005Y0183465D01*
X0244699Y0183494D01*
X0244393Y0183529D01*
X0244089Y0183572D01*
X0243786Y0183623D01*
X0243484Y0183680D01*
X0243183Y0183746D01*
X0242884Y0183818D01*
X0242588Y0183898D01*
X0242293Y0183985D01*
X0242000Y0184079D01*
X0241710Y0184181D01*
X0241422Y0184289D01*
X0241137Y0184404D01*
X0240855Y0184527D01*
X0240576Y0184656D01*
X0240300Y0184792D01*
X0240028Y0184935D01*
X0239759Y0185084D01*
X0239494Y0185240D01*
X0239233Y0185402D01*
X0238976Y0185571D01*
X0238723Y0185746D01*
X0238475Y0185927D01*
X0238231Y0186114D01*
X0237991Y0186307D01*
X0237757Y0186505D01*
X0237527Y0186710D01*
X0237302Y0186920D01*
X0237083Y0187135D01*
X0236869Y0187356D01*
X0236660Y0187581D01*
X0236457Y0187812D01*
X0236260Y0188048D01*
X0236068Y0188289D01*
X0235883Y0188534D01*
X0235703Y0188783D01*
X0235530Y0189037D01*
X0235363Y0189295D01*
X0235202Y0189557D01*
X0235048Y0189823D01*
X0234900Y0190093D01*
X0234759Y0190366D01*
X0234624Y0190643D01*
X0234497Y0190922D01*
X0234376Y0191205D01*
X0234262Y0191491D01*
X0234156Y0191779D01*
X0234056Y0192070D01*
X0233963Y0192363D01*
X0233878Y0192659D01*
X0233800Y0192956D01*
X0233729Y0193255D01*
X0233666Y0193556D01*
X0233610Y0193858D01*
X0233561Y0194162D01*
X0233520Y0194467D01*
X0233486Y0194772D01*
X0233460Y0195078D01*
X0233441Y0195385D01*
X0233430Y0195693D01*
X0233426Y0196000D01*
X0233430Y0196307D01*
X0233441Y0196615D01*
X0233460Y0196922D01*
X0233486Y0197228D01*
X0233520Y0197533D01*
X0233561Y0197838D01*
X0233610Y0198142D01*
X0233666Y0198444D01*
X0233729Y0198745D01*
X0233800Y0199044D01*
X0233878Y0199341D01*
X0233963Y0199637D01*
X0234056Y0199930D01*
X0234156Y0200221D01*
X0234262Y0200509D01*
X0234376Y0200795D01*
X0234497Y0201078D01*
X0234624Y0201357D01*
X0234759Y0201634D01*
X0234900Y0201907D01*
X0235048Y0202177D01*
X0235202Y0202443D01*
X0235363Y0202705D01*
X0235530Y0202963D01*
X0235703Y0203217D01*
X0235883Y0203466D01*
X0236068Y0203711D01*
X0236260Y0203952D01*
X0236457Y0204188D01*
X0236660Y0204419D01*
X0236869Y0204644D01*
X0237083Y0204865D01*
X0237302Y0205080D01*
X0237527Y0205290D01*
X0237757Y0205495D01*
X0237991Y0205693D01*
X0238231Y0205886D01*
X0238475Y0206073D01*
X0238723Y0206254D01*
X0238976Y0206429D01*
X0239233Y0206598D01*
X0239494Y0206760D01*
X0239759Y0206916D01*
X0240028Y0207065D01*
X0240300Y0207208D01*
X0240576Y0207344D01*
X0240855Y0207473D01*
X0241137Y0207596D01*
X0241422Y0207711D01*
X0241710Y0207819D01*
X0242000Y0207921D01*
X0242293Y0208015D01*
X0242588Y0208102D01*
X0242884Y0208182D01*
X0243183Y0208254D01*
X0243484Y0208320D01*
X0243786Y0208377D01*
X0244089Y0208428D01*
X0244393Y0208471D01*
X0244699Y0208506D01*
X0245005Y0208535D01*
X0245312Y0208555D01*
X0245619Y0208568D01*
X0245926Y0208574D01*
X0246234Y0208572D01*
X0246541Y0208562D01*
X0246848Y0208545D01*
X0247155Y0208521D01*
X0247460Y0208489D01*
X0247765Y0208449D01*
X0248069Y0208403D01*
X0248372Y0208348D01*
X0248673Y0208287D01*
X0248973Y0208218D01*
X0249270Y0208141D01*
X0249566Y0208058D01*
X0249860Y0207967D01*
X0250151Y0207869D01*
X0250440Y0207764D01*
X0250727Y0207652D01*
X0251010Y0207533D01*
X0251291Y0207407D01*
X0251568Y0207274D01*
X0251842Y0207135D01*
X0252112Y0206988D01*
X0252379Y0206836D01*
X0252642Y0206676D01*
X0252901Y0206511D01*
X0253156Y0206339D01*
X0253407Y0206161D01*
X0253653Y0205977D01*
X0253895Y0205787D01*
X0254132Y0205591D01*
X0254364Y0205389D01*
X0254591Y0205182D01*
X0254813Y0204969D01*
X0255029Y0204751D01*
X0255241Y0204527D01*
X0255446Y0204299D01*
X0255646Y0204066D01*
X0255841Y0203827D01*
X0256029Y0203584D01*
X0255954Y0203528D01*
X0255767Y0203769D01*
X0255574Y0204006D01*
X0255375Y0204237D01*
X0255171Y0204464D01*
X0254962Y0204686D01*
X0254747Y0204902D01*
X0254526Y0205113D01*
X0254301Y0205319D01*
X0254071Y0205519D01*
X0253835Y0205714D01*
X0253596Y0205902D01*
X0253351Y0206085D01*
X0253102Y0206262D01*
X0252849Y0206432D01*
X0252592Y0206597D01*
X0252331Y0206755D01*
X0252066Y0206906D01*
X0251798Y0207051D01*
X0251526Y0207190D01*
X0251251Y0207322D01*
X0250972Y0207447D01*
X0250691Y0207565D01*
X0250407Y0207676D01*
X0250120Y0207780D01*
X0249831Y0207878D01*
X0249539Y0207968D01*
X0249246Y0208051D01*
X0248950Y0208126D01*
X0248653Y0208195D01*
X0248354Y0208256D01*
X0248053Y0208310D01*
X0247752Y0208356D01*
X0247449Y0208396D01*
X0247146Y0208427D01*
X0246841Y0208452D01*
X0246537Y0208468D01*
X0246232Y0208478D01*
X0245927Y0208480D01*
X0245622Y0208474D01*
X0245317Y0208461D01*
X0245012Y0208441D01*
X0244708Y0208413D01*
X0244405Y0208378D01*
X0244103Y0208335D01*
X0243802Y0208285D01*
X0243502Y0208228D01*
X0243204Y0208163D01*
X0242908Y0208091D01*
X0242613Y0208012D01*
X0242320Y0207925D01*
X0242030Y0207832D01*
X0241742Y0207731D01*
X0241456Y0207623D01*
X0241173Y0207509D01*
X0240893Y0207387D01*
X0240616Y0207259D01*
X0240343Y0207124D01*
X0240073Y0206983D01*
X0239806Y0206834D01*
X0239543Y0206680D01*
X0239284Y0206519D01*
X0239028Y0206351D01*
X0238777Y0206178D01*
X0238531Y0205998D01*
X0238289Y0205812D01*
X0238051Y0205621D01*
X0237818Y0205424D01*
X0237590Y0205221D01*
X0237367Y0205012D01*
X0237149Y0204799D01*
X0236937Y0204580D01*
X0236730Y0204356D01*
X0236528Y0204126D01*
X0236332Y0203892D01*
X0236142Y0203654D01*
X0235958Y0203410D01*
X0235780Y0203163D01*
X0235608Y0202911D01*
X0235442Y0202654D01*
X0235283Y0202394D01*
X0235129Y0202130D01*
X0234983Y0201863D01*
X0234843Y0201592D01*
X0234709Y0201317D01*
X0234583Y0201040D01*
X0234463Y0200759D01*
X0234350Y0200475D01*
X0234244Y0200189D01*
X0234145Y0199901D01*
X0234053Y0199610D01*
X0233969Y0199316D01*
X0233891Y0199021D01*
X0233821Y0198724D01*
X0233758Y0198426D01*
X0233702Y0198126D01*
X0233654Y0197824D01*
X0233613Y0197522D01*
X0233580Y0197219D01*
X0233554Y0196915D01*
X0233535Y0196610D01*
X0233524Y0196305D01*
X0233520Y0196000D01*
X0233524Y0195695D01*
X0233535Y0195390D01*
X0233554Y0195085D01*
X0233580Y0194781D01*
X0233613Y0194478D01*
X0233654Y0194176D01*
X0233702Y0193874D01*
X0233758Y0193574D01*
X0233821Y0193276D01*
X0233891Y0192979D01*
X0233969Y0192684D01*
X0234053Y0192390D01*
X0234145Y0192099D01*
X0234244Y0191811D01*
X0234350Y0191525D01*
X0234463Y0191241D01*
X0234583Y0190960D01*
X0234709Y0190683D01*
X0234843Y0190408D01*
X0234983Y0190137D01*
X0235129Y0189870D01*
X0235283Y0189606D01*
X0235442Y0189346D01*
X0235608Y0189089D01*
X0235780Y0188837D01*
X0235958Y0188590D01*
X0236142Y0188346D01*
X0236332Y0188108D01*
X0236528Y0187874D01*
X0236730Y0187644D01*
X0236937Y0187420D01*
X0237149Y0187201D01*
X0237367Y0186988D01*
X0237590Y0186779D01*
X0237818Y0186576D01*
X0238051Y0186379D01*
X0238289Y0186188D01*
X0238531Y0186002D01*
X0238777Y0185822D01*
X0239028Y0185649D01*
X0239284Y0185481D01*
X0239543Y0185320D01*
X0239806Y0185166D01*
X0240073Y0185017D01*
X0240343Y0184876D01*
X0240616Y0184741D01*
X0240893Y0184613D01*
X0241173Y0184491D01*
X0241456Y0184377D01*
X0241742Y0184269D01*
X0242030Y0184168D01*
X0242320Y0184075D01*
X0242613Y0183988D01*
X0242908Y0183909D01*
X0243204Y0183837D01*
X0243502Y0183772D01*
X0243802Y0183715D01*
X0244103Y0183665D01*
X0244405Y0183622D01*
X0244708Y0183587D01*
X0245012Y0183559D01*
X0245317Y0183539D01*
X0245622Y0183526D01*
X0245927Y0183520D01*
X0246232Y0183522D01*
X0246537Y0183532D01*
X0246841Y0183548D01*
X0247146Y0183573D01*
X0247449Y0183604D01*
X0247752Y0183644D01*
X0248053Y0183690D01*
X0248354Y0183744D01*
X0248653Y0183805D01*
X0248950Y0183874D01*
X0249246Y0183949D01*
X0249539Y0184032D01*
X0249831Y0184122D01*
X0250120Y0184220D01*
X0250407Y0184324D01*
X0250691Y0184435D01*
X0250972Y0184553D01*
X0251251Y0184678D01*
X0251526Y0184810D01*
X0251798Y0184949D01*
X0252066Y0185094D01*
X0252331Y0185245D01*
X0252592Y0185403D01*
X0252849Y0185568D01*
X0253102Y0185738D01*
X0253351Y0185915D01*
X0253596Y0186098D01*
X0253835Y0186286D01*
X0254071Y0186481D01*
X0254301Y0186681D01*
X0254526Y0186887D01*
X0254747Y0187098D01*
X0254962Y0187314D01*
X0255171Y0187536D01*
X0255375Y0187763D01*
X0255574Y0187994D01*
X0255767Y0188231D01*
X0255954Y0188472D01*
X0255879Y0188528D01*
X0255693Y0188289D01*
X0255502Y0188054D01*
X0255305Y0187825D01*
X0255102Y0187600D01*
X0254894Y0187379D01*
X0254680Y0187165D01*
X0254462Y0186955D01*
X0254238Y0186751D01*
X0254010Y0186552D01*
X0253776Y0186359D01*
X0253538Y0186172D01*
X0253296Y0185991D01*
X0253049Y0185815D01*
X0252798Y0185646D01*
X0252542Y0185483D01*
X0252283Y0185326D01*
X0252020Y0185176D01*
X0251754Y0185032D01*
X0251484Y0184894D01*
X0251211Y0184763D01*
X0250935Y0184639D01*
X0250655Y0184522D01*
X0250373Y0184412D01*
X0250089Y0184308D01*
X0249802Y0184212D01*
X0249512Y0184122D01*
X0249221Y0184040D01*
X0248928Y0183965D01*
X0248632Y0183897D01*
X0248336Y0183836D01*
X0248038Y0183783D01*
X0247738Y0183737D01*
X0247438Y0183698D01*
X0247137Y0183666D01*
X0246835Y0183642D01*
X0246532Y0183625D01*
X0246230Y0183616D01*
X0245927Y0183614D01*
X0245624Y0183620D01*
X0245322Y0183633D01*
X0245019Y0183653D01*
X0244718Y0183681D01*
X0244417Y0183716D01*
X0244117Y0183758D01*
X0243818Y0183808D01*
X0243521Y0183865D01*
X0243225Y0183929D01*
X0242931Y0184000D01*
X0242638Y0184079D01*
X0242348Y0184165D01*
X0242059Y0184258D01*
X0241774Y0184357D01*
X0241490Y0184464D01*
X0241210Y0184578D01*
X0240932Y0184698D01*
X0240657Y0184826D01*
X0240385Y0184960D01*
X0240117Y0185100D01*
X0239852Y0185247D01*
X0239591Y0185401D01*
X0239334Y0185561D01*
X0239081Y0185727D01*
X0238832Y0185899D01*
X0238587Y0186077D01*
X0238346Y0186262D01*
X0238111Y0186452D01*
X0237880Y0186647D01*
X0237653Y0186849D01*
X0237432Y0187055D01*
X0237216Y0187268D01*
X0237005Y0187485D01*
X0236800Y0187707D01*
X0236600Y0187935D01*
X0236405Y0188167D01*
X0236217Y0188404D01*
X0236034Y0188646D01*
X0235857Y0188891D01*
X0235686Y0189142D01*
X0235522Y0189396D01*
X0235363Y0189654D01*
X0235211Y0189916D01*
X0235066Y0190181D01*
X0234927Y0190450D01*
X0234794Y0190723D01*
X0234669Y0190998D01*
X0234550Y0191277D01*
X0234438Y0191558D01*
X0234333Y0191842D01*
X0234234Y0192129D01*
X0234143Y0192418D01*
X0234059Y0192709D01*
X0233982Y0193002D01*
X0233913Y0193296D01*
X0233850Y0193593D01*
X0233795Y0193890D01*
X0233747Y0194189D01*
X0233706Y0194489D01*
X0233673Y0194791D01*
X0233647Y0195092D01*
X0233629Y0195395D01*
X0233618Y0195697D01*
X0233614Y0196000D01*
X0233618Y0196303D01*
X0233629Y0196605D01*
X0233647Y0196908D01*
X0233673Y0197209D01*
X0233706Y0197511D01*
X0233747Y0197811D01*
X0233795Y0198110D01*
X0233850Y0198407D01*
X0233913Y0198704D01*
X0233982Y0198998D01*
X0234059Y0199291D01*
X0234143Y0199582D01*
X0234234Y0199871D01*
X0234333Y0200158D01*
X0234438Y0200442D01*
X0234550Y0200723D01*
X0234669Y0201002D01*
X0234794Y0201277D01*
X0234927Y0201550D01*
X0235066Y0201819D01*
X0235211Y0202084D01*
X0235363Y0202346D01*
X0235522Y0202604D01*
X0235686Y0202858D01*
X0235857Y0203109D01*
X0236034Y0203354D01*
X0236217Y0203596D01*
X0236405Y0203833D01*
X0236600Y0204065D01*
X0236800Y0204293D01*
X0237005Y0204515D01*
X0237216Y0204732D01*
X0237432Y0204945D01*
X0237653Y0205151D01*
X0237880Y0205353D01*
X0238111Y0205548D01*
X0238346Y0205738D01*
X0238587Y0205923D01*
X0238832Y0206101D01*
X0239081Y0206273D01*
X0239334Y0206439D01*
X0239591Y0206599D01*
X0239852Y0206753D01*
X0240117Y0206900D01*
X0240385Y0207040D01*
X0240657Y0207174D01*
X0240932Y0207302D01*
X0241210Y0207422D01*
X0241490Y0207536D01*
X0241774Y0207643D01*
X0242059Y0207742D01*
X0242348Y0207835D01*
X0242638Y0207921D01*
X0242931Y0208000D01*
X0243225Y0208071D01*
X0243521Y0208135D01*
X0243818Y0208192D01*
X0244117Y0208242D01*
X0244417Y0208284D01*
X0244718Y0208319D01*
X0245019Y0208347D01*
X0245322Y0208367D01*
X0245624Y0208380D01*
X0245927Y0208386D01*
X0246230Y0208384D01*
X0246532Y0208375D01*
X0246835Y0208358D01*
X0247137Y0208334D01*
X0247438Y0208302D01*
X0247738Y0208263D01*
X0248038Y0208217D01*
X0248336Y0208164D01*
X0248632Y0208103D01*
X0248928Y0208035D01*
X0249221Y0207960D01*
X0249512Y0207878D01*
X0249802Y0207788D01*
X0250089Y0207692D01*
X0250373Y0207588D01*
X0250655Y0207478D01*
X0250935Y0207361D01*
X0251211Y0207237D01*
X0251484Y0207106D01*
X0251754Y0206968D01*
X0252020Y0206824D01*
X0252283Y0206674D01*
X0252542Y0206517D01*
X0252798Y0206354D01*
X0253049Y0206185D01*
X0253296Y0206009D01*
X0253538Y0205828D01*
X0253776Y0205641D01*
X0254010Y0205448D01*
X0254238Y0205249D01*
X0254462Y0205045D01*
X0254680Y0204835D01*
X0254894Y0204621D01*
X0255102Y0204400D01*
X0255305Y0204175D01*
X0255502Y0203946D01*
X0255693Y0203711D01*
X0255879Y0203472D01*
X0255804Y0203415D01*
X0255619Y0203653D01*
X0255429Y0203885D01*
X0255234Y0204114D01*
X0255033Y0204337D01*
X0254826Y0204555D01*
X0254614Y0204769D01*
X0254397Y0204977D01*
X0254175Y0205179D01*
X0253948Y0205376D01*
X0253717Y0205568D01*
X0253481Y0205754D01*
X0253240Y0205934D01*
X0252995Y0206108D01*
X0252746Y0206276D01*
X0252492Y0206438D01*
X0252235Y0206593D01*
X0251974Y0206742D01*
X0251710Y0206885D01*
X0251442Y0207022D01*
X0251171Y0207151D01*
X0250897Y0207274D01*
X0250620Y0207391D01*
X0250340Y0207500D01*
X0250057Y0207603D01*
X0249773Y0207699D01*
X0249485Y0207787D01*
X0249196Y0207869D01*
X0248905Y0207944D01*
X0248612Y0208011D01*
X0248318Y0208072D01*
X0248022Y0208125D01*
X0247725Y0208170D01*
X0247427Y0208209D01*
X0247128Y0208240D01*
X0246828Y0208264D01*
X0246528Y0208281D01*
X0246228Y0208290D01*
X0245927Y0208292D01*
X0245627Y0208286D01*
X0245326Y0208274D01*
X0245027Y0208253D01*
X0244727Y0208226D01*
X0244429Y0208191D01*
X0244131Y0208149D01*
X0243835Y0208100D01*
X0243540Y0208043D01*
X0243246Y0207979D01*
X0242954Y0207909D01*
X0242664Y0207831D01*
X0242375Y0207745D01*
X0242089Y0207653D01*
X0241805Y0207554D01*
X0241524Y0207448D01*
X0241246Y0207335D01*
X0240970Y0207216D01*
X0240697Y0207089D01*
X0240428Y0206956D01*
X0240162Y0206817D01*
X0239899Y0206671D01*
X0239640Y0206519D01*
X0239384Y0206360D01*
X0239133Y0206195D01*
X0238886Y0206024D01*
X0238643Y0205847D01*
X0238404Y0205664D01*
X0238170Y0205476D01*
X0237941Y0205282D01*
X0237717Y0205082D01*
X0237497Y0204877D01*
X0237283Y0204666D01*
X0237073Y0204450D01*
X0236869Y0204230D01*
X0236671Y0204004D01*
X0236478Y0203773D01*
X0236291Y0203538D01*
X0236109Y0203299D01*
X0235934Y0203055D01*
X0235764Y0202806D01*
X0235601Y0202554D01*
X0235444Y0202298D01*
X0235293Y0202038D01*
X0235149Y0201774D01*
X0235011Y0201507D01*
X0234879Y0201237D01*
X0234755Y0200964D01*
X0234637Y0200687D01*
X0234526Y0200408D01*
X0234421Y0200126D01*
X0234324Y0199842D01*
X0234233Y0199555D01*
X0234150Y0199266D01*
X0234074Y0198976D01*
X0234004Y0198683D01*
X0233942Y0198389D01*
X0233888Y0198094D01*
X0233840Y0197797D01*
X0233800Y0197499D01*
X0233767Y0197200D01*
X0233741Y0196901D01*
X0233723Y0196601D01*
X0233712Y0196301D01*
X0233708Y0196000D01*
X0233712Y0195699D01*
X0233723Y0195399D01*
X0233741Y0195099D01*
X0233767Y0194800D01*
X0233800Y0194501D01*
X0233840Y0194203D01*
X0233888Y0193906D01*
X0233942Y0193611D01*
X0234004Y0193317D01*
X0234074Y0193024D01*
X0234150Y0192734D01*
X0234233Y0192445D01*
X0234324Y0192158D01*
X0234421Y0191874D01*
X0234526Y0191592D01*
X0234637Y0191313D01*
X0234755Y0191036D01*
X0234879Y0190763D01*
X0235011Y0190493D01*
X0235149Y0190226D01*
X0235293Y0189962D01*
X0235444Y0189702D01*
X0235601Y0189446D01*
X0235764Y0189194D01*
X0235934Y0188945D01*
X0236109Y0188701D01*
X0236291Y0188462D01*
X0236478Y0188227D01*
X0236671Y0187996D01*
X0236869Y0187770D01*
X0237073Y0187550D01*
X0237283Y0187334D01*
X0237497Y0187123D01*
X0237717Y0186918D01*
X0237941Y0186718D01*
X0238170Y0186524D01*
X0238404Y0186336D01*
X0238643Y0186153D01*
X0238886Y0185976D01*
X0239133Y0185805D01*
X0239384Y0185640D01*
X0239640Y0185481D01*
X0239899Y0185329D01*
X0240162Y0185183D01*
X0240428Y0185044D01*
X0240697Y0184911D01*
X0240970Y0184784D01*
X0241246Y0184665D01*
X0241524Y0184552D01*
X0241805Y0184446D01*
X0242089Y0184347D01*
X0242375Y0184255D01*
X0242664Y0184169D01*
X0242954Y0184091D01*
X0243246Y0184021D01*
X0243540Y0183957D01*
X0243835Y0183900D01*
X0244131Y0183851D01*
X0244429Y0183809D01*
X0244727Y0183774D01*
X0245027Y0183747D01*
X0245326Y0183726D01*
X0245627Y0183714D01*
X0245927Y0183708D01*
X0246228Y0183710D01*
X0246528Y0183719D01*
X0246828Y0183736D01*
X0247128Y0183760D01*
X0247427Y0183791D01*
X0247725Y0183830D01*
X0248022Y0183875D01*
X0248318Y0183928D01*
X0248612Y0183989D01*
X0248905Y0184056D01*
X0249196Y0184131D01*
X0249485Y0184213D01*
X0249773Y0184301D01*
X0250057Y0184397D01*
X0250340Y0184500D01*
X0250620Y0184609D01*
X0250897Y0184726D01*
X0251171Y0184849D01*
X0251442Y0184978D01*
X0251710Y0185115D01*
X0251974Y0185258D01*
X0252235Y0185407D01*
X0252492Y0185562D01*
X0252746Y0185724D01*
X0252995Y0185892D01*
X0253240Y0186066D01*
X0253481Y0186246D01*
X0253717Y0186432D01*
X0253948Y0186624D01*
X0254175Y0186821D01*
X0254397Y0187023D01*
X0254614Y0187231D01*
X0254826Y0187445D01*
X0255033Y0187663D01*
X0255234Y0187886D01*
X0255429Y0188115D01*
X0255619Y0188347D01*
X0255804Y0188585D01*
X0255728Y0188641D01*
X0255546Y0188406D01*
X0255357Y0188175D01*
X0255163Y0187948D01*
X0254963Y0187726D01*
X0254758Y0187510D01*
X0254548Y0187298D01*
X0254333Y0187092D01*
X0254113Y0186891D01*
X0253887Y0186695D01*
X0253658Y0186505D01*
X0253423Y0186321D01*
X0253184Y0186142D01*
X0252941Y0185969D01*
X0252694Y0185803D01*
X0252442Y0185642D01*
X0252187Y0185488D01*
X0251928Y0185340D01*
X0251666Y0185198D01*
X0251400Y0185063D01*
X0251131Y0184934D01*
X0250859Y0184812D01*
X0250584Y0184696D01*
X0250306Y0184587D01*
X0250026Y0184486D01*
X0249743Y0184391D01*
X0249458Y0184303D01*
X0249171Y0184222D01*
X0248883Y0184147D01*
X0248592Y0184081D01*
X0248300Y0184021D01*
X0248006Y0183968D01*
X0247711Y0183923D01*
X0247416Y0183884D01*
X0247119Y0183853D01*
X0246822Y0183830D01*
X0246524Y0183813D01*
X0246226Y0183804D01*
X0245928Y0183802D01*
X0245629Y0183808D01*
X0245331Y0183820D01*
X0245034Y0183840D01*
X0244737Y0183868D01*
X0244441Y0183902D01*
X0244145Y0183944D01*
X0243851Y0183993D01*
X0243558Y0184049D01*
X0243267Y0184112D01*
X0242977Y0184183D01*
X0242689Y0184260D01*
X0242403Y0184344D01*
X0242119Y0184436D01*
X0241837Y0184534D01*
X0241558Y0184639D01*
X0241282Y0184751D01*
X0241008Y0184870D01*
X0240738Y0184995D01*
X0240470Y0185127D01*
X0240206Y0185266D01*
X0239945Y0185411D01*
X0239688Y0185562D01*
X0239435Y0185719D01*
X0239186Y0185883D01*
X0238940Y0186053D01*
X0238699Y0186228D01*
X0238462Y0186410D01*
X0238230Y0186597D01*
X0238003Y0186789D01*
X0237780Y0186988D01*
X0237562Y0187191D01*
X0237349Y0187400D01*
X0237141Y0187614D01*
X0236939Y0187834D01*
X0236742Y0188057D01*
X0236551Y0188286D01*
X0236365Y0188520D01*
X0236185Y0188757D01*
X0236011Y0188999D01*
X0235843Y0189246D01*
X0235681Y0189496D01*
X0235525Y0189750D01*
X0235375Y0190008D01*
X0235232Y0190270D01*
X0235095Y0190535D01*
X0234964Y0190803D01*
X0234841Y0191074D01*
X0234724Y0191349D01*
X0234613Y0191626D01*
X0234510Y0191906D01*
X0234413Y0192188D01*
X0234323Y0192472D01*
X0234241Y0192759D01*
X0234165Y0193047D01*
X0234096Y0193337D01*
X0234035Y0193629D01*
X0233980Y0193922D01*
X0233933Y0194217D01*
X0233893Y0194512D01*
X0233860Y0194809D01*
X0233835Y0195106D01*
X0233817Y0195404D01*
X0233806Y0195702D01*
X0233802Y0196000D01*
X0233806Y0196298D01*
X0233817Y0196596D01*
X0233835Y0196894D01*
X0233860Y0197191D01*
X0233893Y0197488D01*
X0233933Y0197783D01*
X0233980Y0198078D01*
X0234035Y0198371D01*
X0234096Y0198663D01*
X0234165Y0198953D01*
X0234241Y0199241D01*
X0234323Y0199528D01*
X0234413Y0199812D01*
X0234510Y0200094D01*
X0234613Y0200374D01*
X0234724Y0200651D01*
X0234841Y0200926D01*
X0234964Y0201197D01*
X0235095Y0201465D01*
X0235232Y0201730D01*
X0235375Y0201992D01*
X0235525Y0202250D01*
X0235681Y0202504D01*
X0235843Y0202754D01*
X0236011Y0203001D01*
X0236185Y0203243D01*
X0236365Y0203480D01*
X0236551Y0203714D01*
X0236742Y0203943D01*
X0236939Y0204166D01*
X0237141Y0204386D01*
X0237349Y0204600D01*
X0237562Y0204809D01*
X0237780Y0205012D01*
X0238003Y0205211D01*
X0238230Y0205403D01*
X0238462Y0205590D01*
X0238699Y0205772D01*
X0238940Y0205947D01*
X0239186Y0206117D01*
X0239435Y0206281D01*
X0239688Y0206438D01*
X0239945Y0206589D01*
X0240206Y0206734D01*
X0240470Y0206873D01*
X0240738Y0207005D01*
X0241008Y0207130D01*
X0241282Y0207249D01*
X0241558Y0207361D01*
X0241837Y0207466D01*
X0242119Y0207564D01*
X0242403Y0207656D01*
X0242689Y0207740D01*
X0242977Y0207817D01*
X0243267Y0207888D01*
X0243558Y0207951D01*
X0243851Y0208007D01*
X0244145Y0208056D01*
X0244441Y0208098D01*
X0244737Y0208132D01*
X0245034Y0208160D01*
X0245331Y0208180D01*
X0245629Y0208192D01*
X0245928Y0208198D01*
X0246226Y0208196D01*
X0246524Y0208187D01*
X0246822Y0208170D01*
X0247119Y0208147D01*
X0247416Y0208116D01*
X0247711Y0208077D01*
X0248006Y0208032D01*
X0248300Y0207979D01*
X0248592Y0207919D01*
X0248883Y0207853D01*
X0249171Y0207778D01*
X0249458Y0207697D01*
X0249743Y0207609D01*
X0250026Y0207514D01*
X0250306Y0207413D01*
X0250584Y0207304D01*
X0250859Y0207188D01*
X0251131Y0207066D01*
X0251400Y0206937D01*
X0251666Y0206802D01*
X0251928Y0206660D01*
X0252187Y0206512D01*
X0252442Y0206358D01*
X0252694Y0206197D01*
X0252941Y0206031D01*
X0253184Y0205858D01*
X0253423Y0205679D01*
X0253658Y0205495D01*
X0253887Y0205305D01*
X0254113Y0205109D01*
X0254333Y0204908D01*
X0254548Y0204702D01*
X0254758Y0204490D01*
X0254963Y0204274D01*
X0255163Y0204052D01*
X0255357Y0203825D01*
X0255546Y0203594D01*
X0255728Y0203359D01*
X0255653Y0203302D01*
X0255472Y0203536D01*
X0255285Y0203765D01*
X0255092Y0203990D01*
X0254894Y0204210D01*
X0254691Y0204425D01*
X0254482Y0204635D01*
X0254268Y0204840D01*
X0254050Y0205039D01*
X0253826Y0205233D01*
X0253598Y0205422D01*
X0253366Y0205605D01*
X0253129Y0205782D01*
X0252887Y0205953D01*
X0252642Y0206119D01*
X0252393Y0206278D01*
X0252139Y0206431D01*
X0251883Y0206578D01*
X0251622Y0206719D01*
X0251358Y0206853D01*
X0251091Y0206981D01*
X0250821Y0207102D01*
X0250549Y0207217D01*
X0250273Y0207325D01*
X0249995Y0207426D01*
X0249714Y0207520D01*
X0249432Y0207607D01*
X0249147Y0207688D01*
X0248860Y0207761D01*
X0248572Y0207828D01*
X0248282Y0207887D01*
X0247990Y0207939D01*
X0247698Y0207984D01*
X0247404Y0208022D01*
X0247110Y0208053D01*
X0246815Y0208077D01*
X0246520Y0208093D01*
X0246224Y0208102D01*
X0245928Y0208104D01*
X0245632Y0208098D01*
X0245336Y0208086D01*
X0245041Y0208066D01*
X0244746Y0208039D01*
X0244452Y0208005D01*
X0244159Y0207963D01*
X0243867Y0207915D01*
X0243577Y0207859D01*
X0243288Y0207796D01*
X0243000Y0207726D01*
X0242714Y0207649D01*
X0242430Y0207566D01*
X0242149Y0207475D01*
X0241869Y0207377D01*
X0241592Y0207273D01*
X0241318Y0207162D01*
X0241047Y0207044D01*
X0240778Y0206920D01*
X0240513Y0206789D01*
X0240251Y0206651D01*
X0239992Y0206508D01*
X0239737Y0206358D01*
X0239485Y0206201D01*
X0239238Y0206039D01*
X0238995Y0205871D01*
X0238755Y0205696D01*
X0238520Y0205516D01*
X0238290Y0205331D01*
X0238064Y0205139D01*
X0237843Y0204943D01*
X0237627Y0204741D01*
X0237416Y0204533D01*
X0237210Y0204321D01*
X0237009Y0204103D01*
X0236813Y0203881D01*
X0236623Y0203654D01*
X0236439Y0203423D01*
X0236261Y0203187D01*
X0236088Y0202947D01*
X0235921Y0202702D01*
X0235760Y0202454D01*
X0235605Y0202201D01*
X0235457Y0201945D01*
X0235315Y0201686D01*
X0235179Y0201423D01*
X0235049Y0201157D01*
X0234927Y0200888D01*
X0234810Y0200615D01*
X0234701Y0200340D01*
X0234598Y0200063D01*
X0234502Y0199783D01*
X0234413Y0199501D01*
X0234331Y0199216D01*
X0234256Y0198930D01*
X0234188Y0198642D01*
X0234127Y0198353D01*
X0234073Y0198062D01*
X0234026Y0197769D01*
X0233986Y0197476D01*
X0233954Y0197182D01*
X0233929Y0196887D01*
X0233910Y0196592D01*
X0233900Y0196296D01*
X0233896Y0196000D01*
X0233900Y0195704D01*
X0233910Y0195408D01*
X0233929Y0195113D01*
X0233954Y0194818D01*
X0233986Y0194524D01*
X0234026Y0194231D01*
X0234073Y0193938D01*
X0234127Y0193647D01*
X0234188Y0193358D01*
X0234256Y0193070D01*
X0234331Y0192784D01*
X0234413Y0192499D01*
X0234502Y0192217D01*
X0234598Y0191937D01*
X0234701Y0191660D01*
X0234810Y0191385D01*
X0234927Y0191112D01*
X0235049Y0190843D01*
X0235179Y0190577D01*
X0235315Y0190314D01*
X0235457Y0190055D01*
X0235605Y0189799D01*
X0235760Y0189546D01*
X0235921Y0189298D01*
X0236088Y0189053D01*
X0236261Y0188813D01*
X0236439Y0188577D01*
X0236623Y0188346D01*
X0236813Y0188119D01*
X0237009Y0187897D01*
X0237210Y0187679D01*
X0237416Y0187467D01*
X0237627Y0187259D01*
X0237843Y0187057D01*
X0238064Y0186861D01*
X0238290Y0186669D01*
X0238520Y0186484D01*
X0238755Y0186304D01*
X0238995Y0186129D01*
X0239238Y0185961D01*
X0239485Y0185799D01*
X0239737Y0185642D01*
X0239992Y0185492D01*
X0240251Y0185349D01*
X0240513Y0185211D01*
X0240778Y0185080D01*
X0241047Y0184956D01*
X0241318Y0184838D01*
X0241592Y0184727D01*
X0241869Y0184623D01*
X0242149Y0184525D01*
X0242430Y0184434D01*
X0242714Y0184351D01*
X0243000Y0184274D01*
X0243288Y0184204D01*
X0243577Y0184141D01*
X0243867Y0184085D01*
X0244159Y0184037D01*
X0244452Y0183995D01*
X0244746Y0183961D01*
X0245041Y0183934D01*
X0245336Y0183914D01*
X0245632Y0183902D01*
X0245928Y0183896D01*
X0246224Y0183898D01*
X0246520Y0183907D01*
X0246815Y0183923D01*
X0247110Y0183947D01*
X0247404Y0183978D01*
X0247698Y0184016D01*
X0247990Y0184061D01*
X0248282Y0184113D01*
X0248572Y0184172D01*
X0248860Y0184239D01*
X0249147Y0184312D01*
X0249432Y0184393D01*
X0249714Y0184480D01*
X0249995Y0184574D01*
X0250273Y0184675D01*
X0250549Y0184783D01*
X0250821Y0184898D01*
X0251091Y0185019D01*
X0251358Y0185147D01*
X0251622Y0185281D01*
X0251883Y0185422D01*
X0252139Y0185569D01*
X0252393Y0185722D01*
X0252642Y0185881D01*
X0252887Y0186047D01*
X0253129Y0186218D01*
X0253366Y0186395D01*
X0253598Y0186578D01*
X0253826Y0186767D01*
X0254050Y0186961D01*
X0254268Y0187160D01*
X0254482Y0187365D01*
X0254691Y0187575D01*
X0254894Y0187790D01*
X0255092Y0188010D01*
X0255285Y0188235D01*
X0255472Y0188464D01*
X0255653Y0188698D01*
X0256329Y0148809D02*
X0255609Y0148269D01*
X0255610Y0148270D02*
X0255429Y0148503D01*
X0255243Y0148731D01*
X0255051Y0148955D01*
X0254854Y0149174D01*
X0254652Y0149388D01*
X0254444Y0149597D01*
X0254231Y0149800D01*
X0254014Y0149999D01*
X0253791Y0150192D01*
X0253564Y0150380D01*
X0253333Y0150562D01*
X0253097Y0150739D01*
X0252856Y0150909D01*
X0252612Y0151074D01*
X0252364Y0151232D01*
X0252112Y0151385D01*
X0251856Y0151531D01*
X0251597Y0151671D01*
X0251334Y0151805D01*
X0251069Y0151932D01*
X0250800Y0152053D01*
X0250528Y0152167D01*
X0250254Y0152274D01*
X0249977Y0152375D01*
X0249698Y0152469D01*
X0249416Y0152556D01*
X0249133Y0152636D01*
X0248847Y0152709D01*
X0248560Y0152775D01*
X0248271Y0152834D01*
X0247981Y0152886D01*
X0247690Y0152931D01*
X0247398Y0152969D01*
X0247105Y0152999D01*
X0246811Y0153023D01*
X0246517Y0153039D01*
X0246223Y0153048D01*
X0245928Y0153050D01*
X0245633Y0153044D01*
X0245339Y0153032D01*
X0245045Y0153012D01*
X0244752Y0152985D01*
X0244459Y0152951D01*
X0244167Y0152910D01*
X0243877Y0152861D01*
X0243587Y0152806D01*
X0243300Y0152744D01*
X0243013Y0152674D01*
X0242729Y0152597D01*
X0242446Y0152514D01*
X0242166Y0152424D01*
X0241888Y0152327D01*
X0241612Y0152223D01*
X0241339Y0152112D01*
X0241069Y0151995D01*
X0240801Y0151871D01*
X0240537Y0151741D01*
X0240276Y0151604D01*
X0240019Y0151461D01*
X0239765Y0151311D01*
X0239514Y0151156D01*
X0239268Y0150994D01*
X0239026Y0150827D01*
X0238788Y0150653D01*
X0238554Y0150474D01*
X0238324Y0150289D01*
X0238100Y0150099D01*
X0237879Y0149903D01*
X0237664Y0149702D01*
X0237454Y0149495D01*
X0237249Y0149284D01*
X0237049Y0149067D01*
X0236854Y0148846D01*
X0236665Y0148620D01*
X0236482Y0148390D01*
X0236304Y0148155D01*
X0236132Y0147915D01*
X0235966Y0147672D01*
X0235806Y0147425D01*
X0235652Y0147174D01*
X0235504Y0146919D01*
X0235362Y0146660D01*
X0235227Y0146399D01*
X0235098Y0146134D01*
X0234976Y0145866D01*
X0234860Y0145595D01*
X0234751Y0145321D01*
X0234649Y0145045D01*
X0234554Y0144766D01*
X0234465Y0144485D01*
X0234383Y0144202D01*
X0234308Y0143917D01*
X0234241Y0143630D01*
X0234180Y0143342D01*
X0234126Y0143052D01*
X0234079Y0142761D01*
X0234040Y0142469D01*
X0234008Y0142177D01*
X0233982Y0141883D01*
X0233964Y0141589D01*
X0233954Y0141295D01*
X0233950Y0141000D01*
X0233954Y0140705D01*
X0233964Y0140411D01*
X0233982Y0140117D01*
X0234008Y0139823D01*
X0234040Y0139531D01*
X0234079Y0139239D01*
X0234126Y0138948D01*
X0234180Y0138658D01*
X0234241Y0138370D01*
X0234308Y0138083D01*
X0234383Y0137798D01*
X0234465Y0137515D01*
X0234554Y0137234D01*
X0234649Y0136955D01*
X0234751Y0136679D01*
X0234860Y0136405D01*
X0234976Y0136134D01*
X0235098Y0135866D01*
X0235227Y0135601D01*
X0235362Y0135340D01*
X0235504Y0135081D01*
X0235652Y0134826D01*
X0235806Y0134575D01*
X0235966Y0134328D01*
X0236132Y0134085D01*
X0236304Y0133845D01*
X0236482Y0133610D01*
X0236665Y0133380D01*
X0236854Y0133154D01*
X0237049Y0132933D01*
X0237249Y0132716D01*
X0237454Y0132505D01*
X0237664Y0132298D01*
X0237879Y0132097D01*
X0238100Y0131901D01*
X0238324Y0131711D01*
X0238554Y0131526D01*
X0238788Y0131347D01*
X0239026Y0131173D01*
X0239268Y0131006D01*
X0239514Y0130844D01*
X0239765Y0130689D01*
X0240019Y0130539D01*
X0240276Y0130396D01*
X0240537Y0130259D01*
X0240801Y0130129D01*
X0241069Y0130005D01*
X0241339Y0129888D01*
X0241612Y0129777D01*
X0241888Y0129673D01*
X0242166Y0129576D01*
X0242446Y0129486D01*
X0242729Y0129403D01*
X0243013Y0129326D01*
X0243300Y0129256D01*
X0243587Y0129194D01*
X0243877Y0129139D01*
X0244167Y0129090D01*
X0244459Y0129049D01*
X0244752Y0129015D01*
X0245045Y0128988D01*
X0245339Y0128968D01*
X0245633Y0128956D01*
X0245928Y0128950D01*
X0246223Y0128952D01*
X0246517Y0128961D01*
X0246811Y0128977D01*
X0247105Y0129001D01*
X0247398Y0129031D01*
X0247690Y0129069D01*
X0247981Y0129114D01*
X0248271Y0129166D01*
X0248560Y0129225D01*
X0248847Y0129291D01*
X0249133Y0129364D01*
X0249416Y0129444D01*
X0249698Y0129531D01*
X0249977Y0129625D01*
X0250254Y0129726D01*
X0250528Y0129833D01*
X0250800Y0129947D01*
X0251069Y0130068D01*
X0251334Y0130195D01*
X0251597Y0130329D01*
X0251856Y0130469D01*
X0252112Y0130615D01*
X0252364Y0130768D01*
X0252612Y0130926D01*
X0252856Y0131091D01*
X0253097Y0131261D01*
X0253333Y0131438D01*
X0253564Y0131620D01*
X0253791Y0131808D01*
X0254014Y0132001D01*
X0254231Y0132200D01*
X0254444Y0132403D01*
X0254652Y0132612D01*
X0254854Y0132826D01*
X0255051Y0133045D01*
X0255243Y0133269D01*
X0255429Y0133497D01*
X0255610Y0133730D01*
X0256329Y0133191D01*
X0256330Y0133190D01*
X0256136Y0132940D01*
X0255936Y0132694D01*
X0255730Y0132454D01*
X0255518Y0132219D01*
X0255300Y0131989D01*
X0255077Y0131764D01*
X0254849Y0131545D01*
X0254615Y0131331D01*
X0254376Y0131123D01*
X0254132Y0130921D01*
X0253883Y0130726D01*
X0253629Y0130536D01*
X0253371Y0130353D01*
X0253109Y0130176D01*
X0252842Y0130005D01*
X0252571Y0129841D01*
X0252296Y0129684D01*
X0252018Y0129533D01*
X0251735Y0129389D01*
X0251450Y0129253D01*
X0251161Y0129123D01*
X0250869Y0129000D01*
X0250574Y0128885D01*
X0250277Y0128777D01*
X0249976Y0128676D01*
X0249674Y0128582D01*
X0249369Y0128496D01*
X0249062Y0128417D01*
X0248754Y0128346D01*
X0248444Y0128283D01*
X0248132Y0128227D01*
X0247819Y0128178D01*
X0247505Y0128138D01*
X0247190Y0128105D01*
X0246874Y0128080D01*
X0246558Y0128062D01*
X0246242Y0128052D01*
X0245925Y0128050D01*
X0245608Y0128056D01*
X0245292Y0128069D01*
X0244976Y0128091D01*
X0244661Y0128119D01*
X0244346Y0128156D01*
X0244033Y0128200D01*
X0243720Y0128252D01*
X0243409Y0128312D01*
X0243100Y0128379D01*
X0242792Y0128454D01*
X0242486Y0128536D01*
X0242183Y0128625D01*
X0241881Y0128722D01*
X0241582Y0128827D01*
X0241286Y0128939D01*
X0240992Y0129057D01*
X0240702Y0129183D01*
X0240415Y0129316D01*
X0240130Y0129457D01*
X0239850Y0129604D01*
X0239573Y0129757D01*
X0239300Y0129918D01*
X0239031Y0130085D01*
X0238766Y0130259D01*
X0238506Y0130439D01*
X0238250Y0130625D01*
X0237999Y0130818D01*
X0237752Y0131016D01*
X0237510Y0131221D01*
X0237274Y0131431D01*
X0237042Y0131648D01*
X0236817Y0131870D01*
X0236596Y0132097D01*
X0236381Y0132329D01*
X0236172Y0132567D01*
X0235969Y0132810D01*
X0235771Y0133058D01*
X0235580Y0133310D01*
X0235395Y0133567D01*
X0235217Y0133829D01*
X0235045Y0134095D01*
X0234879Y0134364D01*
X0234720Y0134638D01*
X0234568Y0134916D01*
X0234423Y0135197D01*
X0234284Y0135482D01*
X0234153Y0135770D01*
X0234029Y0136062D01*
X0233911Y0136356D01*
X0233801Y0136653D01*
X0233699Y0136952D01*
X0233604Y0137254D01*
X0233516Y0137558D01*
X0233435Y0137865D01*
X0233362Y0138173D01*
X0233297Y0138483D01*
X0233239Y0138794D01*
X0233189Y0139107D01*
X0233147Y0139421D01*
X0233112Y0139735D01*
X0233085Y0140051D01*
X0233065Y0140367D01*
X0233054Y0140683D01*
X0233050Y0141000D01*
X0233054Y0141317D01*
X0233065Y0141633D01*
X0233085Y0141949D01*
X0233112Y0142265D01*
X0233147Y0142579D01*
X0233189Y0142893D01*
X0233239Y0143206D01*
X0233297Y0143517D01*
X0233362Y0143827D01*
X0233435Y0144135D01*
X0233516Y0144442D01*
X0233604Y0144746D01*
X0233699Y0145048D01*
X0233801Y0145347D01*
X0233911Y0145644D01*
X0234029Y0145938D01*
X0234153Y0146230D01*
X0234284Y0146518D01*
X0234423Y0146803D01*
X0234568Y0147084D01*
X0234720Y0147362D01*
X0234879Y0147636D01*
X0235045Y0147905D01*
X0235217Y0148171D01*
X0235395Y0148433D01*
X0235580Y0148690D01*
X0235771Y0148942D01*
X0235969Y0149190D01*
X0236172Y0149433D01*
X0236381Y0149671D01*
X0236596Y0149903D01*
X0236817Y0150130D01*
X0237042Y0150352D01*
X0237274Y0150569D01*
X0237510Y0150779D01*
X0237752Y0150984D01*
X0237999Y0151182D01*
X0238250Y0151375D01*
X0238506Y0151561D01*
X0238766Y0151741D01*
X0239031Y0151915D01*
X0239300Y0152082D01*
X0239573Y0152243D01*
X0239850Y0152396D01*
X0240130Y0152543D01*
X0240415Y0152684D01*
X0240702Y0152817D01*
X0240992Y0152943D01*
X0241286Y0153061D01*
X0241582Y0153173D01*
X0241881Y0153278D01*
X0242183Y0153375D01*
X0242486Y0153464D01*
X0242792Y0153546D01*
X0243100Y0153621D01*
X0243409Y0153688D01*
X0243720Y0153748D01*
X0244033Y0153800D01*
X0244346Y0153844D01*
X0244661Y0153881D01*
X0244976Y0153909D01*
X0245292Y0153931D01*
X0245608Y0153944D01*
X0245925Y0153950D01*
X0246242Y0153948D01*
X0246558Y0153938D01*
X0246874Y0153920D01*
X0247190Y0153895D01*
X0247505Y0153862D01*
X0247819Y0153822D01*
X0248132Y0153773D01*
X0248444Y0153717D01*
X0248754Y0153654D01*
X0249062Y0153583D01*
X0249369Y0153504D01*
X0249674Y0153418D01*
X0249976Y0153324D01*
X0250277Y0153223D01*
X0250574Y0153115D01*
X0250869Y0153000D01*
X0251161Y0152877D01*
X0251450Y0152747D01*
X0251735Y0152611D01*
X0252018Y0152467D01*
X0252296Y0152316D01*
X0252571Y0152159D01*
X0252842Y0151995D01*
X0253109Y0151824D01*
X0253371Y0151647D01*
X0253629Y0151464D01*
X0253883Y0151274D01*
X0254132Y0151079D01*
X0254376Y0150877D01*
X0254615Y0150669D01*
X0254849Y0150455D01*
X0255077Y0150236D01*
X0255300Y0150011D01*
X0255518Y0149781D01*
X0255730Y0149546D01*
X0255936Y0149306D01*
X0256136Y0149060D01*
X0256330Y0148810D01*
X0256255Y0148754D01*
X0256062Y0149002D01*
X0255863Y0149246D01*
X0255659Y0149484D01*
X0255449Y0149718D01*
X0255233Y0149946D01*
X0255011Y0150169D01*
X0254784Y0150387D01*
X0254552Y0150599D01*
X0254315Y0150805D01*
X0254073Y0151006D01*
X0253825Y0151200D01*
X0253574Y0151388D01*
X0253317Y0151570D01*
X0253057Y0151746D01*
X0252792Y0151915D01*
X0252523Y0152078D01*
X0252250Y0152234D01*
X0251974Y0152384D01*
X0251694Y0152526D01*
X0251410Y0152662D01*
X0251123Y0152791D01*
X0250833Y0152913D01*
X0250541Y0153027D01*
X0250245Y0153135D01*
X0249947Y0153235D01*
X0249647Y0153328D01*
X0249344Y0153413D01*
X0249040Y0153491D01*
X0248734Y0153562D01*
X0248426Y0153625D01*
X0248116Y0153681D01*
X0247806Y0153729D01*
X0247494Y0153769D01*
X0247181Y0153802D01*
X0246868Y0153827D01*
X0246554Y0153844D01*
X0246240Y0153854D01*
X0245925Y0153856D01*
X0245611Y0153850D01*
X0245297Y0153837D01*
X0244983Y0153816D01*
X0244670Y0153787D01*
X0244358Y0153751D01*
X0244047Y0153707D01*
X0243737Y0153655D01*
X0243428Y0153596D01*
X0243121Y0153529D01*
X0242815Y0153455D01*
X0242512Y0153374D01*
X0242210Y0153285D01*
X0241911Y0153188D01*
X0241614Y0153085D01*
X0241320Y0152974D01*
X0241029Y0152856D01*
X0240740Y0152731D01*
X0240455Y0152599D01*
X0240173Y0152460D01*
X0239895Y0152314D01*
X0239620Y0152161D01*
X0239349Y0152002D01*
X0239082Y0151836D01*
X0238819Y0151663D01*
X0238560Y0151485D01*
X0238306Y0151300D01*
X0238057Y0151108D01*
X0237812Y0150911D01*
X0237572Y0150708D01*
X0237337Y0150499D01*
X0237107Y0150284D01*
X0236883Y0150064D01*
X0236664Y0149839D01*
X0236451Y0149608D01*
X0236243Y0149372D01*
X0236041Y0149130D01*
X0235846Y0148885D01*
X0235656Y0148634D01*
X0235472Y0148379D01*
X0235295Y0148119D01*
X0235124Y0147855D01*
X0234960Y0147587D01*
X0234802Y0147315D01*
X0234651Y0147040D01*
X0234507Y0146760D01*
X0234369Y0146478D01*
X0234239Y0146192D01*
X0234115Y0145903D01*
X0233999Y0145610D01*
X0233890Y0145316D01*
X0233788Y0145018D01*
X0233694Y0144719D01*
X0233606Y0144416D01*
X0233526Y0144112D01*
X0233454Y0143807D01*
X0233389Y0143499D01*
X0233332Y0143190D01*
X0233282Y0142879D01*
X0233240Y0142568D01*
X0233205Y0142255D01*
X0233179Y0141942D01*
X0233159Y0141628D01*
X0233148Y0141314D01*
X0233144Y0141000D01*
X0233148Y0140686D01*
X0233159Y0140372D01*
X0233179Y0140058D01*
X0233205Y0139745D01*
X0233240Y0139432D01*
X0233282Y0139121D01*
X0233332Y0138810D01*
X0233389Y0138501D01*
X0233454Y0138193D01*
X0233526Y0137888D01*
X0233606Y0137584D01*
X0233694Y0137281D01*
X0233788Y0136982D01*
X0233890Y0136684D01*
X0233999Y0136390D01*
X0234115Y0136097D01*
X0234239Y0135808D01*
X0234369Y0135522D01*
X0234507Y0135240D01*
X0234651Y0134960D01*
X0234802Y0134685D01*
X0234960Y0134413D01*
X0235124Y0134145D01*
X0235295Y0133881D01*
X0235472Y0133621D01*
X0235656Y0133366D01*
X0235846Y0133115D01*
X0236041Y0132870D01*
X0236243Y0132628D01*
X0236451Y0132392D01*
X0236664Y0132161D01*
X0236883Y0131936D01*
X0237107Y0131716D01*
X0237337Y0131501D01*
X0237572Y0131292D01*
X0237812Y0131089D01*
X0238057Y0130892D01*
X0238306Y0130700D01*
X0238560Y0130515D01*
X0238819Y0130337D01*
X0239082Y0130164D01*
X0239349Y0129998D01*
X0239620Y0129839D01*
X0239895Y0129686D01*
X0240173Y0129540D01*
X0240455Y0129401D01*
X0240740Y0129269D01*
X0241029Y0129144D01*
X0241320Y0129026D01*
X0241614Y0128915D01*
X0241911Y0128812D01*
X0242210Y0128715D01*
X0242512Y0128626D01*
X0242815Y0128545D01*
X0243121Y0128471D01*
X0243428Y0128404D01*
X0243737Y0128345D01*
X0244047Y0128293D01*
X0244358Y0128249D01*
X0244670Y0128213D01*
X0244983Y0128184D01*
X0245297Y0128163D01*
X0245611Y0128150D01*
X0245925Y0128144D01*
X0246240Y0128146D01*
X0246554Y0128156D01*
X0246868Y0128173D01*
X0247181Y0128198D01*
X0247494Y0128231D01*
X0247806Y0128271D01*
X0248116Y0128319D01*
X0248426Y0128375D01*
X0248734Y0128438D01*
X0249040Y0128509D01*
X0249344Y0128587D01*
X0249647Y0128672D01*
X0249947Y0128765D01*
X0250245Y0128865D01*
X0250541Y0128973D01*
X0250833Y0129087D01*
X0251123Y0129209D01*
X0251410Y0129338D01*
X0251694Y0129474D01*
X0251974Y0129616D01*
X0252250Y0129766D01*
X0252523Y0129922D01*
X0252792Y0130085D01*
X0253057Y0130254D01*
X0253317Y0130430D01*
X0253574Y0130612D01*
X0253825Y0130800D01*
X0254073Y0130994D01*
X0254315Y0131195D01*
X0254552Y0131401D01*
X0254784Y0131613D01*
X0255011Y0131831D01*
X0255233Y0132054D01*
X0255449Y0132282D01*
X0255659Y0132516D01*
X0255863Y0132754D01*
X0256062Y0132998D01*
X0256255Y0133246D01*
X0256180Y0133303D01*
X0255988Y0133056D01*
X0255791Y0132814D01*
X0255588Y0132577D01*
X0255379Y0132346D01*
X0255165Y0132119D01*
X0254945Y0131897D01*
X0254720Y0131681D01*
X0254489Y0131471D01*
X0254254Y0131266D01*
X0254013Y0131067D01*
X0253768Y0130874D01*
X0253518Y0130688D01*
X0253264Y0130507D01*
X0253005Y0130332D01*
X0252742Y0130164D01*
X0252475Y0130003D01*
X0252204Y0129848D01*
X0251930Y0129699D01*
X0251652Y0129558D01*
X0251370Y0129423D01*
X0251086Y0129295D01*
X0250798Y0129174D01*
X0250507Y0129060D01*
X0250214Y0128954D01*
X0249918Y0128854D01*
X0249620Y0128762D01*
X0249320Y0128677D01*
X0249017Y0128600D01*
X0248713Y0128530D01*
X0248408Y0128467D01*
X0248101Y0128412D01*
X0247792Y0128364D01*
X0247483Y0128324D01*
X0247172Y0128292D01*
X0246861Y0128267D01*
X0246550Y0128250D01*
X0246238Y0128240D01*
X0245926Y0128238D01*
X0245614Y0128244D01*
X0245302Y0128257D01*
X0244991Y0128278D01*
X0244680Y0128306D01*
X0244370Y0128343D01*
X0244061Y0128386D01*
X0243753Y0128437D01*
X0243446Y0128496D01*
X0243142Y0128562D01*
X0242838Y0128636D01*
X0242537Y0128717D01*
X0242238Y0128805D01*
X0241941Y0128901D01*
X0241646Y0129004D01*
X0241354Y0129114D01*
X0241065Y0129231D01*
X0240778Y0129355D01*
X0240495Y0129486D01*
X0240215Y0129624D01*
X0239939Y0129769D01*
X0239666Y0129921D01*
X0239397Y0130079D01*
X0239132Y0130244D01*
X0238871Y0130415D01*
X0238615Y0130592D01*
X0238362Y0130776D01*
X0238115Y0130966D01*
X0237872Y0131161D01*
X0237633Y0131363D01*
X0237400Y0131571D01*
X0237172Y0131784D01*
X0236950Y0132002D01*
X0236732Y0132226D01*
X0236521Y0132455D01*
X0236315Y0132690D01*
X0236114Y0132929D01*
X0235920Y0133173D01*
X0235732Y0133422D01*
X0235549Y0133675D01*
X0235373Y0133933D01*
X0235204Y0134195D01*
X0235041Y0134461D01*
X0234884Y0134731D01*
X0234734Y0135005D01*
X0234591Y0135282D01*
X0234454Y0135562D01*
X0234325Y0135846D01*
X0234202Y0136133D01*
X0234087Y0136423D01*
X0233979Y0136716D01*
X0233877Y0137011D01*
X0233783Y0137309D01*
X0233697Y0137609D01*
X0233618Y0137910D01*
X0233546Y0138214D01*
X0233481Y0138519D01*
X0233424Y0138826D01*
X0233375Y0139134D01*
X0233333Y0139444D01*
X0233299Y0139754D01*
X0233272Y0140065D01*
X0233253Y0140376D01*
X0233242Y0140688D01*
X0233238Y0141000D01*
X0233242Y0141312D01*
X0233253Y0141624D01*
X0233272Y0141935D01*
X0233299Y0142246D01*
X0233333Y0142556D01*
X0233375Y0142866D01*
X0233424Y0143174D01*
X0233481Y0143481D01*
X0233546Y0143786D01*
X0233618Y0144090D01*
X0233697Y0144391D01*
X0233783Y0144691D01*
X0233877Y0144989D01*
X0233979Y0145284D01*
X0234087Y0145577D01*
X0234202Y0145867D01*
X0234325Y0146154D01*
X0234454Y0146438D01*
X0234591Y0146718D01*
X0234734Y0146995D01*
X0234884Y0147269D01*
X0235041Y0147539D01*
X0235204Y0147805D01*
X0235373Y0148067D01*
X0235549Y0148325D01*
X0235732Y0148578D01*
X0235920Y0148827D01*
X0236114Y0149071D01*
X0236315Y0149310D01*
X0236521Y0149545D01*
X0236732Y0149774D01*
X0236950Y0149998D01*
X0237172Y0150216D01*
X0237400Y0150429D01*
X0237633Y0150637D01*
X0237872Y0150839D01*
X0238115Y0151034D01*
X0238362Y0151224D01*
X0238615Y0151408D01*
X0238871Y0151585D01*
X0239132Y0151756D01*
X0239397Y0151921D01*
X0239666Y0152079D01*
X0239939Y0152231D01*
X0240215Y0152376D01*
X0240495Y0152514D01*
X0240778Y0152645D01*
X0241065Y0152769D01*
X0241354Y0152886D01*
X0241646Y0152996D01*
X0241941Y0153099D01*
X0242238Y0153195D01*
X0242537Y0153283D01*
X0242838Y0153364D01*
X0243142Y0153438D01*
X0243446Y0153504D01*
X0243753Y0153563D01*
X0244061Y0153614D01*
X0244370Y0153657D01*
X0244680Y0153694D01*
X0244991Y0153722D01*
X0245302Y0153743D01*
X0245614Y0153756D01*
X0245926Y0153762D01*
X0246238Y0153760D01*
X0246550Y0153750D01*
X0246861Y0153733D01*
X0247172Y0153708D01*
X0247483Y0153676D01*
X0247792Y0153636D01*
X0248101Y0153588D01*
X0248408Y0153533D01*
X0248713Y0153470D01*
X0249017Y0153400D01*
X0249320Y0153323D01*
X0249620Y0153238D01*
X0249918Y0153146D01*
X0250214Y0153046D01*
X0250507Y0152940D01*
X0250798Y0152826D01*
X0251086Y0152705D01*
X0251370Y0152577D01*
X0251652Y0152442D01*
X0251930Y0152301D01*
X0252204Y0152152D01*
X0252475Y0151997D01*
X0252742Y0151836D01*
X0253005Y0151668D01*
X0253264Y0151493D01*
X0253518Y0151312D01*
X0253768Y0151126D01*
X0254013Y0150933D01*
X0254254Y0150734D01*
X0254489Y0150529D01*
X0254720Y0150319D01*
X0254945Y0150103D01*
X0255165Y0149881D01*
X0255379Y0149654D01*
X0255588Y0149423D01*
X0255791Y0149186D01*
X0255988Y0148944D01*
X0256180Y0148697D01*
X0256104Y0148641D01*
X0255914Y0148886D01*
X0255719Y0149126D01*
X0255517Y0149361D01*
X0255310Y0149591D01*
X0255097Y0149816D01*
X0254879Y0150036D01*
X0254655Y0150250D01*
X0254426Y0150459D01*
X0254193Y0150662D01*
X0253954Y0150860D01*
X0253711Y0151051D01*
X0253462Y0151237D01*
X0253210Y0151416D01*
X0252953Y0151589D01*
X0252692Y0151756D01*
X0252427Y0151917D01*
X0252158Y0152070D01*
X0251886Y0152218D01*
X0251610Y0152358D01*
X0251330Y0152492D01*
X0251048Y0152619D01*
X0250762Y0152739D01*
X0250474Y0152852D01*
X0250183Y0152958D01*
X0249889Y0153056D01*
X0249593Y0153148D01*
X0249295Y0153232D01*
X0248995Y0153309D01*
X0248693Y0153378D01*
X0248390Y0153441D01*
X0248085Y0153495D01*
X0247779Y0153543D01*
X0247471Y0153582D01*
X0247163Y0153614D01*
X0246855Y0153639D01*
X0246545Y0153656D01*
X0246236Y0153666D01*
X0245926Y0153668D01*
X0245616Y0153662D01*
X0245307Y0153649D01*
X0244998Y0153628D01*
X0244689Y0153600D01*
X0244382Y0153564D01*
X0244075Y0153521D01*
X0243769Y0153470D01*
X0243465Y0153412D01*
X0243162Y0153346D01*
X0242861Y0153273D01*
X0242562Y0153193D01*
X0242265Y0153105D01*
X0241970Y0153010D01*
X0241678Y0152908D01*
X0241388Y0152799D01*
X0241101Y0152682D01*
X0240817Y0152559D01*
X0240536Y0152429D01*
X0240258Y0152292D01*
X0239984Y0152148D01*
X0239713Y0151998D01*
X0239446Y0151841D01*
X0239183Y0151677D01*
X0238924Y0151507D01*
X0238669Y0151331D01*
X0238418Y0151149D01*
X0238173Y0150960D01*
X0237931Y0150766D01*
X0237695Y0150566D01*
X0237464Y0150360D01*
X0237237Y0150148D01*
X0237016Y0149931D01*
X0236801Y0149709D01*
X0236590Y0149482D01*
X0236386Y0149249D01*
X0236187Y0149011D01*
X0235994Y0148769D01*
X0235807Y0148522D01*
X0235626Y0148271D01*
X0235452Y0148015D01*
X0235283Y0147755D01*
X0235121Y0147491D01*
X0234966Y0147223D01*
X0234817Y0146951D01*
X0234675Y0146676D01*
X0234539Y0146397D01*
X0234411Y0146116D01*
X0234289Y0145831D01*
X0234175Y0145543D01*
X0234067Y0145252D01*
X0233967Y0144959D01*
X0233873Y0144664D01*
X0233787Y0144366D01*
X0233709Y0144067D01*
X0233638Y0143765D01*
X0233574Y0143462D01*
X0233517Y0143158D01*
X0233468Y0142852D01*
X0233427Y0142545D01*
X0233393Y0142237D01*
X0233366Y0141928D01*
X0233347Y0141619D01*
X0233336Y0141310D01*
X0233332Y0141000D01*
X0233336Y0140690D01*
X0233347Y0140381D01*
X0233366Y0140072D01*
X0233393Y0139763D01*
X0233427Y0139455D01*
X0233468Y0139148D01*
X0233517Y0138842D01*
X0233574Y0138538D01*
X0233638Y0138235D01*
X0233709Y0137933D01*
X0233787Y0137634D01*
X0233873Y0137336D01*
X0233967Y0137041D01*
X0234067Y0136748D01*
X0234175Y0136457D01*
X0234289Y0136169D01*
X0234411Y0135884D01*
X0234539Y0135603D01*
X0234675Y0135324D01*
X0234817Y0135049D01*
X0234966Y0134777D01*
X0235121Y0134509D01*
X0235283Y0134245D01*
X0235452Y0133985D01*
X0235626Y0133729D01*
X0235807Y0133478D01*
X0235994Y0133231D01*
X0236187Y0132989D01*
X0236386Y0132751D01*
X0236590Y0132518D01*
X0236801Y0132291D01*
X0237016Y0132069D01*
X0237237Y0131852D01*
X0237464Y0131640D01*
X0237695Y0131434D01*
X0237931Y0131234D01*
X0238173Y0131040D01*
X0238418Y0130851D01*
X0238669Y0130669D01*
X0238924Y0130493D01*
X0239183Y0130323D01*
X0239446Y0130159D01*
X0239713Y0130002D01*
X0239984Y0129852D01*
X0240258Y0129708D01*
X0240536Y0129571D01*
X0240817Y0129441D01*
X0241101Y0129318D01*
X0241388Y0129201D01*
X0241678Y0129092D01*
X0241970Y0128990D01*
X0242265Y0128895D01*
X0242562Y0128807D01*
X0242861Y0128727D01*
X0243162Y0128654D01*
X0243465Y0128588D01*
X0243769Y0128530D01*
X0244075Y0128479D01*
X0244382Y0128436D01*
X0244689Y0128400D01*
X0244998Y0128372D01*
X0245307Y0128351D01*
X0245616Y0128338D01*
X0245926Y0128332D01*
X0246236Y0128334D01*
X0246545Y0128344D01*
X0246855Y0128361D01*
X0247163Y0128386D01*
X0247471Y0128418D01*
X0247779Y0128457D01*
X0248085Y0128505D01*
X0248390Y0128559D01*
X0248693Y0128622D01*
X0248995Y0128691D01*
X0249295Y0128768D01*
X0249593Y0128852D01*
X0249889Y0128944D01*
X0250183Y0129042D01*
X0250474Y0129148D01*
X0250762Y0129261D01*
X0251048Y0129381D01*
X0251330Y0129508D01*
X0251610Y0129642D01*
X0251886Y0129782D01*
X0252158Y0129930D01*
X0252427Y0130083D01*
X0252692Y0130244D01*
X0252953Y0130411D01*
X0253210Y0130584D01*
X0253462Y0130763D01*
X0253711Y0130949D01*
X0253954Y0131140D01*
X0254193Y0131338D01*
X0254426Y0131541D01*
X0254655Y0131750D01*
X0254879Y0131964D01*
X0255097Y0132184D01*
X0255310Y0132409D01*
X0255517Y0132639D01*
X0255719Y0132874D01*
X0255914Y0133114D01*
X0256104Y0133359D01*
X0256029Y0133416D01*
X0255841Y0133173D01*
X0255646Y0132934D01*
X0255446Y0132701D01*
X0255241Y0132473D01*
X0255029Y0132249D01*
X0254813Y0132031D01*
X0254591Y0131818D01*
X0254364Y0131611D01*
X0254132Y0131409D01*
X0253895Y0131213D01*
X0253653Y0131023D01*
X0253407Y0130839D01*
X0253156Y0130661D01*
X0252901Y0130489D01*
X0252642Y0130324D01*
X0252379Y0130164D01*
X0252112Y0130012D01*
X0251842Y0129865D01*
X0251568Y0129726D01*
X0251291Y0129593D01*
X0251010Y0129467D01*
X0250727Y0129348D01*
X0250440Y0129236D01*
X0250151Y0129131D01*
X0249860Y0129033D01*
X0249566Y0128942D01*
X0249270Y0128859D01*
X0248973Y0128782D01*
X0248673Y0128713D01*
X0248372Y0128652D01*
X0248069Y0128597D01*
X0247765Y0128551D01*
X0247460Y0128511D01*
X0247155Y0128479D01*
X0246848Y0128455D01*
X0246541Y0128438D01*
X0246234Y0128428D01*
X0245926Y0128426D01*
X0245619Y0128432D01*
X0245312Y0128445D01*
X0245005Y0128465D01*
X0244699Y0128494D01*
X0244393Y0128529D01*
X0244089Y0128572D01*
X0243786Y0128623D01*
X0243484Y0128680D01*
X0243183Y0128746D01*
X0242884Y0128818D01*
X0242588Y0128898D01*
X0242293Y0128985D01*
X0242000Y0129079D01*
X0241710Y0129181D01*
X0241422Y0129289D01*
X0241137Y0129404D01*
X0240855Y0129527D01*
X0240576Y0129656D01*
X0240300Y0129792D01*
X0240028Y0129935D01*
X0239759Y0130084D01*
X0239494Y0130240D01*
X0239233Y0130402D01*
X0238976Y0130571D01*
X0238723Y0130746D01*
X0238475Y0130927D01*
X0238231Y0131114D01*
X0237991Y0131307D01*
X0237757Y0131505D01*
X0237527Y0131710D01*
X0237302Y0131920D01*
X0237083Y0132135D01*
X0236869Y0132356D01*
X0236660Y0132581D01*
X0236457Y0132812D01*
X0236260Y0133048D01*
X0236068Y0133289D01*
X0235883Y0133534D01*
X0235703Y0133783D01*
X0235530Y0134037D01*
X0235363Y0134295D01*
X0235202Y0134557D01*
X0235048Y0134823D01*
X0234900Y0135093D01*
X0234759Y0135366D01*
X0234624Y0135643D01*
X0234497Y0135922D01*
X0234376Y0136205D01*
X0234262Y0136491D01*
X0234156Y0136779D01*
X0234056Y0137070D01*
X0233963Y0137363D01*
X0233878Y0137659D01*
X0233800Y0137956D01*
X0233729Y0138255D01*
X0233666Y0138556D01*
X0233610Y0138858D01*
X0233561Y0139162D01*
X0233520Y0139467D01*
X0233486Y0139772D01*
X0233460Y0140078D01*
X0233441Y0140385D01*
X0233430Y0140693D01*
X0233426Y0141000D01*
X0233430Y0141307D01*
X0233441Y0141615D01*
X0233460Y0141922D01*
X0233486Y0142228D01*
X0233520Y0142533D01*
X0233561Y0142838D01*
X0233610Y0143142D01*
X0233666Y0143444D01*
X0233729Y0143745D01*
X0233800Y0144044D01*
X0233878Y0144341D01*
X0233963Y0144637D01*
X0234056Y0144930D01*
X0234156Y0145221D01*
X0234262Y0145509D01*
X0234376Y0145795D01*
X0234497Y0146078D01*
X0234624Y0146357D01*
X0234759Y0146634D01*
X0234900Y0146907D01*
X0235048Y0147177D01*
X0235202Y0147443D01*
X0235363Y0147705D01*
X0235530Y0147963D01*
X0235703Y0148217D01*
X0235883Y0148466D01*
X0236068Y0148711D01*
X0236260Y0148952D01*
X0236457Y0149188D01*
X0236660Y0149419D01*
X0236869Y0149644D01*
X0237083Y0149865D01*
X0237302Y0150080D01*
X0237527Y0150290D01*
X0237757Y0150495D01*
X0237991Y0150693D01*
X0238231Y0150886D01*
X0238475Y0151073D01*
X0238723Y0151254D01*
X0238976Y0151429D01*
X0239233Y0151598D01*
X0239494Y0151760D01*
X0239759Y0151916D01*
X0240028Y0152065D01*
X0240300Y0152208D01*
X0240576Y0152344D01*
X0240855Y0152473D01*
X0241137Y0152596D01*
X0241422Y0152711D01*
X0241710Y0152819D01*
X0242000Y0152921D01*
X0242293Y0153015D01*
X0242588Y0153102D01*
X0242884Y0153182D01*
X0243183Y0153254D01*
X0243484Y0153320D01*
X0243786Y0153377D01*
X0244089Y0153428D01*
X0244393Y0153471D01*
X0244699Y0153506D01*
X0245005Y0153535D01*
X0245312Y0153555D01*
X0245619Y0153568D01*
X0245926Y0153574D01*
X0246234Y0153572D01*
X0246541Y0153562D01*
X0246848Y0153545D01*
X0247155Y0153521D01*
X0247460Y0153489D01*
X0247765Y0153449D01*
X0248069Y0153403D01*
X0248372Y0153348D01*
X0248673Y0153287D01*
X0248973Y0153218D01*
X0249270Y0153141D01*
X0249566Y0153058D01*
X0249860Y0152967D01*
X0250151Y0152869D01*
X0250440Y0152764D01*
X0250727Y0152652D01*
X0251010Y0152533D01*
X0251291Y0152407D01*
X0251568Y0152274D01*
X0251842Y0152135D01*
X0252112Y0151988D01*
X0252379Y0151836D01*
X0252642Y0151676D01*
X0252901Y0151511D01*
X0253156Y0151339D01*
X0253407Y0151161D01*
X0253653Y0150977D01*
X0253895Y0150787D01*
X0254132Y0150591D01*
X0254364Y0150389D01*
X0254591Y0150182D01*
X0254813Y0149969D01*
X0255029Y0149751D01*
X0255241Y0149527D01*
X0255446Y0149299D01*
X0255646Y0149066D01*
X0255841Y0148827D01*
X0256029Y0148584D01*
X0255954Y0148528D01*
X0255767Y0148769D01*
X0255574Y0149006D01*
X0255375Y0149237D01*
X0255171Y0149464D01*
X0254962Y0149686D01*
X0254747Y0149902D01*
X0254526Y0150113D01*
X0254301Y0150319D01*
X0254071Y0150519D01*
X0253835Y0150714D01*
X0253596Y0150902D01*
X0253351Y0151085D01*
X0253102Y0151262D01*
X0252849Y0151432D01*
X0252592Y0151597D01*
X0252331Y0151755D01*
X0252066Y0151906D01*
X0251798Y0152051D01*
X0251526Y0152190D01*
X0251251Y0152322D01*
X0250972Y0152447D01*
X0250691Y0152565D01*
X0250407Y0152676D01*
X0250120Y0152780D01*
X0249831Y0152878D01*
X0249539Y0152968D01*
X0249246Y0153051D01*
X0248950Y0153126D01*
X0248653Y0153195D01*
X0248354Y0153256D01*
X0248053Y0153310D01*
X0247752Y0153356D01*
X0247449Y0153396D01*
X0247146Y0153427D01*
X0246841Y0153452D01*
X0246537Y0153468D01*
X0246232Y0153478D01*
X0245927Y0153480D01*
X0245622Y0153474D01*
X0245317Y0153461D01*
X0245012Y0153441D01*
X0244708Y0153413D01*
X0244405Y0153378D01*
X0244103Y0153335D01*
X0243802Y0153285D01*
X0243502Y0153228D01*
X0243204Y0153163D01*
X0242908Y0153091D01*
X0242613Y0153012D01*
X0242320Y0152925D01*
X0242030Y0152832D01*
X0241742Y0152731D01*
X0241456Y0152623D01*
X0241173Y0152509D01*
X0240893Y0152387D01*
X0240616Y0152259D01*
X0240343Y0152124D01*
X0240073Y0151983D01*
X0239806Y0151834D01*
X0239543Y0151680D01*
X0239284Y0151519D01*
X0239028Y0151351D01*
X0238777Y0151178D01*
X0238531Y0150998D01*
X0238289Y0150812D01*
X0238051Y0150621D01*
X0237818Y0150424D01*
X0237590Y0150221D01*
X0237367Y0150012D01*
X0237149Y0149799D01*
X0236937Y0149580D01*
X0236730Y0149356D01*
X0236528Y0149126D01*
X0236332Y0148892D01*
X0236142Y0148654D01*
X0235958Y0148410D01*
X0235780Y0148163D01*
X0235608Y0147911D01*
X0235442Y0147654D01*
X0235283Y0147394D01*
X0235129Y0147130D01*
X0234983Y0146863D01*
X0234843Y0146592D01*
X0234709Y0146317D01*
X0234583Y0146040D01*
X0234463Y0145759D01*
X0234350Y0145475D01*
X0234244Y0145189D01*
X0234145Y0144901D01*
X0234053Y0144610D01*
X0233969Y0144316D01*
X0233891Y0144021D01*
X0233821Y0143724D01*
X0233758Y0143426D01*
X0233702Y0143126D01*
X0233654Y0142824D01*
X0233613Y0142522D01*
X0233580Y0142219D01*
X0233554Y0141915D01*
X0233535Y0141610D01*
X0233524Y0141305D01*
X0233520Y0141000D01*
X0233524Y0140695D01*
X0233535Y0140390D01*
X0233554Y0140085D01*
X0233580Y0139781D01*
X0233613Y0139478D01*
X0233654Y0139176D01*
X0233702Y0138874D01*
X0233758Y0138574D01*
X0233821Y0138276D01*
X0233891Y0137979D01*
X0233969Y0137684D01*
X0234053Y0137390D01*
X0234145Y0137099D01*
X0234244Y0136811D01*
X0234350Y0136525D01*
X0234463Y0136241D01*
X0234583Y0135960D01*
X0234709Y0135683D01*
X0234843Y0135408D01*
X0234983Y0135137D01*
X0235129Y0134870D01*
X0235283Y0134606D01*
X0235442Y0134346D01*
X0235608Y0134089D01*
X0235780Y0133837D01*
X0235958Y0133590D01*
X0236142Y0133346D01*
X0236332Y0133108D01*
X0236528Y0132874D01*
X0236730Y0132644D01*
X0236937Y0132420D01*
X0237149Y0132201D01*
X0237367Y0131988D01*
X0237590Y0131779D01*
X0237818Y0131576D01*
X0238051Y0131379D01*
X0238289Y0131188D01*
X0238531Y0131002D01*
X0238777Y0130822D01*
X0239028Y0130649D01*
X0239284Y0130481D01*
X0239543Y0130320D01*
X0239806Y0130166D01*
X0240073Y0130017D01*
X0240343Y0129876D01*
X0240616Y0129741D01*
X0240893Y0129613D01*
X0241173Y0129491D01*
X0241456Y0129377D01*
X0241742Y0129269D01*
X0242030Y0129168D01*
X0242320Y0129075D01*
X0242613Y0128988D01*
X0242908Y0128909D01*
X0243204Y0128837D01*
X0243502Y0128772D01*
X0243802Y0128715D01*
X0244103Y0128665D01*
X0244405Y0128622D01*
X0244708Y0128587D01*
X0245012Y0128559D01*
X0245317Y0128539D01*
X0245622Y0128526D01*
X0245927Y0128520D01*
X0246232Y0128522D01*
X0246537Y0128532D01*
X0246841Y0128548D01*
X0247146Y0128573D01*
X0247449Y0128604D01*
X0247752Y0128644D01*
X0248053Y0128690D01*
X0248354Y0128744D01*
X0248653Y0128805D01*
X0248950Y0128874D01*
X0249246Y0128949D01*
X0249539Y0129032D01*
X0249831Y0129122D01*
X0250120Y0129220D01*
X0250407Y0129324D01*
X0250691Y0129435D01*
X0250972Y0129553D01*
X0251251Y0129678D01*
X0251526Y0129810D01*
X0251798Y0129949D01*
X0252066Y0130094D01*
X0252331Y0130245D01*
X0252592Y0130403D01*
X0252849Y0130568D01*
X0253102Y0130738D01*
X0253351Y0130915D01*
X0253596Y0131098D01*
X0253835Y0131286D01*
X0254071Y0131481D01*
X0254301Y0131681D01*
X0254526Y0131887D01*
X0254747Y0132098D01*
X0254962Y0132314D01*
X0255171Y0132536D01*
X0255375Y0132763D01*
X0255574Y0132994D01*
X0255767Y0133231D01*
X0255954Y0133472D01*
X0255879Y0133528D01*
X0255693Y0133289D01*
X0255502Y0133054D01*
X0255305Y0132825D01*
X0255102Y0132600D01*
X0254894Y0132379D01*
X0254680Y0132165D01*
X0254462Y0131955D01*
X0254238Y0131751D01*
X0254010Y0131552D01*
X0253776Y0131359D01*
X0253538Y0131172D01*
X0253296Y0130991D01*
X0253049Y0130815D01*
X0252798Y0130646D01*
X0252542Y0130483D01*
X0252283Y0130326D01*
X0252020Y0130176D01*
X0251754Y0130032D01*
X0251484Y0129894D01*
X0251211Y0129763D01*
X0250935Y0129639D01*
X0250655Y0129522D01*
X0250373Y0129412D01*
X0250089Y0129308D01*
X0249802Y0129212D01*
X0249512Y0129122D01*
X0249221Y0129040D01*
X0248928Y0128965D01*
X0248632Y0128897D01*
X0248336Y0128836D01*
X0248038Y0128783D01*
X0247738Y0128737D01*
X0247438Y0128698D01*
X0247137Y0128666D01*
X0246835Y0128642D01*
X0246532Y0128625D01*
X0246230Y0128616D01*
X0245927Y0128614D01*
X0245624Y0128620D01*
X0245322Y0128633D01*
X0245019Y0128653D01*
X0244718Y0128681D01*
X0244417Y0128716D01*
X0244117Y0128758D01*
X0243818Y0128808D01*
X0243521Y0128865D01*
X0243225Y0128929D01*
X0242931Y0129000D01*
X0242638Y0129079D01*
X0242348Y0129165D01*
X0242059Y0129258D01*
X0241774Y0129357D01*
X0241490Y0129464D01*
X0241210Y0129578D01*
X0240932Y0129698D01*
X0240657Y0129826D01*
X0240385Y0129960D01*
X0240117Y0130100D01*
X0239852Y0130247D01*
X0239591Y0130401D01*
X0239334Y0130561D01*
X0239081Y0130727D01*
X0238832Y0130899D01*
X0238587Y0131077D01*
X0238346Y0131262D01*
X0238111Y0131452D01*
X0237880Y0131647D01*
X0237653Y0131849D01*
X0237432Y0132055D01*
X0237216Y0132268D01*
X0237005Y0132485D01*
X0236800Y0132707D01*
X0236600Y0132935D01*
X0236405Y0133167D01*
X0236217Y0133404D01*
X0236034Y0133646D01*
X0235857Y0133891D01*
X0235686Y0134142D01*
X0235522Y0134396D01*
X0235363Y0134654D01*
X0235211Y0134916D01*
X0235066Y0135181D01*
X0234927Y0135450D01*
X0234794Y0135723D01*
X0234669Y0135998D01*
X0234550Y0136277D01*
X0234438Y0136558D01*
X0234333Y0136842D01*
X0234234Y0137129D01*
X0234143Y0137418D01*
X0234059Y0137709D01*
X0233982Y0138002D01*
X0233913Y0138296D01*
X0233850Y0138593D01*
X0233795Y0138890D01*
X0233747Y0139189D01*
X0233706Y0139489D01*
X0233673Y0139791D01*
X0233647Y0140092D01*
X0233629Y0140395D01*
X0233618Y0140697D01*
X0233614Y0141000D01*
X0233618Y0141303D01*
X0233629Y0141605D01*
X0233647Y0141908D01*
X0233673Y0142209D01*
X0233706Y0142511D01*
X0233747Y0142811D01*
X0233795Y0143110D01*
X0233850Y0143407D01*
X0233913Y0143704D01*
X0233982Y0143998D01*
X0234059Y0144291D01*
X0234143Y0144582D01*
X0234234Y0144871D01*
X0234333Y0145158D01*
X0234438Y0145442D01*
X0234550Y0145723D01*
X0234669Y0146002D01*
X0234794Y0146277D01*
X0234927Y0146550D01*
X0235066Y0146819D01*
X0235211Y0147084D01*
X0235363Y0147346D01*
X0235522Y0147604D01*
X0235686Y0147858D01*
X0235857Y0148109D01*
X0236034Y0148354D01*
X0236217Y0148596D01*
X0236405Y0148833D01*
X0236600Y0149065D01*
X0236800Y0149293D01*
X0237005Y0149515D01*
X0237216Y0149732D01*
X0237432Y0149945D01*
X0237653Y0150151D01*
X0237880Y0150353D01*
X0238111Y0150548D01*
X0238346Y0150738D01*
X0238587Y0150923D01*
X0238832Y0151101D01*
X0239081Y0151273D01*
X0239334Y0151439D01*
X0239591Y0151599D01*
X0239852Y0151753D01*
X0240117Y0151900D01*
X0240385Y0152040D01*
X0240657Y0152174D01*
X0240932Y0152302D01*
X0241210Y0152422D01*
X0241490Y0152536D01*
X0241774Y0152643D01*
X0242059Y0152742D01*
X0242348Y0152835D01*
X0242638Y0152921D01*
X0242931Y0153000D01*
X0243225Y0153071D01*
X0243521Y0153135D01*
X0243818Y0153192D01*
X0244117Y0153242D01*
X0244417Y0153284D01*
X0244718Y0153319D01*
X0245019Y0153347D01*
X0245322Y0153367D01*
X0245624Y0153380D01*
X0245927Y0153386D01*
X0246230Y0153384D01*
X0246532Y0153375D01*
X0246835Y0153358D01*
X0247137Y0153334D01*
X0247438Y0153302D01*
X0247738Y0153263D01*
X0248038Y0153217D01*
X0248336Y0153164D01*
X0248632Y0153103D01*
X0248928Y0153035D01*
X0249221Y0152960D01*
X0249512Y0152878D01*
X0249802Y0152788D01*
X0250089Y0152692D01*
X0250373Y0152588D01*
X0250655Y0152478D01*
X0250935Y0152361D01*
X0251211Y0152237D01*
X0251484Y0152106D01*
X0251754Y0151968D01*
X0252020Y0151824D01*
X0252283Y0151674D01*
X0252542Y0151517D01*
X0252798Y0151354D01*
X0253049Y0151185D01*
X0253296Y0151009D01*
X0253538Y0150828D01*
X0253776Y0150641D01*
X0254010Y0150448D01*
X0254238Y0150249D01*
X0254462Y0150045D01*
X0254680Y0149835D01*
X0254894Y0149621D01*
X0255102Y0149400D01*
X0255305Y0149175D01*
X0255502Y0148946D01*
X0255693Y0148711D01*
X0255879Y0148472D01*
X0255804Y0148415D01*
X0255619Y0148653D01*
X0255429Y0148885D01*
X0255234Y0149114D01*
X0255033Y0149337D01*
X0254826Y0149555D01*
X0254614Y0149769D01*
X0254397Y0149977D01*
X0254175Y0150179D01*
X0253948Y0150376D01*
X0253717Y0150568D01*
X0253481Y0150754D01*
X0253240Y0150934D01*
X0252995Y0151108D01*
X0252746Y0151276D01*
X0252492Y0151438D01*
X0252235Y0151593D01*
X0251974Y0151742D01*
X0251710Y0151885D01*
X0251442Y0152022D01*
X0251171Y0152151D01*
X0250897Y0152274D01*
X0250620Y0152391D01*
X0250340Y0152500D01*
X0250057Y0152603D01*
X0249773Y0152699D01*
X0249485Y0152787D01*
X0249196Y0152869D01*
X0248905Y0152944D01*
X0248612Y0153011D01*
X0248318Y0153072D01*
X0248022Y0153125D01*
X0247725Y0153170D01*
X0247427Y0153209D01*
X0247128Y0153240D01*
X0246828Y0153264D01*
X0246528Y0153281D01*
X0246228Y0153290D01*
X0245927Y0153292D01*
X0245627Y0153286D01*
X0245326Y0153274D01*
X0245027Y0153253D01*
X0244727Y0153226D01*
X0244429Y0153191D01*
X0244131Y0153149D01*
X0243835Y0153100D01*
X0243540Y0153043D01*
X0243246Y0152979D01*
X0242954Y0152909D01*
X0242664Y0152831D01*
X0242375Y0152745D01*
X0242089Y0152653D01*
X0241805Y0152554D01*
X0241524Y0152448D01*
X0241246Y0152335D01*
X0240970Y0152216D01*
X0240697Y0152089D01*
X0240428Y0151956D01*
X0240162Y0151817D01*
X0239899Y0151671D01*
X0239640Y0151519D01*
X0239384Y0151360D01*
X0239133Y0151195D01*
X0238886Y0151024D01*
X0238643Y0150847D01*
X0238404Y0150664D01*
X0238170Y0150476D01*
X0237941Y0150282D01*
X0237717Y0150082D01*
X0237497Y0149877D01*
X0237283Y0149666D01*
X0237073Y0149450D01*
X0236869Y0149230D01*
X0236671Y0149004D01*
X0236478Y0148773D01*
X0236291Y0148538D01*
X0236109Y0148299D01*
X0235934Y0148055D01*
X0235764Y0147806D01*
X0235601Y0147554D01*
X0235444Y0147298D01*
X0235293Y0147038D01*
X0235149Y0146774D01*
X0235011Y0146507D01*
X0234879Y0146237D01*
X0234755Y0145964D01*
X0234637Y0145687D01*
X0234526Y0145408D01*
X0234421Y0145126D01*
X0234324Y0144842D01*
X0234233Y0144555D01*
X0234150Y0144266D01*
X0234074Y0143976D01*
X0234004Y0143683D01*
X0233942Y0143389D01*
X0233888Y0143094D01*
X0233840Y0142797D01*
X0233800Y0142499D01*
X0233767Y0142200D01*
X0233741Y0141901D01*
X0233723Y0141601D01*
X0233712Y0141301D01*
X0233708Y0141000D01*
X0233712Y0140699D01*
X0233723Y0140399D01*
X0233741Y0140099D01*
X0233767Y0139800D01*
X0233800Y0139501D01*
X0233840Y0139203D01*
X0233888Y0138906D01*
X0233942Y0138611D01*
X0234004Y0138317D01*
X0234074Y0138024D01*
X0234150Y0137734D01*
X0234233Y0137445D01*
X0234324Y0137158D01*
X0234421Y0136874D01*
X0234526Y0136592D01*
X0234637Y0136313D01*
X0234755Y0136036D01*
X0234879Y0135763D01*
X0235011Y0135493D01*
X0235149Y0135226D01*
X0235293Y0134962D01*
X0235444Y0134702D01*
X0235601Y0134446D01*
X0235764Y0134194D01*
X0235934Y0133945D01*
X0236109Y0133701D01*
X0236291Y0133462D01*
X0236478Y0133227D01*
X0236671Y0132996D01*
X0236869Y0132770D01*
X0237073Y0132550D01*
X0237283Y0132334D01*
X0237497Y0132123D01*
X0237717Y0131918D01*
X0237941Y0131718D01*
X0238170Y0131524D01*
X0238404Y0131336D01*
X0238643Y0131153D01*
X0238886Y0130976D01*
X0239133Y0130805D01*
X0239384Y0130640D01*
X0239640Y0130481D01*
X0239899Y0130329D01*
X0240162Y0130183D01*
X0240428Y0130044D01*
X0240697Y0129911D01*
X0240970Y0129784D01*
X0241246Y0129665D01*
X0241524Y0129552D01*
X0241805Y0129446D01*
X0242089Y0129347D01*
X0242375Y0129255D01*
X0242664Y0129169D01*
X0242954Y0129091D01*
X0243246Y0129021D01*
X0243540Y0128957D01*
X0243835Y0128900D01*
X0244131Y0128851D01*
X0244429Y0128809D01*
X0244727Y0128774D01*
X0245027Y0128747D01*
X0245326Y0128726D01*
X0245627Y0128714D01*
X0245927Y0128708D01*
X0246228Y0128710D01*
X0246528Y0128719D01*
X0246828Y0128736D01*
X0247128Y0128760D01*
X0247427Y0128791D01*
X0247725Y0128830D01*
X0248022Y0128875D01*
X0248318Y0128928D01*
X0248612Y0128989D01*
X0248905Y0129056D01*
X0249196Y0129131D01*
X0249485Y0129213D01*
X0249773Y0129301D01*
X0250057Y0129397D01*
X0250340Y0129500D01*
X0250620Y0129609D01*
X0250897Y0129726D01*
X0251171Y0129849D01*
X0251442Y0129978D01*
X0251710Y0130115D01*
X0251974Y0130258D01*
X0252235Y0130407D01*
X0252492Y0130562D01*
X0252746Y0130724D01*
X0252995Y0130892D01*
X0253240Y0131066D01*
X0253481Y0131246D01*
X0253717Y0131432D01*
X0253948Y0131624D01*
X0254175Y0131821D01*
X0254397Y0132023D01*
X0254614Y0132231D01*
X0254826Y0132445D01*
X0255033Y0132663D01*
X0255234Y0132886D01*
X0255429Y0133115D01*
X0255619Y0133347D01*
X0255804Y0133585D01*
X0255728Y0133641D01*
X0255546Y0133406D01*
X0255357Y0133175D01*
X0255163Y0132948D01*
X0254963Y0132726D01*
X0254758Y0132510D01*
X0254548Y0132298D01*
X0254333Y0132092D01*
X0254113Y0131891D01*
X0253887Y0131695D01*
X0253658Y0131505D01*
X0253423Y0131321D01*
X0253184Y0131142D01*
X0252941Y0130969D01*
X0252694Y0130803D01*
X0252442Y0130642D01*
X0252187Y0130488D01*
X0251928Y0130340D01*
X0251666Y0130198D01*
X0251400Y0130063D01*
X0251131Y0129934D01*
X0250859Y0129812D01*
X0250584Y0129696D01*
X0250306Y0129587D01*
X0250026Y0129486D01*
X0249743Y0129391D01*
X0249458Y0129303D01*
X0249171Y0129222D01*
X0248883Y0129147D01*
X0248592Y0129081D01*
X0248300Y0129021D01*
X0248006Y0128968D01*
X0247711Y0128923D01*
X0247416Y0128884D01*
X0247119Y0128853D01*
X0246822Y0128830D01*
X0246524Y0128813D01*
X0246226Y0128804D01*
X0245928Y0128802D01*
X0245629Y0128808D01*
X0245331Y0128820D01*
X0245034Y0128840D01*
X0244737Y0128868D01*
X0244441Y0128902D01*
X0244145Y0128944D01*
X0243851Y0128993D01*
X0243558Y0129049D01*
X0243267Y0129112D01*
X0242977Y0129183D01*
X0242689Y0129260D01*
X0242403Y0129344D01*
X0242119Y0129436D01*
X0241837Y0129534D01*
X0241558Y0129639D01*
X0241282Y0129751D01*
X0241008Y0129870D01*
X0240738Y0129995D01*
X0240470Y0130127D01*
X0240206Y0130266D01*
X0239945Y0130411D01*
X0239688Y0130562D01*
X0239435Y0130719D01*
X0239186Y0130883D01*
X0238940Y0131053D01*
X0238699Y0131228D01*
X0238462Y0131410D01*
X0238230Y0131597D01*
X0238003Y0131789D01*
X0237780Y0131988D01*
X0237562Y0132191D01*
X0237349Y0132400D01*
X0237141Y0132614D01*
X0236939Y0132834D01*
X0236742Y0133057D01*
X0236551Y0133286D01*
X0236365Y0133520D01*
X0236185Y0133757D01*
X0236011Y0133999D01*
X0235843Y0134246D01*
X0235681Y0134496D01*
X0235525Y0134750D01*
X0235375Y0135008D01*
X0235232Y0135270D01*
X0235095Y0135535D01*
X0234964Y0135803D01*
X0234841Y0136074D01*
X0234724Y0136349D01*
X0234613Y0136626D01*
X0234510Y0136906D01*
X0234413Y0137188D01*
X0234323Y0137472D01*
X0234241Y0137759D01*
X0234165Y0138047D01*
X0234096Y0138337D01*
X0234035Y0138629D01*
X0233980Y0138922D01*
X0233933Y0139217D01*
X0233893Y0139512D01*
X0233860Y0139809D01*
X0233835Y0140106D01*
X0233817Y0140404D01*
X0233806Y0140702D01*
X0233802Y0141000D01*
X0233806Y0141298D01*
X0233817Y0141596D01*
X0233835Y0141894D01*
X0233860Y0142191D01*
X0233893Y0142488D01*
X0233933Y0142783D01*
X0233980Y0143078D01*
X0234035Y0143371D01*
X0234096Y0143663D01*
X0234165Y0143953D01*
X0234241Y0144241D01*
X0234323Y0144528D01*
X0234413Y0144812D01*
X0234510Y0145094D01*
X0234613Y0145374D01*
X0234724Y0145651D01*
X0234841Y0145926D01*
X0234964Y0146197D01*
X0235095Y0146465D01*
X0235232Y0146730D01*
X0235375Y0146992D01*
X0235525Y0147250D01*
X0235681Y0147504D01*
X0235843Y0147754D01*
X0236011Y0148001D01*
X0236185Y0148243D01*
X0236365Y0148480D01*
X0236551Y0148714D01*
X0236742Y0148943D01*
X0236939Y0149166D01*
X0237141Y0149386D01*
X0237349Y0149600D01*
X0237562Y0149809D01*
X0237780Y0150012D01*
X0238003Y0150211D01*
X0238230Y0150403D01*
X0238462Y0150590D01*
X0238699Y0150772D01*
X0238940Y0150947D01*
X0239186Y0151117D01*
X0239435Y0151281D01*
X0239688Y0151438D01*
X0239945Y0151589D01*
X0240206Y0151734D01*
X0240470Y0151873D01*
X0240738Y0152005D01*
X0241008Y0152130D01*
X0241282Y0152249D01*
X0241558Y0152361D01*
X0241837Y0152466D01*
X0242119Y0152564D01*
X0242403Y0152656D01*
X0242689Y0152740D01*
X0242977Y0152817D01*
X0243267Y0152888D01*
X0243558Y0152951D01*
X0243851Y0153007D01*
X0244145Y0153056D01*
X0244441Y0153098D01*
X0244737Y0153132D01*
X0245034Y0153160D01*
X0245331Y0153180D01*
X0245629Y0153192D01*
X0245928Y0153198D01*
X0246226Y0153196D01*
X0246524Y0153187D01*
X0246822Y0153170D01*
X0247119Y0153147D01*
X0247416Y0153116D01*
X0247711Y0153077D01*
X0248006Y0153032D01*
X0248300Y0152979D01*
X0248592Y0152919D01*
X0248883Y0152853D01*
X0249171Y0152778D01*
X0249458Y0152697D01*
X0249743Y0152609D01*
X0250026Y0152514D01*
X0250306Y0152413D01*
X0250584Y0152304D01*
X0250859Y0152188D01*
X0251131Y0152066D01*
X0251400Y0151937D01*
X0251666Y0151802D01*
X0251928Y0151660D01*
X0252187Y0151512D01*
X0252442Y0151358D01*
X0252694Y0151197D01*
X0252941Y0151031D01*
X0253184Y0150858D01*
X0253423Y0150679D01*
X0253658Y0150495D01*
X0253887Y0150305D01*
X0254113Y0150109D01*
X0254333Y0149908D01*
X0254548Y0149702D01*
X0254758Y0149490D01*
X0254963Y0149274D01*
X0255163Y0149052D01*
X0255357Y0148825D01*
X0255546Y0148594D01*
X0255728Y0148359D01*
X0255653Y0148302D01*
X0255472Y0148536D01*
X0255285Y0148765D01*
X0255092Y0148990D01*
X0254894Y0149210D01*
X0254691Y0149425D01*
X0254482Y0149635D01*
X0254268Y0149840D01*
X0254050Y0150039D01*
X0253826Y0150233D01*
X0253598Y0150422D01*
X0253366Y0150605D01*
X0253129Y0150782D01*
X0252887Y0150953D01*
X0252642Y0151119D01*
X0252393Y0151278D01*
X0252139Y0151431D01*
X0251883Y0151578D01*
X0251622Y0151719D01*
X0251358Y0151853D01*
X0251091Y0151981D01*
X0250821Y0152102D01*
X0250549Y0152217D01*
X0250273Y0152325D01*
X0249995Y0152426D01*
X0249714Y0152520D01*
X0249432Y0152607D01*
X0249147Y0152688D01*
X0248860Y0152761D01*
X0248572Y0152828D01*
X0248282Y0152887D01*
X0247990Y0152939D01*
X0247698Y0152984D01*
X0247404Y0153022D01*
X0247110Y0153053D01*
X0246815Y0153077D01*
X0246520Y0153093D01*
X0246224Y0153102D01*
X0245928Y0153104D01*
X0245632Y0153098D01*
X0245336Y0153086D01*
X0245041Y0153066D01*
X0244746Y0153039D01*
X0244452Y0153005D01*
X0244159Y0152963D01*
X0243867Y0152915D01*
X0243577Y0152859D01*
X0243288Y0152796D01*
X0243000Y0152726D01*
X0242714Y0152649D01*
X0242430Y0152566D01*
X0242149Y0152475D01*
X0241869Y0152377D01*
X0241592Y0152273D01*
X0241318Y0152162D01*
X0241047Y0152044D01*
X0240778Y0151920D01*
X0240513Y0151789D01*
X0240251Y0151651D01*
X0239992Y0151508D01*
X0239737Y0151358D01*
X0239485Y0151201D01*
X0239238Y0151039D01*
X0238995Y0150871D01*
X0238755Y0150696D01*
X0238520Y0150516D01*
X0238290Y0150331D01*
X0238064Y0150139D01*
X0237843Y0149943D01*
X0237627Y0149741D01*
X0237416Y0149533D01*
X0237210Y0149321D01*
X0237009Y0149103D01*
X0236813Y0148881D01*
X0236623Y0148654D01*
X0236439Y0148423D01*
X0236261Y0148187D01*
X0236088Y0147947D01*
X0235921Y0147702D01*
X0235760Y0147454D01*
X0235605Y0147201D01*
X0235457Y0146945D01*
X0235315Y0146686D01*
X0235179Y0146423D01*
X0235049Y0146157D01*
X0234927Y0145888D01*
X0234810Y0145615D01*
X0234701Y0145340D01*
X0234598Y0145063D01*
X0234502Y0144783D01*
X0234413Y0144501D01*
X0234331Y0144216D01*
X0234256Y0143930D01*
X0234188Y0143642D01*
X0234127Y0143353D01*
X0234073Y0143062D01*
X0234026Y0142769D01*
X0233986Y0142476D01*
X0233954Y0142182D01*
X0233929Y0141887D01*
X0233910Y0141592D01*
X0233900Y0141296D01*
X0233896Y0141000D01*
X0233900Y0140704D01*
X0233910Y0140408D01*
X0233929Y0140113D01*
X0233954Y0139818D01*
X0233986Y0139524D01*
X0234026Y0139231D01*
X0234073Y0138938D01*
X0234127Y0138647D01*
X0234188Y0138358D01*
X0234256Y0138070D01*
X0234331Y0137784D01*
X0234413Y0137499D01*
X0234502Y0137217D01*
X0234598Y0136937D01*
X0234701Y0136660D01*
X0234810Y0136385D01*
X0234927Y0136112D01*
X0235049Y0135843D01*
X0235179Y0135577D01*
X0235315Y0135314D01*
X0235457Y0135055D01*
X0235605Y0134799D01*
X0235760Y0134546D01*
X0235921Y0134298D01*
X0236088Y0134053D01*
X0236261Y0133813D01*
X0236439Y0133577D01*
X0236623Y0133346D01*
X0236813Y0133119D01*
X0237009Y0132897D01*
X0237210Y0132679D01*
X0237416Y0132467D01*
X0237627Y0132259D01*
X0237843Y0132057D01*
X0238064Y0131861D01*
X0238290Y0131669D01*
X0238520Y0131484D01*
X0238755Y0131304D01*
X0238995Y0131129D01*
X0239238Y0130961D01*
X0239485Y0130799D01*
X0239737Y0130642D01*
X0239992Y0130492D01*
X0240251Y0130349D01*
X0240513Y0130211D01*
X0240778Y0130080D01*
X0241047Y0129956D01*
X0241318Y0129838D01*
X0241592Y0129727D01*
X0241869Y0129623D01*
X0242149Y0129525D01*
X0242430Y0129434D01*
X0242714Y0129351D01*
X0243000Y0129274D01*
X0243288Y0129204D01*
X0243577Y0129141D01*
X0243867Y0129085D01*
X0244159Y0129037D01*
X0244452Y0128995D01*
X0244746Y0128961D01*
X0245041Y0128934D01*
X0245336Y0128914D01*
X0245632Y0128902D01*
X0245928Y0128896D01*
X0246224Y0128898D01*
X0246520Y0128907D01*
X0246815Y0128923D01*
X0247110Y0128947D01*
X0247404Y0128978D01*
X0247698Y0129016D01*
X0247990Y0129061D01*
X0248282Y0129113D01*
X0248572Y0129172D01*
X0248860Y0129239D01*
X0249147Y0129312D01*
X0249432Y0129393D01*
X0249714Y0129480D01*
X0249995Y0129574D01*
X0250273Y0129675D01*
X0250549Y0129783D01*
X0250821Y0129898D01*
X0251091Y0130019D01*
X0251358Y0130147D01*
X0251622Y0130281D01*
X0251883Y0130422D01*
X0252139Y0130569D01*
X0252393Y0130722D01*
X0252642Y0130881D01*
X0252887Y0131047D01*
X0253129Y0131218D01*
X0253366Y0131395D01*
X0253598Y0131578D01*
X0253826Y0131767D01*
X0254050Y0131961D01*
X0254268Y0132160D01*
X0254482Y0132365D01*
X0254691Y0132575D01*
X0254894Y0132790D01*
X0255092Y0133010D01*
X0255285Y0133235D01*
X0255472Y0133464D01*
X0255653Y0133698D01*
X0256329Y0088809D02*
X0255609Y0088269D01*
X0255610Y0088270D02*
X0255429Y0088503D01*
X0255243Y0088731D01*
X0255051Y0088955D01*
X0254854Y0089174D01*
X0254652Y0089388D01*
X0254444Y0089597D01*
X0254231Y0089800D01*
X0254014Y0089999D01*
X0253791Y0090192D01*
X0253564Y0090380D01*
X0253333Y0090562D01*
X0253097Y0090739D01*
X0252856Y0090909D01*
X0252612Y0091074D01*
X0252364Y0091232D01*
X0252112Y0091385D01*
X0251856Y0091531D01*
X0251597Y0091671D01*
X0251334Y0091805D01*
X0251069Y0091932D01*
X0250800Y0092053D01*
X0250528Y0092167D01*
X0250254Y0092274D01*
X0249977Y0092375D01*
X0249698Y0092469D01*
X0249416Y0092556D01*
X0249133Y0092636D01*
X0248847Y0092709D01*
X0248560Y0092775D01*
X0248271Y0092834D01*
X0247981Y0092886D01*
X0247690Y0092931D01*
X0247398Y0092969D01*
X0247105Y0092999D01*
X0246811Y0093023D01*
X0246517Y0093039D01*
X0246223Y0093048D01*
X0245928Y0093050D01*
X0245633Y0093044D01*
X0245339Y0093032D01*
X0245045Y0093012D01*
X0244752Y0092985D01*
X0244459Y0092951D01*
X0244167Y0092910D01*
X0243877Y0092861D01*
X0243587Y0092806D01*
X0243300Y0092744D01*
X0243013Y0092674D01*
X0242729Y0092597D01*
X0242446Y0092514D01*
X0242166Y0092424D01*
X0241888Y0092327D01*
X0241612Y0092223D01*
X0241339Y0092112D01*
X0241069Y0091995D01*
X0240801Y0091871D01*
X0240537Y0091741D01*
X0240276Y0091604D01*
X0240019Y0091461D01*
X0239765Y0091311D01*
X0239514Y0091156D01*
X0239268Y0090994D01*
X0239026Y0090827D01*
X0238788Y0090653D01*
X0238554Y0090474D01*
X0238324Y0090289D01*
X0238100Y0090099D01*
X0237879Y0089903D01*
X0237664Y0089702D01*
X0237454Y0089495D01*
X0237249Y0089284D01*
X0237049Y0089067D01*
X0236854Y0088846D01*
X0236665Y0088620D01*
X0236482Y0088390D01*
X0236304Y0088155D01*
X0236132Y0087915D01*
X0235966Y0087672D01*
X0235806Y0087425D01*
X0235652Y0087174D01*
X0235504Y0086919D01*
X0235362Y0086660D01*
X0235227Y0086399D01*
X0235098Y0086134D01*
X0234976Y0085866D01*
X0234860Y0085595D01*
X0234751Y0085321D01*
X0234649Y0085045D01*
X0234554Y0084766D01*
X0234465Y0084485D01*
X0234383Y0084202D01*
X0234308Y0083917D01*
X0234241Y0083630D01*
X0234180Y0083342D01*
X0234126Y0083052D01*
X0234079Y0082761D01*
X0234040Y0082469D01*
X0234008Y0082177D01*
X0233982Y0081883D01*
X0233964Y0081589D01*
X0233954Y0081295D01*
X0233950Y0081000D01*
X0233954Y0080705D01*
X0233964Y0080411D01*
X0233982Y0080117D01*
X0234008Y0079823D01*
X0234040Y0079531D01*
X0234079Y0079239D01*
X0234126Y0078948D01*
X0234180Y0078658D01*
X0234241Y0078370D01*
X0234308Y0078083D01*
X0234383Y0077798D01*
X0234465Y0077515D01*
X0234554Y0077234D01*
X0234649Y0076955D01*
X0234751Y0076679D01*
X0234860Y0076405D01*
X0234976Y0076134D01*
X0235098Y0075866D01*
X0235227Y0075601D01*
X0235362Y0075340D01*
X0235504Y0075081D01*
X0235652Y0074826D01*
X0235806Y0074575D01*
X0235966Y0074328D01*
X0236132Y0074085D01*
X0236304Y0073845D01*
X0236482Y0073610D01*
X0236665Y0073380D01*
X0236854Y0073154D01*
X0237049Y0072933D01*
X0237249Y0072716D01*
X0237454Y0072505D01*
X0237664Y0072298D01*
X0237879Y0072097D01*
X0238100Y0071901D01*
X0238324Y0071711D01*
X0238554Y0071526D01*
X0238788Y0071347D01*
X0239026Y0071173D01*
X0239268Y0071006D01*
X0239514Y0070844D01*
X0239765Y0070689D01*
X0240019Y0070539D01*
X0240276Y0070396D01*
X0240537Y0070259D01*
X0240801Y0070129D01*
X0241069Y0070005D01*
X0241339Y0069888D01*
X0241612Y0069777D01*
X0241888Y0069673D01*
X0242166Y0069576D01*
X0242446Y0069486D01*
X0242729Y0069403D01*
X0243013Y0069326D01*
X0243300Y0069256D01*
X0243587Y0069194D01*
X0243877Y0069139D01*
X0244167Y0069090D01*
X0244459Y0069049D01*
X0244752Y0069015D01*
X0245045Y0068988D01*
X0245339Y0068968D01*
X0245633Y0068956D01*
X0245928Y0068950D01*
X0246223Y0068952D01*
X0246517Y0068961D01*
X0246811Y0068977D01*
X0247105Y0069001D01*
X0247398Y0069031D01*
X0247690Y0069069D01*
X0247981Y0069114D01*
X0248271Y0069166D01*
X0248560Y0069225D01*
X0248847Y0069291D01*
X0249133Y0069364D01*
X0249416Y0069444D01*
X0249698Y0069531D01*
X0249977Y0069625D01*
X0250254Y0069726D01*
X0250528Y0069833D01*
X0250800Y0069947D01*
X0251069Y0070068D01*
X0251334Y0070195D01*
X0251597Y0070329D01*
X0251856Y0070469D01*
X0252112Y0070615D01*
X0252364Y0070768D01*
X0252612Y0070926D01*
X0252856Y0071091D01*
X0253097Y0071261D01*
X0253333Y0071438D01*
X0253564Y0071620D01*
X0253791Y0071808D01*
X0254014Y0072001D01*
X0254231Y0072200D01*
X0254444Y0072403D01*
X0254652Y0072612D01*
X0254854Y0072826D01*
X0255051Y0073045D01*
X0255243Y0073269D01*
X0255429Y0073497D01*
X0255610Y0073730D01*
X0256329Y0073191D01*
X0256330Y0073190D01*
X0256136Y0072940D01*
X0255936Y0072694D01*
X0255730Y0072454D01*
X0255518Y0072219D01*
X0255300Y0071989D01*
X0255077Y0071764D01*
X0254849Y0071545D01*
X0254615Y0071331D01*
X0254376Y0071123D01*
X0254132Y0070921D01*
X0253883Y0070726D01*
X0253629Y0070536D01*
X0253371Y0070353D01*
X0253109Y0070176D01*
X0252842Y0070005D01*
X0252571Y0069841D01*
X0252296Y0069684D01*
X0252018Y0069533D01*
X0251735Y0069389D01*
X0251450Y0069253D01*
X0251161Y0069123D01*
X0250869Y0069000D01*
X0250574Y0068885D01*
X0250277Y0068777D01*
X0249976Y0068676D01*
X0249674Y0068582D01*
X0249369Y0068496D01*
X0249062Y0068417D01*
X0248754Y0068346D01*
X0248444Y0068283D01*
X0248132Y0068227D01*
X0247819Y0068178D01*
X0247505Y0068138D01*
X0247190Y0068105D01*
X0246874Y0068080D01*
X0246558Y0068062D01*
X0246242Y0068052D01*
X0245925Y0068050D01*
X0245608Y0068056D01*
X0245292Y0068069D01*
X0244976Y0068091D01*
X0244661Y0068119D01*
X0244346Y0068156D01*
X0244033Y0068200D01*
X0243720Y0068252D01*
X0243409Y0068312D01*
X0243100Y0068379D01*
X0242792Y0068454D01*
X0242486Y0068536D01*
X0242183Y0068625D01*
X0241881Y0068722D01*
X0241582Y0068827D01*
X0241286Y0068939D01*
X0240992Y0069057D01*
X0240702Y0069183D01*
X0240415Y0069316D01*
X0240130Y0069457D01*
X0239850Y0069604D01*
X0239573Y0069757D01*
X0239300Y0069918D01*
X0239031Y0070085D01*
X0238766Y0070259D01*
X0238506Y0070439D01*
X0238250Y0070625D01*
X0237999Y0070818D01*
X0237752Y0071016D01*
X0237510Y0071221D01*
X0237274Y0071431D01*
X0237042Y0071648D01*
X0236817Y0071870D01*
X0236596Y0072097D01*
X0236381Y0072329D01*
X0236172Y0072567D01*
X0235969Y0072810D01*
X0235771Y0073058D01*
X0235580Y0073310D01*
X0235395Y0073567D01*
X0235217Y0073829D01*
X0235045Y0074095D01*
X0234879Y0074364D01*
X0234720Y0074638D01*
X0234568Y0074916D01*
X0234423Y0075197D01*
X0234284Y0075482D01*
X0234153Y0075770D01*
X0234029Y0076062D01*
X0233911Y0076356D01*
X0233801Y0076653D01*
X0233699Y0076952D01*
X0233604Y0077254D01*
X0233516Y0077558D01*
X0233435Y0077865D01*
X0233362Y0078173D01*
X0233297Y0078483D01*
X0233239Y0078794D01*
X0233189Y0079107D01*
X0233147Y0079421D01*
X0233112Y0079735D01*
X0233085Y0080051D01*
X0233065Y0080367D01*
X0233054Y0080683D01*
X0233050Y0081000D01*
X0233054Y0081317D01*
X0233065Y0081633D01*
X0233085Y0081949D01*
X0233112Y0082265D01*
X0233147Y0082579D01*
X0233189Y0082893D01*
X0233239Y0083206D01*
X0233297Y0083517D01*
X0233362Y0083827D01*
X0233435Y0084135D01*
X0233516Y0084442D01*
X0233604Y0084746D01*
X0233699Y0085048D01*
X0233801Y0085347D01*
X0233911Y0085644D01*
X0234029Y0085938D01*
X0234153Y0086230D01*
X0234284Y0086518D01*
X0234423Y0086803D01*
X0234568Y0087084D01*
X0234720Y0087362D01*
X0234879Y0087636D01*
X0235045Y0087905D01*
X0235217Y0088171D01*
X0235395Y0088433D01*
X0235580Y0088690D01*
X0235771Y0088942D01*
X0235969Y0089190D01*
X0236172Y0089433D01*
X0236381Y0089671D01*
X0236596Y0089903D01*
X0236817Y0090130D01*
X0237042Y0090352D01*
X0237274Y0090569D01*
X0237510Y0090779D01*
X0237752Y0090984D01*
X0237999Y0091182D01*
X0238250Y0091375D01*
X0238506Y0091561D01*
X0238766Y0091741D01*
X0239031Y0091915D01*
X0239300Y0092082D01*
X0239573Y0092243D01*
X0239850Y0092396D01*
X0240130Y0092543D01*
X0240415Y0092684D01*
X0240702Y0092817D01*
X0240992Y0092943D01*
X0241286Y0093061D01*
X0241582Y0093173D01*
X0241881Y0093278D01*
X0242183Y0093375D01*
X0242486Y0093464D01*
X0242792Y0093546D01*
X0243100Y0093621D01*
X0243409Y0093688D01*
X0243720Y0093748D01*
X0244033Y0093800D01*
X0244346Y0093844D01*
X0244661Y0093881D01*
X0244976Y0093909D01*
X0245292Y0093931D01*
X0245608Y0093944D01*
X0245925Y0093950D01*
X0246242Y0093948D01*
X0246558Y0093938D01*
X0246874Y0093920D01*
X0247190Y0093895D01*
X0247505Y0093862D01*
X0247819Y0093822D01*
X0248132Y0093773D01*
X0248444Y0093717D01*
X0248754Y0093654D01*
X0249062Y0093583D01*
X0249369Y0093504D01*
X0249674Y0093418D01*
X0249976Y0093324D01*
X0250277Y0093223D01*
X0250574Y0093115D01*
X0250869Y0093000D01*
X0251161Y0092877D01*
X0251450Y0092747D01*
X0251735Y0092611D01*
X0252018Y0092467D01*
X0252296Y0092316D01*
X0252571Y0092159D01*
X0252842Y0091995D01*
X0253109Y0091824D01*
X0253371Y0091647D01*
X0253629Y0091464D01*
X0253883Y0091274D01*
X0254132Y0091079D01*
X0254376Y0090877D01*
X0254615Y0090669D01*
X0254849Y0090455D01*
X0255077Y0090236D01*
X0255300Y0090011D01*
X0255518Y0089781D01*
X0255730Y0089546D01*
X0255936Y0089306D01*
X0256136Y0089060D01*
X0256330Y0088810D01*
X0256255Y0088754D01*
X0256062Y0089002D01*
X0255863Y0089246D01*
X0255659Y0089484D01*
X0255449Y0089718D01*
X0255233Y0089946D01*
X0255011Y0090169D01*
X0254784Y0090387D01*
X0254552Y0090599D01*
X0254315Y0090805D01*
X0254073Y0091006D01*
X0253825Y0091200D01*
X0253574Y0091388D01*
X0253317Y0091570D01*
X0253057Y0091746D01*
X0252792Y0091915D01*
X0252523Y0092078D01*
X0252250Y0092234D01*
X0251974Y0092384D01*
X0251694Y0092526D01*
X0251410Y0092662D01*
X0251123Y0092791D01*
X0250833Y0092913D01*
X0250541Y0093027D01*
X0250245Y0093135D01*
X0249947Y0093235D01*
X0249647Y0093328D01*
X0249344Y0093413D01*
X0249040Y0093491D01*
X0248734Y0093562D01*
X0248426Y0093625D01*
X0248116Y0093681D01*
X0247806Y0093729D01*
X0247494Y0093769D01*
X0247181Y0093802D01*
X0246868Y0093827D01*
X0246554Y0093844D01*
X0246240Y0093854D01*
X0245925Y0093856D01*
X0245611Y0093850D01*
X0245297Y0093837D01*
X0244983Y0093816D01*
X0244670Y0093787D01*
X0244358Y0093751D01*
X0244047Y0093707D01*
X0243737Y0093655D01*
X0243428Y0093596D01*
X0243121Y0093529D01*
X0242815Y0093455D01*
X0242512Y0093374D01*
X0242210Y0093285D01*
X0241911Y0093188D01*
X0241614Y0093085D01*
X0241320Y0092974D01*
X0241029Y0092856D01*
X0240740Y0092731D01*
X0240455Y0092599D01*
X0240173Y0092460D01*
X0239895Y0092314D01*
X0239620Y0092161D01*
X0239349Y0092002D01*
X0239082Y0091836D01*
X0238819Y0091663D01*
X0238560Y0091485D01*
X0238306Y0091300D01*
X0238057Y0091108D01*
X0237812Y0090911D01*
X0237572Y0090708D01*
X0237337Y0090499D01*
X0237107Y0090284D01*
X0236883Y0090064D01*
X0236664Y0089839D01*
X0236451Y0089608D01*
X0236243Y0089372D01*
X0236041Y0089130D01*
X0235846Y0088885D01*
X0235656Y0088634D01*
X0235472Y0088379D01*
X0235295Y0088119D01*
X0235124Y0087855D01*
X0234960Y0087587D01*
X0234802Y0087315D01*
X0234651Y0087040D01*
X0234507Y0086760D01*
X0234369Y0086478D01*
X0234239Y0086192D01*
X0234115Y0085903D01*
X0233999Y0085610D01*
X0233890Y0085316D01*
X0233788Y0085018D01*
X0233694Y0084719D01*
X0233606Y0084416D01*
X0233526Y0084112D01*
X0233454Y0083807D01*
X0233389Y0083499D01*
X0233332Y0083190D01*
X0233282Y0082879D01*
X0233240Y0082568D01*
X0233205Y0082255D01*
X0233179Y0081942D01*
X0233159Y0081628D01*
X0233148Y0081314D01*
X0233144Y0081000D01*
X0233148Y0080686D01*
X0233159Y0080372D01*
X0233179Y0080058D01*
X0233205Y0079745D01*
X0233240Y0079432D01*
X0233282Y0079121D01*
X0233332Y0078810D01*
X0233389Y0078501D01*
X0233454Y0078193D01*
X0233526Y0077888D01*
X0233606Y0077584D01*
X0233694Y0077281D01*
X0233788Y0076982D01*
X0233890Y0076684D01*
X0233999Y0076390D01*
X0234115Y0076097D01*
X0234239Y0075808D01*
X0234369Y0075522D01*
X0234507Y0075240D01*
X0234651Y0074960D01*
X0234802Y0074685D01*
X0234960Y0074413D01*
X0235124Y0074145D01*
X0235295Y0073881D01*
X0235472Y0073621D01*
X0235656Y0073366D01*
X0235846Y0073115D01*
X0236041Y0072870D01*
X0236243Y0072628D01*
X0236451Y0072392D01*
X0236664Y0072161D01*
X0236883Y0071936D01*
X0237107Y0071716D01*
X0237337Y0071501D01*
X0237572Y0071292D01*
X0237812Y0071089D01*
X0238057Y0070892D01*
X0238306Y0070700D01*
X0238560Y0070515D01*
X0238819Y0070337D01*
X0239082Y0070164D01*
X0239349Y0069998D01*
X0239620Y0069839D01*
X0239895Y0069686D01*
X0240173Y0069540D01*
X0240455Y0069401D01*
X0240740Y0069269D01*
X0241029Y0069144D01*
X0241320Y0069026D01*
X0241614Y0068915D01*
X0241911Y0068812D01*
X0242210Y0068715D01*
X0242512Y0068626D01*
X0242815Y0068545D01*
X0243121Y0068471D01*
X0243428Y0068404D01*
X0243737Y0068345D01*
X0244047Y0068293D01*
X0244358Y0068249D01*
X0244670Y0068213D01*
X0244983Y0068184D01*
X0245297Y0068163D01*
X0245611Y0068150D01*
X0245925Y0068144D01*
X0246240Y0068146D01*
X0246554Y0068156D01*
X0246868Y0068173D01*
X0247181Y0068198D01*
X0247494Y0068231D01*
X0247806Y0068271D01*
X0248116Y0068319D01*
X0248426Y0068375D01*
X0248734Y0068438D01*
X0249040Y0068509D01*
X0249344Y0068587D01*
X0249647Y0068672D01*
X0249947Y0068765D01*
X0250245Y0068865D01*
X0250541Y0068973D01*
X0250833Y0069087D01*
X0251123Y0069209D01*
X0251410Y0069338D01*
X0251694Y0069474D01*
X0251974Y0069616D01*
X0252250Y0069766D01*
X0252523Y0069922D01*
X0252792Y0070085D01*
X0253057Y0070254D01*
X0253317Y0070430D01*
X0253574Y0070612D01*
X0253825Y0070800D01*
X0254073Y0070994D01*
X0254315Y0071195D01*
X0254552Y0071401D01*
X0254784Y0071613D01*
X0255011Y0071831D01*
X0255233Y0072054D01*
X0255449Y0072282D01*
X0255659Y0072516D01*
X0255863Y0072754D01*
X0256062Y0072998D01*
X0256255Y0073246D01*
X0256180Y0073303D01*
X0255988Y0073056D01*
X0255791Y0072814D01*
X0255588Y0072577D01*
X0255379Y0072346D01*
X0255165Y0072119D01*
X0254945Y0071897D01*
X0254720Y0071681D01*
X0254489Y0071471D01*
X0254254Y0071266D01*
X0254013Y0071067D01*
X0253768Y0070874D01*
X0253518Y0070688D01*
X0253264Y0070507D01*
X0253005Y0070332D01*
X0252742Y0070164D01*
X0252475Y0070003D01*
X0252204Y0069848D01*
X0251930Y0069699D01*
X0251652Y0069558D01*
X0251370Y0069423D01*
X0251086Y0069295D01*
X0250798Y0069174D01*
X0250507Y0069060D01*
X0250214Y0068954D01*
X0249918Y0068854D01*
X0249620Y0068762D01*
X0249320Y0068677D01*
X0249017Y0068600D01*
X0248713Y0068530D01*
X0248408Y0068467D01*
X0248101Y0068412D01*
X0247792Y0068364D01*
X0247483Y0068324D01*
X0247172Y0068292D01*
X0246861Y0068267D01*
X0246550Y0068250D01*
X0246238Y0068240D01*
X0245926Y0068238D01*
X0245614Y0068244D01*
X0245302Y0068257D01*
X0244991Y0068278D01*
X0244680Y0068306D01*
X0244370Y0068343D01*
X0244061Y0068386D01*
X0243753Y0068437D01*
X0243446Y0068496D01*
X0243142Y0068562D01*
X0242838Y0068636D01*
X0242537Y0068717D01*
X0242238Y0068805D01*
X0241941Y0068901D01*
X0241646Y0069004D01*
X0241354Y0069114D01*
X0241065Y0069231D01*
X0240778Y0069355D01*
X0240495Y0069486D01*
X0240215Y0069624D01*
X0239939Y0069769D01*
X0239666Y0069921D01*
X0239397Y0070079D01*
X0239132Y0070244D01*
X0238871Y0070415D01*
X0238615Y0070592D01*
X0238362Y0070776D01*
X0238115Y0070966D01*
X0237872Y0071161D01*
X0237633Y0071363D01*
X0237400Y0071571D01*
X0237172Y0071784D01*
X0236950Y0072002D01*
X0236732Y0072226D01*
X0236521Y0072455D01*
X0236315Y0072690D01*
X0236114Y0072929D01*
X0235920Y0073173D01*
X0235732Y0073422D01*
X0235549Y0073675D01*
X0235373Y0073933D01*
X0235204Y0074195D01*
X0235041Y0074461D01*
X0234884Y0074731D01*
X0234734Y0075005D01*
X0234591Y0075282D01*
X0234454Y0075562D01*
X0234325Y0075846D01*
X0234202Y0076133D01*
X0234087Y0076423D01*
X0233979Y0076716D01*
X0233877Y0077011D01*
X0233783Y0077309D01*
X0233697Y0077609D01*
X0233618Y0077910D01*
X0233546Y0078214D01*
X0233481Y0078519D01*
X0233424Y0078826D01*
X0233375Y0079134D01*
X0233333Y0079444D01*
X0233299Y0079754D01*
X0233272Y0080065D01*
X0233253Y0080376D01*
X0233242Y0080688D01*
X0233238Y0081000D01*
X0233242Y0081312D01*
X0233253Y0081624D01*
X0233272Y0081935D01*
X0233299Y0082246D01*
X0233333Y0082556D01*
X0233375Y0082866D01*
X0233424Y0083174D01*
X0233481Y0083481D01*
X0233546Y0083786D01*
X0233618Y0084090D01*
X0233697Y0084391D01*
X0233783Y0084691D01*
X0233877Y0084989D01*
X0233979Y0085284D01*
X0234087Y0085577D01*
X0234202Y0085867D01*
X0234325Y0086154D01*
X0234454Y0086438D01*
X0234591Y0086718D01*
X0234734Y0086995D01*
X0234884Y0087269D01*
X0235041Y0087539D01*
X0235204Y0087805D01*
X0235373Y0088067D01*
X0235549Y0088325D01*
X0235732Y0088578D01*
X0235920Y0088827D01*
X0236114Y0089071D01*
X0236315Y0089310D01*
X0236521Y0089545D01*
X0236732Y0089774D01*
X0236950Y0089998D01*
X0237172Y0090216D01*
X0237400Y0090429D01*
X0237633Y0090637D01*
X0237872Y0090839D01*
X0238115Y0091034D01*
X0238362Y0091224D01*
X0238615Y0091408D01*
X0238871Y0091585D01*
X0239132Y0091756D01*
X0239397Y0091921D01*
X0239666Y0092079D01*
X0239939Y0092231D01*
X0240215Y0092376D01*
X0240495Y0092514D01*
X0240778Y0092645D01*
X0241065Y0092769D01*
X0241354Y0092886D01*
X0241646Y0092996D01*
X0241941Y0093099D01*
X0242238Y0093195D01*
X0242537Y0093283D01*
X0242838Y0093364D01*
X0243142Y0093438D01*
X0243446Y0093504D01*
X0243753Y0093563D01*
X0244061Y0093614D01*
X0244370Y0093657D01*
X0244680Y0093694D01*
X0244991Y0093722D01*
X0245302Y0093743D01*
X0245614Y0093756D01*
X0245926Y0093762D01*
X0246238Y0093760D01*
X0246550Y0093750D01*
X0246861Y0093733D01*
X0247172Y0093708D01*
X0247483Y0093676D01*
X0247792Y0093636D01*
X0248101Y0093588D01*
X0248408Y0093533D01*
X0248713Y0093470D01*
X0249017Y0093400D01*
X0249320Y0093323D01*
X0249620Y0093238D01*
X0249918Y0093146D01*
X0250214Y0093046D01*
X0250507Y0092940D01*
X0250798Y0092826D01*
X0251086Y0092705D01*
X0251370Y0092577D01*
X0251652Y0092442D01*
X0251930Y0092301D01*
X0252204Y0092152D01*
X0252475Y0091997D01*
X0252742Y0091836D01*
X0253005Y0091668D01*
X0253264Y0091493D01*
X0253518Y0091312D01*
X0253768Y0091126D01*
X0254013Y0090933D01*
X0254254Y0090734D01*
X0254489Y0090529D01*
X0254720Y0090319D01*
X0254945Y0090103D01*
X0255165Y0089881D01*
X0255379Y0089654D01*
X0255588Y0089423D01*
X0255791Y0089186D01*
X0255988Y0088944D01*
X0256180Y0088697D01*
X0256104Y0088641D01*
X0255914Y0088886D01*
X0255719Y0089126D01*
X0255517Y0089361D01*
X0255310Y0089591D01*
X0255097Y0089816D01*
X0254879Y0090036D01*
X0254655Y0090250D01*
X0254426Y0090459D01*
X0254193Y0090662D01*
X0253954Y0090860D01*
X0253711Y0091051D01*
X0253462Y0091237D01*
X0253210Y0091416D01*
X0252953Y0091589D01*
X0252692Y0091756D01*
X0252427Y0091917D01*
X0252158Y0092070D01*
X0251886Y0092218D01*
X0251610Y0092358D01*
X0251330Y0092492D01*
X0251048Y0092619D01*
X0250762Y0092739D01*
X0250474Y0092852D01*
X0250183Y0092958D01*
X0249889Y0093056D01*
X0249593Y0093148D01*
X0249295Y0093232D01*
X0248995Y0093309D01*
X0248693Y0093378D01*
X0248390Y0093441D01*
X0248085Y0093495D01*
X0247779Y0093543D01*
X0247471Y0093582D01*
X0247163Y0093614D01*
X0246855Y0093639D01*
X0246545Y0093656D01*
X0246236Y0093666D01*
X0245926Y0093668D01*
X0245616Y0093662D01*
X0245307Y0093649D01*
X0244998Y0093628D01*
X0244689Y0093600D01*
X0244382Y0093564D01*
X0244075Y0093521D01*
X0243769Y0093470D01*
X0243465Y0093412D01*
X0243162Y0093346D01*
X0242861Y0093273D01*
X0242562Y0093193D01*
X0242265Y0093105D01*
X0241970Y0093010D01*
X0241678Y0092908D01*
X0241388Y0092799D01*
X0241101Y0092682D01*
X0240817Y0092559D01*
X0240536Y0092429D01*
X0240258Y0092292D01*
X0239984Y0092148D01*
X0239713Y0091998D01*
X0239446Y0091841D01*
X0239183Y0091677D01*
X0238924Y0091507D01*
X0238669Y0091331D01*
X0238418Y0091149D01*
X0238173Y0090960D01*
X0237931Y0090766D01*
X0237695Y0090566D01*
X0237464Y0090360D01*
X0237237Y0090148D01*
X0237016Y0089931D01*
X0236801Y0089709D01*
X0236590Y0089482D01*
X0236386Y0089249D01*
X0236187Y0089011D01*
X0235994Y0088769D01*
X0235807Y0088522D01*
X0235626Y0088271D01*
X0235452Y0088015D01*
X0235283Y0087755D01*
X0235121Y0087491D01*
X0234966Y0087223D01*
X0234817Y0086951D01*
X0234675Y0086676D01*
X0234539Y0086397D01*
X0234411Y0086116D01*
X0234289Y0085831D01*
X0234175Y0085543D01*
X0234067Y0085252D01*
X0233967Y0084959D01*
X0233873Y0084664D01*
X0233787Y0084366D01*
X0233709Y0084067D01*
X0233638Y0083765D01*
X0233574Y0083462D01*
X0233517Y0083158D01*
X0233468Y0082852D01*
X0233427Y0082545D01*
X0233393Y0082237D01*
X0233366Y0081928D01*
X0233347Y0081619D01*
X0233336Y0081310D01*
X0233332Y0081000D01*
X0233336Y0080690D01*
X0233347Y0080381D01*
X0233366Y0080072D01*
X0233393Y0079763D01*
X0233427Y0079455D01*
X0233468Y0079148D01*
X0233517Y0078842D01*
X0233574Y0078538D01*
X0233638Y0078235D01*
X0233709Y0077933D01*
X0233787Y0077634D01*
X0233873Y0077336D01*
X0233967Y0077041D01*
X0234067Y0076748D01*
X0234175Y0076457D01*
X0234289Y0076169D01*
X0234411Y0075884D01*
X0234539Y0075603D01*
X0234675Y0075324D01*
X0234817Y0075049D01*
X0234966Y0074777D01*
X0235121Y0074509D01*
X0235283Y0074245D01*
X0235452Y0073985D01*
X0235626Y0073729D01*
X0235807Y0073478D01*
X0235994Y0073231D01*
X0236187Y0072989D01*
X0236386Y0072751D01*
X0236590Y0072518D01*
X0236801Y0072291D01*
X0237016Y0072069D01*
X0237237Y0071852D01*
X0237464Y0071640D01*
X0237695Y0071434D01*
X0237931Y0071234D01*
X0238173Y0071040D01*
X0238418Y0070851D01*
X0238669Y0070669D01*
X0238924Y0070493D01*
X0239183Y0070323D01*
X0239446Y0070159D01*
X0239713Y0070002D01*
X0239984Y0069852D01*
X0240258Y0069708D01*
X0240536Y0069571D01*
X0240817Y0069441D01*
X0241101Y0069318D01*
X0241388Y0069201D01*
X0241678Y0069092D01*
X0241970Y0068990D01*
X0242265Y0068895D01*
X0242562Y0068807D01*
X0242861Y0068727D01*
X0243162Y0068654D01*
X0243465Y0068588D01*
X0243769Y0068530D01*
X0244075Y0068479D01*
X0244382Y0068436D01*
X0244689Y0068400D01*
X0244998Y0068372D01*
X0245307Y0068351D01*
X0245616Y0068338D01*
X0245926Y0068332D01*
X0246236Y0068334D01*
X0246545Y0068344D01*
X0246855Y0068361D01*
X0247163Y0068386D01*
X0247471Y0068418D01*
X0247779Y0068457D01*
X0248085Y0068505D01*
X0248390Y0068559D01*
X0248693Y0068622D01*
X0248995Y0068691D01*
X0249295Y0068768D01*
X0249593Y0068852D01*
X0249889Y0068944D01*
X0250183Y0069042D01*
X0250474Y0069148D01*
X0250762Y0069261D01*
X0251048Y0069381D01*
X0251330Y0069508D01*
X0251610Y0069642D01*
X0251886Y0069782D01*
X0252158Y0069930D01*
X0252427Y0070083D01*
X0252692Y0070244D01*
X0252953Y0070411D01*
X0253210Y0070584D01*
X0253462Y0070763D01*
X0253711Y0070949D01*
X0253954Y0071140D01*
X0254193Y0071338D01*
X0254426Y0071541D01*
X0254655Y0071750D01*
X0254879Y0071964D01*
X0255097Y0072184D01*
X0255310Y0072409D01*
X0255517Y0072639D01*
X0255719Y0072874D01*
X0255914Y0073114D01*
X0256104Y0073359D01*
X0256029Y0073416D01*
X0255841Y0073173D01*
X0255646Y0072934D01*
X0255446Y0072701D01*
X0255241Y0072473D01*
X0255029Y0072249D01*
X0254813Y0072031D01*
X0254591Y0071818D01*
X0254364Y0071611D01*
X0254132Y0071409D01*
X0253895Y0071213D01*
X0253653Y0071023D01*
X0253407Y0070839D01*
X0253156Y0070661D01*
X0252901Y0070489D01*
X0252642Y0070324D01*
X0252379Y0070164D01*
X0252112Y0070012D01*
X0251842Y0069865D01*
X0251568Y0069726D01*
X0251291Y0069593D01*
X0251010Y0069467D01*
X0250727Y0069348D01*
X0250440Y0069236D01*
X0250151Y0069131D01*
X0249860Y0069033D01*
X0249566Y0068942D01*
X0249270Y0068859D01*
X0248973Y0068782D01*
X0248673Y0068713D01*
X0248372Y0068652D01*
X0248069Y0068597D01*
X0247765Y0068551D01*
X0247460Y0068511D01*
X0247155Y0068479D01*
X0246848Y0068455D01*
X0246541Y0068438D01*
X0246234Y0068428D01*
X0245926Y0068426D01*
X0245619Y0068432D01*
X0245312Y0068445D01*
X0245005Y0068465D01*
X0244699Y0068494D01*
X0244393Y0068529D01*
X0244089Y0068572D01*
X0243786Y0068623D01*
X0243484Y0068680D01*
X0243183Y0068746D01*
X0242884Y0068818D01*
X0242588Y0068898D01*
X0242293Y0068985D01*
X0242000Y0069079D01*
X0241710Y0069181D01*
X0241422Y0069289D01*
X0241137Y0069404D01*
X0240855Y0069527D01*
X0240576Y0069656D01*
X0240300Y0069792D01*
X0240028Y0069935D01*
X0239759Y0070084D01*
X0239494Y0070240D01*
X0239233Y0070402D01*
X0238976Y0070571D01*
X0238723Y0070746D01*
X0238475Y0070927D01*
X0238231Y0071114D01*
X0237991Y0071307D01*
X0237757Y0071505D01*
X0237527Y0071710D01*
X0237302Y0071920D01*
X0237083Y0072135D01*
X0236869Y0072356D01*
X0236660Y0072581D01*
X0236457Y0072812D01*
X0236260Y0073048D01*
X0236068Y0073289D01*
X0235883Y0073534D01*
X0235703Y0073783D01*
X0235530Y0074037D01*
X0235363Y0074295D01*
X0235202Y0074557D01*
X0235048Y0074823D01*
X0234900Y0075093D01*
X0234759Y0075366D01*
X0234624Y0075643D01*
X0234497Y0075922D01*
X0234376Y0076205D01*
X0234262Y0076491D01*
X0234156Y0076779D01*
X0234056Y0077070D01*
X0233963Y0077363D01*
X0233878Y0077659D01*
X0233800Y0077956D01*
X0233729Y0078255D01*
X0233666Y0078556D01*
X0233610Y0078858D01*
X0233561Y0079162D01*
X0233520Y0079467D01*
X0233486Y0079772D01*
X0233460Y0080078D01*
X0233441Y0080385D01*
X0233430Y0080693D01*
X0233426Y0081000D01*
X0233430Y0081307D01*
X0233441Y0081615D01*
X0233460Y0081922D01*
X0233486Y0082228D01*
X0233520Y0082533D01*
X0233561Y0082838D01*
X0233610Y0083142D01*
X0233666Y0083444D01*
X0233729Y0083745D01*
X0233800Y0084044D01*
X0233878Y0084341D01*
X0233963Y0084637D01*
X0234056Y0084930D01*
X0234156Y0085221D01*
X0234262Y0085509D01*
X0234376Y0085795D01*
X0234497Y0086078D01*
X0234624Y0086357D01*
X0234759Y0086634D01*
X0234900Y0086907D01*
X0235048Y0087177D01*
X0235202Y0087443D01*
X0235363Y0087705D01*
X0235530Y0087963D01*
X0235703Y0088217D01*
X0235883Y0088466D01*
X0236068Y0088711D01*
X0236260Y0088952D01*
X0236457Y0089188D01*
X0236660Y0089419D01*
X0236869Y0089644D01*
X0237083Y0089865D01*
X0237302Y0090080D01*
X0237527Y0090290D01*
X0237757Y0090495D01*
X0237991Y0090693D01*
X0238231Y0090886D01*
X0238475Y0091073D01*
X0238723Y0091254D01*
X0238976Y0091429D01*
X0239233Y0091598D01*
X0239494Y0091760D01*
X0239759Y0091916D01*
X0240028Y0092065D01*
X0240300Y0092208D01*
X0240576Y0092344D01*
X0240855Y0092473D01*
X0241137Y0092596D01*
X0241422Y0092711D01*
X0241710Y0092819D01*
X0242000Y0092921D01*
X0242293Y0093015D01*
X0242588Y0093102D01*
X0242884Y0093182D01*
X0243183Y0093254D01*
X0243484Y0093320D01*
X0243786Y0093377D01*
X0244089Y0093428D01*
X0244393Y0093471D01*
X0244699Y0093506D01*
X0245005Y0093535D01*
X0245312Y0093555D01*
X0245619Y0093568D01*
X0245926Y0093574D01*
X0246234Y0093572D01*
X0246541Y0093562D01*
X0246848Y0093545D01*
X0247155Y0093521D01*
X0247460Y0093489D01*
X0247765Y0093449D01*
X0248069Y0093403D01*
X0248372Y0093348D01*
X0248673Y0093287D01*
X0248973Y0093218D01*
X0249270Y0093141D01*
X0249566Y0093058D01*
X0249860Y0092967D01*
X0250151Y0092869D01*
X0250440Y0092764D01*
X0250727Y0092652D01*
X0251010Y0092533D01*
X0251291Y0092407D01*
X0251568Y0092274D01*
X0251842Y0092135D01*
X0252112Y0091988D01*
X0252379Y0091836D01*
X0252642Y0091676D01*
X0252901Y0091511D01*
X0253156Y0091339D01*
X0253407Y0091161D01*
X0253653Y0090977D01*
X0253895Y0090787D01*
X0254132Y0090591D01*
X0254364Y0090389D01*
X0254591Y0090182D01*
X0254813Y0089969D01*
X0255029Y0089751D01*
X0255241Y0089527D01*
X0255446Y0089299D01*
X0255646Y0089066D01*
X0255841Y0088827D01*
X0256029Y0088584D01*
X0255954Y0088528D01*
X0255767Y0088769D01*
X0255574Y0089006D01*
X0255375Y0089237D01*
X0255171Y0089464D01*
X0254962Y0089686D01*
X0254747Y0089902D01*
X0254526Y0090113D01*
X0254301Y0090319D01*
X0254071Y0090519D01*
X0253835Y0090714D01*
X0253596Y0090902D01*
X0253351Y0091085D01*
X0253102Y0091262D01*
X0252849Y0091432D01*
X0252592Y0091597D01*
X0252331Y0091755D01*
X0252066Y0091906D01*
X0251798Y0092051D01*
X0251526Y0092190D01*
X0251251Y0092322D01*
X0250972Y0092447D01*
X0250691Y0092565D01*
X0250407Y0092676D01*
X0250120Y0092780D01*
X0249831Y0092878D01*
X0249539Y0092968D01*
X0249246Y0093051D01*
X0248950Y0093126D01*
X0248653Y0093195D01*
X0248354Y0093256D01*
X0248053Y0093310D01*
X0247752Y0093356D01*
X0247449Y0093396D01*
X0247146Y0093427D01*
X0246841Y0093452D01*
X0246537Y0093468D01*
X0246232Y0093478D01*
X0245927Y0093480D01*
X0245622Y0093474D01*
X0245317Y0093461D01*
X0245012Y0093441D01*
X0244708Y0093413D01*
X0244405Y0093378D01*
X0244103Y0093335D01*
X0243802Y0093285D01*
X0243502Y0093228D01*
X0243204Y0093163D01*
X0242908Y0093091D01*
X0242613Y0093012D01*
X0242320Y0092925D01*
X0242030Y0092832D01*
X0241742Y0092731D01*
X0241456Y0092623D01*
X0241173Y0092509D01*
X0240893Y0092387D01*
X0240616Y0092259D01*
X0240343Y0092124D01*
X0240073Y0091983D01*
X0239806Y0091834D01*
X0239543Y0091680D01*
X0239284Y0091519D01*
X0239028Y0091351D01*
X0238777Y0091178D01*
X0238531Y0090998D01*
X0238289Y0090812D01*
X0238051Y0090621D01*
X0237818Y0090424D01*
X0237590Y0090221D01*
X0237367Y0090012D01*
X0237149Y0089799D01*
X0236937Y0089580D01*
X0236730Y0089356D01*
X0236528Y0089126D01*
X0236332Y0088892D01*
X0236142Y0088654D01*
X0235958Y0088410D01*
X0235780Y0088163D01*
X0235608Y0087911D01*
X0235442Y0087654D01*
X0235283Y0087394D01*
X0235129Y0087130D01*
X0234983Y0086863D01*
X0234843Y0086592D01*
X0234709Y0086317D01*
X0234583Y0086040D01*
X0234463Y0085759D01*
X0234350Y0085475D01*
X0234244Y0085189D01*
X0234145Y0084901D01*
X0234053Y0084610D01*
X0233969Y0084316D01*
X0233891Y0084021D01*
X0233821Y0083724D01*
X0233758Y0083426D01*
X0233702Y0083126D01*
X0233654Y0082824D01*
X0233613Y0082522D01*
X0233580Y0082219D01*
X0233554Y0081915D01*
X0233535Y0081610D01*
X0233524Y0081305D01*
X0233520Y0081000D01*
X0233524Y0080695D01*
X0233535Y0080390D01*
X0233554Y0080085D01*
X0233580Y0079781D01*
X0233613Y0079478D01*
X0233654Y0079176D01*
X0233702Y0078874D01*
X0233758Y0078574D01*
X0233821Y0078276D01*
X0233891Y0077979D01*
X0233969Y0077684D01*
X0234053Y0077390D01*
X0234145Y0077099D01*
X0234244Y0076811D01*
X0234350Y0076525D01*
X0234463Y0076241D01*
X0234583Y0075960D01*
X0234709Y0075683D01*
X0234843Y0075408D01*
X0234983Y0075137D01*
X0235129Y0074870D01*
X0235283Y0074606D01*
X0235442Y0074346D01*
X0235608Y0074089D01*
X0235780Y0073837D01*
X0235958Y0073590D01*
X0236142Y0073346D01*
X0236332Y0073108D01*
X0236528Y0072874D01*
X0236730Y0072644D01*
X0236937Y0072420D01*
X0237149Y0072201D01*
X0237367Y0071988D01*
X0237590Y0071779D01*
X0237818Y0071576D01*
X0238051Y0071379D01*
X0238289Y0071188D01*
X0238531Y0071002D01*
X0238777Y0070822D01*
X0239028Y0070649D01*
X0239284Y0070481D01*
X0239543Y0070320D01*
X0239806Y0070166D01*
X0240073Y0070017D01*
X0240343Y0069876D01*
X0240616Y0069741D01*
X0240893Y0069613D01*
X0241173Y0069491D01*
X0241456Y0069377D01*
X0241742Y0069269D01*
X0242030Y0069168D01*
X0242320Y0069075D01*
X0242613Y0068988D01*
X0242908Y0068909D01*
X0243204Y0068837D01*
X0243502Y0068772D01*
X0243802Y0068715D01*
X0244103Y0068665D01*
X0244405Y0068622D01*
X0244708Y0068587D01*
X0245012Y0068559D01*
X0245317Y0068539D01*
X0245622Y0068526D01*
X0245927Y0068520D01*
X0246232Y0068522D01*
X0246537Y0068532D01*
X0246841Y0068548D01*
X0247146Y0068573D01*
X0247449Y0068604D01*
X0247752Y0068644D01*
X0248053Y0068690D01*
X0248354Y0068744D01*
X0248653Y0068805D01*
X0248950Y0068874D01*
X0249246Y0068949D01*
X0249539Y0069032D01*
X0249831Y0069122D01*
X0250120Y0069220D01*
X0250407Y0069324D01*
X0250691Y0069435D01*
X0250972Y0069553D01*
X0251251Y0069678D01*
X0251526Y0069810D01*
X0251798Y0069949D01*
X0252066Y0070094D01*
X0252331Y0070245D01*
X0252592Y0070403D01*
X0252849Y0070568D01*
X0253102Y0070738D01*
X0253351Y0070915D01*
X0253596Y0071098D01*
X0253835Y0071286D01*
X0254071Y0071481D01*
X0254301Y0071681D01*
X0254526Y0071887D01*
X0254747Y0072098D01*
X0254962Y0072314D01*
X0255171Y0072536D01*
X0255375Y0072763D01*
X0255574Y0072994D01*
X0255767Y0073231D01*
X0255954Y0073472D01*
X0255879Y0073528D01*
X0255693Y0073289D01*
X0255502Y0073054D01*
X0255305Y0072825D01*
X0255102Y0072600D01*
X0254894Y0072379D01*
X0254680Y0072165D01*
X0254462Y0071955D01*
X0254238Y0071751D01*
X0254010Y0071552D01*
X0253776Y0071359D01*
X0253538Y0071172D01*
X0253296Y0070991D01*
X0253049Y0070815D01*
X0252798Y0070646D01*
X0252542Y0070483D01*
X0252283Y0070326D01*
X0252020Y0070176D01*
X0251754Y0070032D01*
X0251484Y0069894D01*
X0251211Y0069763D01*
X0250935Y0069639D01*
X0250655Y0069522D01*
X0250373Y0069412D01*
X0250089Y0069308D01*
X0249802Y0069212D01*
X0249512Y0069122D01*
X0249221Y0069040D01*
X0248928Y0068965D01*
X0248632Y0068897D01*
X0248336Y0068836D01*
X0248038Y0068783D01*
X0247738Y0068737D01*
X0247438Y0068698D01*
X0247137Y0068666D01*
X0246835Y0068642D01*
X0246532Y0068625D01*
X0246230Y0068616D01*
X0245927Y0068614D01*
X0245624Y0068620D01*
X0245322Y0068633D01*
X0245019Y0068653D01*
X0244718Y0068681D01*
X0244417Y0068716D01*
X0244117Y0068758D01*
X0243818Y0068808D01*
X0243521Y0068865D01*
X0243225Y0068929D01*
X0242931Y0069000D01*
X0242638Y0069079D01*
X0242348Y0069165D01*
X0242059Y0069258D01*
X0241774Y0069357D01*
X0241490Y0069464D01*
X0241210Y0069578D01*
X0240932Y0069698D01*
X0240657Y0069826D01*
X0240385Y0069960D01*
X0240117Y0070100D01*
X0239852Y0070247D01*
X0239591Y0070401D01*
X0239334Y0070561D01*
X0239081Y0070727D01*
X0238832Y0070899D01*
X0238587Y0071077D01*
X0238346Y0071262D01*
X0238111Y0071452D01*
X0237880Y0071647D01*
X0237653Y0071849D01*
X0237432Y0072055D01*
X0237216Y0072268D01*
X0237005Y0072485D01*
X0236800Y0072707D01*
X0236600Y0072935D01*
X0236405Y0073167D01*
X0236217Y0073404D01*
X0236034Y0073646D01*
X0235857Y0073891D01*
X0235686Y0074142D01*
X0235522Y0074396D01*
X0235363Y0074654D01*
X0235211Y0074916D01*
X0235066Y0075181D01*
X0234927Y0075450D01*
X0234794Y0075723D01*
X0234669Y0075998D01*
X0234550Y0076277D01*
X0234438Y0076558D01*
X0234333Y0076842D01*
X0234234Y0077129D01*
X0234143Y0077418D01*
X0234059Y0077709D01*
X0233982Y0078002D01*
X0233913Y0078296D01*
X0233850Y0078593D01*
X0233795Y0078890D01*
X0233747Y0079189D01*
X0233706Y0079489D01*
X0233673Y0079791D01*
X0233647Y0080092D01*
X0233629Y0080395D01*
X0233618Y0080697D01*
X0233614Y0081000D01*
X0233618Y0081303D01*
X0233629Y0081605D01*
X0233647Y0081908D01*
X0233673Y0082209D01*
X0233706Y0082511D01*
X0233747Y0082811D01*
X0233795Y0083110D01*
X0233850Y0083407D01*
X0233913Y0083704D01*
X0233982Y0083998D01*
X0234059Y0084291D01*
X0234143Y0084582D01*
X0234234Y0084871D01*
X0234333Y0085158D01*
X0234438Y0085442D01*
X0234550Y0085723D01*
X0234669Y0086002D01*
X0234794Y0086277D01*
X0234927Y0086550D01*
X0235066Y0086819D01*
X0235211Y0087084D01*
X0235363Y0087346D01*
X0235522Y0087604D01*
X0235686Y0087858D01*
X0235857Y0088109D01*
X0236034Y0088354D01*
X0236217Y0088596D01*
X0236405Y0088833D01*
X0236600Y0089065D01*
X0236800Y0089293D01*
X0237005Y0089515D01*
X0237216Y0089732D01*
X0237432Y0089945D01*
X0237653Y0090151D01*
X0237880Y0090353D01*
X0238111Y0090548D01*
X0238346Y0090738D01*
X0238587Y0090923D01*
X0238832Y0091101D01*
X0239081Y0091273D01*
X0239334Y0091439D01*
X0239591Y0091599D01*
X0239852Y0091753D01*
X0240117Y0091900D01*
X0240385Y0092040D01*
X0240657Y0092174D01*
X0240932Y0092302D01*
X0241210Y0092422D01*
X0241490Y0092536D01*
X0241774Y0092643D01*
X0242059Y0092742D01*
X0242348Y0092835D01*
X0242638Y0092921D01*
X0242931Y0093000D01*
X0243225Y0093071D01*
X0243521Y0093135D01*
X0243818Y0093192D01*
X0244117Y0093242D01*
X0244417Y0093284D01*
X0244718Y0093319D01*
X0245019Y0093347D01*
X0245322Y0093367D01*
X0245624Y0093380D01*
X0245927Y0093386D01*
X0246230Y0093384D01*
X0246532Y0093375D01*
X0246835Y0093358D01*
X0247137Y0093334D01*
X0247438Y0093302D01*
X0247738Y0093263D01*
X0248038Y0093217D01*
X0248336Y0093164D01*
X0248632Y0093103D01*
X0248928Y0093035D01*
X0249221Y0092960D01*
X0249512Y0092878D01*
X0249802Y0092788D01*
X0250089Y0092692D01*
X0250373Y0092588D01*
X0250655Y0092478D01*
X0250935Y0092361D01*
X0251211Y0092237D01*
X0251484Y0092106D01*
X0251754Y0091968D01*
X0252020Y0091824D01*
X0252283Y0091674D01*
X0252542Y0091517D01*
X0252798Y0091354D01*
X0253049Y0091185D01*
X0253296Y0091009D01*
X0253538Y0090828D01*
X0253776Y0090641D01*
X0254010Y0090448D01*
X0254238Y0090249D01*
X0254462Y0090045D01*
X0254680Y0089835D01*
X0254894Y0089621D01*
X0255102Y0089400D01*
X0255305Y0089175D01*
X0255502Y0088946D01*
X0255693Y0088711D01*
X0255879Y0088472D01*
X0255804Y0088415D01*
X0255619Y0088653D01*
X0255429Y0088885D01*
X0255234Y0089114D01*
X0255033Y0089337D01*
X0254826Y0089555D01*
X0254614Y0089769D01*
X0254397Y0089977D01*
X0254175Y0090179D01*
X0253948Y0090376D01*
X0253717Y0090568D01*
X0253481Y0090754D01*
X0253240Y0090934D01*
X0252995Y0091108D01*
X0252746Y0091276D01*
X0252492Y0091438D01*
X0252235Y0091593D01*
X0251974Y0091742D01*
X0251710Y0091885D01*
X0251442Y0092022D01*
X0251171Y0092151D01*
X0250897Y0092274D01*
X0250620Y0092391D01*
X0250340Y0092500D01*
X0250057Y0092603D01*
X0249773Y0092699D01*
X0249485Y0092787D01*
X0249196Y0092869D01*
X0248905Y0092944D01*
X0248612Y0093011D01*
X0248318Y0093072D01*
X0248022Y0093125D01*
X0247725Y0093170D01*
X0247427Y0093209D01*
X0247128Y0093240D01*
X0246828Y0093264D01*
X0246528Y0093281D01*
X0246228Y0093290D01*
X0245927Y0093292D01*
X0245627Y0093286D01*
X0245326Y0093274D01*
X0245027Y0093253D01*
X0244727Y0093226D01*
X0244429Y0093191D01*
X0244131Y0093149D01*
X0243835Y0093100D01*
X0243540Y0093043D01*
X0243246Y0092979D01*
X0242954Y0092909D01*
X0242664Y0092831D01*
X0242375Y0092745D01*
X0242089Y0092653D01*
X0241805Y0092554D01*
X0241524Y0092448D01*
X0241246Y0092335D01*
X0240970Y0092216D01*
X0240697Y0092089D01*
X0240428Y0091956D01*
X0240162Y0091817D01*
X0239899Y0091671D01*
X0239640Y0091519D01*
X0239384Y0091360D01*
X0239133Y0091195D01*
X0238886Y0091024D01*
X0238643Y0090847D01*
X0238404Y0090664D01*
X0238170Y0090476D01*
X0237941Y0090282D01*
X0237717Y0090082D01*
X0237497Y0089877D01*
X0237283Y0089666D01*
X0237073Y0089450D01*
X0236869Y0089230D01*
X0236671Y0089004D01*
X0236478Y0088773D01*
X0236291Y0088538D01*
X0236109Y0088299D01*
X0235934Y0088055D01*
X0235764Y0087806D01*
X0235601Y0087554D01*
X0235444Y0087298D01*
X0235293Y0087038D01*
X0235149Y0086774D01*
X0235011Y0086507D01*
X0234879Y0086237D01*
X0234755Y0085964D01*
X0234637Y0085687D01*
X0234526Y0085408D01*
X0234421Y0085126D01*
X0234324Y0084842D01*
X0234233Y0084555D01*
X0234150Y0084266D01*
X0234074Y0083976D01*
X0234004Y0083683D01*
X0233942Y0083389D01*
X0233888Y0083094D01*
X0233840Y0082797D01*
X0233800Y0082499D01*
X0233767Y0082200D01*
X0233741Y0081901D01*
X0233723Y0081601D01*
X0233712Y0081301D01*
X0233708Y0081000D01*
X0233712Y0080699D01*
X0233723Y0080399D01*
X0233741Y0080099D01*
X0233767Y0079800D01*
X0233800Y0079501D01*
X0233840Y0079203D01*
X0233888Y0078906D01*
X0233942Y0078611D01*
X0234004Y0078317D01*
X0234074Y0078024D01*
X0234150Y0077734D01*
X0234233Y0077445D01*
X0234324Y0077158D01*
X0234421Y0076874D01*
X0234526Y0076592D01*
X0234637Y0076313D01*
X0234755Y0076036D01*
X0234879Y0075763D01*
X0235011Y0075493D01*
X0235149Y0075226D01*
X0235293Y0074962D01*
X0235444Y0074702D01*
X0235601Y0074446D01*
X0235764Y0074194D01*
X0235934Y0073945D01*
X0236109Y0073701D01*
X0236291Y0073462D01*
X0236478Y0073227D01*
X0236671Y0072996D01*
X0236869Y0072770D01*
X0237073Y0072550D01*
X0237283Y0072334D01*
X0237497Y0072123D01*
X0237717Y0071918D01*
X0237941Y0071718D01*
X0238170Y0071524D01*
X0238404Y0071336D01*
X0238643Y0071153D01*
X0238886Y0070976D01*
X0239133Y0070805D01*
X0239384Y0070640D01*
X0239640Y0070481D01*
X0239899Y0070329D01*
X0240162Y0070183D01*
X0240428Y0070044D01*
X0240697Y0069911D01*
X0240970Y0069784D01*
X0241246Y0069665D01*
X0241524Y0069552D01*
X0241805Y0069446D01*
X0242089Y0069347D01*
X0242375Y0069255D01*
X0242664Y0069169D01*
X0242954Y0069091D01*
X0243246Y0069021D01*
X0243540Y0068957D01*
X0243835Y0068900D01*
X0244131Y0068851D01*
X0244429Y0068809D01*
X0244727Y0068774D01*
X0245027Y0068747D01*
X0245326Y0068726D01*
X0245627Y0068714D01*
X0245927Y0068708D01*
X0246228Y0068710D01*
X0246528Y0068719D01*
X0246828Y0068736D01*
X0247128Y0068760D01*
X0247427Y0068791D01*
X0247725Y0068830D01*
X0248022Y0068875D01*
X0248318Y0068928D01*
X0248612Y0068989D01*
X0248905Y0069056D01*
X0249196Y0069131D01*
X0249485Y0069213D01*
X0249773Y0069301D01*
X0250057Y0069397D01*
X0250340Y0069500D01*
X0250620Y0069609D01*
X0250897Y0069726D01*
X0251171Y0069849D01*
X0251442Y0069978D01*
X0251710Y0070115D01*
X0251974Y0070258D01*
X0252235Y0070407D01*
X0252492Y0070562D01*
X0252746Y0070724D01*
X0252995Y0070892D01*
X0253240Y0071066D01*
X0253481Y0071246D01*
X0253717Y0071432D01*
X0253948Y0071624D01*
X0254175Y0071821D01*
X0254397Y0072023D01*
X0254614Y0072231D01*
X0254826Y0072445D01*
X0255033Y0072663D01*
X0255234Y0072886D01*
X0255429Y0073115D01*
X0255619Y0073347D01*
X0255804Y0073585D01*
X0255728Y0073641D01*
X0255546Y0073406D01*
X0255357Y0073175D01*
X0255163Y0072948D01*
X0254963Y0072726D01*
X0254758Y0072510D01*
X0254548Y0072298D01*
X0254333Y0072092D01*
X0254113Y0071891D01*
X0253887Y0071695D01*
X0253658Y0071505D01*
X0253423Y0071321D01*
X0253184Y0071142D01*
X0252941Y0070969D01*
X0252694Y0070803D01*
X0252442Y0070642D01*
X0252187Y0070488D01*
X0251928Y0070340D01*
X0251666Y0070198D01*
X0251400Y0070063D01*
X0251131Y0069934D01*
X0250859Y0069812D01*
X0250584Y0069696D01*
X0250306Y0069587D01*
X0250026Y0069486D01*
X0249743Y0069391D01*
X0249458Y0069303D01*
X0249171Y0069222D01*
X0248883Y0069147D01*
X0248592Y0069081D01*
X0248300Y0069021D01*
X0248006Y0068968D01*
X0247711Y0068923D01*
X0247416Y0068884D01*
X0247119Y0068853D01*
X0246822Y0068830D01*
X0246524Y0068813D01*
X0246226Y0068804D01*
X0245928Y0068802D01*
X0245629Y0068808D01*
X0245331Y0068820D01*
X0245034Y0068840D01*
X0244737Y0068868D01*
X0244441Y0068902D01*
X0244145Y0068944D01*
X0243851Y0068993D01*
X0243558Y0069049D01*
X0243267Y0069112D01*
X0242977Y0069183D01*
X0242689Y0069260D01*
X0242403Y0069344D01*
X0242119Y0069436D01*
X0241837Y0069534D01*
X0241558Y0069639D01*
X0241282Y0069751D01*
X0241008Y0069870D01*
X0240738Y0069995D01*
X0240470Y0070127D01*
X0240206Y0070266D01*
X0239945Y0070411D01*
X0239688Y0070562D01*
X0239435Y0070719D01*
X0239186Y0070883D01*
X0238940Y0071053D01*
X0238699Y0071228D01*
X0238462Y0071410D01*
X0238230Y0071597D01*
X0238003Y0071789D01*
X0237780Y0071988D01*
X0237562Y0072191D01*
X0237349Y0072400D01*
X0237141Y0072614D01*
X0236939Y0072834D01*
X0236742Y0073057D01*
X0236551Y0073286D01*
X0236365Y0073520D01*
X0236185Y0073757D01*
X0236011Y0073999D01*
X0235843Y0074246D01*
X0235681Y0074496D01*
X0235525Y0074750D01*
X0235375Y0075008D01*
X0235232Y0075270D01*
X0235095Y0075535D01*
X0234964Y0075803D01*
X0234841Y0076074D01*
X0234724Y0076349D01*
X0234613Y0076626D01*
X0234510Y0076906D01*
X0234413Y0077188D01*
X0234323Y0077472D01*
X0234241Y0077759D01*
X0234165Y0078047D01*
X0234096Y0078337D01*
X0234035Y0078629D01*
X0233980Y0078922D01*
X0233933Y0079217D01*
X0233893Y0079512D01*
X0233860Y0079809D01*
X0233835Y0080106D01*
X0233817Y0080404D01*
X0233806Y0080702D01*
X0233802Y0081000D01*
X0233806Y0081298D01*
X0233817Y0081596D01*
X0233835Y0081894D01*
X0233860Y0082191D01*
X0233893Y0082488D01*
X0233933Y0082783D01*
X0233980Y0083078D01*
X0234035Y0083371D01*
X0234096Y0083663D01*
X0234165Y0083953D01*
X0234241Y0084241D01*
X0234323Y0084528D01*
X0234413Y0084812D01*
X0234510Y0085094D01*
X0234613Y0085374D01*
X0234724Y0085651D01*
X0234841Y0085926D01*
X0234964Y0086197D01*
X0235095Y0086465D01*
X0235232Y0086730D01*
X0235375Y0086992D01*
X0235525Y0087250D01*
X0235681Y0087504D01*
X0235843Y0087754D01*
X0236011Y0088001D01*
X0236185Y0088243D01*
X0236365Y0088480D01*
X0236551Y0088714D01*
X0236742Y0088943D01*
X0236939Y0089166D01*
X0237141Y0089386D01*
X0237349Y0089600D01*
X0237562Y0089809D01*
X0237780Y0090012D01*
X0238003Y0090211D01*
X0238230Y0090403D01*
X0238462Y0090590D01*
X0238699Y0090772D01*
X0238940Y0090947D01*
X0239186Y0091117D01*
X0239435Y0091281D01*
X0239688Y0091438D01*
X0239945Y0091589D01*
X0240206Y0091734D01*
X0240470Y0091873D01*
X0240738Y0092005D01*
X0241008Y0092130D01*
X0241282Y0092249D01*
X0241558Y0092361D01*
X0241837Y0092466D01*
X0242119Y0092564D01*
X0242403Y0092656D01*
X0242689Y0092740D01*
X0242977Y0092817D01*
X0243267Y0092888D01*
X0243558Y0092951D01*
X0243851Y0093007D01*
X0244145Y0093056D01*
X0244441Y0093098D01*
X0244737Y0093132D01*
X0245034Y0093160D01*
X0245331Y0093180D01*
X0245629Y0093192D01*
X0245928Y0093198D01*
X0246226Y0093196D01*
X0246524Y0093187D01*
X0246822Y0093170D01*
X0247119Y0093147D01*
X0247416Y0093116D01*
X0247711Y0093077D01*
X0248006Y0093032D01*
X0248300Y0092979D01*
X0248592Y0092919D01*
X0248883Y0092853D01*
X0249171Y0092778D01*
X0249458Y0092697D01*
X0249743Y0092609D01*
X0250026Y0092514D01*
X0250306Y0092413D01*
X0250584Y0092304D01*
X0250859Y0092188D01*
X0251131Y0092066D01*
X0251400Y0091937D01*
X0251666Y0091802D01*
X0251928Y0091660D01*
X0252187Y0091512D01*
X0252442Y0091358D01*
X0252694Y0091197D01*
X0252941Y0091031D01*
X0253184Y0090858D01*
X0253423Y0090679D01*
X0253658Y0090495D01*
X0253887Y0090305D01*
X0254113Y0090109D01*
X0254333Y0089908D01*
X0254548Y0089702D01*
X0254758Y0089490D01*
X0254963Y0089274D01*
X0255163Y0089052D01*
X0255357Y0088825D01*
X0255546Y0088594D01*
X0255728Y0088359D01*
X0255653Y0088302D01*
X0255472Y0088536D01*
X0255285Y0088765D01*
X0255092Y0088990D01*
X0254894Y0089210D01*
X0254691Y0089425D01*
X0254482Y0089635D01*
X0254268Y0089840D01*
X0254050Y0090039D01*
X0253826Y0090233D01*
X0253598Y0090422D01*
X0253366Y0090605D01*
X0253129Y0090782D01*
X0252887Y0090953D01*
X0252642Y0091119D01*
X0252393Y0091278D01*
X0252139Y0091431D01*
X0251883Y0091578D01*
X0251622Y0091719D01*
X0251358Y0091853D01*
X0251091Y0091981D01*
X0250821Y0092102D01*
X0250549Y0092217D01*
X0250273Y0092325D01*
X0249995Y0092426D01*
X0249714Y0092520D01*
X0249432Y0092607D01*
X0249147Y0092688D01*
X0248860Y0092761D01*
X0248572Y0092828D01*
X0248282Y0092887D01*
X0247990Y0092939D01*
X0247698Y0092984D01*
X0247404Y0093022D01*
X0247110Y0093053D01*
X0246815Y0093077D01*
X0246520Y0093093D01*
X0246224Y0093102D01*
X0245928Y0093104D01*
X0245632Y0093098D01*
X0245336Y0093086D01*
X0245041Y0093066D01*
X0244746Y0093039D01*
X0244452Y0093005D01*
X0244159Y0092963D01*
X0243867Y0092915D01*
X0243577Y0092859D01*
X0243288Y0092796D01*
X0243000Y0092726D01*
X0242714Y0092649D01*
X0242430Y0092566D01*
X0242149Y0092475D01*
X0241869Y0092377D01*
X0241592Y0092273D01*
X0241318Y0092162D01*
X0241047Y0092044D01*
X0240778Y0091920D01*
X0240513Y0091789D01*
X0240251Y0091651D01*
X0239992Y0091508D01*
X0239737Y0091358D01*
X0239485Y0091201D01*
X0239238Y0091039D01*
X0238995Y0090871D01*
X0238755Y0090696D01*
X0238520Y0090516D01*
X0238290Y0090331D01*
X0238064Y0090139D01*
X0237843Y0089943D01*
X0237627Y0089741D01*
X0237416Y0089533D01*
X0237210Y0089321D01*
X0237009Y0089103D01*
X0236813Y0088881D01*
X0236623Y0088654D01*
X0236439Y0088423D01*
X0236261Y0088187D01*
X0236088Y0087947D01*
X0235921Y0087702D01*
X0235760Y0087454D01*
X0235605Y0087201D01*
X0235457Y0086945D01*
X0235315Y0086686D01*
X0235179Y0086423D01*
X0235049Y0086157D01*
X0234927Y0085888D01*
X0234810Y0085615D01*
X0234701Y0085340D01*
X0234598Y0085063D01*
X0234502Y0084783D01*
X0234413Y0084501D01*
X0234331Y0084216D01*
X0234256Y0083930D01*
X0234188Y0083642D01*
X0234127Y0083353D01*
X0234073Y0083062D01*
X0234026Y0082769D01*
X0233986Y0082476D01*
X0233954Y0082182D01*
X0233929Y0081887D01*
X0233910Y0081592D01*
X0233900Y0081296D01*
X0233896Y0081000D01*
X0233900Y0080704D01*
X0233910Y0080408D01*
X0233929Y0080113D01*
X0233954Y0079818D01*
X0233986Y0079524D01*
X0234026Y0079231D01*
X0234073Y0078938D01*
X0234127Y0078647D01*
X0234188Y0078358D01*
X0234256Y0078070D01*
X0234331Y0077784D01*
X0234413Y0077499D01*
X0234502Y0077217D01*
X0234598Y0076937D01*
X0234701Y0076660D01*
X0234810Y0076385D01*
X0234927Y0076112D01*
X0235049Y0075843D01*
X0235179Y0075577D01*
X0235315Y0075314D01*
X0235457Y0075055D01*
X0235605Y0074799D01*
X0235760Y0074546D01*
X0235921Y0074298D01*
X0236088Y0074053D01*
X0236261Y0073813D01*
X0236439Y0073577D01*
X0236623Y0073346D01*
X0236813Y0073119D01*
X0237009Y0072897D01*
X0237210Y0072679D01*
X0237416Y0072467D01*
X0237627Y0072259D01*
X0237843Y0072057D01*
X0238064Y0071861D01*
X0238290Y0071669D01*
X0238520Y0071484D01*
X0238755Y0071304D01*
X0238995Y0071129D01*
X0239238Y0070961D01*
X0239485Y0070799D01*
X0239737Y0070642D01*
X0239992Y0070492D01*
X0240251Y0070349D01*
X0240513Y0070211D01*
X0240778Y0070080D01*
X0241047Y0069956D01*
X0241318Y0069838D01*
X0241592Y0069727D01*
X0241869Y0069623D01*
X0242149Y0069525D01*
X0242430Y0069434D01*
X0242714Y0069351D01*
X0243000Y0069274D01*
X0243288Y0069204D01*
X0243577Y0069141D01*
X0243867Y0069085D01*
X0244159Y0069037D01*
X0244452Y0068995D01*
X0244746Y0068961D01*
X0245041Y0068934D01*
X0245336Y0068914D01*
X0245632Y0068902D01*
X0245928Y0068896D01*
X0246224Y0068898D01*
X0246520Y0068907D01*
X0246815Y0068923D01*
X0247110Y0068947D01*
X0247404Y0068978D01*
X0247698Y0069016D01*
X0247990Y0069061D01*
X0248282Y0069113D01*
X0248572Y0069172D01*
X0248860Y0069239D01*
X0249147Y0069312D01*
X0249432Y0069393D01*
X0249714Y0069480D01*
X0249995Y0069574D01*
X0250273Y0069675D01*
X0250549Y0069783D01*
X0250821Y0069898D01*
X0251091Y0070019D01*
X0251358Y0070147D01*
X0251622Y0070281D01*
X0251883Y0070422D01*
X0252139Y0070569D01*
X0252393Y0070722D01*
X0252642Y0070881D01*
X0252887Y0071047D01*
X0253129Y0071218D01*
X0253366Y0071395D01*
X0253598Y0071578D01*
X0253826Y0071767D01*
X0254050Y0071961D01*
X0254268Y0072160D01*
X0254482Y0072365D01*
X0254691Y0072575D01*
X0254894Y0072790D01*
X0255092Y0073010D01*
X0255285Y0073235D01*
X0255472Y0073464D01*
X0255653Y0073698D01*
D13*
X0131500Y0223500D02*
X0131502Y0223589D01*
X0131508Y0223678D01*
X0131518Y0223767D01*
X0131532Y0223855D01*
X0131549Y0223942D01*
X0131571Y0224028D01*
X0131597Y0224114D01*
X0131626Y0224198D01*
X0131659Y0224281D01*
X0131695Y0224362D01*
X0131736Y0224442D01*
X0131779Y0224519D01*
X0131826Y0224595D01*
X0131877Y0224668D01*
X0131930Y0224739D01*
X0131987Y0224808D01*
X0132047Y0224874D01*
X0132110Y0224938D01*
X0132175Y0224998D01*
X0132243Y0225056D01*
X0132314Y0225110D01*
X0132387Y0225161D01*
X0132462Y0225209D01*
X0132539Y0225254D01*
X0132618Y0225295D01*
X0132699Y0225332D01*
X0132781Y0225366D01*
X0132865Y0225397D01*
X0132950Y0225423D01*
X0133036Y0225446D01*
X0133123Y0225464D01*
X0133211Y0225479D01*
X0133300Y0225490D01*
X0133389Y0225497D01*
X0133478Y0225500D01*
X0133567Y0225499D01*
X0133656Y0225494D01*
X0133744Y0225485D01*
X0133833Y0225472D01*
X0133920Y0225455D01*
X0134007Y0225435D01*
X0134093Y0225410D01*
X0134177Y0225382D01*
X0134260Y0225350D01*
X0134342Y0225314D01*
X0134422Y0225275D01*
X0134500Y0225232D01*
X0134576Y0225186D01*
X0134650Y0225136D01*
X0134722Y0225083D01*
X0134791Y0225027D01*
X0134858Y0224968D01*
X0134922Y0224906D01*
X0134983Y0224842D01*
X0135042Y0224774D01*
X0135097Y0224704D01*
X0135149Y0224632D01*
X0135198Y0224557D01*
X0135243Y0224481D01*
X0135285Y0224402D01*
X0135323Y0224322D01*
X0135358Y0224240D01*
X0135389Y0224156D01*
X0135417Y0224071D01*
X0135440Y0223985D01*
X0135460Y0223898D01*
X0135476Y0223811D01*
X0135488Y0223722D01*
X0135496Y0223634D01*
X0135500Y0223545D01*
X0135500Y0223455D01*
X0135496Y0223366D01*
X0135488Y0223278D01*
X0135476Y0223189D01*
X0135460Y0223102D01*
X0135440Y0223015D01*
X0135417Y0222929D01*
X0135389Y0222844D01*
X0135358Y0222760D01*
X0135323Y0222678D01*
X0135285Y0222598D01*
X0135243Y0222519D01*
X0135198Y0222443D01*
X0135149Y0222368D01*
X0135097Y0222296D01*
X0135042Y0222226D01*
X0134983Y0222158D01*
X0134922Y0222094D01*
X0134858Y0222032D01*
X0134791Y0221973D01*
X0134722Y0221917D01*
X0134650Y0221864D01*
X0134576Y0221814D01*
X0134500Y0221768D01*
X0134422Y0221725D01*
X0134342Y0221686D01*
X0134260Y0221650D01*
X0134177Y0221618D01*
X0134093Y0221590D01*
X0134007Y0221565D01*
X0133920Y0221545D01*
X0133833Y0221528D01*
X0133744Y0221515D01*
X0133656Y0221506D01*
X0133567Y0221501D01*
X0133478Y0221500D01*
X0133389Y0221503D01*
X0133300Y0221510D01*
X0133211Y0221521D01*
X0133123Y0221536D01*
X0133036Y0221554D01*
X0132950Y0221577D01*
X0132865Y0221603D01*
X0132781Y0221634D01*
X0132699Y0221668D01*
X0132618Y0221705D01*
X0132539Y0221746D01*
X0132462Y0221791D01*
X0132387Y0221839D01*
X0132314Y0221890D01*
X0132243Y0221944D01*
X0132175Y0222002D01*
X0132110Y0222062D01*
X0132047Y0222126D01*
X0131987Y0222192D01*
X0131930Y0222261D01*
X0131877Y0222332D01*
X0131826Y0222405D01*
X0131779Y0222481D01*
X0131736Y0222558D01*
X0131695Y0222638D01*
X0131659Y0222719D01*
X0131626Y0222802D01*
X0131597Y0222886D01*
X0131571Y0222972D01*
X0131549Y0223058D01*
X0131532Y0223145D01*
X0131518Y0223233D01*
X0131508Y0223322D01*
X0131502Y0223411D01*
X0131500Y0223500D01*
M02*
