G75*
%MOIN*%
%OFA0B0*%
%FSLAX25Y25*%
%IPPOS*%
%LPD*%
%AMOC8*
5,1,8,0,0,1.08239X$1,22.5*
%
%ADD10C,0.00000*%
%ADD11OC8,0.06000*%
%ADD12C,0.07400*%
%ADD13OC8,0.07400*%
%ADD14C,0.05976*%
%ADD15C,0.06000*%
%ADD16R,0.21693X0.09409*%
%ADD17R,0.05512X0.05472*%
%ADD18R,0.19134X0.13228*%
%ADD19R,0.09055X0.06102*%
%ADD20R,0.05150X0.05150*%
%ADD21C,0.05150*%
%ADD22R,0.14370X0.20079*%
%ADD23C,0.05701*%
%ADD24R,0.04921X0.13386*%
%ADD25R,0.13386X0.04331*%
%ADD26R,0.05200X0.02200*%
%ADD27C,0.02400*%
%ADD28C,0.01000*%
%ADD29C,0.03200*%
%ADD30C,0.04000*%
%ADD31C,0.01200*%
%ADD32C,0.01600*%
%ADD33C,0.03962*%
D10*
X0001000Y0041250D02*
X0001000Y0429951D01*
X0365921Y0429951D01*
X0365921Y0041250D01*
X0001000Y0041250D01*
D11*
X0196000Y0161250D03*
X0221000Y0161250D03*
D12*
X0196000Y0221250D03*
X0166000Y0221250D03*
X0171000Y0261250D03*
X0201000Y0261250D03*
X0236000Y0291250D03*
X0236000Y0321250D03*
X0271000Y0321250D03*
X0271000Y0291250D03*
X0306000Y0286250D03*
X0306000Y0276250D03*
X0306000Y0266250D03*
X0306000Y0256250D03*
X0306000Y0246250D03*
X0306000Y0236250D03*
X0306000Y0226250D03*
X0306000Y0206250D03*
X0306000Y0196250D03*
X0306000Y0186250D03*
X0306000Y0176250D03*
X0306000Y0166250D03*
X0306000Y0156250D03*
X0306000Y0146250D03*
X0306000Y0136250D03*
X0306000Y0296250D03*
X0306000Y0316250D03*
X0306000Y0326250D03*
X0306000Y0336250D03*
X0306000Y0346250D03*
X0306000Y0356250D03*
X0306000Y0366250D03*
X0306000Y0376250D03*
X0306000Y0386250D03*
X0286000Y0396250D03*
X0286000Y0406250D03*
X0201000Y0316250D03*
X0171000Y0316250D03*
X0116000Y0316250D03*
X0116000Y0306250D03*
X0116000Y0296250D03*
X0116000Y0276250D03*
X0116000Y0266250D03*
X0116000Y0256250D03*
X0116000Y0246250D03*
X0116000Y0236250D03*
X0116000Y0226250D03*
X0116000Y0216250D03*
X0116000Y0206250D03*
X0116000Y0191250D03*
X0116000Y0181250D03*
X0116000Y0171250D03*
X0116000Y0161250D03*
X0116000Y0151250D03*
X0116000Y0141250D03*
X0116000Y0131250D03*
X0116000Y0121250D03*
X0116000Y0111250D03*
X0116000Y0101250D03*
X0086000Y0101250D03*
X0086000Y0086250D03*
X0086000Y0056250D03*
X0086000Y0131250D03*
X0086000Y0156250D03*
X0086000Y0186250D03*
X0086000Y0206250D03*
X0086000Y0236250D03*
X0091000Y0256250D03*
X0091000Y0286250D03*
X0116000Y0326250D03*
X0116000Y0336250D03*
X0116000Y0346250D03*
X0116000Y0356250D03*
X0116000Y0366250D03*
X0116000Y0396250D03*
X0116000Y0406250D03*
D13*
X0126000Y0406250D03*
X0126000Y0396250D03*
X0136000Y0396250D03*
X0146000Y0396250D03*
X0146000Y0406250D03*
X0136000Y0406250D03*
X0156000Y0406250D03*
X0156000Y0396250D03*
X0166000Y0396250D03*
X0176000Y0396250D03*
X0176000Y0406250D03*
X0166000Y0406250D03*
X0186000Y0406250D03*
X0186000Y0396250D03*
X0196000Y0396250D03*
X0196000Y0406250D03*
X0206000Y0406250D03*
X0216000Y0406250D03*
X0216000Y0396250D03*
X0206000Y0396250D03*
X0226000Y0396250D03*
X0226000Y0406250D03*
X0236000Y0406250D03*
X0236000Y0396250D03*
X0246000Y0396250D03*
X0256000Y0396250D03*
X0256000Y0406250D03*
X0246000Y0406250D03*
X0266000Y0406250D03*
X0266000Y0396250D03*
X0276000Y0396250D03*
X0276000Y0406250D03*
D14*
X0191039Y0356289D03*
X0191039Y0336211D03*
X0170961Y0336211D03*
X0170961Y0356289D03*
D15*
X0094000Y0361250D02*
X0088000Y0361250D01*
X0088000Y0351250D02*
X0094000Y0351250D01*
X0094000Y0341250D02*
X0088000Y0341250D01*
X0088000Y0331250D02*
X0094000Y0331250D01*
X0064000Y0331250D02*
X0058000Y0331250D01*
X0058000Y0341250D02*
X0064000Y0341250D01*
X0064000Y0351250D02*
X0058000Y0351250D01*
X0058000Y0361250D02*
X0064000Y0361250D01*
X0081000Y0398250D02*
X0081000Y0404250D01*
X0091000Y0404250D02*
X0091000Y0398250D01*
X0064000Y0276250D02*
X0058000Y0276250D01*
X0058000Y0266250D02*
X0064000Y0266250D01*
X0063000Y0226250D02*
X0069000Y0226250D01*
X0069000Y0216250D02*
X0063000Y0216250D01*
X0063000Y0181250D02*
X0069000Y0181250D01*
X0069000Y0171250D02*
X0063000Y0171250D01*
X0063000Y0161250D02*
X0069000Y0161250D01*
X0069000Y0131250D02*
X0063000Y0131250D01*
X0063000Y0121250D02*
X0069000Y0121250D01*
X0069000Y0111250D02*
X0063000Y0111250D01*
X0063000Y0081250D02*
X0069000Y0081250D01*
X0069000Y0071250D02*
X0063000Y0071250D01*
X0063000Y0061250D02*
X0069000Y0061250D01*
X0118000Y0061250D02*
X0124000Y0061250D01*
X0124000Y0051250D02*
X0118000Y0051250D01*
X0024000Y0201250D02*
X0018000Y0201250D01*
X0018000Y0211250D02*
X0024000Y0211250D01*
D16*
X0176000Y0110148D03*
X0176000Y0092352D03*
D17*
X0221677Y0079872D03*
X0221677Y0072628D03*
D18*
X0206000Y0076250D03*
D19*
X0199465Y0186250D03*
X0182535Y0186250D03*
D20*
X0246000Y0241250D03*
X0171000Y0301250D03*
X0261000Y0341250D03*
D21*
X0261000Y0351250D03*
X0231000Y0351250D03*
X0231000Y0341250D03*
X0208402Y0301250D03*
X0246000Y0271250D03*
X0256000Y0271250D03*
X0256000Y0241250D03*
D22*
X0251906Y0116250D03*
X0290094Y0116250D03*
D23*
X0191709Y0241289D03*
X0186000Y0238337D03*
X0180291Y0241289D03*
D24*
X0243992Y0201250D03*
X0268008Y0201250D03*
D25*
X0141000Y0108258D03*
X0141000Y0084242D03*
D26*
X0205600Y0102550D03*
X0205600Y0109950D03*
X0216400Y0109950D03*
X0216400Y0106250D03*
X0216400Y0102550D03*
D27*
X0217700Y0101250D01*
X0217700Y0099550D01*
X0226000Y0091250D01*
X0226000Y0084195D01*
X0221677Y0079872D01*
X0222250Y0078750D02*
X0222250Y0073750D01*
X0206000Y0076250D02*
X0206000Y0092500D01*
X0176000Y0092500D01*
X0176000Y0092352D02*
X0167890Y0084242D01*
X0141000Y0084242D01*
X0136000Y0079242D01*
X0136000Y0056250D01*
X0131000Y0051250D01*
X0121000Y0051250D01*
X0121000Y0061250D02*
X0113500Y0068750D01*
X0108500Y0073750D01*
X0131000Y0096250D01*
X0156000Y0096250D01*
X0169750Y0110000D01*
X0178500Y0107500D02*
X0194750Y0107500D01*
X0196000Y0106250D01*
X0209750Y0106250D01*
X0211000Y0106250D02*
X0211000Y0121250D01*
X0209750Y0122500D01*
X0209750Y0160000D01*
X0206000Y0163750D01*
X0206000Y0171250D01*
X0201000Y0176250D01*
X0201000Y0184715D01*
X0199465Y0186250D01*
X0191000Y0201250D02*
X0243992Y0201250D01*
X0268008Y0201250D02*
X0271000Y0198258D01*
X0271000Y0186250D01*
X0216400Y0131650D01*
X0216400Y0109950D01*
X0216400Y0106250D02*
X0211000Y0106250D01*
X0206000Y0102500D02*
X0205650Y0102500D01*
X0205600Y0102550D01*
X0206000Y0102500D02*
X0206000Y0092500D01*
X0217700Y0101250D02*
X0276000Y0101250D01*
X0289750Y0115000D01*
X0251000Y0116250D02*
X0241000Y0126250D01*
X0205600Y0109950D02*
X0202300Y0109950D01*
X0191000Y0121250D01*
X0153992Y0121250D01*
X0141000Y0108258D01*
X0108500Y0073750D02*
X0096000Y0086250D01*
X0086000Y0086250D01*
X0116000Y0161250D02*
X0141000Y0186250D01*
X0182535Y0186250D01*
X0183500Y0186250D02*
X0183500Y0193750D01*
X0191000Y0201250D01*
X0196000Y0161250D02*
X0205600Y0151650D01*
X0205600Y0109950D01*
D28*
X0217250Y0080000D02*
X0221000Y0080000D01*
X0221677Y0079872D01*
X0222250Y0078750D01*
X0222250Y0073750D02*
X0221677Y0072628D01*
X0251000Y0116250D02*
X0251906Y0116250D01*
X0289750Y0116250D02*
X0290094Y0116250D01*
X0199750Y0186250D02*
X0199465Y0186250D01*
X0183500Y0186250D02*
X0182535Y0186250D01*
X0196000Y0221250D02*
X0236000Y0221250D01*
X0256000Y0241250D01*
X0246000Y0271250D02*
X0266000Y0291250D01*
X0271000Y0291250D01*
X0276000Y0291250D01*
X0276000Y0333750D01*
X0263500Y0346250D01*
X0116000Y0346250D01*
X0113500Y0341250D02*
X0098500Y0356250D01*
X0098500Y0393750D01*
X0088500Y0393750D01*
X0081000Y0401250D01*
X0091000Y0401250D02*
X0094750Y0401250D01*
X0106000Y0390000D01*
X0106000Y0381250D01*
X0111000Y0376250D01*
X0171000Y0376250D01*
X0190961Y0356289D01*
X0191039Y0356289D01*
X0170961Y0336211D02*
X0169750Y0336250D01*
X0164750Y0341250D01*
X0113500Y0341250D01*
X0116000Y0336250D02*
X0136000Y0316250D01*
X0171000Y0316250D01*
X0201000Y0316250D02*
X0261000Y0316250D01*
X0261000Y0341250D01*
X0271000Y0321250D02*
X0261000Y0311250D01*
X0071000Y0311250D01*
X0091000Y0331250D01*
X0086000Y0331250D01*
X0076000Y0341250D01*
X0061000Y0341250D01*
X0068500Y0311250D02*
X0071000Y0311250D01*
X0068500Y0311250D02*
X0068500Y0277500D01*
X0062250Y0277500D01*
X0061000Y0276250D01*
X0053500Y0268750D01*
X0053500Y0226250D01*
X0036000Y0226250D01*
X0021000Y0211250D01*
X0021000Y0201250D02*
X0041000Y0181250D01*
X0066000Y0181250D01*
X0081000Y0181250D01*
X0086000Y0186250D01*
X0086000Y0206250D02*
X0076000Y0206250D01*
X0066000Y0216250D01*
X0066000Y0226250D02*
X0053500Y0226250D01*
X0081000Y0246250D02*
X0061000Y0266250D01*
X0071000Y0266250D01*
X0076000Y0271250D01*
X0076000Y0281250D01*
X0081000Y0286250D01*
X0091000Y0286250D01*
X0101000Y0286250D02*
X0106000Y0286250D01*
X0116000Y0276250D01*
X0096000Y0246250D02*
X0081000Y0246250D01*
X0096000Y0246250D02*
X0101000Y0241250D01*
X0101000Y0231250D01*
X0116000Y0216250D01*
X0116000Y0206250D02*
X0086000Y0206250D01*
X0116000Y0191250D02*
X0086000Y0161250D01*
X0086000Y0156250D01*
X0081000Y0156250D01*
X0066000Y0171250D01*
X0061000Y0146250D02*
X0056000Y0141250D01*
X0056000Y0126250D01*
X0061000Y0121250D01*
X0066000Y0121250D01*
X0076000Y0121250D01*
X0086000Y0111250D01*
X0086000Y0101250D01*
X0086000Y0086250D02*
X0071000Y0086250D01*
X0066000Y0081250D01*
X0066000Y0071250D02*
X0076000Y0071250D01*
X0086000Y0061250D01*
X0086000Y0056250D01*
X0086000Y0131250D02*
X0066000Y0131250D01*
X0061000Y0146250D02*
X0091000Y0146250D01*
X0101000Y0156250D01*
X0101000Y0166250D01*
X0116000Y0181250D01*
X0116000Y0131250D02*
X0086000Y0131250D01*
X0176000Y0110148D02*
X0176000Y0110000D01*
X0178500Y0107500D01*
X0176000Y0092500D02*
X0176000Y0092352D01*
X0186000Y0238337D02*
X0186000Y0256250D01*
X0191000Y0261250D01*
X0201000Y0261250D01*
X0218500Y0291250D02*
X0236000Y0291250D01*
X0218500Y0291250D02*
X0208500Y0301250D01*
X0208402Y0301250D01*
D29*
X0289750Y0116250D02*
X0289750Y0115000D01*
X0211000Y0107500D02*
X0210375Y0106875D01*
X0211000Y0106250D01*
X0210375Y0106875D02*
X0209750Y0106250D01*
X0176000Y0110000D02*
X0169750Y0110000D01*
D30*
X0241000Y0126250D03*
D31*
X0211000Y0107500D02*
X0209750Y0107500D01*
D32*
X0306000Y0186250D02*
X0271000Y0221250D01*
X0271000Y0266250D01*
X0266000Y0271250D01*
X0256000Y0271250D01*
D33*
X0101000Y0286250D03*
M02*
