G75*
%MOIN*%
%OFA0B0*%
%FSLAX25Y25*%
%IPPOS*%
%LPD*%
%AMOC8*
5,1,8,0,0,1.08239X$1,22.5*
%
%ADD10OC8,0.06800*%
%ADD11C,0.08200*%
%ADD12OC8,0.08200*%
%ADD13C,0.06776*%
%ADD14C,0.06800*%
%ADD15R,0.05950X0.05950*%
%ADD16C,0.05950*%
%ADD17C,0.06501*%
%ADD18C,0.04800*%
%ADD19C,0.04762*%
D10*
X0196000Y0161250D03*
X0221000Y0161250D03*
D11*
X0196000Y0221250D03*
X0166000Y0221250D03*
X0171000Y0261250D03*
X0201000Y0261250D03*
X0236000Y0291250D03*
X0236000Y0321250D03*
X0271000Y0321250D03*
X0271000Y0291250D03*
X0306000Y0286250D03*
X0306000Y0276250D03*
X0306000Y0266250D03*
X0306000Y0256250D03*
X0306000Y0246250D03*
X0306000Y0236250D03*
X0306000Y0226250D03*
X0306000Y0206250D03*
X0306000Y0196250D03*
X0306000Y0186250D03*
X0306000Y0176250D03*
X0306000Y0166250D03*
X0306000Y0156250D03*
X0306000Y0146250D03*
X0306000Y0136250D03*
X0306000Y0296250D03*
X0306000Y0316250D03*
X0306000Y0326250D03*
X0306000Y0336250D03*
X0306000Y0346250D03*
X0306000Y0356250D03*
X0306000Y0366250D03*
X0306000Y0376250D03*
X0306000Y0386250D03*
X0286000Y0396250D03*
X0286000Y0406250D03*
X0201000Y0316250D03*
X0171000Y0316250D03*
X0116000Y0316250D03*
X0116000Y0306250D03*
X0116000Y0296250D03*
X0116000Y0276250D03*
X0116000Y0266250D03*
X0116000Y0256250D03*
X0116000Y0246250D03*
X0116000Y0236250D03*
X0116000Y0226250D03*
X0116000Y0216250D03*
X0116000Y0206250D03*
X0116000Y0191250D03*
X0116000Y0181250D03*
X0116000Y0171250D03*
X0116000Y0161250D03*
X0116000Y0151250D03*
X0116000Y0141250D03*
X0116000Y0131250D03*
X0116000Y0121250D03*
X0116000Y0111250D03*
X0116000Y0101250D03*
X0086000Y0101250D03*
X0086000Y0086250D03*
X0086000Y0056250D03*
X0086000Y0131250D03*
X0086000Y0156250D03*
X0086000Y0186250D03*
X0086000Y0206250D03*
X0086000Y0236250D03*
X0091000Y0256250D03*
X0091000Y0286250D03*
X0116000Y0326250D03*
X0116000Y0336250D03*
X0116000Y0346250D03*
X0116000Y0356250D03*
X0116000Y0366250D03*
X0116000Y0396250D03*
X0116000Y0406250D03*
D12*
X0126000Y0406250D03*
X0126000Y0396250D03*
X0136000Y0396250D03*
X0146000Y0396250D03*
X0146000Y0406250D03*
X0136000Y0406250D03*
X0156000Y0406250D03*
X0156000Y0396250D03*
X0166000Y0396250D03*
X0176000Y0396250D03*
X0176000Y0406250D03*
X0166000Y0406250D03*
X0186000Y0406250D03*
X0186000Y0396250D03*
X0196000Y0396250D03*
X0196000Y0406250D03*
X0206000Y0406250D03*
X0216000Y0406250D03*
X0216000Y0396250D03*
X0206000Y0396250D03*
X0226000Y0396250D03*
X0226000Y0406250D03*
X0236000Y0406250D03*
X0236000Y0396250D03*
X0246000Y0396250D03*
X0256000Y0396250D03*
X0256000Y0406250D03*
X0246000Y0406250D03*
X0266000Y0406250D03*
X0266000Y0396250D03*
X0276000Y0396250D03*
X0276000Y0406250D03*
D13*
X0191039Y0356289D03*
X0191039Y0336211D03*
X0170961Y0336211D03*
X0170961Y0356289D03*
D14*
X0069000Y0061250D02*
X0063000Y0061250D01*
X0063000Y0071250D02*
X0069000Y0071250D01*
X0069000Y0081250D02*
X0063000Y0081250D01*
X0063000Y0111250D02*
X0069000Y0111250D01*
X0069000Y0121250D02*
X0063000Y0121250D01*
X0063000Y0131250D02*
X0069000Y0131250D01*
X0069000Y0161250D02*
X0063000Y0161250D01*
X0063000Y0171250D02*
X0069000Y0171250D01*
X0069000Y0181250D02*
X0063000Y0181250D01*
X0063000Y0216250D02*
X0069000Y0216250D01*
X0069000Y0226250D02*
X0063000Y0226250D01*
X0064000Y0266250D02*
X0058000Y0266250D01*
X0058000Y0276250D02*
X0064000Y0276250D01*
X0064000Y0331250D02*
X0058000Y0331250D01*
X0058000Y0341250D02*
X0064000Y0341250D01*
X0064000Y0351250D02*
X0058000Y0351250D01*
X0058000Y0361250D02*
X0064000Y0361250D01*
X0088000Y0361250D02*
X0094000Y0361250D01*
X0094000Y0351250D02*
X0088000Y0351250D01*
X0088000Y0341250D02*
X0094000Y0341250D01*
X0094000Y0331250D02*
X0088000Y0331250D01*
X0091000Y0398250D02*
X0091000Y0404250D01*
X0081000Y0404250D02*
X0081000Y0398250D01*
X0024000Y0211250D02*
X0018000Y0211250D01*
X0018000Y0201250D02*
X0024000Y0201250D01*
X0118000Y0061250D02*
X0124000Y0061250D01*
X0124000Y0051250D02*
X0118000Y0051250D01*
D15*
X0246000Y0241250D03*
X0171000Y0301250D03*
X0261000Y0341250D03*
D16*
X0261000Y0351250D03*
X0231000Y0351250D03*
X0231000Y0341250D03*
X0208402Y0301250D03*
X0246000Y0271250D03*
X0256000Y0271250D03*
X0256000Y0241250D03*
D17*
X0191709Y0241289D03*
X0186000Y0238337D03*
X0180291Y0241289D03*
D18*
X0241000Y0126250D03*
D19*
X0101000Y0286250D03*
M02*
