%
M48
M72
T01C0.02362
T02C0.02400
T03C0.03150
T04C0.03543
T05C0.03701
T06C0.03976
T07C0.04000
%
T01
X101000Y286250
T02
X241000Y126250
T03
X246000Y241250
X256000Y241250
X256000Y271250
X246000Y271250
X208402Y301250
X171000Y301250
X231000Y341250
X231000Y351250
X261000Y351250
X261000Y341250
T04
X271000Y321250
X271000Y291250
X236000Y291250
X236000Y321250
X201000Y316250
X171000Y316250
X171000Y261250
X201000Y261250
X196000Y221250
X166000Y221250
X91000Y256250
X86000Y236250
X86000Y206250
X86000Y186250
X86000Y156250
X86000Y131250
X86000Y101250
X86000Y86250
X86000Y56250
X91000Y286250
T05
X180291Y241289
X186000Y238337
X191709Y241289
T06
X191039Y336211
X191039Y356289
X170961Y356289
X170961Y336211
T07
X66000Y61250
X66000Y71250
X66000Y81250
X66000Y111250
X66000Y121250
X66000Y131250
X66000Y161250
X66000Y171250
X66000Y181250
X66000Y216250
X66000Y226250
X61000Y266250
X61000Y276250
X61000Y331250
X61000Y341250
X61000Y351250
X61000Y361250
X91000Y361250
X91000Y351250
X91000Y341250
X91000Y331250
X116000Y326250
X116000Y316250
X116000Y306250
X116000Y296250
X116000Y276250
X116000Y266250
X116000Y256250
X116000Y246250
X116000Y236250
X116000Y226250
X116000Y216250
X116000Y206250
X116000Y191250
X116000Y181250
X116000Y171250
X116000Y161250
X116000Y151250
X116000Y141250
X116000Y131250
X116000Y121250
X116000Y111250
X116000Y101250
X121000Y61250
X121000Y51250
X196000Y161250
X221000Y161250
X306000Y156250
X306000Y166250
X306000Y176250
X306000Y186250
X306000Y196250
X306000Y206250
X306000Y226250
X306000Y236250
X306000Y246250
X306000Y256250
X306000Y266250
X306000Y276250
X306000Y286250
X306000Y296250
X306000Y316250
X306000Y326250
X306000Y336250
X306000Y346250
X306000Y356250
X306000Y366250
X306000Y376250
X306000Y386250
X286000Y396250
X276000Y396250
X276000Y406250
X286000Y406250
X266000Y406250
X266000Y396250
X256000Y396250
X246000Y396250
X246000Y406250
X256000Y406250
X236000Y406250
X236000Y396250
X226000Y396250
X226000Y406250
X216000Y406250
X206000Y406250
X206000Y396250
X216000Y396250
X196000Y396250
X196000Y406250
X186000Y406250
X186000Y396250
X176000Y396250
X166000Y396250
X166000Y406250
X176000Y406250
X156000Y406250
X156000Y396250
X146000Y396250
X136000Y396250
X136000Y406250
X146000Y406250
X126000Y406250
X126000Y396250
X116000Y396250
X116000Y406250
X91000Y401250
X81000Y401250
X116000Y366250
X116000Y356250
X116000Y346250
X116000Y336250
X21000Y211250
X21000Y201250
X306000Y146250
X306000Y136250
M30
