G75*
%MOIN*%
%OFA0B0*%
%FSLAX25Y25*%
%IPPOS*%
%LPD*%
%AMOC8*
5,1,8,0,0,1.08239X$1,22.5*
%
%ADD10C,0.00600*%
%ADD11C,0.00787*%
%ADD12C,0.00800*%
D10*
X0061000Y0058750D02*
X0063500Y0056250D01*
X0068500Y0056250D01*
X0071000Y0058750D01*
X0071000Y0063750D01*
X0068500Y0066250D01*
X0071000Y0068750D01*
X0071000Y0073750D01*
X0068500Y0076250D01*
X0071000Y0078750D01*
X0071000Y0083750D01*
X0068500Y0086250D01*
X0063500Y0086250D01*
X0061000Y0083750D01*
X0061000Y0078750D01*
X0063500Y0076250D01*
X0068500Y0076250D01*
X0063500Y0076250D02*
X0061000Y0073750D01*
X0061000Y0068750D01*
X0063500Y0066250D01*
X0068500Y0066250D01*
X0063500Y0066250D02*
X0061000Y0063750D01*
X0061000Y0058750D01*
X0063500Y0106250D02*
X0061000Y0108750D01*
X0061000Y0113750D01*
X0063500Y0116250D01*
X0061000Y0118750D01*
X0061000Y0123750D01*
X0063500Y0126250D01*
X0061000Y0128750D01*
X0061000Y0133750D01*
X0063500Y0136250D01*
X0068500Y0136250D01*
X0071000Y0133750D01*
X0071000Y0128750D01*
X0068500Y0126250D01*
X0071000Y0123750D01*
X0071000Y0118750D01*
X0068500Y0116250D01*
X0071000Y0113750D01*
X0071000Y0108750D01*
X0068500Y0106250D01*
X0063500Y0106250D01*
X0063500Y0116250D02*
X0068500Y0116250D01*
X0068500Y0126250D02*
X0063500Y0126250D01*
X0063500Y0156250D02*
X0061000Y0158750D01*
X0061000Y0163750D01*
X0063500Y0166250D01*
X0061000Y0168750D01*
X0061000Y0173750D01*
X0063500Y0176250D01*
X0061000Y0178750D01*
X0061000Y0183750D01*
X0063500Y0186250D01*
X0068500Y0186250D01*
X0071000Y0183750D01*
X0071000Y0178750D01*
X0068500Y0176250D01*
X0071000Y0173750D01*
X0071000Y0168750D01*
X0068500Y0166250D01*
X0071000Y0163750D01*
X0071000Y0158750D01*
X0068500Y0156250D01*
X0063500Y0156250D01*
X0063500Y0166250D02*
X0068500Y0166250D01*
X0068500Y0176250D02*
X0063500Y0176250D01*
X0063500Y0211250D02*
X0061000Y0213750D01*
X0061000Y0218750D01*
X0063500Y0221250D01*
X0061000Y0223750D01*
X0061000Y0228750D01*
X0063500Y0231250D01*
X0068500Y0231250D01*
X0071000Y0228750D01*
X0071000Y0223750D01*
X0068500Y0221250D01*
X0071000Y0218750D01*
X0071000Y0213750D01*
X0068500Y0211250D01*
X0063500Y0211250D01*
X0063500Y0221250D02*
X0068500Y0221250D01*
X0063500Y0261250D02*
X0058500Y0261250D01*
X0056000Y0263750D01*
X0056000Y0268750D01*
X0058500Y0271250D01*
X0056000Y0273750D01*
X0056000Y0278750D01*
X0058500Y0281250D01*
X0063500Y0281250D01*
X0066000Y0278750D01*
X0066000Y0273750D01*
X0063500Y0271250D01*
X0066000Y0268750D01*
X0066000Y0263750D01*
X0063500Y0261250D01*
X0063500Y0271250D02*
X0058500Y0271250D01*
X0023500Y0216250D02*
X0018500Y0216250D01*
X0016000Y0213750D01*
X0016000Y0208750D01*
X0018500Y0206250D01*
X0016000Y0203750D01*
X0016000Y0198750D01*
X0018500Y0196250D01*
X0023500Y0196250D01*
X0026000Y0198750D01*
X0026000Y0203750D01*
X0023500Y0206250D01*
X0018500Y0206250D01*
X0023500Y0206250D02*
X0026000Y0208750D01*
X0026000Y0213750D01*
X0023500Y0216250D01*
X0058500Y0326250D02*
X0056000Y0328750D01*
X0056000Y0333750D01*
X0058500Y0336250D01*
X0056000Y0338750D01*
X0056000Y0343750D01*
X0058500Y0346250D01*
X0063500Y0346250D01*
X0066000Y0343750D01*
X0066000Y0338750D01*
X0063500Y0336250D01*
X0066000Y0333750D01*
X0066000Y0328750D01*
X0063500Y0326250D01*
X0058500Y0326250D01*
X0058500Y0336250D02*
X0063500Y0336250D01*
X0063500Y0346250D02*
X0066000Y0348750D01*
X0066000Y0353750D01*
X0063500Y0356250D01*
X0066000Y0358750D01*
X0066000Y0363750D01*
X0063500Y0366250D01*
X0058500Y0366250D01*
X0056000Y0363750D01*
X0056000Y0358750D01*
X0058500Y0356250D01*
X0063500Y0356250D01*
X0058500Y0356250D02*
X0056000Y0353750D01*
X0056000Y0348750D01*
X0058500Y0346250D01*
X0086000Y0343750D02*
X0086000Y0338750D01*
X0088500Y0336250D01*
X0093500Y0336250D01*
X0096000Y0338750D01*
X0096000Y0343750D01*
X0093500Y0346250D01*
X0088500Y0346250D01*
X0086000Y0343750D01*
X0088500Y0346250D02*
X0086000Y0348750D01*
X0086000Y0353750D01*
X0088500Y0356250D01*
X0086000Y0358750D01*
X0086000Y0363750D01*
X0088500Y0366250D01*
X0093500Y0366250D01*
X0096000Y0363750D01*
X0096000Y0358750D01*
X0093500Y0356250D01*
X0096000Y0353750D01*
X0096000Y0348750D01*
X0093500Y0346250D01*
X0093500Y0356250D02*
X0088500Y0356250D01*
X0088500Y0336250D02*
X0086000Y0333750D01*
X0086000Y0328750D01*
X0088500Y0326250D01*
X0093500Y0326250D01*
X0096000Y0328750D01*
X0096000Y0333750D01*
X0093500Y0336250D01*
X0093500Y0396250D02*
X0088500Y0396250D01*
X0086000Y0398750D01*
X0083500Y0396250D01*
X0078500Y0396250D01*
X0076000Y0398750D01*
X0076000Y0403750D01*
X0078500Y0406250D01*
X0083500Y0406250D01*
X0086000Y0403750D01*
X0088500Y0406250D01*
X0093500Y0406250D01*
X0096000Y0403750D01*
X0096000Y0398750D01*
X0093500Y0396250D01*
X0086000Y0398750D02*
X0086000Y0403750D01*
X0193500Y0166250D02*
X0191000Y0163750D01*
X0191000Y0158750D01*
X0193500Y0156250D01*
X0198500Y0156250D01*
X0201000Y0158750D01*
X0201000Y0163750D01*
X0198500Y0166250D01*
X0193500Y0166250D01*
X0216000Y0163750D02*
X0216000Y0158750D01*
X0218500Y0156250D01*
X0223500Y0156250D01*
X0226000Y0158750D01*
X0226000Y0163750D01*
X0223500Y0166250D01*
X0218500Y0166250D01*
X0216000Y0163750D01*
X0213500Y0112350D02*
X0208500Y0112350D01*
X0207500Y0107550D02*
X0207500Y0104950D01*
X0208500Y0100150D02*
X0209800Y0100150D01*
X0212200Y0100150D01*
X0213500Y0100150D01*
X0212200Y0100150D02*
X0212198Y0100219D01*
X0212192Y0100287D01*
X0212182Y0100355D01*
X0212169Y0100422D01*
X0212151Y0100488D01*
X0212130Y0100553D01*
X0212105Y0100617D01*
X0212077Y0100679D01*
X0212045Y0100740D01*
X0212010Y0100799D01*
X0211971Y0100855D01*
X0211929Y0100910D01*
X0211884Y0100961D01*
X0211836Y0101011D01*
X0211786Y0101057D01*
X0211733Y0101100D01*
X0211677Y0101141D01*
X0211620Y0101178D01*
X0211560Y0101211D01*
X0211498Y0101242D01*
X0211435Y0101268D01*
X0211371Y0101291D01*
X0211305Y0101311D01*
X0211238Y0101326D01*
X0211171Y0101338D01*
X0211103Y0101346D01*
X0211034Y0101350D01*
X0210966Y0101350D01*
X0210897Y0101346D01*
X0210829Y0101338D01*
X0210762Y0101326D01*
X0210695Y0101311D01*
X0210629Y0101291D01*
X0210565Y0101268D01*
X0210502Y0101242D01*
X0210440Y0101211D01*
X0210380Y0101178D01*
X0210323Y0101141D01*
X0210267Y0101100D01*
X0210214Y0101057D01*
X0210164Y0101011D01*
X0210116Y0100961D01*
X0210071Y0100910D01*
X0210029Y0100855D01*
X0209990Y0100799D01*
X0209955Y0100740D01*
X0209923Y0100679D01*
X0209895Y0100617D01*
X0209870Y0100553D01*
X0209849Y0100488D01*
X0209831Y0100422D01*
X0209818Y0100355D01*
X0209808Y0100287D01*
X0209802Y0100219D01*
X0209800Y0100150D01*
X0126000Y0063750D02*
X0126000Y0058750D01*
X0123500Y0056250D01*
X0126000Y0053750D01*
X0126000Y0048750D01*
X0123500Y0046250D01*
X0118500Y0046250D01*
X0116000Y0048750D01*
X0116000Y0053750D01*
X0118500Y0056250D01*
X0116000Y0058750D01*
X0116000Y0063750D01*
X0118500Y0066250D01*
X0123500Y0066250D01*
X0126000Y0063750D01*
X0123500Y0056250D02*
X0118500Y0056250D01*
D11*
X0135094Y0096250D02*
X0146906Y0096250D01*
X0166551Y0101250D02*
X0185449Y0101250D01*
X0198189Y0084222D02*
X0221661Y0084222D01*
X0221661Y0068278D02*
X0198189Y0068278D01*
X0247378Y0092628D02*
X0294622Y0092628D01*
X0294622Y0139872D02*
X0247378Y0139872D01*
X0256000Y0195344D02*
X0256000Y0207156D01*
X0241394Y0238888D02*
X0241394Y0269636D01*
X0260606Y0269636D02*
X0260606Y0242864D01*
X0204661Y0301250D02*
X0196591Y0301250D01*
X0196591Y0298297D02*
X0182811Y0298297D01*
X0182811Y0304203D01*
X0196591Y0304203D01*
X0196591Y0298297D01*
X0185764Y0304203D02*
X0182811Y0301250D01*
X0174740Y0301250D01*
X0162594Y0329852D02*
X0199406Y0329852D01*
X0199406Y0362648D01*
X0162594Y0362648D01*
X0162594Y0329852D01*
X0232614Y0336644D02*
X0263362Y0336644D01*
X0259386Y0355856D02*
X0232614Y0355856D01*
X0193087Y0246250D02*
X0178913Y0246250D01*
X0176984Y0242234D01*
X0176984Y0242235D02*
X0176939Y0242014D01*
X0176899Y0241792D01*
X0176865Y0241569D01*
X0176836Y0241345D01*
X0176813Y0241121D01*
X0176795Y0240896D01*
X0176782Y0240671D01*
X0176776Y0240445D01*
X0176774Y0240220D01*
X0176778Y0239994D01*
X0176788Y0239769D01*
X0176803Y0239544D01*
X0176824Y0239319D01*
X0176850Y0239095D01*
X0176882Y0238872D01*
X0176919Y0238649D01*
X0176961Y0238428D01*
X0177009Y0238208D01*
X0177062Y0237988D01*
X0177121Y0237771D01*
X0177185Y0237554D01*
X0177254Y0237340D01*
X0177329Y0237127D01*
X0177408Y0236916D01*
X0177493Y0236707D01*
X0177583Y0236500D01*
X0177678Y0236295D01*
X0177777Y0236093D01*
X0177882Y0235893D01*
X0177992Y0235696D01*
X0178106Y0235502D01*
X0178225Y0235310D01*
X0178349Y0235122D01*
X0178477Y0234936D01*
X0178610Y0234754D01*
X0178747Y0234575D01*
X0178889Y0234399D01*
X0179035Y0234227D01*
X0179184Y0234059D01*
X0179339Y0233894D01*
X0179497Y0233733D01*
X0179658Y0233576D01*
X0179824Y0233423D01*
X0179994Y0233274D01*
X0180167Y0233129D01*
X0180343Y0232989D01*
X0180523Y0232853D01*
X0180706Y0232721D01*
X0180892Y0232594D01*
X0181082Y0232471D01*
X0181274Y0232353D01*
X0181469Y0232240D01*
X0181667Y0232132D01*
X0181867Y0232028D01*
X0182070Y0231930D01*
X0182275Y0231836D01*
X0182483Y0231748D01*
X0182692Y0231664D01*
X0182904Y0231586D01*
X0183117Y0231513D01*
X0183332Y0231445D01*
X0183549Y0231383D01*
X0183767Y0231325D01*
X0183986Y0231273D01*
X0184207Y0231227D01*
X0184429Y0231186D01*
X0184652Y0231150D01*
X0184875Y0231120D01*
X0185099Y0231095D01*
X0185324Y0231076D01*
X0185549Y0231062D01*
X0185774Y0231054D01*
X0186000Y0231051D01*
X0186226Y0231054D01*
X0186451Y0231062D01*
X0186676Y0231076D01*
X0186901Y0231095D01*
X0187125Y0231120D01*
X0187348Y0231150D01*
X0187571Y0231186D01*
X0187793Y0231227D01*
X0188014Y0231273D01*
X0188233Y0231325D01*
X0188451Y0231383D01*
X0188668Y0231445D01*
X0188883Y0231513D01*
X0189096Y0231586D01*
X0189308Y0231664D01*
X0189517Y0231748D01*
X0189725Y0231836D01*
X0189930Y0231930D01*
X0190133Y0232028D01*
X0190333Y0232132D01*
X0190531Y0232240D01*
X0190726Y0232353D01*
X0190918Y0232471D01*
X0191108Y0232594D01*
X0191294Y0232721D01*
X0191477Y0232853D01*
X0191657Y0232989D01*
X0191833Y0233129D01*
X0192006Y0233274D01*
X0192176Y0233423D01*
X0192342Y0233576D01*
X0192503Y0233733D01*
X0192661Y0233894D01*
X0192816Y0234059D01*
X0192965Y0234227D01*
X0193111Y0234399D01*
X0193253Y0234575D01*
X0193390Y0234754D01*
X0193523Y0234936D01*
X0193651Y0235122D01*
X0193775Y0235310D01*
X0193894Y0235502D01*
X0194008Y0235696D01*
X0194118Y0235893D01*
X0194223Y0236093D01*
X0194322Y0236295D01*
X0194417Y0236500D01*
X0194507Y0236707D01*
X0194592Y0236916D01*
X0194671Y0237127D01*
X0194746Y0237340D01*
X0194815Y0237554D01*
X0194879Y0237771D01*
X0194938Y0237988D01*
X0194991Y0238208D01*
X0195039Y0238428D01*
X0195081Y0238649D01*
X0195118Y0238872D01*
X0195150Y0239095D01*
X0195176Y0239319D01*
X0195197Y0239544D01*
X0195212Y0239769D01*
X0195222Y0239994D01*
X0195226Y0240220D01*
X0195224Y0240445D01*
X0195218Y0240671D01*
X0195205Y0240896D01*
X0195187Y0241121D01*
X0195164Y0241345D01*
X0195135Y0241569D01*
X0195101Y0241792D01*
X0195061Y0242014D01*
X0195016Y0242235D01*
X0195016Y0242234D02*
X0193087Y0246250D01*
X0201256Y0191376D02*
X0179484Y0191376D01*
X0180744Y0181124D02*
X0201256Y0181124D01*
D12*
X0191000Y0218250D02*
X0171000Y0218250D01*
X0171000Y0221250D01*
X0170000Y0221250D01*
X0171000Y0221250D02*
X0171000Y0224250D01*
X0191000Y0224250D01*
X0191000Y0221250D01*
X0192000Y0221250D01*
X0191000Y0221250D02*
X0191000Y0218250D01*
X0196000Y0258250D02*
X0176000Y0258250D01*
X0176000Y0261250D01*
X0175000Y0261250D01*
X0176000Y0261250D02*
X0176000Y0264250D01*
X0196000Y0264250D01*
X0196000Y0261250D01*
X0197000Y0261250D01*
X0196000Y0261250D02*
X0196000Y0258250D01*
X0233000Y0296250D02*
X0236000Y0296250D01*
X0236000Y0295250D01*
X0236000Y0296250D02*
X0239000Y0296250D01*
X0239000Y0316250D01*
X0236000Y0316250D01*
X0236000Y0317250D01*
X0236000Y0316250D02*
X0233000Y0316250D01*
X0233000Y0296250D01*
X0268000Y0296250D02*
X0268000Y0316250D01*
X0271000Y0316250D01*
X0271000Y0317250D01*
X0271000Y0316250D02*
X0274000Y0316250D01*
X0274000Y0296250D01*
X0271000Y0296250D01*
X0271000Y0295250D01*
X0271000Y0296250D02*
X0268000Y0296250D01*
X0197000Y0316250D02*
X0196000Y0316250D01*
X0196000Y0313250D01*
X0176000Y0313250D01*
X0176000Y0316250D01*
X0175000Y0316250D01*
X0176000Y0316250D02*
X0176000Y0319250D01*
X0196000Y0319250D01*
X0196000Y0316250D01*
X0094000Y0281250D02*
X0094000Y0261250D01*
X0091000Y0261250D01*
X0091000Y0260250D01*
X0091000Y0261250D02*
X0088000Y0261250D01*
X0088000Y0281250D01*
X0091000Y0281250D01*
X0091000Y0282250D01*
X0091000Y0281250D02*
X0094000Y0281250D01*
X0086000Y0232250D02*
X0086000Y0231250D01*
X0089000Y0231250D01*
X0089000Y0211250D01*
X0086000Y0211250D01*
X0086000Y0210250D01*
X0086000Y0211250D02*
X0083000Y0211250D01*
X0083000Y0231250D01*
X0086000Y0231250D01*
X0086000Y0182250D02*
X0086000Y0181250D01*
X0089000Y0181250D01*
X0089000Y0161250D01*
X0086000Y0161250D01*
X0086000Y0160250D01*
X0086000Y0161250D02*
X0083000Y0161250D01*
X0083000Y0181250D01*
X0086000Y0181250D01*
X0086000Y0127250D02*
X0086000Y0126250D01*
X0089000Y0126250D01*
X0089000Y0106250D01*
X0086000Y0106250D01*
X0086000Y0105250D01*
X0086000Y0106250D02*
X0083000Y0106250D01*
X0083000Y0126250D01*
X0086000Y0126250D01*
X0086000Y0082250D02*
X0086000Y0081250D01*
X0089000Y0081250D01*
X0089000Y0061250D01*
X0086000Y0061250D01*
X0086000Y0060250D01*
X0086000Y0061250D02*
X0083000Y0061250D01*
X0083000Y0081250D01*
X0086000Y0081250D01*
M02*
